<svg xmlns:xlink="http://www.w3.org/1999/xlink"  xmlns="http://www.w3.org/2000/svg" width="37" height="38" fill="none" viewBox="0 0 37 38">
  <path fill="#0F0099" d="m36.688 19.332-5.37 5.201-.012 7.729h-7.591l-5.346 5.373-5.338-5.364H5.358v-7.57L0 19.32l5.352-5.43V6.348h7.581L18.331.904l5.282 5.422s5.086.01 7.491.01h.208v.308c0 2.303-.013 7.396-.013 7.396s5.34 5.23 5.389 5.292Zm-30.63-5.085-5.072 5.07 5.071 5.07v7.185l7.253.003s4.146 4.188 5.024 5.063c.218-.214 5.08-5.074 5.08-5.074s4.704.007 6.928.007h.255V24.29s2.867-2.752 4.174-4.056c.302-.302.61-.598.919-.9l-5.108-5.115V7.064c-.091-.004-.155-.01-.22-.01-2.128 0-7.085.006-7.085.006s-2.534-2.687-3.695-3.847l-1.236-1.24-5.095 5.075-6.976.004c-.07 0-.137.012-.218.02v7.175Z"/>
  <path fill="#0F0099" d="M23.279 14.386c.232.284.476.56.695.856.592.79.991 1.706 1.168 2.677.08.442.128.89.192 1.359l5.148-3.762 1.813 1.875-4.079 1.919 4.078 1.911-1.81 1.877-5.182-3.786c-.044 1.92-.716 3.53-2.03 4.916l6.302.975v2.613l-4.254-1.53c.512 1.418 1.007 2.794 1.523 4.213-.877.07-1.734.043-2.602.063-.327-2.11-.65-4.202-.98-6.322-.153.133-.293.257-.435.376a6.962 6.962 0 0 1-3.574 1.584 6.861 6.861 0 0 1-3.137-.298 6.84 6.84 0 0 1-2.708-1.676l.003.003c-.356-.459-.746-.897-1.062-1.383a5.333 5.333 0 0 1-.794-1.994c-.081-.473-.11-.956-.162-1.434-.003-.022-.011-.044-.026-.105l-5.182 3.785-1.813-1.875 4.078-1.916-4.075-1.913 1.806-1.88 5.193 3.79c.01-.1.023-.176.025-.253.022-1.422.48-2.696 1.313-3.838.213-.292.457-.56.687-.84.384-.3.749-.626 1.152-.895 1.081-.72 2.28-1.083 3.582-1.116a6.862 6.862 0 0 1 3.58.87 6.423 6.423 0 0 1 1.482 1.103c.027.022.057.04.088.055l-.003-.004Zm1.188 5.802c.503-3.07-1.565-6.388-5.097-6.998-3.548-.613-6.947 1.952-7.232 5.655a6.207 6.207 0 0 0 1.62 4.667 6.2 6.2 0 0 0 4.516 2.002c1.888.026 3.471-.723 4.736-2.123.36-.396.656-.845.877-1.332h-2.138c-.716.845-1.618 1.395-2.728 1.569-1.11.173-2.151-.042-3.087-.657-1-.658-1.631-1.58-1.887-2.783h10.42Z"/>
  <path fill="#0F0099" d="m16.41 33.253-1.87-1.814 3.79-5.178c1.27 1.734 2.527 3.45 3.793 5.182-.624.604-1.239 1.2-1.876 1.813l-1.89-4.016-.055-.002-1.892 4.015ZM14.535 7.172l1.878-1.808 1.89 4.017h.055l1.889-4.017 1.88 1.81-3.795 5.18-3.797-5.182Zm8.745 7.218c.054-.407.103-.816.165-1.22a531.943 531.943 0 0 1 .791-5.085h2.614l-1.508 4.174.032.048 4.202-1.511v2.61c-.137.025-.281.057-.426.079-.923.142-1.847.283-2.77.422l-2.735.417c-.123.018-.245.04-.368.061l.002.005Zm-9.873 9.836-.497 3.23c-.16 1.024-.32 2.045-.483 3.065H9.815l1.528-4.234-4.229 1.521-.055-2.601.825-.125 3.514-.537c.672-.104 1.341-.211 2.012-.316l-.003-.003Zm-.011-9.85c-.384-.054-.766-.105-1.148-.163-1.007-.155-2.01-.314-3.016-.47-.653-.1-1.306-.198-1.96-.299-.063-.01-.125-.027-.174-.039V10.8l4.244 1.527L9.814 8.09h2.615l.967 6.287ZM33.729 19.3a1.26 1.26 0 0 1-1.285 1.288 1.28 1.28 0 0 1-.906-2.186 1.296 1.296 0 0 1 1.406-.29 1.272 1.272 0 0 1 .785 1.188Z"/>
  <path fill="#0F0099" d="M29.588 9.35c.024.712-.565 1.262-1.265 1.273-.7.01-1.3-.584-1.296-1.278a1.29 1.29 0 0 1 1.328-1.296c.7.008 1.238.574 1.233 1.301ZM9.633 29.27c.006.72-.556 1.283-1.285 1.29a1.273 1.273 0 0 1-1.285-1.253c-.01-.723.522-1.298 1.283-1.312a1.275 1.275 0 0 1 1.287 1.276Zm-6.699-9.967c-.023-.736.576-1.28 1.256-1.284.762-.005 1.302.55 1.305 1.297.004.702-.539 1.273-1.29 1.271-.726-.001-1.27-.551-1.27-1.284ZM19.61 33.399c.024.72-.553 1.274-1.243 1.301a1.283 1.283 0 0 1-1.32-1.264c-.005-.72.54-1.291 1.24-1.3.764-.01 1.313.515 1.323 1.263Zm9.981-4.093c.008.737-.623 1.278-1.32 1.255a1.276 1.276 0 0 1-1.243-1.34c.02-.693.627-1.25 1.337-1.23a1.272 1.272 0 0 1 1.226 1.315Zm-9.985-24.11c.006.714-.551 1.305-1.264 1.3a1.278 1.278 0 0 1-1.295-1.291c-.006-.668.542-1.287 1.277-1.277.724.01 1.275.538 1.282 1.268ZM9.631 9.337c.004.712-.568 1.274-1.304 1.282-.686.007-1.267-.579-1.268-1.28a1.288 1.288 0 0 1 .797-1.193 1.284 1.284 0 0 1 1.775 1.191Zm12.95 9.051h-8.515c.288-1.672 1.87-3.428 4.222-3.454 2.393-.023 4.048 1.8 4.293 3.454Z"/>
</svg>
