<svg xmlns:xlink="http://www.w3.org/1999/xlink"  width="137" height="97" viewBox="0 0 137 97" fill="none" xmlns="http://www.w3.org/2000/svg">
<path d="M66.3938 0.0902858C72.2928 -0.410912 78.351 1.18815 83.2257 4.54936C88.4724 8.10746 92.3447 13.6405 93.8543 19.8001C95.6105 26.6995 94.3555 34.2911 90.4692 40.2557C86.6008 46.3039 80.141 50.6238 73.0585 51.833C65.5784 53.1994 57.5612 51.0772 51.7517 46.1687C47.1991 42.3818 43.9831 37.0119 42.8634 31.1904C41.9047 26.433 42.3323 21.4091 44.0547 16.8725C45.9899 11.7133 49.6315 7.2244 54.2497 4.22517C57.8675 1.86039 62.0839 0.418451 66.3938 0.0902858ZM66.6404 3.88308C64.395 6.79878 62.1654 9.8895 61.2287 13.5033C59.387 12.9882 57.4598 12.8151 55.5504 12.8788C52.9609 13.0061 50.3694 13.2587 47.8276 13.7817C47.3761 13.7638 47.4219 14.3088 47.5452 14.5992C48.2274 16.5045 49.013 18.3741 49.902 20.1939C50.9661 22.3379 52.1992 24.4461 53.9434 26.1128C51.2525 28.7481 49.7011 32.2724 48.2791 35.6972C47.9668 36.5763 47.4835 37.4256 47.4557 38.3782C50.1287 38.8914 52.8396 39.2891 55.5683 39.307C57.4657 39.3448 59.3949 39.2971 61.2187 38.7104C61.7995 41.0374 62.9908 43.1496 64.2995 45.1364C65.5883 47.006 66.9189 48.8676 68.5 50.5024C69.5064 49.5756 70.292 48.4439 71.1373 47.3759C73.0764 44.7287 75.0057 41.9403 75.8012 38.7084C78.1899 39.4761 80.7317 39.3309 83.2038 39.2513C85.3359 39.0982 87.4561 38.7939 89.5523 38.3862C89.5225 37.2565 88.9159 36.2541 88.5519 35.2079C87.1717 31.9502 85.6601 28.5989 83.0646 26.1148C84.2898 24.9712 85.2564 23.5889 86.0917 22.145C87.3427 19.9652 88.3391 17.6501 89.2262 15.3032C89.3853 14.8557 89.604 14.4003 89.5384 13.911C89.2918 13.7976 89.0273 13.734 88.7647 13.6823C86.2786 13.2348 83.7607 12.9723 81.2368 12.8708C79.4051 12.833 77.5594 13.0061 75.7933 13.5053C75.0613 10.4742 73.2932 7.83499 71.4953 5.33695C70.5466 4.09589 69.6377 2.80908 68.504 1.72713C67.8099 2.38148 67.2351 3.14322 66.6404 3.88308ZM70.831 1.90017C70.7514 2.13088 70.7256 2.37551 70.6898 2.61815C71.181 2.7355 71.6783 2.825 72.1795 2.90256C77.2153 3.67425 81.9548 6.17029 85.491 9.82983C86.1991 10.5419 86.7779 11.3692 87.46 12.1051C87.8141 12.5128 88.3789 11.952 88.1064 11.5462C87.5674 10.6672 86.8296 9.92928 86.1295 9.17947C82.4282 5.29121 77.3903 2.72555 72.084 1.93795C71.6703 1.88028 71.2447 1.80868 70.831 1.90017ZM48.657 11.8983C48.7624 12.0435 48.9712 12.3338 49.0766 12.477C49.365 12.2861 49.6534 12.0852 49.8622 11.8048C53.2672 7.3139 58.3707 4.15954 63.8938 3.06764C64.7092 2.87074 65.6261 2.92444 66.3202 2.38148C66.0696 2.21441 65.9026 1.76094 65.5406 1.86039C58.85 2.65196 52.5174 6.35924 48.657 11.8983ZM62.6289 6.00124C59.4228 6.94994 56.4494 8.67231 54.025 10.9734C53.7445 11.2221 53.5735 11.5582 53.4183 11.8943C54.0667 11.8108 54.4764 11.2777 54.9398 10.88C57.2072 8.83738 59.9558 7.33975 62.8854 6.49647C63.1678 6.35526 63.7804 6.34531 63.5835 5.84412C63.2593 5.85605 62.9391 5.91174 62.6289 6.00124ZM73.3231 5.86003C73.4702 6.27371 73.8501 6.4368 74.2399 6.53028C77.3128 7.41732 80.1748 9.04423 82.4978 11.2459C82.81 11.5482 83.1601 11.8247 83.6036 11.9122C83.4564 11.5562 83.2734 11.2161 82.9851 10.9575C80.9524 9.01837 78.522 7.49887 75.8947 6.50641C75.0653 6.19814 74.2201 5.86997 73.3231 5.86003ZM58.5894 10.5697C58.0524 10.9317 57.3981 11.232 57.1913 11.9042C58.2831 11.5025 59.1384 10.6672 60.1965 10.1938C60.7752 9.83779 61.6046 9.74034 61.8711 9.02235C60.6738 9.27892 59.6237 9.94718 58.5894 10.5697ZM75.1429 9.25306C75.8967 9.80199 76.7817 10.1162 77.5753 10.5975C78.3629 11.0371 79.059 11.6318 79.8884 11.9977C79.7869 11.7372 79.7372 11.4309 79.4767 11.2777C78.7149 10.693 77.8756 10.2177 77.0383 9.75426C76.4496 9.4599 75.833 9.02632 75.1429 9.25306ZM89.976 16.2121C90.2266 17.2444 90.7178 18.1951 91.0082 19.2174C92.2811 23.3582 92.3885 27.8471 91.2847 32.0377C90.9823 33.3185 90.4513 34.5258 90.0476 35.7728C90.2067 35.8623 90.5269 36.0413 90.688 36.1308C91.3224 35.2935 91.5691 34.2553 91.9032 33.2787C93.5659 27.7994 93.2755 21.7134 90.9744 16.4568C90.8451 15.9417 90.3479 16.0789 89.976 16.2121ZM46.2325 36.1924C46.5249 36.1208 47.0977 36.2322 46.9823 35.7589C46.7576 34.8201 46.2803 33.9569 46.0336 33.0202C44.5678 28.2767 44.6573 23.0678 46.3101 18.382C46.5269 17.7456 46.8352 17.135 46.9445 16.4647C46.7178 16.3255 46.4771 16.2122 46.2266 16.1246C43.3228 22.3936 43.3904 29.9136 46.2325 36.1924ZM48.1359 31.0114C48.2393 31.3515 48.2731 31.7712 48.6271 31.9661C48.9135 31.6837 48.7524 31.3038 48.6967 30.9696C47.8813 27.7397 47.9191 24.3109 48.7286 21.0849C48.8698 20.713 48.8181 20.3928 48.4183 20.2396C47.3682 23.7182 47.3204 27.4792 48.1359 31.0114ZM88.2317 20.4465C88.2596 21.0591 88.4525 21.6438 88.5718 22.2405C89.0651 24.8459 89.0651 27.5448 88.538 30.1463C88.3948 30.7847 88.1641 31.4331 88.3391 32.0934C88.9517 31.4828 88.9815 30.5798 89.1546 29.7863C89.6697 26.6617 89.616 23.3681 88.6136 20.347C88.5181 20.3729 88.3272 20.4226 88.2317 20.4465ZM50.2779 28.6387C50.3833 28.6088 50.5981 28.5452 50.7035 28.5134C50.5663 27.2962 50.4708 26.0671 50.6061 24.8439C50.6439 24.3268 50.799 23.746 50.3952 23.3164C49.9159 25.0388 50.0392 26.8865 50.2779 28.6387ZM86.3403 23.6864C86.5272 25.1263 86.5412 26.5842 86.392 28.0281C86.3483 28.3503 86.5014 28.6466 86.5869 28.9489C87.2194 27.2703 86.9151 25.4167 86.8375 23.6685C86.7122 23.6744 86.4656 23.6824 86.3403 23.6864ZM48.8738 40.031C48.8837 40.3731 48.8718 40.751 49.1363 41.0155C53.1956 46.3139 59.5242 49.87 66.1909 50.4169C66.2486 50.1544 66.3063 49.8919 66.362 49.6313C65.5426 49.4086 64.6933 49.333 63.864 49.156C58.309 48.0661 53.2274 44.8461 49.7986 40.3532C49.6096 40.0012 49.2119 40.0409 48.8738 40.031ZM86.6088 41.1428C83.0726 45.4228 77.9552 48.3704 72.4798 49.2852C71.9269 49.3787 71.374 49.4762 70.835 49.6313C70.9106 49.8759 70.9822 50.1265 71.0876 50.3632C71.8294 50.4209 72.5573 50.2121 73.2833 50.0848C79.0789 48.9591 84.3972 45.6237 87.9732 40.9319C88.1581 40.6913 88.3113 40.4208 88.3093 40.1066C88.1323 39.8759 87.9115 39.8043 87.645 39.8938C87.2512 40.2677 86.9588 40.7311 86.6088 41.1428ZM57.064 40.3214C57.2549 40.6276 57.4796 40.92 57.7859 41.1209C58.9733 41.9463 60.2342 42.6861 61.6006 43.1754C61.6185 43.068 61.6563 42.8492 61.6742 42.7418C60.7016 42.3023 59.7311 41.8448 58.842 41.2502C58.2772 40.8902 57.7561 40.4089 57.064 40.3214ZM78.9993 40.7112C77.8597 41.5286 76.6266 42.2168 75.3279 42.7478C75.3318 42.8651 75.3398 43.1018 75.3438 43.2192C76.9945 42.5489 78.695 41.7653 79.9341 40.4506C79.596 40.4327 79.2619 40.4864 78.9993 40.7112ZM53.3885 40.393C53.5973 40.7549 53.846 41.099 54.1582 41.3794C56.6045 43.6507 59.5799 45.3552 62.7939 46.2701C63.132 46.4352 63.4662 46.2602 63.7904 46.1508C63.0604 45.7152 62.2172 45.5541 61.4335 45.2538C59.0608 44.3747 56.8472 43.0541 54.9617 41.3675C54.4844 40.9717 54.0926 40.3373 53.3885 40.393ZM81.8434 41.5803C79.5582 43.5612 76.8116 44.9952 73.9018 45.8087C73.6095 45.8544 73.4265 46.0434 73.4384 46.3616C73.7626 46.3755 74.0868 46.3238 74.3991 46.2323C77.5852 45.2796 80.5566 43.5871 82.9672 41.2919C83.2635 41.0314 83.4564 40.6813 83.5857 40.3114C82.8518 40.4884 82.3983 41.1249 81.8434 41.5803Z" fill="#00A886"/>
<path d="M68.7296 3.33214C69.2666 3.95665 69.7658 4.61099 70.2849 5.24942C69.7499 5.52786 69.2288 5.82818 68.7216 6.15436C68.7117 5.21362 68.7057 4.27288 68.7296 3.33214Z" fill="#00A886"/>
<path d="M66.7432 5.24741C67.2583 4.61495 67.7615 3.97453 68.2786 3.34406C68.2965 4.27286 68.2905 5.20167 68.2925 6.13048C67.7873 5.81226 67.2702 5.51989 66.7432 5.24741Z" fill="#00A886"/>
<path d="M64.7324 8.15916C65.2814 7.29201 65.8721 6.45469 66.4866 5.63329C67.1012 5.96941 67.8311 6.222 68.2408 6.82463C68.3761 7.98215 68.2547 9.15758 68.3005 10.3231C67.312 9.30675 66.0272 8.68423 64.7324 8.15916Z" fill="#00A886"/>
<path d="M68.7782 6.9539C69.0785 6.23989 69.9198 5.99128 70.5443 5.63329C71.1648 6.44873 71.7436 7.29599 72.2945 8.16115C70.9898 8.68025 69.711 9.32465 68.7165 10.339C68.7483 9.21128 68.629 8.07364 68.7782 6.9539Z" fill="#00A886"/>
<path d="M69.5646 10.1838C70.4297 9.42807 71.5077 8.98654 72.5559 8.547C73.061 9.36443 73.5205 10.2097 73.954 11.0709C71.9632 11.9778 69.8947 13.0717 68.7312 15.0109C68.7452 13.8394 68.6636 12.664 68.7631 11.4965C68.7929 10.9516 69.1807 10.5299 69.5646 10.1838Z" fill="#00A886"/>
<path d="M63.0713 11.0729C63.5029 10.2117 63.9663 9.36842 64.4774 8.55298C65.8617 9.14765 67.4707 9.73835 68.2185 11.1465C68.3816 12.4074 68.2364 13.6922 68.2861 14.9631C67.0888 13.0697 65.0641 11.954 63.0713 11.0729Z" fill="#00A886"/>
<path d="M62.8884 11.4906C64.9827 12.4433 67.3435 13.6366 68.1928 15.9318C68.4036 17.493 68.2485 19.0901 68.2584 20.6673C67.3237 17.6482 65.0205 15.1481 62.1406 13.8772C62.2858 13.0519 62.5722 12.2623 62.8884 11.4906Z" fill="#00A886"/>
<path d="M70.2491 13.8573C71.3669 12.7992 72.7631 12.1151 74.1493 11.4826C74.4636 12.2603 74.7341 13.0558 74.919 13.8752C72.0053 15.1362 69.6684 17.674 68.7615 20.7289C68.7137 19.3725 68.6879 18.0121 68.7475 16.6557C68.7674 15.5419 69.4675 14.5892 70.2491 13.8573Z" fill="#00A886"/>
<path d="M51.7942 14.096C52.8145 14.0005 53.8348 13.9051 54.8551 13.8275C54.6601 15.2177 54.5687 16.6457 54.9386 18.0201C54.0834 17.5089 53.2023 17.0435 52.355 16.5224C51.472 16.063 51.7723 14.9015 51.7942 14.096Z" fill="#00A886"/>
<path d="M82.2071 13.8294C83.2235 13.909 84.2398 13.9865 85.2521 14.1198C85.2621 14.8258 85.4649 15.6492 85.0294 16.2658C84.1145 16.952 83.0544 17.4154 82.0918 18.0299C82.4776 16.6556 82.3543 15.2276 82.2071 13.8294Z" fill="#00A886"/>
<path d="M55.3356 13.8076C56.2823 13.8335 57.2708 13.6923 58.1877 13.9767C57.9768 16.1128 57.9748 18.3682 58.9514 20.3371C58.0246 19.7822 57.0699 19.2731 56.151 18.7043C55.8249 18.5054 55.5405 18.223 55.4191 17.853C54.9378 16.5543 55.1327 15.1402 55.3356 13.8076Z" fill="#00A886"/>
<path d="M58.6504 13.927C59.4758 14.0463 60.2992 14.2034 61.0967 14.454C60.7348 17.5785 61.7948 20.7488 63.8215 23.1315C62.6839 22.497 61.5502 21.8546 60.4344 21.1824C59.804 20.8204 59.3545 20.2178 59.0979 19.5495C58.3799 17.7715 58.4237 15.7985 58.6504 13.927Z" fill="#00A886"/>
<path d="M75.9313 14.452C76.7269 14.2014 77.5483 14.0483 78.3737 13.927C78.5885 15.6632 78.6342 17.4711 78.0774 19.1517C77.8049 19.9035 77.421 20.6852 76.707 21.1108C75.5316 21.8487 74.2945 22.4811 73.123 23.227C73.8569 22.3001 74.557 21.3335 75.0304 20.2436C75.8558 18.4417 76.1044 16.415 75.9313 14.452Z" fill="#00A886"/>
<path d="M78.8381 13.8692C79.7908 13.8175 80.7454 13.7837 81.7021 13.8056C81.9089 15.1401 82.0959 16.5562 81.6245 17.8569C81.4813 18.3422 81.0378 18.6227 80.6281 18.8653C79.7768 19.3645 78.9117 19.8418 78.0664 20.349C79.0867 18.3542 79.0589 16.0431 78.8381 13.8692Z" fill="#00A886"/>
<path d="M48.8906 14.5295C49.6981 14.3943 50.5076 14.2531 51.321 14.1497C51.2912 14.7463 51.2852 15.343 51.3091 15.9396C50.5096 15.4583 49.6961 14.9989 48.8906 14.5295Z" fill="#00A886"/>
<path d="M85.709 14.1477C86.5244 14.2531 87.3339 14.3864 88.1374 14.5555C87.322 14.999 86.5165 15.4624 85.7189 15.9397C85.7368 15.3411 85.7329 14.7444 85.709 14.1477Z" fill="#00A886"/>
<path d="M62.007 14.8318C63.5762 15.6313 65.0162 16.7332 66.0146 18.2009C67.4108 20.2495 68.1407 22.7634 68.0055 25.2416C65.3364 23.8394 63.1665 21.3792 62.3431 18.4555C62.0428 17.2741 61.8976 16.047 62.007 14.8318Z" fill="#00A886"/>
<path d="M72 17.0018C72.8592 16.0869 73.9312 15.4127 75.0331 14.826C75.2339 17.3498 74.4981 19.9314 72.9388 21.9302C71.8668 23.2847 70.5561 24.48 68.9988 25.2537C68.8994 22.2664 69.9216 19.1836 72 17.0018Z" fill="#00A886"/>
<path d="M48.6562 14.9293C49.4737 15.3888 50.2792 15.8681 51.1026 16.3156C50.5735 16.59 50.0584 16.8923 49.5592 17.2185C49.245 16.4608 48.9426 15.697 48.6562 14.9293Z" fill="#00A886"/>
<path d="M85.9229 16.3156C86.7403 15.8681 87.5398 15.3908 88.3533 14.9393C88.0768 15.707 87.7785 16.4668 87.4622 17.2206C86.963 16.8964 86.4499 16.5921 85.9229 16.3156Z" fill="#00A886"/>
<path d="M49.7578 17.6561C50.3644 17.2862 50.981 16.6696 51.7427 16.7651C52.7909 17.2126 53.7316 17.8788 54.732 18.4218C53.3477 18.744 52.1703 19.5614 51.0585 20.4067C50.5991 19.5018 50.1576 18.5889 49.7578 17.6561Z" fill="#00A886"/>
<path d="M84.8614 16.948C85.6709 16.417 86.6076 17.121 87.2023 17.67C86.9298 18.6406 86.4048 19.5137 85.9771 20.4186C84.8813 19.5694 83.7078 18.7877 82.3594 18.4079C83.1828 17.9047 84.0141 17.4114 84.8614 16.948Z" fill="#00A886"/>
<path d="M51.2666 20.8383C52.4221 19.9492 53.6672 18.9468 55.1827 18.8633C56.4974 19.2233 57.5475 20.1879 58.7925 20.7289C56.5312 20.8283 54.5304 22.0038 52.7483 23.3005C52.2213 22.499 51.7221 21.6796 51.2666 20.8383Z" fill="#00A886"/>
<path d="M81.336 19.0085C81.8153 18.7539 82.3722 18.8991 82.8615 19.0543C83.9394 19.4361 84.8623 20.1382 85.7573 20.8343C85.2998 21.6816 84.8086 22.5109 84.2616 23.3045C82.4995 21.9859 80.4887 20.8303 78.2373 20.7289C79.3014 20.2138 80.2739 19.5276 81.336 19.0085Z" fill="#00A886"/>
<path d="M53.0439 23.6744C54.7206 22.4552 56.61 21.246 58.754 21.2221C59.5277 21.1764 60.2178 21.5682 60.8622 21.948C61.8189 22.501 62.7616 23.0797 63.7481 23.5809C61.8248 23.2527 59.8121 23.2567 57.9485 23.8773C56.7711 24.2392 55.709 24.8737 54.6689 25.5161C54.0881 24.9373 53.5392 24.3267 53.0439 23.6744Z" fill="#00A886"/>
<path d="M76.7769 21.608C77.6361 21.0988 78.6882 21.1645 79.6269 21.3852C81.2359 21.7909 82.658 22.6999 83.9786 23.6744C83.4913 24.3387 82.9325 24.9453 82.3398 25.5161C80.9953 24.6331 79.5374 23.8793 77.9424 23.5809C76.405 23.2448 74.8158 23.3403 73.2725 23.577C74.4757 22.9883 75.5995 22.2484 76.7769 21.608Z" fill="#00A886"/>
<path d="M55.5049 26.0989C59.0113 23.5969 63.9596 23.8077 67.5038 26.1148C63.9556 28.41 58.9874 28.6606 55.5049 26.0989Z" fill="#00A886"/>
<path d="M69.8672 25.902C71.8302 24.7186 74.1712 24.1816 76.4544 24.3228C78.2762 24.3924 80.0065 25.1184 81.5221 26.0949C78.1847 28.5532 73.4492 28.4358 69.9527 26.3754C69.7558 26.3197 69.5371 25.9736 69.8672 25.902Z" fill="#00A886"/>
<path d="M53.0439 28.5651C53.5352 27.8889 54.102 27.2743 54.7106 26.7035C56.6379 28.0759 58.9708 28.9132 61.3515 28.8655C62.1311 28.8595 62.9048 28.7402 63.6825 28.6785C62.2684 29.3766 60.9895 30.3511 59.5138 30.92C57.1072 31.3118 54.9135 29.8997 53.0439 28.5651Z" fill="#00A886"/>
<path d="M73.3467 28.6605C76.4573 29.2532 79.7668 28.5949 82.3305 26.7094C82.9311 27.2803 83.4959 27.8888 83.9872 28.5591C82.2509 29.8161 80.268 31.0929 78.0365 30.9835C77.4577 30.9935 76.9426 30.6952 76.4473 30.4326C75.4091 29.8499 74.3968 29.2214 73.3467 28.6605Z" fill="#00A886"/>
<path d="M63.7256 30.8025C64.8235 29.2154 66.2893 27.8729 68.0037 26.9799C68.1409 29.6092 67.3255 32.2902 65.7403 34.3944C64.7737 35.6931 63.4412 36.6657 62.0052 37.3857C61.8163 35.0806 62.405 32.7078 63.7256 30.8025Z" fill="#00A886"/>
<path d="M68.9983 26.97C71.2836 28.1514 73.173 30.1184 74.2251 32.4673C74.9133 34.0067 75.146 35.7191 75.0326 37.3957C73.8075 36.7613 72.638 35.9796 71.7291 34.9295C69.8357 32.7636 68.9069 29.828 68.9983 26.97Z" fill="#00A886"/>
<path d="M51.2891 31.3972C51.7346 30.546 52.2398 29.7285 52.7728 28.929C54.5329 30.2258 56.5238 31.3555 58.7474 31.5205C57.5878 32.0774 56.5596 32.9028 55.3484 33.3483C53.7811 33.3742 52.4784 32.2962 51.2891 31.3972Z" fill="#00A886"/>
<path d="M73.1016 29.0066C74.2511 29.7206 75.4524 30.3471 76.604 31.0551C77.5149 31.5782 77.9584 32.6104 78.219 33.583C78.6128 35.1263 78.5591 36.7413 78.3602 38.3105C77.5388 38.1912 76.7273 38.0102 75.9278 37.7895C76.2699 34.6212 75.2217 31.3833 73.1016 29.0066Z" fill="#00A886"/>
<path d="M78.2822 31.5206C80.5098 31.3635 82.5086 30.2397 84.2608 28.9271C84.8018 29.7226 85.3089 30.5421 85.7544 31.3953C84.5611 32.2923 83.2544 33.3802 81.6852 33.3444C80.476 32.8929 79.4497 32.0675 78.2822 31.5206Z" fill="#00A886"/>
<path d="M60.401 31.0651C61.5465 30.3472 62.7598 29.7445 63.8914 29.0027C61.817 31.4092 60.7391 34.6193 61.0871 37.7915C60.2856 38.0083 59.4741 38.1933 58.6527 38.3126C58.422 36.4053 58.3723 34.3866 59.138 32.5866C59.3966 31.9681 59.8162 31.4092 60.401 31.0651Z" fill="#00A886"/>
<path d="M68.7529 31.4828C69.6558 34.5497 72.0007 37.0835 74.9144 38.3604C74.7275 39.1778 74.457 39.9733 74.1348 40.747C72.12 39.8142 69.8746 38.6965 68.9378 36.5505C68.5042 34.9057 68.7807 33.1654 68.7529 31.4828Z" fill="#00A886"/>
<path d="M51.0625 31.8169C52.1723 32.6721 53.3597 33.4776 54.74 33.8118C53.6799 34.3508 52.7212 35.1045 51.5975 35.5103C50.8994 35.4188 50.3346 34.9454 49.7578 34.5815C50.1576 33.6447 50.6051 32.7278 51.0625 31.8169Z" fill="#00A886"/>
<path d="M62.1406 38.3584C65.0185 37.0795 67.3077 34.5835 68.2644 31.5763C68.2922 32.9168 68.2962 34.2593 68.2863 35.5998C68.2843 36.7812 67.4549 37.7438 66.6315 38.4996C65.5436 39.4861 64.215 40.1444 62.8865 40.7391C62.5722 39.9674 62.2858 39.1798 62.1406 38.3584Z" fill="#00A886"/>
<path d="M82.2734 33.8118C83.6676 33.4876 84.859 32.6662 85.9708 31.803C86.4362 32.7139 86.8658 33.6427 87.2775 34.5795C86.6649 34.9415 86.0623 35.5461 85.3045 35.4804C84.2404 35.029 83.3037 34.3289 82.2734 33.8118Z" fill="#00A886"/>
<path d="M55.9833 33.6387C56.9559 32.9903 58.014 32.4791 59.0004 31.8507C57.8966 33.8495 58.0537 36.1904 58.1373 38.3861C57.2045 38.412 56.2697 38.4319 55.3369 38.418C55.1619 37.2863 55.0008 36.1208 55.2395 34.9851C55.3449 34.48 55.5139 33.9251 55.9833 33.6387Z" fill="#00A886"/>
<path d="M78.0469 31.8726C79.0572 32.5031 80.1412 33.0162 81.1197 33.6964C81.5115 33.951 81.6527 34.4204 81.7621 34.85C82.0405 36.0254 81.8814 37.2426 81.6965 38.42C80.7339 38.4379 79.7712 38.428 78.8166 38.3027C79.0731 36.1487 79.0731 33.8436 78.0469 31.8726Z" fill="#00A886"/>
<path d="M51.9838 35.9835C52.8868 35.2795 53.9588 34.824 54.9234 34.2055C54.5733 35.5599 54.637 36.966 54.8418 38.3384C53.8136 38.3125 52.7873 38.2648 51.769 38.1196C51.769 37.4175 51.5582 36.6001 51.9838 35.9835Z" fill="#00A886"/>
<path d="M82.0918 34.1976C83.0524 34.8221 84.1284 35.2775 85.0334 35.9836C85.457 36.6041 85.2581 37.4176 85.2422 38.1236C84.2279 38.2628 83.2036 38.3146 82.1793 38.3364C82.3782 36.9641 82.4518 35.552 82.0918 34.1976Z" fill="#00A886"/>
<path d="M48.6562 37.2963C48.9466 36.5306 49.245 35.7688 49.5632 35.015C50.0664 35.3313 50.5775 35.6376 51.0986 35.9239C50.2712 36.3575 49.4737 36.8468 48.6562 37.2963Z" fill="#00A886"/>
<path d="M85.9453 35.9318C86.4624 35.6395 86.9716 35.3312 87.4728 35.011C87.787 35.7648 88.0893 36.5225 88.3658 37.2922C87.5543 36.8467 86.7667 36.3575 85.9453 35.9318Z" fill="#00A886"/>
<path d="M48.8701 37.7099C49.6836 37.2346 50.507 36.7751 51.3105 36.2819C51.2846 36.8786 51.2906 37.4752 51.3224 38.0719C50.507 37.9386 49.6856 37.8471 48.8701 37.7099Z" fill="#00A886"/>
<path d="M85.7092 36.2799C86.5107 36.7732 87.3341 37.2326 88.1495 37.706C87.3361 37.8452 86.5147 37.9406 85.6992 38.0719C85.7271 37.4733 85.731 36.8766 85.7092 36.2799Z" fill="#00A886"/>
<path d="M63.126 41.1706C65.0671 40.2179 67.1097 39.1619 68.2851 37.2545C68.2752 38.3623 68.303 39.4681 68.2851 40.5759C68.3329 41.3118 67.7183 41.827 67.2091 42.2546C66.3937 42.887 65.4251 43.2749 64.4824 43.6766C63.9991 42.8612 63.4522 42.0676 63.126 41.1706Z" fill="#00A886"/>
<path d="M68.7315 37.2227C69.9149 39.142 71.9555 40.2696 73.9603 41.1547C73.5227 42.0159 73.0613 42.8651 72.5482 43.6826C71.5199 43.2391 70.4519 42.8114 69.5927 42.0716C69.2029 41.7275 68.8071 41.3078 68.7673 40.7629C68.6599 39.5855 68.7474 38.4021 68.7315 37.2227Z" fill="#00A886"/>
<path d="M64.7324 44.0764C66.0232 43.5414 67.31 42.9169 68.2945 41.8986C68.2448 43.072 68.392 44.2614 68.2249 45.4229C67.8092 46.0156 67.0912 46.2682 66.4667 46.5804C65.8621 45.763 65.2833 44.9297 64.7324 44.0764Z" fill="#00A886"/>
<path d="M68.732 41.8727C69.7125 42.9109 71.0093 43.5414 72.31 44.0784C71.7591 44.9296 71.1823 45.763 70.5777 46.5764C69.9472 46.2483 69.1357 46.0096 68.8056 45.3274C68.6286 44.1878 68.7658 43.0223 68.732 41.8727Z" fill="#00A886"/>
<path d="M66.7656 46.9722C67.2827 46.6957 67.7939 46.4053 68.2891 46.0931C68.2931 47.0219 68.301 47.9527 68.2732 48.8835C67.7601 48.255 67.2569 47.6185 66.7656 46.9722Z" fill="#00A886"/>
<path d="M68.7167 46.0712C69.2179 46.3934 69.741 46.6858 70.27 46.9622C69.7748 47.6206 69.2716 48.2729 68.7346 48.8974C68.7028 47.9547 68.7147 47.012 68.7167 46.0712Z" fill="#00A886"/>
<path d="M70.8238 1.90006C71.2375 1.80857 71.6631 1.88017 72.0768 1.93785C77.3832 2.72545 82.421 5.29111 86.1223 9.17937C86.8224 9.92918 87.5603 10.6671 88.0993 11.5461C88.3717 11.9519 87.8069 12.5127 87.4529 12.105C86.7707 11.3691 86.1919 10.5418 85.4839 9.82973C81.9476 6.17019 77.2081 3.67415 72.1723 2.90246C71.6711 2.82489 71.1739 2.73539 70.6826 2.61805C70.7184 2.37541 70.7443 2.13077 70.8238 1.90006Z" fill="#FDFEFE"/>
<path d="M48.6572 11.8981C52.5176 6.35911 58.8502 2.65183 65.5408 1.86026C65.9028 1.76081 66.0699 2.21428 66.3205 2.38135C65.6264 2.92431 64.7095 2.87061 63.894 3.06751C58.3709 4.15941 53.2675 7.31377 49.8625 11.8047C49.6537 12.0851 49.3653 12.286 49.0769 12.4769C48.9715 12.3337 48.7626 12.0433 48.6572 11.8981Z" fill="#FDFEFE"/>
<path d="M62.6295 6.00104C62.9397 5.91154 63.2599 5.85585 63.5841 5.84392C63.781 6.34512 63.1684 6.35506 62.886 6.49627C59.9564 7.33956 57.2078 8.83718 54.9404 10.8798C54.477 11.2775 54.0673 11.8106 53.4189 11.8941C53.5741 11.558 53.7451 11.2219 54.0256 10.9732C56.45 8.67211 59.4234 6.94974 62.6295 6.00104Z" fill="#FDFEFE"/>
<path d="M73.3164 5.85992C74.2134 5.86987 75.0587 6.19803 75.888 6.50631C78.5153 7.49876 80.9458 9.01827 82.9784 10.9574C83.2668 11.216 83.4498 11.5561 83.5969 11.9121C83.1534 11.8246 82.8034 11.5481 82.4911 11.2458C80.1681 9.04412 77.3061 7.41722 74.2333 6.53018C73.8435 6.4367 73.4636 6.27361 73.3164 5.85992Z" fill="#FDFEFE"/>
<path d="M58.5954 10.5695C59.6297 9.947 60.6798 9.27874 61.8771 9.02217C61.6106 9.74016 60.7812 9.83761 60.2025 10.1936C59.1444 10.667 58.2892 11.5023 57.1973 11.9041C57.4041 11.2318 58.0585 10.9315 58.5954 10.5695Z" fill="#FDFEFE"/>
<path d="M75.1475 9.253C75.8376 9.02627 76.4542 9.45985 77.0429 9.7542C77.8802 10.2176 78.7195 10.693 79.4812 11.2777C79.7418 11.4308 79.7915 11.7371 79.8929 11.9977C79.0636 11.6317 78.3675 11.037 77.5799 10.5975C76.7863 10.1162 75.9012 9.80193 75.1475 9.253Z" fill="#FDFEFE"/>
<path d="M89.9707 16.212C90.3426 16.0787 90.8398 15.9415 90.9691 16.4566C93.2703 21.7132 93.5606 27.7992 91.8979 33.2786C91.5638 34.2551 91.3172 35.2933 90.6827 36.1306C90.5216 36.0411 90.2014 35.8621 90.0423 35.7726C90.446 34.5256 90.9771 33.3184 91.2794 32.0375C92.3832 27.8469 92.2758 23.358 91.0029 19.2172C90.7126 18.1949 90.2213 17.2442 89.9707 16.212Z" fill="#FDFEFE"/>
<path d="M46.2339 36.1923C43.3918 29.9134 43.3242 22.3935 46.228 16.1245C46.4786 16.212 46.7192 16.3254 46.946 16.4646C46.8366 17.1349 46.5283 17.7454 46.3115 18.3819C44.6588 23.0677 44.5693 28.2766 46.0351 33.0201C46.2817 33.9568 46.759 34.82 46.9838 35.7587C47.0991 36.2321 46.5263 36.1207 46.2339 36.1923Z" fill="#FDFEFE"/>
<path d="M48.1283 31.0114C47.3129 27.4791 47.3606 23.7181 48.4107 20.2396C48.8105 20.3927 48.8622 20.7129 48.721 21.0849C47.9115 24.3108 47.8737 27.7396 48.6892 30.9696C48.7449 31.3037 48.906 31.6836 48.6196 31.966C48.2656 31.7711 48.2317 31.3515 48.1283 31.0114Z" fill="#FDFEFE"/>
<path d="M88.2363 20.4463C88.3318 20.4225 88.5227 20.3727 88.6182 20.3469C89.6206 23.368 89.6743 26.6616 89.1592 29.7861C88.9861 30.5797 88.9563 31.4826 88.3437 32.0932C88.1687 31.4329 88.3994 30.7845 88.5426 30.1461C89.0697 27.5447 89.0697 24.8457 88.5764 22.2403C88.4571 21.6436 88.2642 21.0589 88.2363 20.4463Z" fill="#FDFEFE"/>
<path d="M50.2799 28.6385C50.0412 26.8863 49.9179 25.0386 50.3973 23.3163C50.801 23.7459 50.6459 24.3266 50.6081 24.8437C50.4728 26.0669 50.5683 27.296 50.7055 28.5132C50.6001 28.545 50.3853 28.6087 50.2799 28.6385Z" fill="#FDFEFE"/>
<path d="M86.3418 23.6862C86.4671 23.6823 86.7137 23.6743 86.839 23.6684C86.9166 25.4166 87.2209 27.2702 86.5884 28.9488C86.5029 28.6465 86.3498 28.3502 86.3935 28.028C86.5427 26.584 86.5288 25.1262 86.3418 23.6862Z" fill="#FDFEFE"/>
<path d="M48.8711 40.0309C49.2092 40.0408 49.607 40.0011 49.7959 40.3531C53.2248 44.846 58.3063 48.066 63.8613 49.1559C64.6907 49.3329 65.5399 49.4085 66.3593 49.6312C66.3036 49.8918 66.246 50.1543 66.1883 50.4168C59.5216 49.8699 53.1929 46.3138 49.1336 41.0154C48.8691 40.7509 48.881 40.373 48.8711 40.0309Z" fill="#FDFEFE"/>
<path d="M86.6078 41.1426C86.9578 40.7309 87.2502 40.2675 87.644 39.8936C87.9105 39.8041 88.1313 39.8757 88.3083 40.1064C88.3103 40.4207 88.1571 40.6912 87.9722 40.9318C84.3962 45.6236 79.0779 48.959 73.2823 50.0847C72.5564 50.2119 71.8284 50.4208 71.0866 50.3631C70.9812 50.1264 70.9096 49.8758 70.834 49.6312C71.373 49.4761 71.9259 49.3786 72.4788 49.2851C77.9542 48.3702 83.0716 45.4227 86.6078 41.1426Z" fill="#FDFEFE"/>
<path d="M57.0693 40.3211C57.7615 40.4086 58.2826 40.8899 58.8474 41.2499C59.7364 41.8446 60.707 42.302 61.6796 42.7416C61.6617 42.849 61.6239 43.0678 61.606 43.1752C60.2396 42.6859 58.9787 41.946 57.7913 41.1206C57.485 40.9198 57.2603 40.6274 57.0693 40.3211Z" fill="#FDFEFE"/>
<path d="M79.0006 40.7111C79.2631 40.4863 79.5972 40.4326 79.9354 40.4505C78.6963 41.7652 76.9958 42.5488 75.345 43.219C75.341 43.1017 75.3331 42.865 75.3291 42.7477C76.6278 42.2166 77.8609 41.5285 79.0006 40.7111Z" fill="#FDFEFE"/>
<path d="M53.3877 40.3928C54.0918 40.3371 54.4836 40.9716 54.9609 41.3674C56.8464 43.0539 59.06 44.3745 61.4327 45.2536C62.2163 45.554 63.0596 45.7151 63.7895 46.1506C63.4654 46.26 63.1312 46.435 62.7931 46.2699C59.5791 45.3551 56.6037 43.6506 54.1574 41.3793C53.8451 41.0989 53.5965 40.7548 53.3877 40.3928Z" fill="#FDFEFE"/>
<path d="M81.8509 41.5802C82.4058 41.1247 82.8592 40.4883 83.5931 40.3113C83.4639 40.6812 83.2709 41.0313 82.9746 41.2918C80.5641 43.587 77.5927 45.2795 74.4065 46.2322C74.0942 46.3237 73.7701 46.3754 73.4459 46.3615C73.4339 46.0432 73.6169 45.8543 73.9093 45.8085C76.819 44.9951 79.5657 43.5611 81.8509 41.5802Z" fill="#FDFEFE"/>
<path d="M0.209662 56.9683C2.35566 56.1628 4.61304 58.2929 4.56531 60.4329C4.55537 64.6155 4.4957 68.7981 4.54542 72.9807C4.5673 74.2397 4.97104 75.5961 6.00725 76.3937C7.33184 77.3742 9.31277 77.3921 10.6274 76.3817C12.0057 75.3972 12.7138 73.7465 13.0399 72.1355C13.2587 70.5145 13.2408 68.7206 12.3001 67.3104C11.5304 66.143 10.174 65.5364 8.84141 65.2897C7.81713 65.0471 6.7491 65.1982 5.73279 64.9278C5.58561 64.341 5.47423 63.6966 5.76859 63.1338C6.38116 61.8569 7.88873 61.312 9.22526 61.2841C11.9918 61.1429 14.7384 62.7082 16.0511 65.1426C17.1211 67.1692 17.4274 69.534 17.2802 71.7993C17.0674 74.4187 16.2042 77.1474 14.1915 78.9434C11.8943 80.9661 8.61269 81.7437 5.62737 81.1709C3.78567 80.8229 2.09313 79.6912 1.12654 78.0782C0.352861 76.8591 0.00878578 75.4072 0.000830258 73.9732C-0.0031475 68.7305 0.00878469 63.4858 0.00281805 58.2431C0.00281805 57.8076 0.110218 57.3859 0.209662 56.9683Z" fill="#231F20"/>
<path d="M89.3138 61.4195C91.951 61.0814 94.8389 61.2882 97.0624 62.8912C99.64 64.6971 100.859 67.9311 100.851 70.9959C100.961 73.8341 100.153 76.8611 98.0569 78.8759C96.253 80.6619 93.6455 81.3858 91.1594 81.364C89.2183 81.3003 87.1956 80.7474 85.7736 79.3612C83.7449 77.4518 83.5361 74.1543 84.7751 71.7616C85.7497 69.906 87.8161 68.8539 89.8488 68.6729C91.2171 68.5894 92.5914 68.661 93.9618 68.6252C94.4312 68.6311 94.9224 68.5794 95.3779 68.7306C95.7756 69.007 95.7915 69.55 95.7359 69.9856C95.6006 71.0138 94.8448 71.8889 93.9101 72.2966C92.5596 72.8177 91.0481 72.3921 89.6936 72.8734C88.0727 73.4363 88.0667 76.0437 89.5504 76.7756C90.7637 77.4121 92.2633 77.2171 93.4665 76.6523C95.7577 75.5485 97.0823 72.9033 96.8337 70.4052C96.7681 68.7525 95.9387 67.05 94.3854 66.332C92.0743 65.256 89.445 65.5524 86.9729 65.5046C86.5989 65.4847 86.0878 65.4609 85.9366 65.0512C85.7119 64.1562 85.9724 63.1299 86.6626 62.5014C87.3786 61.8312 88.369 61.5706 89.3138 61.4195Z" fill="#231F20"/>
<path d="M25.9792 61.4612C27.7612 61.145 29.7601 61.1847 31.2955 62.2567C32.1825 62.8554 32.6937 64.1263 32.1964 65.1207C31.9081 65.6796 31.194 65.4449 30.6909 65.4747C28.5071 65.2918 26.2 65.779 24.4478 67.1414C23.326 68.0006 22.5762 69.3411 22.5106 70.7612C22.441 72.4637 22.9422 74.19 23.9108 75.5922C24.6327 76.6443 25.8161 77.4538 27.1248 77.4597C28.1889 77.5055 29.2191 76.9566 29.8794 76.1391C30.6053 75.2401 31.021 74.1264 31.2219 72.9987C31.6356 70.9322 30.9216 68.8618 31.025 66.7874C31.0131 66.3777 31.3114 66.0038 31.7072 65.9123C32.4689 65.7691 33.3043 65.8944 33.9387 66.3658C34.8059 66.9883 35.2195 68.0424 35.4423 69.0488C35.7486 70.5981 35.856 72.1992 35.7009 73.7724C35.0684 76.4792 33.3082 78.9474 30.8599 80.2959C29.5313 81.0417 27.9999 81.3798 26.4804 81.3023C24.1315 81.3202 21.8364 80.1507 20.4024 78.303C18.7894 76.2485 18.1012 73.5675 18.2325 70.98C18.322 68.0881 19.5054 65.1207 21.8185 63.2989C23.0178 62.3403 24.4736 61.7257 25.9792 61.4612Z" fill="#231F20"/>
<path d="M42.2958 61.4612C44.7819 61.0117 47.4808 61.4095 49.595 62.8455C51.3313 64.005 52.4192 65.9362 52.9184 67.9311C53.4276 69.9001 53.3082 71.9466 53.3321 73.9613C53.3301 75.9562 53.3619 77.951 53.348 79.9459C53.342 80.4272 53.2665 81.0975 52.7016 81.2327C51.8007 81.3898 50.8042 81.2486 50.0743 80.6639C49.0043 79.8504 48.529 78.4662 48.5528 77.1555C48.5866 75.1686 48.5389 73.1817 48.6423 71.1968C48.6403 69.8364 48.4892 68.3308 47.5305 67.2807C46.6713 66.2843 45.3348 65.7353 44.0222 65.8765C43.1093 65.9442 41.9716 66.2047 41.6037 67.1554C41.4227 67.9569 41.4127 68.7883 41.4366 69.6077C41.6116 72.9152 41.2795 76.2267 41.4664 79.5362C41.4784 80.0235 41.4843 80.5923 41.1204 80.9702C40.8022 81.3103 40.3029 81.3202 39.8714 81.2963C38.509 81.2307 37.3316 80.1766 36.9179 78.9097C36.5579 77.8317 36.6315 76.6801 36.6335 75.5604C36.6414 74.3691 36.6136 73.1757 36.7011 71.9884C36.8144 69.6753 36.4724 67.2807 37.248 65.0492C38.0535 62.9966 40.2353 61.865 42.2958 61.4612Z" fill="#231F20"/>
<path d="M58.584 61.8411C61.7344 60.779 65.4536 61.3081 68.0292 63.474C71.5734 60.2659 77.6832 60.6358 80.8396 64.2118C82.4983 66.1152 82.9498 68.7266 83.0791 71.1709C83.1706 74.0111 83.095 76.8552 83.099 79.6973C83.085 80.2243 83.091 80.8707 82.5958 81.1989C81.2075 81.5927 79.6284 80.8946 78.9163 79.6535C78.3833 78.7883 78.3117 77.7442 78.3217 76.7537C78.3416 74.8941 78.3833 73.0345 78.3774 71.1749C78.3595 70.0134 78.2958 68.7823 77.6793 67.764C76.9593 66.6124 75.6486 65.7751 74.2604 65.8725C73.2321 65.8765 71.9055 66.0734 71.4083 67.1037C71.0424 68.4263 71.1438 69.8264 71.1657 71.1849C71.2572 73.9693 71.1856 76.7557 71.2174 79.5401C71.2035 80.1149 71.2651 80.9005 70.6366 81.1889C69.2504 81.5827 67.5738 81.0636 66.8776 79.743C66.2352 78.673 66.1736 77.3842 66.2054 76.167C66.2134 74.2338 66.285 72.3006 66.2571 70.3674C66.2332 68.7704 65.4437 67.0977 63.9938 66.33C63.055 65.799 61.9134 65.7811 60.8812 65.9939C60.014 66.1769 59.1827 66.8511 59.1488 67.7958C58.7829 71.8153 59.2205 75.8528 59.0792 79.8802C59.0494 80.2621 59.0156 80.6658 58.8147 81.0059C58.3752 81.4336 57.7029 81.3978 57.15 81.2625C55.8135 81.002 54.7733 79.8524 54.4531 78.5576C54.2224 77.6428 54.3 76.6921 54.29 75.7613C54.3079 73.5079 54.2522 71.2545 54.3437 69.005C54.4551 67.6029 54.4451 66.149 54.9861 64.8264C55.6703 63.3606 57.1083 62.394 58.584 61.8411Z" fill="#231F20"/>
<path d="M108.075 61.4334C110.465 61.1331 113.005 61.6462 114.964 63.0881C116.708 64.371 117.739 66.4294 118.146 68.5198C118.518 70.2441 118.433 72.0162 118.451 73.7684C118.449 75.8249 118.475 77.8814 118.467 79.9379C118.461 80.4252 118.377 81.0855 117.818 81.2367C116.891 81.4037 115.861 81.2446 115.125 80.6281C114.224 79.8822 113.699 78.7168 113.697 77.5513C113.683 75.2342 113.747 72.9172 113.739 70.6001C113.737 69.1761 113.26 67.6566 112.104 66.7497C110.807 65.6936 108.904 65.6936 107.442 66.3936C106.794 66.7357 106.571 67.5134 106.595 68.1996C106.587 72.1793 106.591 76.1591 106.585 80.1388C106.605 80.5923 106.334 81.0477 105.909 81.2188C105.185 81.543 104.364 81.2387 103.695 80.9165C102.353 80.2044 101.768 78.6094 101.796 77.1595C101.81 74.1722 101.812 71.1849 101.867 68.1976C101.997 66.6522 102.124 64.9457 103.222 63.7445C104.471 62.392 106.269 61.6422 108.075 61.4334Z" fill="#231F20"/>
<path d="M125.483 61.9407C127.4 61.2684 129.582 60.9999 131.521 61.7278C132.452 62.0759 133.363 62.766 133.568 63.7923C133.632 64.2736 133.689 64.8424 133.359 65.2442C133.011 65.6519 132.414 65.459 131.951 65.4809C129.674 65.2899 127.243 65.821 125.471 67.3226C124.292 68.3071 123.643 69.8604 123.737 71.3898C123.83 72.973 124.344 74.5581 125.312 75.827C126.036 76.7698 127.154 77.4659 128.369 77.4678C129.483 77.5176 130.549 76.909 131.209 76.0339C132.047 74.934 132.426 73.5577 132.57 72.1993C132.713 70.1687 131.973 68.134 132.401 66.1153C133.244 65.7653 134.254 65.7752 135.032 66.2903C135.998 66.8989 136.454 68.0306 136.685 69.1026C137.003 70.6341 137.066 72.2192 136.937 73.7745C136.257 76.726 134.216 79.403 131.42 80.6361C129.206 81.6286 126.561 81.5968 124.379 80.5347C122.601 79.6795 121.231 78.1162 120.435 76.3282C119.228 73.6214 119.149 70.4531 120.067 67.6487C120.913 65.0692 122.908 62.8615 125.483 61.9407Z" fill="#231F20"/>
<path d="M16.6865 85.7394C18.2558 85.7414 19.825 85.7335 21.3962 85.7454C21.3942 85.8946 21.3922 86.1949 21.3922 86.3461C20.0398 86.352 18.6873 86.3401 17.3349 86.356C17.3349 87.6965 17.3349 89.035 17.3349 90.3755C18.56 90.3855 19.7852 90.3795 21.0104 90.3815C21.0104 90.5346 21.0104 90.8409 21.0104 90.9921C19.7852 90.9941 18.56 90.9901 17.3349 90.998C17.3349 91.8732 17.3349 92.7502 17.3349 93.6273C17.1738 93.6273 16.8496 93.6254 16.6885 93.6254C16.6865 90.9961 16.6885 88.3668 16.6865 85.7394Z" fill="#231F20"/>
<path d="M39.0234 85.7792C39.2502 85.7554 39.4789 85.7355 39.7076 85.7156C39.7056 87.1635 39.7235 88.6134 39.6957 90.0613C40.5052 89.572 41.788 89.5024 42.2554 90.4829C42.5517 91.4973 42.3369 92.5852 42.3946 93.6293C42.2395 93.6274 41.9312 93.6254 41.7761 93.6254C41.7522 92.5414 41.9093 91.4237 41.5394 90.3795C40.9507 90.3397 40.1491 90.2105 39.8429 90.8708C39.5764 91.7618 39.7573 92.7204 39.7096 93.6413C39.4809 93.6234 39.2522 93.6075 39.0254 93.5916C39.0374 90.9881 39.0294 88.3827 39.0234 85.7792Z" fill="#231F20"/>
<path d="M87.3467 85.7495C88.5579 85.7514 89.8984 85.5724 90.9625 86.2904C92.1995 87.0999 92.4183 88.876 91.8276 90.1429C91.5174 90.7873 90.8929 91.1751 90.2942 91.5192C90.8968 92.2153 91.4836 92.9273 92.0842 93.6274C91.7898 93.6195 91.4975 93.6155 91.2071 93.6095C90.6641 92.9532 90.1112 92.3028 89.5683 91.6465C89.0551 91.6644 88.544 91.6803 88.0328 91.6942C88.0348 92.3406 88.0348 92.987 88.0328 93.6354C87.8618 93.6274 87.5177 93.6115 87.3467 93.6035C87.3507 90.9862 87.3487 88.3688 87.3467 85.7495ZM88.0388 86.3342C88.0328 87.9074 88.0328 89.4806 88.0388 91.0538C88.9994 91.024 90.1252 91.1413 90.869 90.3955C91.7202 89.4925 91.7023 87.8875 90.8471 86.9945C90.0953 86.2884 88.9955 86.3461 88.0388 86.3342Z" fill="#231F20"/>
<path d="M118.565 87.6508C118.722 87.6449 119.041 87.6349 119.2 87.629C119.245 88.3449 119.243 89.0649 119.245 89.7849C119.542 89.7829 119.842 89.7809 120.142 89.7829C120.142 89.9341 120.142 90.2364 120.142 90.3895C119.84 90.3875 119.54 90.3855 119.241 90.3875C119.241 91.3084 119.228 92.2312 119.269 93.1521C119.54 93.0805 119.808 93.0089 120.081 92.9373C120.148 93.0825 120.288 93.3709 120.355 93.5141C119.834 93.7269 119.285 93.7368 118.756 93.5518C118.502 92.5176 118.557 91.4496 118.567 90.3955C118.448 90.3915 118.207 90.3855 118.086 90.3816C118.086 90.2344 118.088 89.936 118.088 89.7869C118.207 89.7849 118.446 89.7809 118.565 89.7789C118.563 89.0689 118.563 88.3589 118.565 87.6508Z" fill="#231F20"/>
<path d="M23.6328 89.8028C24.4343 89.8286 25.2359 89.6616 26.0334 89.8187C25.7848 90.664 24.6153 90.0733 24.3687 90.9066C24.142 91.7897 24.2991 92.7225 24.2613 93.6274C24.0505 93.6254 23.8416 93.6254 23.6328 93.6274C23.6328 92.3525 23.6348 91.0777 23.6328 89.8028Z" fill="#231F20"/>
<path d="M28.1068 90.4451C28.7193 89.6018 30.0738 89.4228 30.8435 90.1487C31.3685 90.5843 31.462 91.2963 31.5972 91.9228C30.4795 91.9387 29.3617 91.9089 28.246 91.9527C28.5045 92.4021 28.7313 92.9988 29.316 93.0923C29.9564 93.3031 30.5471 92.9212 31.0344 92.5513C31.1637 92.7084 31.2929 92.8675 31.4242 93.0286C30.748 93.5736 29.843 93.9694 28.9799 93.6193C27.701 93.2196 27.2495 91.4475 28.1068 90.4451ZM28.2838 91.3301C29.1648 91.36 30.0499 91.362 30.933 91.3301C30.6684 90.8647 30.3462 90.2541 29.7118 90.3198C29.0117 90.1905 28.5662 90.7872 28.2838 91.3301Z" fill="#231F20"/>
<path d="M33.8186 90.9105C33.5899 89.4407 36.1874 89.2438 36.2908 90.6559C35.6723 90.7434 35.1512 90.2045 34.5088 90.3198C34.5187 90.5983 34.4193 91.0438 34.7991 91.1273C35.4495 91.4495 36.4777 91.5728 36.5832 92.4559C36.7104 93.2892 35.8035 93.8381 35.0637 93.7387C34.3457 93.7586 33.8465 93.2017 33.4785 92.6607C33.6078 92.5971 33.8703 92.4698 33.9996 92.4081C34.2283 92.6249 34.4352 92.8735 34.7017 93.0506C35.1333 93.2494 35.5947 93.0167 36.0223 92.9272C35.9467 91.6325 34.0672 92.0959 33.8186 90.9105Z" fill="#231F20"/>
<path d="M45.1086 89.7073C45.3612 89.7868 45.6098 89.8743 45.8564 89.9738C46.634 89.584 47.8075 89.5422 48.257 90.4312C48.6229 91.4555 48.3843 92.5752 48.4459 93.6393C48.2192 93.6234 47.9924 93.6055 47.7677 93.5916C47.7299 92.5156 47.9348 91.3879 47.535 90.3576C46.9463 90.3417 46.099 90.2184 45.8564 90.9265C45.6197 91.7996 45.7808 92.7284 45.743 93.6254C45.5262 93.6254 45.3094 93.6254 45.0946 93.6274C45.0986 92.3207 45.0787 91.014 45.1086 89.7073Z" fill="#231F20"/>
<path d="M51.0914 92.7444C50.28 91.4436 51.3798 89.4866 52.957 89.7054C54.1086 89.7432 54.6655 90.9106 54.7391 91.921C53.6213 91.9429 52.5055 91.9011 51.3898 91.9627C51.6543 92.4441 51.9347 93.0626 52.5672 93.1123C53.1778 93.2774 53.7168 92.9055 54.1702 92.5495C54.2756 92.6469 54.4825 92.8458 54.5879 92.9453C53.6969 94.0232 51.7876 94.0292 51.0914 92.7444ZM51.4057 91.3263C52.3007 91.3621 53.1957 91.3621 54.0927 91.3303C53.8142 90.837 53.4463 90.2205 52.78 90.3179C52.1078 90.2284 51.7299 90.8549 51.4057 91.3263Z" fill="#231F20"/>
<path d="M57.0195 90.8668C56.8803 90.109 57.6918 89.5879 58.37 89.7033C58.9368 89.6874 59.2769 90.1985 59.6389 90.5486C59.1993 90.833 58.8234 90.6579 58.5072 90.3159C58.0876 90.3556 57.473 90.286 57.6241 90.9165C58.2168 91.3262 58.9985 91.4058 59.5295 91.9109C59.9671 92.4957 59.6985 93.4901 58.9408 93.6572C58.0219 93.9993 57.117 93.4464 56.6396 92.6767C56.7709 92.609 57.0295 92.4758 57.1587 92.4082C57.4113 92.6448 57.6361 92.9392 57.9623 93.0824C58.3561 93.2117 58.7598 93.0267 59.1456 92.9571C59.2471 91.6066 57.1309 92.1198 57.0195 90.8668Z" fill="#231F20"/>
<path d="M62.1872 90.1866C62.591 89.944 63.0126 89.6238 63.5158 89.7013C64.0468 89.6934 64.3869 90.1469 64.741 90.475C64.5898 90.5605 64.2855 90.7356 64.1343 90.8231C64.0468 90.7018 63.8698 90.4571 63.7823 90.3358C63.4701 90.3418 63.1598 90.3517 62.8515 90.3676C62.8257 90.5685 62.8018 90.7714 62.7799 90.9762C63.5118 91.378 64.7489 91.4675 64.8961 92.4699C65.0373 93.5737 63.6073 94.0112 62.7779 93.6035C62.2986 93.4066 61.6264 92.8139 62.2051 92.3187C62.4577 92.5494 62.6864 92.8159 62.9689 93.0168C63.3826 93.2654 63.8619 93.0287 64.2915 92.9532C64.2398 92.7264 64.2219 92.4898 64.1244 92.2809C63.5655 91.8672 62.774 91.8374 62.3105 91.2924C62.1276 90.9583 62.2171 90.5506 62.1872 90.1866Z" fill="#231F20"/>
<path d="M72.3324 89.743C73.7584 89.3512 75.1526 90.8807 74.7011 92.2709C74.3789 93.6333 72.5133 94.228 71.4871 93.2574C70.254 92.2789 70.7711 90.0374 72.3324 89.743ZM72.3383 90.3695C71.328 90.6897 71.1191 92.1754 71.9207 92.8318C72.6307 93.4901 73.9294 93.0426 74.0726 92.082C74.3948 91.0637 73.3706 89.9837 72.3383 90.3695Z" fill="#231F20"/>
<path d="M77.9723 89.9797C78.4198 89.8127 78.8951 89.6197 79.3824 89.7291C80.0168 89.8226 80.526 90.4213 80.528 91.0637C80.5717 91.9169 80.534 92.7721 80.5399 93.6273C80.3291 93.6253 80.1183 93.6254 79.9094 93.6254C79.8995 92.7721 79.9572 91.9149 79.8796 91.0637C79.8577 89.9738 78.0359 90.1388 77.9027 91.0895C77.7654 91.9308 77.843 92.786 77.8291 93.6333C77.666 93.6273 77.3398 93.6154 77.1787 93.6094C77.1867 92.3107 77.1708 91.012 77.1906 89.7152C77.4532 89.7868 77.7177 89.8763 77.9723 89.9797Z" fill="#231F20"/>
<path d="M94.406 90.5326C94.9907 89.6058 96.4267 89.403 97.2282 90.1607C97.7493 90.5903 97.8268 91.2964 97.9283 91.9209C96.8225 91.9408 95.7166 91.9089 94.6128 91.9507C94.8594 92.43 95.118 93.0386 95.7345 93.1062C96.3571 93.2852 96.9199 92.9133 97.3893 92.5553C97.4947 92.6528 97.7055 92.8497 97.8129 92.9471C97.1785 93.5677 96.2556 93.9694 95.3785 93.6293C94.1235 93.2514 93.6343 91.5649 94.406 90.5326ZM94.6267 91.3302C95.5158 91.362 96.4068 91.36 97.2978 91.3322C97.0273 90.8906 96.7489 90.2721 96.1264 90.3218C95.4044 90.1687 94.9489 90.7932 94.6267 91.3302Z" fill="#231F20"/>
<path d="M100.94 90.1627C101.416 89.918 101.915 89.6217 102.474 89.7052C103.45 89.7709 104.276 90.6758 104.232 91.6603C104.329 92.7363 103.385 93.7546 102.305 93.7427C101.809 93.7685 101.384 93.4861 100.956 93.2832C100.97 94.1941 100.964 95.105 100.964 96.0179C100.811 96.0179 100.505 96.0199 100.351 96.0219C100.351 93.9396 100.349 91.8592 100.351 89.7788C100.507 89.7808 100.817 89.7848 100.972 89.7868C100.964 89.8803 100.948 90.0692 100.94 90.1627ZM101.787 90.3894C100.612 90.7892 100.688 92.78 101.901 93.0824C102.776 93.3727 103.697 92.5732 103.601 91.6742C103.657 90.7355 102.647 90.0573 101.787 90.3894Z" fill="#231F20"/>
<path d="M106.829 90.4352C107.469 89.5422 108.927 89.4288 109.669 90.2542C110.105 90.6977 110.184 91.3421 110.307 91.9229C109.194 91.9388 108.08 91.9109 106.966 91.9527C107.209 92.4201 107.453 93.0207 108.054 93.0983C108.692 93.2972 109.271 92.9074 109.756 92.5414C109.882 92.7025 110.009 92.8636 110.136 93.0287C109.456 93.5756 108.547 93.9774 107.682 93.6114C106.413 93.2017 105.974 91.4316 106.829 90.4352ZM106.984 91.3302C107.869 91.36 108.756 91.362 109.641 91.3302C109.371 90.8767 109.084 90.2602 108.45 90.3198C107.744 90.1826 107.284 90.7892 106.984 91.3302Z" fill="#231F20"/>
<path d="M112.853 90.306C113.563 89.415 115.333 89.4588 115.645 90.6879C115.796 91.6664 115.687 92.6668 115.707 93.6553C115.44 93.6195 115.18 93.5877 114.919 93.5539C114.259 93.7448 113.469 93.8741 112.905 93.3868C112.272 92.9234 112.332 91.8335 113.03 91.4616C113.696 91.1414 114.466 91.2508 115.184 91.1752C114.983 90.855 114.889 90.3041 114.408 90.3259C113.855 90.1907 113.428 90.5964 113.05 90.9286C112.799 90.847 112.562 90.491 112.853 90.306ZM113.151 91.9946C113.147 92.3108 113.147 92.6271 113.151 92.9453C113.728 93.1342 114.331 93.1342 114.907 92.9393C114.987 92.5575 115.055 92.1716 115.118 91.7878C114.456 91.7858 113.796 91.8395 113.151 91.9946Z" fill="#231F20"/>
</svg>
