<svg xmlns:xlink="http://www.w3.org/1999/xlink"  width="106" height="106" viewBox="0 0 106 106" fill="none" xmlns="http://www.w3.org/2000/svg">
<path d="M60.2946 11.0325L60.1996 11.9348L55.6641 11.4569L56.5287 3.25269L57.5378 3.35903L56.7684 10.6608L60.2946 11.0325Z" fill="#663F58"/>
<path d="M62.4606 10.6308C62.6158 10.0709 62.8687 9.69497 63.2192 9.50308C63.5775 9.31334 64.0795 9.27497 64.7254 9.38798L66.5074 9.70858L66.6381 9.23689C66.7401 8.86876 66.733 8.58181 66.6166 8.3761C66.5078 8.1725 66.3039 8.02923 66.0048 7.94629C65.6366 7.84423 65.2604 7.75643 64.8761 7.68291C64.4939 7.60171 64.1097 7.52819 63.7232 7.46233L63.8831 6.75098C64.7681 6.80637 65.5365 6.92445 66.1884 7.10521C66.8634 7.29234 67.309 7.57694 67.5251 7.959C67.7511 8.3355 67.7736 8.84973 67.593 9.50165L66.7956 12.3777C66.7211 12.6462 66.8813 12.8725 67.2764 13.0563L67.0314 13.8061C66.7092 13.7167 66.4486 13.599 66.2496 13.4531C66.0484 13.3146 65.8809 13.1443 65.747 12.9419C64.9927 13.0714 64.2817 13.0436 63.6146 12.8586C63.0622 12.7055 62.6907 12.4372 62.4996 12.0539C62.3162 11.6727 62.3032 11.1983 62.4606 10.6308ZM64.0135 12.0896C64.4815 12.2194 64.9831 12.2717 65.5186 12.2468L65.8055 12.2396L66.3126 10.4104L64.6458 10.1217C64.3076 10.0609 64.0433 10.0908 63.8529 10.2115C63.6625 10.3322 63.5226 10.5536 63.4334 10.8757C63.2526 11.5277 63.446 11.9323 64.0135 12.0896Z" fill="#663F58"/>
<path d="M72.3159 6.61584L73.2293 7.00011L69.9143 14.8792L69.001 14.4949L72.3159 6.61584Z" fill="#663F58"/>
<path d="M74.7399 13.3879C75.2772 12.4666 75.8537 11.8815 76.469 11.6323C77.0951 11.3802 77.7829 11.4728 78.5322 11.91C79.2335 12.319 79.6466 12.8272 79.7715 13.4345C79.9071 14.0389 79.7212 14.7367 79.2135 15.5278L78.8131 16.0959L75.4513 14.1347C75.2789 14.4303 75.1566 14.6952 75.0843 14.9295C75.0191 15.1679 75.0032 15.3844 75.0371 15.5792C75.0777 15.778 75.1728 15.9626 75.3223 16.1327C75.4827 16.2999 75.7074 16.4679 75.9961 16.6364C76.2024 16.7567 76.4346 16.8875 76.693 17.029C76.9514 17.1706 77.2001 17.2972 77.4389 17.4089L77.7663 17.5584L77.4139 18.2099C76.6021 17.9113 75.9247 17.6036 75.3816 17.2869C74.9828 17.0542 74.6766 16.7972 74.4629 16.5159C74.2603 16.2317 74.1371 15.9296 74.0935 15.6092C74.054 15.2822 74.0906 14.935 74.2035 14.5677C74.3204 14.1937 74.4992 13.8003 74.7399 13.3879ZM75.808 13.4996L78.3757 14.9976C78.7206 14.4063 78.869 13.9309 78.8209 13.5711C78.7768 13.2044 78.5382 12.8948 78.1051 12.642C77.6515 12.3774 77.2383 12.3115 76.8659 12.4444C76.5044 12.5744 76.1518 12.9261 75.808 13.4996Z" fill="#663F58"/>
<path d="M84.055 13.3065L84.8129 13.9447L82.9443 16.1638C83.2913 16.2584 83.6005 16.3732 83.8719 16.508C84.1483 16.6368 84.4023 16.7987 84.6338 16.9934C84.9442 17.2548 85.1559 17.5163 85.2686 17.7777C85.3814 18.0393 85.4136 18.3161 85.3653 18.6084C85.322 18.8944 85.2037 19.1955 85.0105 19.5114C84.8224 19.8213 84.5772 20.1559 84.2748 20.515L82.2369 22.935L81.4789 22.2967L83.5013 19.895C83.6808 19.682 83.8408 19.4733 83.9815 19.2693C84.1334 19.0642 84.2405 18.8629 84.3025 18.6656C84.3647 18.4682 84.3707 18.2756 84.3208 18.0879C84.2708 17.9 84.1393 17.7164 83.9261 17.537C83.8349 17.4601 83.7236 17.382 83.5927 17.3029C83.4728 17.2229 83.3423 17.1494 83.201 17.0823C83.0708 17.0143 82.9381 16.9496 82.8029 16.8877C82.6738 16.831 82.5568 16.7845 82.4521 16.7483L79.3146 20.4742L78.5566 19.8359L84.055 13.3065Z" fill="#663F58"/>
<path d="M16.2357 76.0691L16.9849 75.5573L19.5573 79.3231L12.7452 83.9762L12.1729 83.1383L18.2357 78.9969L16.2357 76.0691Z" fill="#663F58"/>
<path d="M14.5232 74.6774C13.9958 74.9217 13.5457 74.9723 13.1725 74.8294C12.7959 74.6793 12.4416 74.3215 12.1096 73.7561L11.2002 72.1907L10.756 72.3964C10.4093 72.5568 10.1953 72.7481 10.1139 72.9701C10.0292 73.1848 10.052 73.4329 10.1825 73.7146C10.3431 74.0612 10.5198 74.4048 10.7126 74.7453C10.8981 75.0892 11.091 75.4296 11.291 75.7667L10.6453 76.1053C10.1145 75.3952 9.70698 74.7331 9.42262 74.1192C9.12822 73.4837 9.05662 72.9599 9.2078 72.5477C9.34841 72.1317 9.72565 71.7815 10.3395 71.4972L13.0478 70.2426C13.3005 70.1256 13.3691 69.8569 13.2534 69.437L13.9834 69.1382C14.1239 69.4415 14.2029 69.7163 14.2205 69.9625C14.2454 70.2054 14.2241 70.4434 14.1565 70.6764C14.7436 71.1675 15.1828 71.7273 15.4739 72.3556C15.7147 72.8755 15.7509 73.3324 15.5824 73.7262C15.4106 74.1129 15.0575 74.4298 14.5232 74.6774ZM14.6293 72.5494C14.4253 72.1088 14.1404 71.6926 13.7745 71.3007L13.5834 71.0866L11.8609 71.8844L12.7201 73.3417C12.8929 73.6388 13.0869 73.821 13.3021 73.8878C13.5173 73.9548 13.7766 73.918 14.0799 73.7775C14.6937 73.4932 14.8769 73.0838 14.6293 72.5494Z" fill="#663F58"/>
<path d="M5.08856 69.7709L4.79004 68.826L12.9409 66.2507L13.2394 67.1957L5.08856 69.7709Z" fill="#663F58"/>
<path d="M9.3292 64.307C8.27919 64.4938 7.46004 64.4336 6.87173 64.126C6.27419 63.8119 5.89941 63.2279 5.74737 62.3737C5.6051 61.5744 5.72495 60.9307 6.1069 60.4423C6.47962 59.9476 7.13179 59.6374 8.0634 59.512L8.75559 59.4494L9.43765 63.2812C9.77459 63.2212 10.0557 63.1429 10.281 63.0462C10.5049 62.9417 10.6802 62.8135 10.8068 62.6616C10.9319 62.5019 11.011 62.3099 11.0438 62.0858C11.0674 61.8552 11.05 61.5754 10.9914 61.2462C10.9495 61.0111 10.8989 60.7494 10.8395 60.4609C10.78 60.1724 10.7155 59.9009 10.6459 59.6465L10.5479 59.3001L11.2726 59.1469C11.5706 59.9588 11.7748 60.6742 11.8851 61.2933C11.9659 61.7479 11.9683 62.1476 11.8923 62.4925C11.807 62.8311 11.6565 63.1207 11.4406 63.3611C11.2169 63.6031 10.9285 63.8 10.5756 63.9516C10.2149 64.1048 9.79935 64.2233 9.3292 64.307ZM8.72275 63.4206L8.20179 60.4938C7.5279 60.6138 7.06944 60.8085 6.8264 61.0782C6.57552 61.3493 6.49403 61.7316 6.5819 62.2252C6.67396 62.7424 6.89119 63.0999 7.23358 63.2976C7.56676 63.4888 8.06314 63.5298 8.72275 63.4206Z" fill="#663F58"/>
<path d="M2.58444 56.4899L2.58008 55.499L5.48114 55.4862C5.32849 55.1606 5.21569 54.8506 5.14276 54.5565C5.06187 54.2623 5.02077 53.964 5.01945 53.6616C5.01767 53.2557 5.07988 52.9251 5.20611 52.6699C5.33233 52.4146 5.52246 52.2108 5.77648 52.0585C6.02255 51.9062 6.32851 51.8014 6.69438 51.744C7.05229 51.6867 7.46604 51.657 7.93562 51.655L11.0993 51.6411L11.1037 52.632L7.96386 52.6457C7.68528 52.6471 7.42269 52.6601 7.17607 52.685C6.92145 52.702 6.69881 52.7508 6.50815 52.8313C6.31747 52.9116 6.16677 53.0318 6.05605 53.1914C5.94533 53.3511 5.89058 53.5702 5.8918 53.8488C5.89233 53.9681 5.90485 54.1034 5.92939 54.2545C5.94594 54.3977 5.97445 54.5449 6.01491 54.6959C6.04738 54.8391 6.08382 54.9821 6.12424 55.1253C6.16463 55.2603 6.20496 55.3795 6.24521 55.4829L11.1161 55.4615L11.1205 56.4523L2.58444 56.4899Z" fill="#663F58"/>
<path d="M80.972 87.317L80.3984 86.6139L83.9324 83.7311L89.1469 90.1236L88.3606 90.7651L83.7196 85.0758L80.972 87.317Z" fill="#663F58"/>
<path d="M79.7303 89.1384C80.0184 89.643 80.1071 90.0873 79.9964 90.4712C79.8788 90.8591 79.5524 91.2425 79.0172 91.6214L77.5345 92.6605L77.7772 93.0855C77.9666 93.4172 78.1753 93.6143 78.4034 93.6766C78.6245 93.7429 78.8698 93.6989 79.1394 93.5451C79.4711 93.3556 79.7985 93.1504 80.1214 92.9293C80.4482 92.7153 80.7711 92.4942 81.0901 92.2663L81.4822 92.881C80.8196 93.4701 80.1945 93.9325 79.607 94.2679C78.9988 94.6152 78.483 94.731 78.0594 94.6153C77.633 94.5105 77.2521 94.1643 76.9167 93.5769L75.4368 90.9849C75.2986 90.7431 75.0252 90.6975 74.6165 90.8484L74.2568 90.1463C74.5472 89.9807 74.8142 89.8785 75.0581 89.8401C75.2979 89.7948 75.537 89.7959 75.7748 89.8433C76.2143 89.2166 76.7348 88.7316 77.3361 88.3882C77.8337 88.1042 78.2859 88.0292 78.6926 88.1636C79.0924 88.302 79.4382 88.6268 79.7303 89.1384ZM77.6009 89.2131C77.1793 89.4539 76.7887 89.773 76.4293 90.1708L76.2321 90.3795L77.1733 92.028L78.5523 91.0482C78.8338 90.8509 78.9987 90.6421 79.0471 90.422C79.0956 90.2019 79.0369 89.9466 78.8713 89.6564C78.5359 89.0688 78.1123 88.9211 77.6009 89.2131Z" fill="#663F58"/>
<path d="M75.6407 98.9601L74.7246 99.3377L71.4668 91.4349L72.3829 91.0573L75.6407 98.9601Z" fill="#663F58"/>
<path d="M69.8377 95.1945C70.1131 96.2248 70.1225 97.0462 69.8659 97.6585C69.6038 98.2805 69.0536 98.7035 68.2155 98.9275C67.4311 99.1371 66.7795 99.0723 66.2604 98.7332C65.7358 98.4039 65.3715 97.7803 65.1675 96.8628L65.0464 96.1784L68.8064 95.1735C68.718 94.8429 68.6161 94.5695 68.5006 94.3531C68.3775 94.1388 68.2348 93.9751 68.0727 93.8619C67.903 93.7508 67.7052 93.6883 67.479 93.6745C67.2472 93.6706 66.9699 93.7119 66.6469 93.7982C66.4162 93.8598 66.1597 93.9324 65.8773 94.0162C65.5948 94.0999 65.3298 94.1873 65.0822 94.278L64.7454 94.4052L64.5312 93.6962C65.315 93.3302 66.0106 93.066 66.6179 92.9037C67.064 92.7845 67.462 92.7482 67.8122 92.7947C68.1568 92.8509 68.4582 92.9763 68.7161 93.171C68.9762 93.3734 69.1967 93.644 69.3779 93.9828C69.5611 94.3293 69.7144 94.7332 69.8377 95.1945ZM69.0059 95.874L66.134 96.6415C66.3108 97.3028 66.5438 97.7431 66.833 97.9624C67.1244 98.1893 67.5122 98.238 67.9966 98.1086C68.5042 97.9729 68.8419 97.7262 69.0098 97.3683C69.1721 97.0201 69.1709 96.5219 69.0059 95.874Z" fill="#663F58"/>
<path d="M62.6214 102.581L61.6345 102.67L61.3755 99.78C61.064 99.9598 60.7648 100.098 60.4779 100.196C60.1916 100.302 59.8979 100.368 59.5966 100.395C59.1924 100.431 58.8578 100.397 58.5927 100.293C58.3277 100.189 58.1084 100.017 57.9351 99.7766C57.7624 99.5445 57.6321 99.2485 57.5439 98.8888C57.4565 98.537 57.3918 98.1272 57.3499 97.6596L57.0674 94.5085L58.0545 94.42L58.3347 97.5473C58.3595 97.8248 58.3948 98.0853 58.4407 98.3291C58.4793 98.5812 58.5467 98.799 58.6431 98.9821C58.7393 99.1651 58.8717 99.3053 59.0402 99.4019C59.2087 99.4987 59.4317 99.5347 59.7091 99.5098C59.8281 99.4992 59.9618 99.4753 60.1104 99.4378C60.2515 99.4093 60.3957 99.3685 60.5428 99.3152C60.6826 99.2708 60.8221 99.2224 60.9612 99.1698C61.0925 99.1181 61.2079 99.0679 61.3073 99.019L60.8725 94.1675L61.8595 94.079L62.6214 102.581Z" fill="#663F58"/>
<path d="M46.2715 95.1791L46.3678 94.277L50.9025 94.7608L50.0273 102.964L49.0182 102.856L49.7972 95.5554L46.2715 95.1791Z" fill="#663F58"/>
<path d="M44.1041 95.5781C43.9481 96.1378 43.6947 96.5134 43.3439 96.7048C42.9854 96.8941 42.4833 96.9317 41.8375 96.8179L40.0561 96.4949L39.9248 96.9665C39.8222 97.3345 39.8289 97.6214 39.945 97.8273C40.0535 98.031 40.2573 98.1745 40.5563 98.258C40.9243 98.3604 41.3005 98.4488 41.6846 98.5228C42.0667 98.6046 42.451 98.6786 42.8374 98.7448L42.6763 99.456C41.7914 99.3995 41.0232 99.2804 40.3715 99.0988C39.6968 98.9107 39.2517 98.6256 39.036 98.2432C38.8105 97.8665 38.7885 97.3522 38.9702 96.7005L39.7714 93.8253C39.8462 93.557 39.6862 93.3307 39.2914 93.1464L39.5374 92.3969C39.8594 92.4866 40.1199 92.6046 40.3187 92.7509C40.5197 92.8896 40.6869 93.0601 40.8206 93.2626C41.5752 93.1342 42.2861 93.1629 42.953 93.3488C43.5051 93.5026 43.8763 93.7713 44.0669 94.1549C44.2497 94.5364 44.2622 95.0108 44.1041 95.5781ZM42.5529 94.1172C42.0853 93.9868 41.5837 93.9338 41.0482 93.9581L40.7612 93.9649L40.2517 95.7934L41.918 96.0844C42.2562 96.1455 42.5206 96.116 42.7112 95.9956C42.9017 95.875 43.0418 95.6539 43.1315 95.3319C43.3132 94.6802 43.1204 94.2753 42.5529 94.1172Z" fill="#663F58"/>
<path d="M34.244 99.5802L33.3311 99.1947L36.6563 91.3199L37.5692 91.7054L34.244 99.5802Z" fill="#663F58"/>
<path d="M32.8386 92.806C32.3 93.7266 31.7228 94.3111 31.1072 94.5593C30.4806 94.8106 29.7931 94.7172 29.0442 94.279C28.3435 93.8691 27.9312 93.3604 27.8071 92.7529C27.6721 92.1482 27.859 91.4508 28.3677 90.6602L28.7689 90.0927L32.128 92.0584C32.3009 91.7629 32.4235 91.4981 32.4961 91.2638C32.5618 91.0256 32.5778 90.8091 32.5441 90.6143C32.5037 90.4155 32.4088 90.2309 32.2597 90.0605C32.0994 89.8929 31.8751 89.7249 31.5865 89.5559C31.3804 89.4354 31.1484 89.3042 30.8901 89.1624C30.632 89.0204 30.3835 88.8935 30.1447 88.7814L29.8176 88.6316L30.1708 87.9806C30.9821 88.2802 31.6592 88.5888 32.202 88.9062C32.6003 89.1395 32.9062 89.3967 33.1195 89.6784C33.3219 89.9628 33.4447 90.2652 33.4877 90.5855C33.527 90.9126 33.4898 91.2598 33.3765 91.6269C33.259 92.0008 33.0797 92.3939 32.8386 92.806ZM31.7705 92.693L29.2048 91.1916C28.8591 91.7824 28.71 92.2577 28.7578 92.6176C28.8014 92.9842 29.0395 93.2942 29.4723 93.5474C29.9256 93.8128 30.3386 93.8792 30.7112 93.7468C31.0728 93.6171 31.426 93.2659 31.7705 92.693Z" fill="#663F58"/>
<path d="M22.5159 92.8736L21.7588 92.2344L23.6302 90.0177C23.2834 89.9228 22.9743 89.8077 22.7031 89.6725C22.4268 89.5432 22.173 89.3811 21.9419 89.186C21.6318 88.9242 21.4205 88.6625 21.3081 88.4008C21.1956 88.1392 21.1639 87.8623 21.2125 87.5701C21.2561 87.284 21.3748 86.9832 21.5684 86.6675C21.7569 86.3578 22.0026 86.0236 22.3056 85.6648L24.3466 83.2476L25.1037 83.8868L23.078 86.286C22.8983 86.4988 22.7381 86.7071 22.5971 86.911C22.445 87.116 22.3376 87.317 22.2753 87.5143C22.2129 87.7116 22.2066 87.9042 22.2563 88.0921C22.3059 88.2798 22.4373 88.4636 22.6501 88.6434C22.7414 88.7204 22.8524 88.7985 22.9834 88.8779C23.1031 88.9582 23.2336 89.0318 23.3749 89.099C23.5049 89.167 23.6375 89.2321 23.7725 89.2941C23.9017 89.351 24.0185 89.3976 24.1233 89.4339L27.2656 85.7122L28.0227 86.3514L22.5159 92.8736Z" fill="#663F58"/>
<path d="M5.77614 36.8004L13.7222 39.0176L13.4496 39.995L6.54985 38.0698L6.50815 38.2194L12.4896 42.2805L12.1912 43.3499L4.97123 43.7275L4.92951 43.877L11.8291 45.8022L11.5563 46.7796L3.61035 44.5625L4.09804 42.8146L11.2495 42.5046L5.28844 38.5484L5.77614 36.8004Z" fill="#663F58"/>
<path d="M12.3171 35.174C11.3761 34.6722 10.7693 34.1186 10.4969 33.5133C10.2211 32.8971 10.2873 32.2064 10.6956 31.4408C11.0776 30.7244 11.5696 30.2924 12.1718 30.1444C12.7706 29.9856 13.4749 30.1449 14.2849 30.6219L14.8678 31.0004L13.0362 34.4346C13.3383 34.5957 13.6077 34.7077 13.8445 34.771C14.0853 34.8272 14.3023 34.8346 14.4956 34.7934C14.6926 34.7452 14.8735 34.6431 15.0378 34.4872C15.1988 34.3205 15.3579 34.0897 15.5153 33.7948C15.6276 33.5842 15.7497 33.347 15.8812 33.0835C16.0127 32.8198 16.1297 32.5665 16.2323 32.3235L16.3693 31.9906L17.0336 32.3179C16.7663 33.1405 16.4847 33.8291 16.1888 34.384C15.9715 34.7914 15.7264 35.1071 15.4535 35.3313C15.1772 35.5448 14.88 35.6795 14.5616 35.7352C14.2362 35.7871 13.8879 35.7637 13.5167 35.665C13.1384 35.5624 12.7385 35.3987 12.3171 35.174ZM12.3881 34.1025L13.7871 31.4794C13.183 31.1574 12.7022 31.0271 12.3445 31.089C11.9798 31.1471 11.6794 31.3973 11.4435 31.8397C11.1963 32.3031 11.1462 32.7184 11.2932 33.0855C11.437 33.4418 11.8019 33.7808 12.3881 34.1025Z" fill="#663F58"/>
<path d="M11.8418 24.8595L12.4507 24.0777L14.7394 25.8603C14.8206 25.5099 14.9235 25.1966 15.048 24.9203C15.166 24.639 15.3182 24.379 15.5039 24.1405C15.7533 23.8203 16.0065 23.5988 16.2636 23.4761C16.5204 23.3534 16.7959 23.3107 17.0897 23.3478C17.3774 23.3802 17.6826 23.4868 18.0057 23.6678C18.3226 23.8439 18.6662 24.0763 19.0366 24.3648L21.5327 26.3089L20.9238 27.0906L18.4466 25.1612C18.2269 24.9901 18.0123 24.8381 17.803 24.7053C17.5922 24.5614 17.387 24.4621 17.1875 24.4075C16.9878 24.353 16.7952 24.3542 16.6095 24.4113C16.4237 24.4684 16.2453 24.6069 16.0741 24.8266C16.0008 24.9208 15.927 25.035 15.853 25.1689C15.7774 25.2917 15.709 25.4251 15.6475 25.5687C15.5845 25.7014 15.5248 25.8364 15.4681 25.9738C15.4164 26.1051 15.3745 26.2237 15.3422 26.3298L19.1852 29.3229L18.5762 30.1046L11.8418 24.8595Z" fill="#663F58"/>
<path d="M18.9873 20.4065L19.6967 19.7318L20.2396 20.3028C20.4059 19.5075 20.7139 18.7918 21.1633 18.1556L21.8543 18.8823C21.7612 19.0038 21.6675 19.1479 21.5733 19.3144C21.479 19.4809 21.3875 19.6559 21.2985 19.8395C21.2094 20.023 21.1231 20.2095 21.0395 20.3987C20.9617 20.5825 20.8927 20.7525 20.8326 20.9088L23.8192 24.0488L23.1013 24.7318L18.9873 20.4065Z" fill="#663F58"/>
<path d="M25.2469 18.8499C24.6345 17.9767 24.3436 17.2086 24.3743 16.5455C24.4069 15.8713 24.7785 15.2851 25.4886 14.7869C26.1533 14.3207 26.7875 14.1578 27.3915 14.2981C27.9974 14.4273 28.5536 14.8877 29.0604 15.6795L29.4092 16.2807L26.2226 18.5156C26.4192 18.7957 26.6087 19.0176 26.7915 19.1811C26.9808 19.34 27.1709 19.4447 27.362 19.4954C27.5596 19.5416 27.7671 19.5323 27.9841 19.4676C28.2031 19.3916 28.4493 19.2578 28.723 19.0658C28.9185 18.9288 29.1347 18.7724 29.371 18.5967C29.6075 18.4212 29.8265 18.2481 30.0279 18.0777L30.3005 17.8428L30.7451 18.4351C30.1348 19.0478 29.5722 19.5349 29.0574 19.8958C28.6794 20.161 28.318 20.3317 27.9731 20.4084C27.6303 20.4739 27.3043 20.4595 26.9951 20.3653C26.6814 20.2644 26.3813 20.0861 26.0948 19.8301C25.8037 19.5675 25.5211 19.241 25.2469 18.8499ZM25.7947 17.9261L28.2285 16.2192C27.8355 15.6588 27.4654 15.3253 27.1185 15.2187C26.7669 15.1055 26.3859 15.1929 25.9754 15.4808C25.5453 15.7824 25.3128 16.1302 25.278 16.5241C25.2452 16.9069 25.4173 17.3742 25.7947 17.9261Z" fill="#663F58"/>
<path d="M33.3692 18.2462C33.2247 17.9359 33.1759 17.6426 33.2229 17.366C33.2731 17.0969 33.3866 16.7939 33.5634 16.4569C33.4288 16.4318 33.3041 16.3714 33.1892 16.2756C33.0816 16.1764 32.9993 16.0655 32.9422 15.9428C32.8851 15.8202 32.8537 15.668 32.8481 15.4862C32.8426 15.3044 32.847 15.0784 32.8617 14.8082C32.1784 14.7927 31.6488 14.3808 31.2725 13.5727C30.6948 12.3316 31.0842 11.3953 32.4408 10.7639C32.7943 10.5992 33.1914 10.4715 33.6317 10.3805L35.246 9.57642L35.5937 10.3232L34.5878 10.7652C34.771 10.838 34.9264 10.9455 35.0542 11.0879C35.1819 11.2303 35.3012 11.4206 35.4121 11.6588C35.7211 12.3227 35.7752 12.8726 35.5743 13.3085C35.37 13.7371 34.9179 14.1144 34.218 14.4403C34.0809 14.504 33.9638 14.5542 33.8666 14.5907C33.7767 14.6238 33.6923 14.6499 33.6134 14.669C33.6142 14.7652 33.623 14.8971 33.6396 15.065C33.6636 15.2295 33.7009 15.3568 33.7518 15.4474C33.8262 15.5883 33.9547 15.6471 34.1368 15.6237C34.319 15.6003 34.5743 15.5166 34.9023 15.3727C34.9673 15.3424 35.0429 15.3073 35.1296 15.267C35.2163 15.2266 35.3008 15.1915 35.3836 15.1619C35.4701 15.1216 35.5512 15.0882 35.6267 15.0618C35.6989 15.0282 35.753 15.003 35.7891 14.9862C36.0123 14.8999 36.2312 14.8419 36.4456 14.8123C36.6568 14.7755 36.8594 14.7865 37.0535 14.8454C37.2517 14.8936 37.4356 14.9967 37.6057 15.1546C37.7758 15.3124 37.928 15.5356 38.0623 15.8243C38.3411 16.4231 38.3477 16.9556 38.0818 17.4219C37.8264 17.8918 37.2479 18.3368 36.346 18.7566C35.9346 18.9481 35.5712 19.0822 35.2557 19.1589C34.9475 19.232 34.6729 19.2457 34.432 19.1998C34.2018 19.1578 33.9963 19.056 33.8157 18.8942C33.6456 18.7363 33.4968 18.5203 33.3692 18.2462ZM34.2012 17.7139C34.2853 17.8943 34.3774 18.0358 34.4778 18.1382C34.5854 18.2374 34.7102 18.2978 34.852 18.3197C34.9937 18.3414 35.1616 18.3247 35.3554 18.2697C35.5526 18.2217 35.7847 18.1356 36.0517 18.0113C36.6361 17.7393 37.0122 17.472 37.1797 17.2097C37.3472 16.9473 37.3504 16.6429 37.1893 16.2965C37.1053 16.1161 37.0022 15.9798 36.8802 15.8874C36.7615 15.8021 36.6277 15.7503 36.4786 15.7319C36.3295 15.7134 36.1706 15.7305 36.0019 15.7827C35.8296 15.8278 35.6461 15.8955 35.4514 15.9862L34.3257 16.5102C34.2125 16.7385 34.1356 16.9411 34.095 17.1181C34.065 17.2988 34.1005 17.4974 34.2012 17.7139ZM33.8638 13.736C34.2823 13.5412 34.5414 13.3151 34.6412 13.058C34.741 12.8009 34.6951 12.4667 34.5037 12.0554C34.3122 11.6441 34.0877 11.3974 33.83 11.3155C33.569 11.2262 33.2328 11.2774 32.8215 11.4688C32.3958 11.6671 32.1295 11.8964 32.0225 12.1569C31.9228 12.414 31.9686 12.7483 32.1601 13.1596C32.3482 13.5635 32.5727 13.8102 32.8338 13.8994C33.102 13.9852 33.4453 13.9307 33.8638 13.736Z" fill="#663F58"/>
<path d="M39.1867 12.6886C39.0362 12.1275 39.0633 11.6754 39.268 11.3321C39.4804 10.9868 39.8935 10.6989 40.5074 10.4685L42.2054 9.84036L42.0787 9.36756C41.9798 8.99854 41.828 8.75495 41.6234 8.63677C41.4264 8.51653 41.1778 8.49659 40.878 8.57693C40.5091 8.67581 40.1403 8.79111 39.7718 8.92282C39.4013 9.04684 39.0329 9.17854 38.6665 9.31793L38.4434 8.62377C39.2339 8.22238 39.956 7.93414 40.6094 7.75901C41.286 7.57771 41.8143 7.5968 42.1945 7.81627C42.5803 8.026 42.8608 8.4576 43.0359 9.11107L43.8085 11.9939C43.8806 12.263 44.1335 12.3766 44.5671 12.3345L44.7365 13.1049C44.4136 13.1914 44.1294 13.2222 43.8838 13.1974C43.6402 13.1803 43.4095 13.1186 43.1914 13.0121C42.607 13.5067 41.9804 13.8435 41.3117 14.0227C40.7581 14.171 40.3017 14.1285 39.9425 13.8952C39.591 13.6598 39.3391 13.2577 39.1867 12.6886ZM41.2652 13.1576C41.7342 13.0319 42.193 12.8225 42.6417 12.5291L42.8853 12.3774L42.394 10.5438L40.8112 11.141C40.4888 11.2603 40.2764 11.4202 40.1735 11.6209C40.0707 11.8214 40.0626 12.0832 40.1492 12.406C40.3242 13.0595 40.6963 13.3101 41.2652 13.1576Z" fill="#663F58"/>
<path d="M46.2031 6.70436L47.1781 6.61631L47.2124 6.9968C47.5448 6.78298 47.846 6.62391 48.1164 6.51959C48.3946 6.41455 48.6764 6.34914 48.9616 6.32336C49.374 6.28613 49.7171 6.32705 49.9916 6.44612C50.2655 6.55725 50.489 6.73282 50.6626 6.97289C50.8354 7.20503 50.9657 7.49693 51.0534 7.84863C51.1412 8.20033 51.205 8.59811 51.2451 9.04202L51.5297 12.193L50.5427 12.282L50.2615 9.16682C50.2378 8.90524 50.203 8.65265 50.1571 8.40908C50.111 8.16548 50.0358 7.95251 49.9316 7.77014C49.8343 7.57913 49.7011 7.43133 49.5318 7.32675C49.3625 7.22216 49.1391 7.18239 48.8617 7.20745C48.7349 7.21891 48.5972 7.24333 48.4488 7.28071C48.3003 7.3181 48.1569 7.36701 48.0185 7.42746C47.8794 7.47997 47.7447 7.53611 47.6141 7.59584C47.4917 7.65485 47.385 7.71244 47.2941 7.76859L47.7248 12.5366L46.7378 12.6257L46.2031 6.70436Z" fill="#663F58"/>
<path d="M96.0821 28.3744L89.3469 33.1383L88.7611 32.3099L94.6092 28.1733L94.5194 28.0467L87.5943 30.1227L86.9531 29.2162L91.2172 23.3778L91.1275 23.2511L85.2794 27.3876L84.6934 26.5592L91.4285 21.7953L92.4763 23.2768L88.2029 29.0194L95.0341 26.8929L96.0821 28.3744Z" fill="#663F58"/>
<path d="M93.2129 34.475C94.1961 34.0619 95.0086 33.9407 95.65 34.1113C96.3019 34.2864 96.796 34.7738 97.132 35.5736C97.4465 36.322 97.4712 36.9764 97.2059 37.5368C96.9511 38.1015 96.3831 38.5473 95.5017 38.8745L94.8402 39.0876L93.3325 35.4995C93.017 35.6321 92.7601 35.7703 92.5614 35.9141C92.366 36.0654 92.2233 36.2289 92.1331 36.405C92.0461 36.5884 92.0113 36.7928 92.0285 37.0187C92.0561 37.2489 92.1346 37.518 92.2642 37.8262C92.3567 38.0463 92.4636 38.2906 92.585 38.559C92.7065 38.8274 92.829 39.078 92.9527 39.311L93.1245 39.6274L92.4513 39.936C91.982 39.2094 91.6256 38.5564 91.3821 37.9767C91.2032 37.5511 91.113 37.1617 91.1113 36.8084C91.12 36.4594 91.2033 36.1439 91.361 35.8618C91.5261 35.5766 91.764 35.3212 92.0751 35.0956C92.3934 34.8669 92.7726 34.66 93.2129 34.475ZM93.9993 35.2064L95.1509 37.947C95.782 37.6818 96.1864 37.391 96.3643 37.0747C96.5494 36.755 96.5448 36.3642 96.3507 35.902C96.1471 35.4177 95.8566 35.1166 95.4791 34.9991C95.112 34.8856 94.6187 34.9548 93.9993 35.2064Z" fill="#663F58"/>
<path d="M101.513 40.6179L101.735 41.5836L98.9071 42.2338C99.1276 42.5178 99.3058 42.7954 99.4416 43.0663C99.5852 43.3356 99.6908 43.6174 99.7586 43.9122C99.8495 44.3078 99.8616 44.644 99.7945 44.9207C99.7275 45.1976 99.5868 45.4381 99.3725 45.6425C99.1659 45.8452 98.8905 46.0148 98.5461 46.151C98.2096 46.2856 97.8125 46.4055 97.3548 46.5106L94.2716 47.2197L94.0495 46.254L97.1095 45.5504C97.3809 45.488 97.6343 45.4175 97.8694 45.3389C98.114 45.2662 98.3205 45.1699 98.4888 45.0494C98.657 44.9291 98.7777 44.7788 98.8507 44.5988C98.9237 44.4187 98.9289 44.1928 98.8664 43.9213C98.8396 43.805 98.7977 43.6759 98.7406 43.5338C98.693 43.3977 98.6328 43.2605 98.5601 43.122C98.497 42.9895 98.4299 42.8579 98.3591 42.7272C98.2899 42.6043 98.2245 42.4968 98.1624 42.4049L93.4153 43.4965L93.1934 42.5308L101.513 40.6179Z" fill="#663F58"/>
<path d="M100.461 48.9673L100.537 49.9433L99.7514 50.0042C100.263 50.635 100.624 51.3255 100.834 52.0756L99.8339 52.1531C99.7984 52.0042 99.7459 51.8405 99.6761 51.6624C99.6065 51.4842 99.5285 51.3026 99.4424 51.1177C99.3562 50.9328 99.266 50.7481 99.1719 50.5639C99.0785 50.3875 98.9902 50.2267 98.907 50.0814L94.5863 50.4161L94.5098 49.4281L100.461 48.9673Z" fill="#663F58"/>
<path d="M97.7153 54.8056C98.7791 54.8816 99.5585 55.1409 100.053 55.5832C100.556 56.0341 100.776 56.6922 100.714 57.5576C100.656 58.3673 100.382 58.9622 99.8923 59.342C99.4097 59.7304 98.7013 59.8712 97.7675 59.7645L97.081 59.6555L97.3588 55.7736C97.0174 55.7491 96.7257 55.7561 96.4836 55.7947C96.2408 55.8411 96.0394 55.9224 95.8795 56.0387C95.719 56.1629 95.5955 56.3296 95.5086 56.5387C95.4292 56.7566 95.3777 57.0321 95.3537 57.3655C95.3367 57.6037 95.3217 57.8699 95.3085 58.1643C95.2955 58.4586 95.2915 58.7376 95.2965 59.0013L95.3067 59.3611L94.5666 59.332C94.4767 58.4718 94.4541 57.7281 94.4989 57.101C94.5318 56.6405 94.6274 56.2523 94.7857 55.9365C94.9513 55.6291 95.1682 55.3854 95.4365 55.2051C95.7127 55.0254 96.0405 54.9051 96.4198 54.8445C96.8071 54.7846 97.239 54.7715 97.7153 54.8056ZM98.0861 55.8135L97.8738 58.7787C98.5566 58.8276 99.0489 58.7511 99.3505 58.5493C99.6603 58.3479 99.8329 57.9972 99.8687 57.4971C99.9061 56.9731 99.7832 56.5733 99.4997 56.2976C99.2235 56.0306 98.7524 55.8693 98.0861 55.8135Z" fill="#663F58"/>
<path d="M93.056 61.4861C93.3879 61.5699 93.6461 61.7171 93.831 61.9281C94.0081 62.1369 94.1714 62.4163 94.3212 62.766C94.4257 62.6775 94.5513 62.6189 94.6981 62.5903C94.8429 62.5695 94.981 62.5755 95.1121 62.6087C95.2434 62.6418 95.3811 62.7136 95.5256 62.8239C95.6701 62.9344 95.8426 63.0805 96.0428 63.2625C96.4862 62.7422 97.14 62.5913 98.0043 62.8096C99.3316 63.1448 99.812 64.0378 99.4457 65.4886C99.3501 65.8667 99.1987 66.2553 98.9911 66.6544L98.5961 68.414L97.7973 68.2122L98.0893 67.1531C97.9174 67.2493 97.7358 67.3018 97.5447 67.3111C97.3535 67.3203 97.1306 67.2928 96.876 67.2283C96.166 67.049 95.7054 66.744 95.494 66.313C95.2905 65.884 95.2833 65.2952 95.4723 64.5467C95.5094 64.4001 95.5444 64.2775 95.5774 64.1791C95.6085 64.0885 95.6415 64.0065 95.6764 63.9333C95.6013 63.8733 95.4934 63.7968 95.3527 63.7039C95.21 63.6185 95.0876 63.5671 94.9853 63.5494C94.829 63.5182 94.7024 63.5807 94.6056 63.7367C94.5087 63.8929 94.4125 64.1436 94.3171 64.4889C94.2995 64.5584 94.2792 64.6393 94.2557 64.7319C94.2322 64.8245 94.206 64.9123 94.1768 64.9953C94.1536 65.0878 94.1282 65.1717 94.101 65.2469C94.0816 65.3242 94.0669 65.382 94.0571 65.4206C93.9833 65.6483 93.8902 65.8545 93.7777 66.0396C93.673 66.2266 93.5366 66.3769 93.3683 66.4903C93.2059 66.6135 93.0098 66.6912 92.7799 66.7235C92.5502 66.7557 92.281 66.7329 91.9722 66.6549C91.3318 66.4932 90.9146 66.1621 90.721 65.6617C90.5174 65.167 90.5376 64.4373 90.7812 63.4728C90.8923 63.0328 91.0177 62.6664 91.1574 62.3734C91.295 62.088 91.4578 61.8664 91.6454 61.7086C91.8233 61.5564 92.032 61.4615 92.2715 61.4234C92.5012 61.3911 92.7628 61.412 93.056 61.4861ZM92.9436 62.4674C92.7507 62.4187 92.5828 62.401 92.44 62.414C92.2952 62.435 92.1696 62.4935 92.0631 62.5898C91.9567 62.686 91.8637 62.8268 91.7842 63.0119C91.6968 63.195 91.6171 63.4294 91.545 63.7149C91.3872 64.34 91.3571 64.8003 91.4548 65.0958C91.5526 65.3914 91.7866 65.5861 92.1571 65.6795C92.35 65.7283 92.5209 65.7345 92.6696 65.6982C92.8106 65.6598 92.9353 65.5887 93.0436 65.4848C93.1519 65.3809 93.2391 65.2468 93.3051 65.0829C93.3789 64.921 93.442 64.7358 93.4946 64.5275L93.7987 63.3236C93.6931 63.0918 93.5844 62.9043 93.4728 62.7611C93.3516 62.6237 93.1752 62.5258 92.9436 62.4674ZM96.2421 64.7165C96.1291 65.1639 96.1408 65.5076 96.2773 65.7474C96.4138 65.9871 96.7018 66.1624 97.1417 66.2735C97.5816 66.3845 97.9146 66.3661 98.1408 66.218C98.3747 66.0718 98.5473 65.7789 98.6585 65.3391C98.7733 64.8837 98.7637 64.5323 98.6291 64.285C98.4926 64.0452 98.2045 63.8698 97.7646 63.7587C97.3324 63.6496 96.9993 63.6681 96.7655 63.8142C96.5295 63.9682 96.3551 64.2689 96.2421 64.7165Z" fill="#663F58"/>
<path d="M93.6939 69.5086C94.2241 69.7461 94.5577 70.0527 94.6948 70.428C94.8286 70.8106 94.7911 71.3128 94.5824 71.9344L93.9978 73.6479L94.4445 73.8481C94.7932 74.0042 95.0778 74.0403 95.2988 73.956C95.5164 73.8791 95.6887 73.699 95.8156 73.4157C95.9717 73.0672 96.1152 72.7084 96.2454 72.3394C96.3832 71.9737 96.5135 71.6049 96.6367 71.2327L97.316 71.4978C97.1282 72.3643 96.8962 73.1062 96.6195 73.7237C96.3331 74.3629 95.9849 74.7605 95.5747 74.9169C95.1685 75.0838 94.6567 75.029 94.0394 74.7523L91.3155 73.5319C91.0614 73.418 90.8137 73.5426 90.5725 73.9054L89.8682 73.5507C90.0048 73.2455 90.1604 73.0056 90.3346 72.8308C90.5015 72.6527 90.6952 72.5127 90.9152 72.4107C90.9007 71.6453 91.0348 70.9467 91.3179 70.3148C91.5523 69.7919 91.8734 69.4646 92.281 69.3333C92.6854 69.2094 93.1565 69.2678 93.6939 69.5086ZM92.0183 70.8248C91.8198 71.2679 91.6926 71.756 91.6369 72.2892L91.6009 72.5739L93.3332 73.3501L93.8689 71.7456C93.9798 71.4203 93.99 71.1545 93.8993 70.9481C93.8086 70.7417 93.6107 70.5702 93.3056 70.4335C92.6882 70.157 92.2591 70.2874 92.0183 70.8248Z" fill="#663F58"/>
<path d="M93.9053 78.7279L93.3583 79.5397L93.0414 79.3261C92.9974 79.719 92.9307 80.053 92.8411 80.3285C92.7469 80.6106 92.6198 80.8705 92.4597 81.1081C92.2284 81.4513 91.98 81.6918 91.7143 81.8295C91.4554 81.9718 91.178 82.0343 90.8824 82.0173C90.5932 82.005 90.2846 81.9216 89.9564 81.7677C89.6283 81.6137 89.2794 81.4122 88.9098 81.1632L86.2861 79.3952L86.8399 78.5734L89.4339 80.3215C89.6516 80.4682 89.8695 80.6006 90.0875 80.7187C90.3054 80.8368 90.5181 80.9129 90.7254 80.947C90.9349 80.9923 91.1336 80.9822 91.3216 80.9169C91.5096 80.8517 91.6814 80.7036 91.8371 80.4724C91.9081 80.3669 91.9761 80.2448 92.0408 80.106C92.1056 79.9672 92.1581 79.8251 92.1987 79.6796C92.2457 79.5386 92.2872 79.3987 92.3232 79.2597C92.3548 79.1274 92.3775 79.0084 92.3912 78.9025L88.4212 76.2271L88.9749 75.4053L93.9053 78.7279Z" fill="#663F58"/>
<path d="M45.3554 23.0228C50.999 21.5747 57.0328 21.6641 62.6278 23.2921C67.1978 24.6179 71.4604 26.9687 75.0318 30.1117C70.8152 31.7673 66.9574 34.2665 63.5712 37.2637C61.5595 39.0297 59.7606 41.0283 58.1182 43.1373C57.2338 44.4197 56.2615 45.7679 56.0736 47.3552C56.2917 47.6048 56.5335 47.8729 56.8791 47.9346C57.3087 48.0503 57.745 47.8177 58.0157 47.4918C59.1457 46.1358 60.1798 44.6707 61.5621 43.5525C65.8431 39.8457 70.6234 36.6948 75.8031 34.3901C74.6954 36.4215 73.8637 38.6145 73.5036 40.9061C73.0372 43.9151 73.0897 47.0188 73.7966 49.9858C74.4707 52.9449 75.5232 55.8435 77.1263 58.4294C77.2892 58.2468 77.4798 58.0694 77.5468 57.8263C77.8358 56.8868 77.6519 55.8961 77.5284 54.9461C77.1171 52.1643 76.4627 49.3932 76.5311 46.5655C76.5389 44.3974 77.0304 42.2621 77.644 40.1926C78.1591 38.4371 78.8713 36.7487 79.5821 35.0641C82.4558 38.9141 84.4426 43.4145 85.3755 48.1265C87.0666 56.5334 85.294 65.5894 80.4625 72.6849C76.4115 78.7345 70.2568 83.3334 63.3045 85.4976C61.3768 86.0915 59.3993 86.5566 57.3889 86.7498C61.4596 86.0731 65.3241 84.248 68.4895 81.6068C69.8494 80.4308 71.1293 79.13 72.0872 77.5979C74.5312 73.7847 75.5548 69.0517 74.744 64.5815C73.9149 59.7145 70.99 55.2601 66.8732 52.5401C62.633 49.6651 57.1511 48.7651 52.2 50.0449C50.3354 50.4916 48.5904 51.3339 46.9769 52.3562C44.8548 53.7201 43.0073 55.5282 41.667 57.6713C40.29 59.9471 39.3846 62.5488 39.3032 65.2214C39.2204 67.672 39.8761 70.1397 41.1612 72.2276C43.3805 75.9199 47.3382 78.4743 51.5995 79.0603C55.2563 79.5991 59.1969 78.6294 61.9642 76.121C63.0627 75.1709 63.8879 73.9516 64.5357 72.6612C65.5645 70.4918 65.5658 67.8875 64.6224 65.6879C63.8261 63.7918 62.3216 62.2006 60.4518 61.3347C59.055 60.6317 57.4296 60.5804 55.9093 60.8104C54.1736 61.0889 52.7256 62.3556 51.9411 63.8904C51.5022 64.7589 51.2644 65.8022 51.6192 66.743C52.2105 68.4788 54.2537 69.4893 56.0013 68.9886C56.7884 68.7692 57.4493 68.0386 57.4388 67.1977C57.3863 66.291 56.8002 65.5539 56.2707 64.8653C55.8844 64.3871 56.1472 63.6105 56.7135 63.4173C57.2654 63.2899 57.854 63.4318 58.3415 63.7038C59.3796 64.3069 60.164 65.2792 60.6699 66.358C61.3335 67.6654 61.6094 69.2186 61.1876 70.6443C60.7146 72.3209 59.3651 73.6126 57.8396 74.372C56.5177 75.0514 54.9987 75.1959 53.5363 75.2064C51.2132 75.029 49.0451 73.9805 47.191 72.6139C45.4303 71.2789 43.9757 69.4893 43.2175 67.3987C42.4515 65.3423 42.4239 63.0678 42.8733 60.9378C43.3752 58.6686 44.7037 56.6227 46.4854 55.1445C50.4064 51.8319 55.9803 50.6993 60.917 52.0238C65.3464 53.1709 69.1898 56.3087 71.2554 60.386C73.3775 64.5276 73.5917 69.5891 71.8191 73.8938C71.3355 75.0566 70.739 76.1801 69.99 77.1932C67.4199 80.3678 63.922 82.7908 60.0313 84.043C54.9738 85.7065 49.2947 85.3609 44.475 83.1022C40.8287 81.3914 37.6397 78.6464 35.5228 75.2104C33.9658 72.6218 32.9855 69.6811 32.7319 66.6681C32.6662 65.7536 32.594 64.8338 32.7254 63.9219C33.0263 60.8761 34.0104 57.9656 34.603 54.9763C35.2009 52.0789 35.6897 49.1343 35.6266 46.166C35.6582 41.9639 34.5676 37.721 32.272 34.1798C38.0588 36.6685 43.3621 40.2189 48.0005 44.4683C48.8164 45.371 49.5956 46.3066 50.3407 47.2671C50.5286 47.5076 50.727 47.7599 51.0161 47.886C51.5101 48.1475 52.1697 47.8821 52.4325 47.413C52.5127 46.9215 52.2893 46.4538 52.1119 46.0109C51.3419 44.2712 50.1777 42.7378 48.9137 41.3292C46.1241 37.951 42.6 35.2639 38.9064 32.9434C36.8276 31.6425 34.5939 30.5913 32.2471 29.8752C36.0103 26.6204 40.537 24.2592 45.3554 23.0228ZM53.8963 22.8138C51.3196 26.8136 49.367 31.2431 48.3145 35.8906C48.9859 36.5056 49.6863 37.1205 50.5102 37.5239C51.359 33.984 52.6204 30.5322 54.3063 27.3037C54.8805 28.2932 55.3115 29.3575 55.7845 30.3968C56.7437 32.7095 57.565 35.0891 58.1326 37.5305C58.8763 37.0929 59.5504 36.5502 60.2061 35.9918C59.0669 31.4073 57.1826 26.9976 54.6059 23.0346C54.4824 22.7468 54.1604 22.6759 53.8963 22.8138Z" fill="#663F58"/>
<path d="M24.0413 40.7234C25.1425 38.3266 26.5695 36.0863 28.2198 34.0299C29.5456 36.7564 30.7492 39.5565 31.5863 42.4775C32.1789 44.6969 32.6098 46.999 32.4311 49.305C32.3431 50.6847 32.1592 52.0578 31.8596 53.4086C31.4772 55.1772 31.1408 56.9563 30.7177 58.7158C29.5023 64.0125 30.2867 69.727 32.7964 74.5388C36.0328 80.8578 42.3215 85.5211 49.3277 86.7168C40.1994 85.6367 31.6874 80.3755 26.576 72.7426C23.4251 68.116 21.5316 62.6472 21.102 57.0693C20.6578 51.4888 21.6696 45.7967 24.0413 40.7234Z" fill="#663F58"/>
</svg>
