<svg xmlns:xlink="http://www.w3.org/1999/xlink"  width="166" height="49" viewBox="0 0 166 49" fill="none" xmlns="http://www.w3.org/2000/svg">
<path fill-rule="evenodd" clip-rule="evenodd" d="M112.38 43.552C113.752 43.552 114.962 43.1556 116.008 42.3625C117.202 41.4635 117.996 40.2123 118.391 38.6081L119.266 35.0677C119.352 34.7178 119.092 34.3784 118.736 34.3784H116.579C116.328 34.3784 116.11 34.5513 116.049 34.7979L115.146 38.4493C114.977 39.137 114.717 39.6261 114.368 39.9167C114.018 40.2075 113.514 40.3529 112.854 40.3529H112.071H110.508H104.126C103.465 40.3529 103.032 40.2075 102.826 39.9167C102.619 39.6261 102.6 39.137 102.769 38.4493L103.617 35.0695C103.705 34.7191 103.444 34.3784 103.087 34.3784H100.919C100.668 34.3784 100.45 34.5515 100.389 34.7982L98.6471 41.8599C98.3741 42.9705 97.8272 43.8339 97.0068 44.4511C96.1863 45.0677 95.1768 45.3765 93.9777 45.3765C92.8312 45.3765 91.9989 44.9798 91.4815 44.1867C90.9379 43.3583 90.8307 42.2743 91.1599 40.9345C91.376 40.0556 91.7408 39.204 92.252 38.3796C92.5049 37.9715 92.1563 37.4513 91.6869 37.5251L90.0503 37.7821C89.9158 37.8033 89.7913 37.872 89.7041 37.9781C88.8796 38.9818 88.3052 40.1434 87.9808 41.4635C87.5476 43.226 87.6744 44.7593 88.3617 46.0638C89.236 47.7382 90.8456 48.5757 93.1912 48.5757C94.9285 48.5757 96.5099 48.1526 97.9339 47.3065C99.3973 46.4162 100.503 45.222 101.252 43.7229C101.367 43.4915 101.625 43.3792 101.875 43.4346C102.227 43.5129 102.611 43.552 103.027 43.552H104.122H104.121H112.38Z" fill="#174489"/>
<path fill-rule="evenodd" clip-rule="evenodd" d="M108.226 45.0791C107.08 45.0791 106.366 45.6517 106.084 46.7975C105.95 47.3438 106 47.7758 106.235 48.093C106.469 48.4103 106.847 48.5689 107.369 48.5689C108.498 48.5689 109.208 47.9784 109.498 46.7975C109.628 46.2688 109.579 45.85 109.351 45.5418C109.122 45.2331 108.748 45.0791 108.226 45.0791" fill="#174489"/>
<path fill-rule="evenodd" clip-rule="evenodd" d="M96.3152 36.124C97.4446 36.124 98.1543 35.534 98.4447 34.3528C98.5745 33.8238 98.525 33.4055 98.2972 33.0971C98.0689 32.789 97.694 32.6343 97.1729 32.6343C96.6517 32.6343 96.196 32.7927 95.8049 33.1101C95.4142 33.4274 95.1559 33.8416 95.0304 34.3528C94.8959 34.8996 94.9463 35.331 95.1812 35.6483C95.416 35.9657 95.794 36.124 96.3152 36.124" fill="#174489"/>
<path fill-rule="evenodd" clip-rule="evenodd" d="M136.301 32.4015C137.43 32.4015 138.139 31.8112 138.43 30.63C138.56 30.101 138.51 29.683 138.283 29.3742C138.054 29.066 137.679 28.9116 137.158 28.9116C136.637 28.9116 136.181 29.0699 135.79 29.3873C135.399 29.7047 135.141 30.1191 135.016 30.63C134.881 31.1768 134.932 31.6085 135.167 31.9255C135.401 32.2429 135.779 32.4015 136.301 32.4015" fill="#174489"/>
<path fill-rule="evenodd" clip-rule="evenodd" d="M134.978 34.3784C134.728 34.3784 134.509 34.5515 134.448 34.7982L132.642 42.1246C132.369 43.2347 131.89 44.103 131.206 44.7288C130.523 45.354 129.703 45.6672 128.748 45.6672C128.184 45.6672 127.641 45.5591 127.116 45.3442C126.826 45.2256 126.497 45.3573 126.385 45.6529L125.743 47.3481C125.639 47.622 125.757 47.9332 126.016 48.0639C126.798 48.4576 127.646 48.6548 128.561 48.6548C130.246 48.6548 131.746 48.0642 133.062 46.8835C134.485 45.6145 135.449 43.9576 135.951 41.9129L137.64 35.0673C137.726 34.7175 137.465 34.3784 137.11 34.3784H134.978Z" fill="#174489"/>
<path fill-rule="evenodd" clip-rule="evenodd" d="M112.241 45.0791C111.094 45.0791 110.38 45.6517 110.099 46.7975C109.964 47.3438 110.015 47.7758 110.249 48.093C110.484 48.4103 110.862 48.5689 111.383 48.5689C112.513 48.5689 113.223 47.9784 113.513 46.7975C113.643 46.2688 113.593 45.85 113.365 45.5418C113.137 45.2331 112.762 45.0791 112.241 45.0791" fill="#174489"/>
<path fill-rule="evenodd" clip-rule="evenodd" d="M126.941 34.3784H124.81C124.559 34.3784 124.341 34.5515 124.28 34.7982L122.473 42.1246C122.2 43.2347 121.722 44.103 121.038 44.7288C120.354 45.354 119.535 45.6672 118.579 45.6672C118.017 45.6672 117.474 45.5594 116.949 45.3449C116.66 45.2265 116.331 45.3581 116.219 45.6533L115.577 47.3492C115.473 47.6232 115.591 47.9346 115.851 48.065C116.631 48.458 117.478 48.6548 118.392 48.6548C120.077 48.6548 121.578 48.0642 122.893 46.8835C124.317 45.6145 125.28 43.9576 125.783 41.9129L127.471 35.0673C127.558 34.7175 127.297 34.3784 126.941 34.3784" fill="#174489"/>
<path fill-rule="evenodd" clip-rule="evenodd" d="M74.335 45.1655C73.1882 45.1655 72.4741 45.738 72.1923 46.8839C72.0582 47.43 72.1085 47.8621 72.3433 48.1793C72.5777 48.4968 72.9559 48.6554 73.4773 48.6554C74.6063 48.6554 75.3164 48.0647 75.6066 46.8839C75.7366 46.3552 75.6872 45.9364 75.4592 45.6282C75.2306 45.3195 74.8563 45.1655 74.335 45.1655" fill="#174489"/>
<path fill-rule="evenodd" clip-rule="evenodd" d="M70.2235 45.1655C69.077 45.1655 68.3628 45.738 68.081 46.8839C67.9468 47.43 67.9971 47.8621 68.232 48.1793C68.4664 48.4968 68.8446 48.6554 69.3657 48.6554C70.495 48.6554 71.2052 48.0647 71.4953 46.8839C71.6253 46.3552 71.5759 45.9364 71.3478 45.6282C71.1193 45.3195 70.745 45.1655 70.2235 45.1655" fill="#174489"/>
<path fill-rule="evenodd" clip-rule="evenodd" d="M60.1151 36.0611C61.2443 36.0611 61.9539 35.4707 62.2443 34.2897C62.3742 33.761 62.3247 33.3425 62.0971 33.0339C61.8687 32.7257 61.4938 32.5713 60.9726 32.5713C60.4514 32.5713 59.9956 32.7298 59.6048 33.0472C59.2139 33.3643 58.9556 33.7787 58.8302 34.2897C58.6958 34.8365 58.7461 35.268 58.9811 35.5852C59.2156 35.9024 59.5939 36.0611 60.1151 36.0611" fill="#174489"/>
<path fill-rule="evenodd" clip-rule="evenodd" d="M88.9421 27.9045L88.7772 27.7509C88.5566 27.5454 88.2127 27.5503 88.003 27.7674C87.5666 28.2195 87.2327 28.4615 87.0008 28.4939C86.7772 28.5252 86.4723 28.4437 86.0862 28.2483C85.3595 27.9054 84.8068 27.7598 84.4282 27.8126C83.7586 27.9062 83.0474 28.3914 82.2948 29.2678C82.0915 29.5045 82.1185 29.8671 82.353 30.072L82.5206 30.2184C82.7454 30.4145 83.085 30.4009 83.2886 30.1822C83.7037 29.7361 84.0336 29.4959 84.2783 29.4616L84.3041 29.4581C84.5107 29.4292 84.8155 29.5111 85.2192 29.7037C85.9283 30.0498 86.4638 30.1969 86.8252 30.1465C87.4966 30.0527 88.2152 29.5717 88.9817 28.7029C89.1856 28.4718 89.1672 28.1142 88.9421 27.9045" fill="#174489"/>
<path fill-rule="evenodd" clip-rule="evenodd" d="M83.131 32.1217L80.4981 42.9058C80.4107 43.2642 80.6779 43.6105 81.0417 43.6105H83.1717C83.429 43.6105 83.6534 43.4326 83.7152 43.1792L86.3504 32.3884C86.4358 32.0388 86.175 31.7007 85.82 31.7007H83.6614C83.4103 31.7007 83.1914 31.8744 83.131 32.1217" fill="#174489"/>
<path fill-rule="evenodd" clip-rule="evenodd" d="M75.6201 38.5077C75.4512 39.1951 75.1915 39.6841 74.8425 39.9749C74.4926 40.2657 73.988 40.4113 73.328 40.4113H72.5464H70.9825H70.2009C69.5403 40.4113 69.1068 40.2657 68.9007 39.9749C68.6939 39.6841 68.6755 39.1951 68.8442 38.5077L69.6752 35.1586C69.7622 34.8086 69.5013 34.4689 69.1454 34.4689H67.0016C66.7519 34.4689 66.5339 34.6407 66.4722 34.8861L65.5605 38.5077C65.3915 39.1951 65.1318 39.6841 64.783 39.9749C64.4329 40.2657 63.9283 40.4113 63.2683 40.4113H62.4863H52.1618H51.7448C50.9629 40.4113 50.4521 40.2439 50.213 39.9089C49.9738 39.5743 49.9276 38.966 50.0753 38.0844C50.5117 35.5155 49.7335 33.4467 47.7402 31.8776C47.5019 31.69 47.1578 31.73 46.9654 31.9656L45.3707 33.9175C45.1692 34.1645 45.2144 34.5252 45.4591 34.7283C46.6821 35.7433 47.081 37.1175 46.655 38.8513C46.3994 39.8913 45.8287 40.4113 44.9424 40.4113H41.4177C41.1877 40.4113 40.9809 40.5541 40.8965 40.7714L40.097 42.8344C39.9525 43.207 40.2234 43.6103 40.6182 43.6103H44.7554C45.9545 43.6103 46.9639 43.2491 47.7845 42.5262C48.493 43.2491 49.4897 43.6103 50.7759 43.6103H51.3753H61.6998H62.7943C64.0626 43.6103 65.1985 43.2667 66.2014 42.5791H66.2016C66.8666 43.2667 67.8332 43.6103 69.1016 43.6103H70.1959H71.76H72.8542C74.2265 43.6103 75.4361 43.2136 76.4825 42.4205C77.6764 41.5216 78.4706 40.2703 78.865 38.6661L79.7352 35.1586C79.8219 34.8085 79.561 34.4689 79.2051 34.4689H77.0536C76.8037 34.4689 76.5854 34.6411 76.5241 34.8872L75.6201 38.5077Z" fill="#174489"/>
<path fill-rule="evenodd" clip-rule="evenodd" d="M50.9893 9.86747C50.967 9.96101 50.9182 10.0431 50.8462 10.1057C50.2827 10.5957 49.6163 11.2067 48.8466 11.9387C48.0263 12.7187 47.1695 13.5653 46.2766 14.4788C45.3833 15.3925 44.49 16.3396 43.5969 17.3198C42.9527 18.027 42.3502 18.7109 41.7898 19.3718C41.5379 19.6687 41.7477 20.1274 42.134 20.1274H48.2276C48.5203 20.1274 48.7357 20.4056 48.6661 20.694L48.1838 22.6972C48.1345 22.9022 47.9534 23.0464 47.7453 23.0464H36.8813C36.588 23.0464 36.3727 22.7674 36.4431 22.4785L36.7872 21.0669C36.8021 21.0058 36.828 20.9497 36.8657 20.8994C37.4389 20.1328 38.1087 19.2997 38.8745 18.4006C39.6653 17.4725 40.4889 16.5402 41.3456 15.6041C42.2022 14.6682 43.0622 13.7625 43.9263 12.8857C44.4803 12.3239 45.0069 11.7987 45.5068 11.3101C45.7988 11.0244 45.5979 10.524 45.1922 10.524H40.1742C39.8816 10.524 39.6662 10.2458 39.7358 9.95737L40.2181 7.95417C40.2675 7.74914 40.4486 7.60498 40.6567 7.60498H50.9532C51.2453 7.60498 51.4604 7.88209 51.392 8.17L50.9893 9.86747Z" fill="#174489"/>
<path fill-rule="evenodd" clip-rule="evenodd" d="M58.3155 13.8738L57.7954 13.823C57.6906 13.813 57.5703 13.8064 57.4348 13.8031C56.8248 13.7885 56.2115 13.9362 55.6962 14.268C55.3241 14.5078 54.9949 14.8087 54.7094 15.1711C54.3872 15.5797 54.1344 16.0513 53.9515 16.5858C53.7684 17.1207 53.6771 17.6776 53.6771 18.2572C53.6771 18.9701 53.7941 19.5348 54.0284 19.9507C54.2624 20.3665 54.6946 20.5745 55.3245 20.5745C55.661 20.5745 55.9649 20.5077 56.2359 20.374C56.4701 20.2583 56.7181 20.0762 56.9798 19.827C57.0599 19.7509 57.1079 19.6459 57.1182 19.5349C57.1476 19.2153 57.1904 18.8822 57.2463 18.5357C57.3122 18.1274 57.3815 17.7523 57.4549 17.4103L58.3155 13.8738ZM60.5966 17.9885C60.3912 18.8352 60.3329 19.6859 60.4206 20.5398C60.4871 21.1865 60.5997 21.7797 60.7585 22.3199C60.8372 22.5877 60.6639 22.8617 60.3913 22.9012L58.3303 23.1999C58.1337 23.2284 57.9418 23.1215 57.8568 22.9393C57.8242 22.8699 57.7929 22.8016 57.763 22.7345C57.7602 22.7282 57.7574 22.722 57.7544 22.7156C57.6375 22.453 57.3212 22.3624 57.0849 22.5224C56.8018 22.7142 56.5005 22.8814 56.1815 23.0243C55.6836 23.2472 55.1272 23.3587 54.5122 23.3587C53.7799 23.3587 53.1538 23.2283 52.6343 22.9686C52.1143 22.7089 51.6897 22.3597 51.3603 21.9214C51.0308 21.4834 50.7927 20.9708 50.6464 20.3838C50.4999 19.7972 50.4268 19.1694 50.4268 18.5008C50.4268 17.4758 50.606 16.5105 50.9648 15.6044C51.3234 14.6984 51.8216 13.9074 52.4586 13.2312C53.0956 12.5555 53.8457 12.0245 54.7099 11.6381C55.5738 11.2519 56.5111 11.0586 57.5213 11.0586C57.6532 11.0586 57.8838 11.0663 58.2134 11.0811C58.5427 11.0961 58.9196 11.1293 59.3444 11.1813C59.7689 11.2334 60.2154 11.3188 60.6843 11.4375C61.0217 11.5232 61.3477 11.632 61.6624 11.7637C61.8707 11.8509 61.9893 12.0752 61.937 12.2977L60.5966 17.9885Z" fill="#174489"/>
<path fill-rule="evenodd" clip-rule="evenodd" d="M71.6529 13.7931C71.5737 14.0121 71.345 14.1347 71.1214 14.0799C70.9619 14.0409 70.8036 14.0028 70.6463 13.9661C70.3608 13.8992 69.9397 13.866 69.3834 13.866C69.1781 13.866 68.9511 13.8845 68.7024 13.9214C68.5848 13.9391 68.4771 13.9573 68.3792 13.9765C68.2037 14.0109 68.0637 14.1439 68.022 14.3203L66.0398 22.695C65.9911 22.9009 65.8097 23.046 65.601 23.046H63.2571C62.9651 23.046 62.7499 22.7689 62.8185 22.4808L65.26 12.2013C65.2971 12.045 65.4101 11.9192 65.5614 11.8714C66.1285 11.6923 66.7546 11.5215 67.4394 11.359C68.2226 11.1736 69.105 11.0806 70.0863 11.0806C70.4522 11.0806 70.8584 11.1139 71.3053 11.1807C71.5613 11.2191 71.7992 11.2709 72.0192 11.3361C72.2733 11.4114 72.4151 11.6841 72.3241 11.9363L71.6529 13.7931Z" fill="#174489"/>
<path fill-rule="evenodd" clip-rule="evenodd" d="M80.6587 13.7931C80.5796 14.0121 80.3508 14.1347 80.1273 14.0799C79.9678 14.0409 79.8094 14.0028 79.6522 13.9661C79.3666 13.8992 78.9455 13.866 78.3892 13.866C78.1839 13.866 77.9569 13.8845 77.7082 13.9214C77.5906 13.9391 77.483 13.9573 77.3851 13.9765C77.2096 14.0109 77.0696 14.1439 77.0278 14.3203L75.0457 22.695C74.997 22.9009 74.8155 23.046 74.6069 23.046H72.263C71.971 23.046 71.7558 22.7689 71.8243 22.4808L74.2659 12.2013C74.303 12.045 74.416 11.9192 74.5672 11.8714C75.1343 11.6923 75.7605 11.5215 76.4453 11.359C77.2285 11.1736 78.1109 11.0806 79.0921 11.0806C79.458 11.0806 79.8643 11.1139 80.3112 11.1807C80.5672 11.2191 80.8051 11.2709 81.025 11.3361C81.2792 11.4114 81.421 11.6841 81.33 11.9363L80.6587 13.7931Z" fill="#174489"/>
<path fill-rule="evenodd" clip-rule="evenodd" d="M85.5506 9.90001C85.0965 9.90001 84.6865 9.76301 84.3206 9.48779C83.9543 9.21325 83.7714 8.79374 83.7714 8.22899C83.7714 7.91692 83.8337 7.62402 83.9581 7.34881C84.0825 7.07413 84.2472 6.83643 84.4524 6.63586C84.6571 6.43541 84.895 6.27587 85.1662 6.15682C85.437 6.03818 85.7264 5.97852 86.0339 5.97852C86.4876 5.97852 86.8976 6.11606 87.2638 6.3906C87.6297 6.66582 87.8131 7.08519 87.8131 7.64953C87.8131 7.9616 87.7505 8.25504 87.6264 8.52972C87.5017 8.80481 87.337 9.04237 87.1321 9.24281C86.9268 9.44338 86.6891 9.6032 86.4182 9.72198C86.1471 9.84103 85.8581 9.90001 85.5506 9.90001M83.6118 23.0471H81.2885C80.997 23.0471 80.782 22.7712 80.8493 22.4834L83.3803 11.6787C83.4286 11.4724 83.6105 11.3266 83.8195 11.3266H86.1632C86.4552 11.3266 86.6703 11.6033 86.6023 11.8913L84.0509 22.696C84.0023 22.9018 83.8207 23.0471 83.6118 23.0471" fill="#174489"/>
<path fill-rule="evenodd" clip-rule="evenodd" d="M89.531 12.1165C89.5686 11.9579 89.6867 11.8323 89.8405 11.7851C90.0204 11.7299 90.212 11.6696 90.4154 11.604C90.7154 11.5077 91.0525 11.4184 91.4258 11.3366C91.7993 11.2553 92.2167 11.1885 92.6777 11.1363C93.139 11.0844 93.6625 11.0581 94.2483 11.0581C95.9759 11.0581 97.1622 11.5635 97.8066 12.5735C98.4507 13.5838 98.5606 14.9652 98.1361 16.7177L96.7254 22.6946C96.6767 22.9006 96.4952 23.046 96.2863 23.046H93.9409C93.6494 23.046 93.4344 22.77 93.5017 22.4823L94.8194 16.8515C94.9073 16.4653 94.9766 16.0905 95.028 15.7263C95.0791 15.3624 95.0755 15.0432 95.0171 14.7682C94.9584 14.4933 94.8228 14.2706 94.6109 14.0997C94.3982 13.9291 94.0727 13.8434 93.6333 13.8434C93.3031 13.8434 92.9686 13.8704 92.6297 13.9242C92.4518 13.9524 92.3104 14.0921 92.2686 14.2699L90.2894 22.6942C90.241 22.9005 90.0593 23.046 89.8503 23.046H87.5072C87.2152 23.046 87 22.7689 87.0684 22.4807L89.531 12.1165Z" fill="#174489"/>
<path fill-rule="evenodd" clip-rule="evenodd" d="M110.617 11.6123C110.59 11.4031 110.315 11.3453 110.204 11.5244C109.702 12.34 109.208 13.1502 108.72 13.9556C108.26 14.7171 107.81 15.492 107.372 16.2802C107.202 16.585 107.422 16.9638 107.767 16.9638H110.614C110.878 16.9638 111.085 16.7375 111.064 16.4708C111.003 15.7095 110.939 14.9082 110.873 14.067C110.809 13.2488 110.723 12.4305 110.617 11.6123V11.6123ZM111.969 23.047C111.729 23.047 111.532 22.8551 111.519 22.6122C111.495 22.1829 111.47 21.7595 111.443 21.3424C111.416 20.9277 111.387 20.5151 111.355 20.1045C111.337 19.8659 111.14 19.6826 110.904 19.6826H105.878C105.713 19.6826 105.564 19.7723 105.485 19.9185C105.23 20.3905 104.965 20.865 104.689 21.3424C104.412 21.8203 104.147 22.3067 103.892 22.8009C103.814 22.9519 103.661 23.047 103.493 23.047H100.971C100.623 23.047 100.405 22.6639 100.58 22.3588C101.385 20.9574 102.143 19.6494 102.855 18.4346C103.682 17.0236 104.48 15.6938 105.249 14.4461C106.018 13.1984 106.768 12.014 107.5 10.8922C108.189 9.83732 108.89 8.80528 109.605 7.7966C109.69 7.6762 109.828 7.60547 109.974 7.60547H112.43C112.642 7.60547 112.827 7.75367 112.871 7.96451C113.077 8.93837 113.275 10.0036 113.464 11.1596C113.676 12.4594 113.874 13.7886 114.057 15.1479C114.24 16.5071 114.408 17.8664 114.562 19.2257C114.694 20.3935 114.818 21.4983 114.934 22.5399C114.964 22.8115 114.755 23.047 114.485 23.047H111.969Z" fill="#174489"/>
<path fill-rule="evenodd" clip-rule="evenodd" d="M128.329 11.4497C128.644 11.4497 128.863 11.7699 128.752 12.0687C128.416 12.9666 128.079 13.8148 127.739 14.614C127.321 15.5943 126.885 16.5266 126.432 17.4104C125.978 18.2941 125.509 19.1372 125.026 19.9394C124.543 20.7414 124.03 21.5364 123.488 22.3238C123.093 22.9029 122.683 23.4895 122.258 24.0837C121.833 24.6779 121.361 25.2124 120.842 25.6881C120.322 26.1633 119.743 26.5495 119.107 26.8468C118.469 27.1437 117.734 27.2924 116.899 27.2924C116.386 27.2924 115.947 27.2441 115.581 27.1476C115.365 27.0903 115.156 27.0215 114.955 26.9412C114.726 26.8495 114.615 26.584 114.703 26.3507L115.376 24.5744C115.465 24.3418 115.719 24.2263 115.951 24.3082C116.084 24.355 116.21 24.3954 116.328 24.429C116.562 24.4959 116.848 24.5294 117.185 24.5294C117.697 24.5294 118.184 24.3622 118.645 24.0281C119.061 23.727 119.414 23.3319 119.705 22.8438C119.766 22.7406 119.782 22.6165 119.753 22.4998C119.389 21.0606 119.057 19.4566 118.755 17.6889C118.462 15.9767 118.255 14.0588 118.133 11.9356C118.118 11.673 118.325 11.4497 118.585 11.4497H121.03C121.273 11.4497 121.472 11.6429 121.481 11.8887C121.498 12.3474 121.523 12.84 121.556 13.366C121.599 14.0645 121.651 14.7662 121.709 15.4716C121.768 16.1774 121.833 16.8645 121.907 17.5327C121.927 17.7205 121.949 17.9028 121.97 18.0799C122.024 18.5178 122.596 18.6306 122.812 18.2478C123.248 17.4764 123.645 16.6516 124.005 15.7726C124.502 14.5559 124.971 13.2232 125.411 11.7746C125.47 11.5827 125.644 11.4497 125.842 11.4497H128.329Z" fill="#174489"/>
<path fill-rule="evenodd" clip-rule="evenodd" d="M136.431 13.9963L135.911 13.9455C135.806 13.9354 135.685 13.9288 135.55 13.9255C134.94 13.9109 134.327 14.0586 133.811 14.3904C133.439 14.6302 133.11 14.9311 132.825 15.2935C132.502 15.7022 132.25 16.1737 132.067 16.7082C131.884 17.2431 131.792 17.8002 131.792 18.3796C131.792 19.0925 131.909 19.6572 132.144 20.0731C132.378 20.4889 132.81 20.6969 133.44 20.6969C133.776 20.6969 134.08 20.6301 134.351 20.4964C134.585 20.3808 134.833 20.1986 135.095 19.9496C135.175 19.8733 135.223 19.7683 135.233 19.6573C135.263 19.3377 135.306 19.0046 135.361 18.6581C135.427 18.2498 135.497 17.8747 135.57 17.5327L136.431 13.9963ZM138.712 18.1126C138.506 18.9592 138.448 19.81 138.536 20.6638C138.602 21.3105 138.715 21.9039 138.874 22.4439C138.953 22.7117 138.779 22.9857 138.507 23.0253L136.446 23.324C136.249 23.3524 136.057 23.2457 135.972 23.0633C135.94 22.9939 135.908 22.9256 135.878 22.8586C135.875 22.8524 135.873 22.846 135.87 22.8397C135.753 22.577 135.437 22.4864 135.2 22.6464C134.917 22.8382 134.616 23.0054 134.297 23.1484C133.799 23.3712 133.243 23.4827 132.628 23.4827C131.895 23.4827 131.269 23.3523 130.749 23.0926C130.23 22.8329 129.805 22.4837 129.476 22.0455C129.146 21.6075 128.908 21.0948 128.762 20.5079C128.615 19.9212 128.542 19.2934 128.542 18.625C128.542 17.6 128.721 16.6346 129.08 15.7284C129.439 14.8224 129.937 14.0314 130.574 13.3552C131.211 12.6795 131.961 12.1485 132.825 11.7621C133.689 11.376 134.626 11.1826 135.637 11.1826C135.769 11.1826 135.999 11.1904 136.329 11.2052C136.658 11.2201 137.035 11.2533 137.46 11.3053C137.884 11.3574 138.331 11.4429 138.8 11.5615C139.137 11.6473 139.463 11.756 139.778 11.8877C139.986 11.9749 140.105 12.1993 140.052 12.4217L138.712 18.1126Z" fill="#174489"/>
<path fill-rule="evenodd" clip-rule="evenodd" d="M142.955 12.2411C142.992 12.0825 143.11 11.957 143.264 11.9096C143.444 11.8545 143.636 11.7941 143.839 11.7286C144.139 11.6324 144.476 11.543 144.85 11.4612C145.223 11.3798 145.641 11.313 146.102 11.2609C146.563 11.2091 147.086 11.1826 147.672 11.1826C149.4 11.1826 150.586 11.6881 151.23 12.698C151.875 13.7083 151.984 15.0897 151.56 16.8424L150.149 22.8193C150.1 23.0253 149.919 23.1705 149.71 23.1705H147.365C147.073 23.1705 146.858 22.8945 146.926 22.6068L148.243 16.9761C148.331 16.5899 148.4 16.2151 148.452 15.8509C148.503 15.4869 148.499 15.1677 148.441 14.8929C148.382 14.6179 148.247 14.3951 148.035 14.2243C147.822 14.0537 147.496 13.968 147.057 13.968C146.632 13.968 146.201 14.0127 145.761 14.1016L143.713 22.8189C143.665 23.025 143.483 23.1705 143.274 23.1705H140.931C140.639 23.1705 140.424 22.8934 140.492 22.6053L142.955 12.2411Z" fill="#174489"/>
<path fill-rule="evenodd" clip-rule="evenodd" d="M160.916 14.1016C160.829 14.0869 160.752 14.0719 160.686 14.0569C160.62 14.0426 160.554 14.0314 160.488 14.0237C160.422 14.0164 160.338 14.0125 160.235 14.0125H159.84C159.327 14.0125 158.852 14.1352 158.412 14.3801C157.973 14.6253 157.596 14.956 157.281 15.3719C156.966 15.7879 156.721 16.2595 156.545 16.7866C156.37 17.3141 156.282 17.8529 156.282 18.4021C156.282 19.1154 156.403 19.6762 156.644 20.0845C156.886 20.4931 157.321 20.6973 157.951 20.6973C158.288 20.6973 158.595 20.6305 158.874 20.4967C159.114 20.3809 159.367 20.1981 159.63 19.9486C159.709 19.8731 159.756 19.7693 159.767 19.6593C159.796 19.3393 159.839 19.0056 159.895 18.6585C159.961 18.25 160.03 17.875 160.104 17.533L160.916 14.1016ZM157.139 23.4825C156.406 23.4825 155.78 23.3561 155.261 23.1037C154.741 22.8512 154.316 22.5058 153.987 22.0676C153.657 21.6296 153.416 21.1169 153.262 20.5299C153.108 19.9433 153.031 19.3158 153.031 18.6472C153.031 17.6373 153.21 16.6828 153.569 15.784C153.928 14.8853 154.422 14.1016 155.052 13.4331C155.681 12.7649 156.428 12.2374 157.293 11.8511C158.156 11.465 159.101 11.2719 160.126 11.2719C160.39 11.2719 160.634 11.2868 160.862 11.3164C160.951 11.3281 161.041 11.3423 161.132 11.3586C161.37 11.4015 161.6 11.2539 161.656 11.016L162.669 6.71349C162.712 6.53262 162.858 6.39589 163.039 6.36741L165.479 5.98408C165.796 5.93427 166.062 6.22703 165.987 6.54369L163.245 18.1125C163.04 18.959 162.981 19.8099 163.069 20.6637C163.136 21.3103 163.248 21.9036 163.407 22.4438C163.486 22.7117 163.312 22.9858 163.04 23.0252L160.979 23.3239C160.782 23.3524 160.59 23.2455 160.505 23.0632C160.473 22.9936 160.441 22.9256 160.411 22.8584C160.409 22.8519 160.406 22.8453 160.403 22.8387C160.286 22.5766 159.97 22.4859 159.734 22.645C159.449 22.8373 159.144 23.0049 158.819 23.1483C158.314 23.371 157.754 23.4825 157.139 23.4825V23.4825Z" fill="#174489"/>
<path fill-rule="evenodd" clip-rule="evenodd" d="M28.4125 8.52653V21.8935C28.3577 21.8492 28.3009 21.808 28.243 21.7678C27.8755 21.5104 27.4402 21.3372 27.0016 21.2055C26.7399 21.125 26.4766 21.0738 26.2129 21.015L2.17211 15.3093C0.899313 15.0067 0 13.8564 0 12.5301V0.899365C0 0.319503 0.531818 -0.107836 1.08812 0.0240373L26.4767 6.04997C27.6106 6.31884 28.4125 7.3444 28.4125 8.52653" fill="#174489"/>
<mask id="mask0_570_2" style="mask-type:luminance" maskUnits="userSpaceOnUse" x="4" y="19" width="25" height="18">
<path fill-rule="evenodd" clip-rule="evenodd" d="M5.88314 21.5634C4.92734 21.9423 4.30469 22.8329 4.30469 23.8208V23.8208V36.8034L27.2089 27.7151C28.2312 27.3093 28.8973 26.3564 28.8973 25.2997V25.2997C28.8973 24.0849 28.021 23.0298 26.7816 22.7529V22.7529L11.4953 19.3374L5.88314 21.5634Z" fill="white"/>
</mask>
<g mask="url(#mask0_570_2)">
<path fill-rule="evenodd" clip-rule="evenodd" d="M5.88314 21.5634C4.92734 21.9423 4.30469 22.8329 4.30469 23.8208V23.8208V36.8034L27.2089 27.7151C28.2312 27.3093 28.8973 26.3564 28.8973 25.2997V25.2997C28.8973 24.0849 28.021 23.0298 26.7816 22.7529V22.7529L11.4953 19.3374L5.88314 21.5634Z" fill="url(#paint0_linear_570_2)"/>
</g>
<path fill-rule="evenodd" clip-rule="evenodd" d="M34.4305 34.8386L34.4266 45.9808C34.4259 47.7037 32.871 48.9764 31.2469 48.5832L7.56484 42.8515C6.3752 42.5636 5.53418 41.4676 5.53418 40.2058C5.53418 39.1083 6.17337 38.1186 7.15441 37.6971L22.2991 31.189L33.7543 33.9573C34.1506 34.0532 34.4308 34.4183 34.4305 34.8386" fill="#174489"/>
<defs>
<linearGradient id="paint0_linear_570_2" x1="4.30461" y1="36.8034" x2="28.8974" y2="36.8034" gradientUnits="userSpaceOnUse">
<stop stop-color="#CCAF4F"/>
<stop offset="1" stop-color="#675B2A"/>
</linearGradient>
</defs>
</svg>
