<svg xmlns:xlink="http://www.w3.org/1999/xlink"  width="115" height="30" viewBox="0 0 115 30" fill="none" xmlns="http://www.w3.org/2000/svg">
<path d="M43.3372 0C44.8817 0.016869 46.4263 0.0337376 47.9719 0.0506067C47.9719 2.54195 47.9719 5.0333 47.9719 7.52464C49.6261 7.52464 51.2814 7.52359 52.9367 7.52464C52.9367 9.06816 52.9367 10.6117 52.9367 12.1552C51.2814 12.1562 49.6272 12.1552 47.9719 12.1563C47.974 15.1568 47.9656 18.1585 47.9761 21.1601C47.9993 22.8101 49.3868 24.2956 51.0305 24.4348C51.6641 24.4791 52.3009 24.4443 52.9367 24.4548C52.9367 26.0005 52.9367 27.5461 52.9367 29.0907C51.9467 29.0759 50.9472 29.1507 49.9688 28.9652C48.2028 28.6542 46.5581 27.7232 45.3741 26.379C44.0794 24.9272 43.3424 22.9967 43.3372 21.0515C43.335 14.034 43.3361 7.01647 43.3372 0Z" fill="#E9322A"/>
<path d="M0 0.0507202C1.55406 0.0507202 3.10812 0.0507202 4.66323 0.0507202C4.66323 4.11405 4.66323 8.17633 4.66323 12.2386C8.34279 12.2407 12.0224 12.2397 15.703 12.2397C15.703 8.17632 15.703 4.11405 15.703 0.0507202C17.257 0.0507202 18.8111 0.0507202 20.3651 0.0507202C20.3662 9.73144 20.3662 19.4111 20.3651 29.0908C18.8111 29.0918 17.257 29.0918 15.703 29.0908C15.703 25.0285 15.703 20.9662 15.703 16.9029C12.0245 16.9018 8.3449 16.905 4.6664 16.9008C4.65902 20.9641 4.66534 25.0274 4.66323 29.0908C3.10812 29.0918 1.55406 29.0918 0 29.0908C0 19.4111 0 9.73144 0 0.0507202Z" fill="#E9322A"/>
<path d="M25.4095 7.52434C27.7659 7.52434 30.1213 7.52329 32.4777 7.5254C34.2268 7.53488 35.9611 8.15588 37.3233 9.25025C39.1631 10.7042 40.2986 13.0078 40.3039 15.3558C40.307 19.9241 40.3049 24.4925 40.3049 29.0608C38.7624 29.0608 37.22 29.0629 35.6775 29.0598C35.6796 26.0908 35.6775 23.1229 35.6796 20.154C33.7692 20.1498 31.8598 20.154 29.9505 20.1519C29.2736 20.1339 28.5999 20.4545 28.1908 20.9953C27.7153 21.6005 27.6078 22.4682 27.9241 23.1704C28.2457 23.921 29.0216 24.4524 29.8408 24.4609C31.0174 24.4693 32.1951 24.4587 33.3717 24.4661C33.3696 26.0075 33.3717 27.5489 33.3707 29.0904C32.2299 29.0914 31.0891 29.0904 29.9484 29.0914C27.8144 29.123 25.709 28.0624 24.4512 26.3418C23.4823 25.0471 23.0068 23.396 23.1375 21.785C23.2609 20.0791 24.0695 18.4397 25.3368 17.2936C26.5535 16.176 28.1908 15.5298 29.844 15.5255C31.7924 15.5224 33.7407 15.5298 35.6891 15.5224C35.6807 14.8339 35.5004 14.1412 35.0998 13.5761C34.5167 12.719 33.512 12.1665 32.4735 12.1538C30.1192 12.1486 27.7638 12.1528 25.4095 12.1517C25.4085 10.6093 25.4085 9.0668 25.4095 7.52434Z" fill="#E9322A"/>
<path d="M62.5248 7.81728C63.811 7.44089 65.1616 7.53367 66.4858 7.52418C66.4869 9.07086 66.4858 10.6175 66.4858 12.1642C65.4389 12.2053 64.3445 12.024 63.3461 12.4246C61.8901 12.9655 60.8389 14.4363 60.821 15.9935C60.8136 20.3594 60.8199 24.7253 60.8168 29.0902C59.2711 29.0902 57.7245 29.0912 56.1778 29.0902C56.1778 24.7612 56.1788 20.4332 56.1778 16.1042C56.1715 14.3867 56.7018 12.6735 57.677 11.2596C58.8178 9.58748 60.5669 8.33812 62.5248 7.81728Z" fill="#E9322A"/>
<path d="M74.1568 8.96301C75.4768 8.1786 76.9687 7.69045 78.4943 7.51965C78.4975 9.08847 78.4954 10.6573 78.4954 12.2261C76.9255 12.5308 75.4895 13.4618 74.5807 14.7776C73.5569 16.2283 73.2164 18.1303 73.6655 19.8467C74.2264 22.1251 76.1906 23.9617 78.4943 24.3887C78.4954 25.9575 78.4975 27.5263 78.4943 29.0941C75.1057 28.7493 71.9597 26.6903 70.2696 23.7361C68.9823 21.5357 68.5258 18.8725 68.9865 16.3664C69.5274 13.3026 71.4736 10.5329 74.1568 8.96301Z" fill="#E9322A"/>
<path d="M80.8263 7.52054C84.1369 7.85897 87.2176 9.82949 88.9319 12.6793C90.2983 14.9028 90.8044 17.6314 90.3447 20.1987C89.8123 23.3131 87.8249 26.1281 85.0868 27.698C83.7847 28.4561 82.3224 28.9284 80.8253 29.095C80.8242 27.5262 80.8263 25.9584 80.8242 24.3906C82.3604 24.0891 83.771 23.1961 84.682 21.9204C85.751 20.4612 86.1137 18.5191 85.6561 16.77C85.0942 14.4917 83.13 12.654 80.8253 12.2249C80.8253 10.6571 80.8242 9.0883 80.8263 7.52054Z" fill="#E9322A"/>
<path d="M98.6141 8.85696C101.718 7.0699 105.756 7.08571 108.845 8.89808C111.922 10.6366 113.981 14.0336 114.052 17.573C114.065 21.4117 114.055 25.2516 114.058 29.0903C112.514 29.0914 110.971 29.0914 109.427 29.0903C109.426 25.6026 109.426 22.1139 109.426 18.6252C109.424 18.0653 109.448 17.5002 109.348 16.9467C109.09 15.3421 108.102 13.8787 106.722 13.0236C105.387 12.1802 103.696 11.9366 102.177 12.3604C100.243 12.876 98.6531 14.4786 98.1523 16.4153C97.8951 17.3073 97.9689 18.2414 97.9594 19.1576C97.9594 22.4682 97.9594 25.7798 97.9594 29.0903C96.4148 29.0914 94.8713 29.0903 93.3278 29.0903C93.3309 25.2505 93.3193 21.4096 93.333 17.5688C93.4068 14.002 95.4997 10.5839 98.6141 8.85696Z" fill="#E9322A"/>
</svg>
