<svg xmlns:xlink="http://www.w3.org/1999/xlink"  width="135" height="107" viewBox="0 0 135 107" fill="none" xmlns="http://www.w3.org/2000/svg">
<path d="M13.6485 98.6122C12.9033 98.0193 11.8989 97.7228 10.6353 97.7228H6.3693V106.693H8.046C8.316 106.693 8.5455 106.602 8.7318 106.425C8.9181 106.246 9.0099 106.032 9.0099 105.78V104.344H10.6353C11.8989 104.344 12.9033 104.048 13.6485 103.455C14.3937 102.862 14.7663 102.056 14.7663 101.034C14.7663 100.011 14.3937 99.2052 13.6485 98.6122ZM11.691 102.004C11.4156 102.227 11.0052 102.339 10.4625 102.339H9.0072V100.381L7.3305 99.7124H10.4625C11.0052 99.7124 11.4129 99.8268 11.691 100.056C11.9664 100.285 12.1068 100.61 12.1068 101.034C12.1068 101.458 11.9691 101.78 11.691 102.004ZM22.1319 97.7228L18.0171 106.693H20.709L21.438 104.948H25.3827L26.1117 106.693H28.8549L24.7239 97.7228H22.1319ZM22.2156 103.073L23.4009 100.201L24.3324 102.454L26.5329 103.073H22.2156ZM39.096 101.686L43.092 106.693H40.0437L37.368 103.432L36.3852 104.443V106.693H34.5222C34.3197 106.693 34.1442 106.623 33.9984 106.482C33.8526 106.342 33.7797 106.173 33.7797 105.975V97.7228H35.7264C35.9073 97.7228 36.0639 97.7852 36.1908 97.91C36.3204 98.0348 36.3852 98.1857 36.3852 98.36V100.365L35.2161 102.698L39.9897 97.7228H42.903L39.096 101.686ZM56.4192 101.034C56.4192 100.011 56.0466 99.2052 55.3014 98.6122C54.5562 98.0193 53.5518 97.7228 52.2882 97.7228H48.0222V106.693H49.8339C50.058 106.693 50.2551 106.618 50.4171 106.464C50.5818 106.311 50.6628 106.126 50.6628 105.91V104.313H52.1019L53.7786 106.696H56.6055L54.5913 103.874C55.809 103.307 56.4192 102.36 56.4192 101.034ZM53.3439 102.004C53.0685 102.227 52.6581 102.339 52.1154 102.339H50.6601V100.43L49.0347 99.7124H52.1154C52.6581 99.7124 53.0658 99.8268 53.3439 100.056C53.622 100.285 53.7597 100.61 53.7597 101.034C53.7597 101.458 53.622 101.78 53.3439 102.004ZM66.1527 97.5433C64.6623 97.5433 63.4257 97.9828 62.4456 98.8645C61.4628 99.7462 60.9741 100.859 60.9741 102.209C60.9741 103.091 61.1955 103.887 61.6437 104.599C62.0892 105.312 62.7075 105.868 63.4986 106.272C64.2897 106.675 65.1753 106.875 66.1581 106.875C67.6485 106.875 68.8851 106.435 69.8652 105.554C70.848 104.672 71.3367 103.559 71.3367 102.209C71.3367 100.862 70.8453 99.7462 69.8652 98.8645C68.8797 97.9828 67.6431 97.5433 66.1527 97.5433ZM67.9482 104.058C67.473 104.532 66.8763 104.768 66.1527 104.768C65.4291 104.768 64.8297 104.532 64.3491 104.058C63.8685 103.585 63.6309 102.969 63.6309 102.207C63.6309 101.697 63.7443 101.244 63.9684 100.852C64.1925 100.461 64.4949 100.162 64.8756 99.9542C65.2536 99.7488 65.6775 99.6447 66.1446 99.6447C66.6117 99.6447 67.0383 99.7488 67.4217 99.9542C67.8051 100.16 68.1075 100.459 68.3262 100.852C68.5476 101.244 68.6556 101.694 68.6556 102.207C68.6583 102.969 68.4234 103.585 67.9482 104.058ZM81.5616 101.686L85.5576 106.693H82.5093L79.8336 103.432L78.8508 104.443V106.693H76.9878C76.7853 106.693 76.6098 106.623 76.464 106.482C76.3182 106.342 76.2453 106.173 76.2453 105.975V97.7228H78.192C78.3729 97.7228 78.5295 97.7852 78.6564 97.91C78.786 98.0348 78.8508 98.1857 78.8508 98.36V100.365L77.6817 102.698L82.4553 97.7228H85.3686L81.5616 101.686ZM99.3573 98.3261V106.693H97.4619C97.2594 106.693 97.0839 106.623 96.9381 106.482C96.7923 106.342 96.7194 106.173 96.7194 105.975V103.187H93.1284V106.693H91.1817C90.99 106.693 90.8253 106.628 90.6903 106.498C90.5553 106.368 90.4878 106.209 90.4878 106.025V97.7228H92.3508C92.5641 97.7228 92.7477 97.793 92.9016 97.9334C93.0555 98.0765 93.1311 98.2481 93.1311 98.4562V100.495L91.6083 101.083H96.7221V97.7228H98.7201C98.901 97.7228 99.0522 97.78 99.1764 97.8944C99.2952 98.0088 99.3573 98.1519 99.3573 98.3261ZM130.796 27.67C132.459 26.7675 135 24.9938 135 24.9938V31.5478C127.84 36.2943 118.706 38.1799 110.039 38.1799C102.373 38.1799 96.8571 35.7507 91.5219 33.3996C86.5458 31.2071 81.8478 29.1369 75.4812 29.1369C54.4509 29.1369 53.3871 47.7196 53.3871 50.6819V53.509H47.574V50.6819C47.574 39.99 54.8829 23.6986 75.4785 23.6986C83.1438 23.6986 88.6599 26.1277 93.9951 28.4788C98.9712 30.6713 103.672 32.7416 110.039 32.7416C122.872 32.7442 130.712 27.7142 130.796 27.67ZM75.4785 7.49293C81.8451 7.49293 86.5458 9.56317 91.5192 11.7557C96.8544 14.1068 102.371 16.5359 110.036 16.5359C125.086 16.5359 134.128 8.3616 134.503 8.01309L134.997 7.55795V0C133.45 1.40184 131.946 2.78026 130.364 4.05466C128.504 5.55273 126.533 6.90254 124.243 7.96627C119.84 10.0131 114.953 11.0976 110.033 11.0976C103.667 11.0976 98.9658 9.0274 93.9897 6.83492C88.6545 4.48379 83.1384 2.05464 75.4731 2.05464C66.0609 2.05464 56.5245 5.71397 49.2642 11.2459C48.6891 11.6828 47.5686 12.5853 47.5686 12.5853V19.9222C47.5686 19.9222 51.1785 16.8636 52.3908 15.8545C52.4961 15.7739 62.7615 7.49293 75.4785 7.49293ZM131.263 15.9586C131.069 16.0938 130.874 16.229 130.68 16.3617C130.213 16.679 129.738 16.9807 129.238 17.259C127.923 17.9872 126.546 18.6166 125.137 19.1628C120.366 21.0145 115.196 21.9196 110.036 21.9196C103.669 21.9196 98.9685 19.8494 93.9924 17.6569C88.6572 15.3084 83.1411 12.8766 75.4758 12.8766C66.2013 12.8766 57.0753 16.8454 50.0904 22.4034C49.2183 23.0978 47.5713 24.588 47.5713 24.588V32.2682C47.5713 32.2682 51.2784 28.8092 52.5177 27.6596C52.6176 27.566 62.7831 18.3149 75.4758 18.3149C81.8424 18.3149 86.5404 20.3851 91.5165 22.5776C96.8517 24.9287 102.368 27.3579 110.033 27.3579C114.712 27.3579 119.41 26.7441 123.881 25.4411C126.12 24.7883 128.304 23.9586 130.378 22.9287C131.406 22.419 132.408 21.8598 133.372 21.2512C133.542 21.1446 134.995 20.3513 134.995 20.1303C134.995 17.8676 134.997 13.3447 134.997 13.3447C134.997 13.3447 131.76 15.6127 131.263 15.9586ZM135 102.168C135 104.722 132.851 106.792 130.199 106.792C127.548 106.792 125.399 104.722 125.399 102.168C125.399 99.6135 127.548 97.5433 130.199 97.5433C132.851 97.5433 135 99.6135 135 102.168ZM120.601 97.5433C117.95 97.5433 115.8 99.6135 115.8 102.168C115.8 104.722 117.95 106.792 120.601 106.792C123.252 106.792 125.402 104.722 125.402 102.168C125.402 99.6135 123.252 97.5433 120.601 97.5433ZM111.002 97.5433C108.351 97.5433 106.202 99.6135 106.202 102.168C106.202 104.722 108.351 106.792 111.002 106.792C113.654 106.792 115.803 104.722 115.803 102.168C115.803 99.6135 113.654 97.5433 111.002 97.5433ZM122.199 84.3416C118.665 84.3416 115.8 81.5821 115.8 78.1777V48.8952H106.202V78.1751C106.202 86.6225 113.26 93.4782 122.002 93.5823V93.5875H135V84.3416H122.199ZM65.4318 58.1437C65.4318 58.1437 91.6218 60.5442 91.6218 74.3259C91.6218 79.8578 86.967 84.3442 81.2214 84.3442C81.2106 84.3442 81.1998 84.3468 81.1863 84.3468H59.7861V93.5927H81.2214V93.5901C92.2671 93.5901 101.22 84.9658 101.22 74.3259C101.22 67.5378 97.5726 61.5767 92.0673 58.1437H101.733V48.8978H65.4318V58.1437ZM0 58.1437H9.666C4.1607 61.5741 0.513 67.5378 0.513 74.3259C0.513 84.9658 9.4662 93.5901 20.5119 93.5901V93.5927H36.3015V84.3468H20.547C20.5362 84.3468 20.5254 84.3442 20.5119 84.3442C14.769 84.3442 10.1115 79.8604 10.1115 74.3259C10.1115 60.5442 36.3015 58.1437 36.3015 58.1437V48.8978H0V58.1437ZM19.5642 44.2736C22.2156 44.2736 24.3648 42.2033 24.3648 39.6493C24.3648 37.0953 22.2156 35.0251 19.5642 35.0251C16.9128 35.0251 14.7636 37.0953 14.7636 39.6493C14.7663 42.2033 16.9155 44.2736 19.5642 44.2736ZM47.574 78.1777C47.5713 81.5795 44.7066 84.3416 41.175 84.3416H40.6701V93.5901H41.175V93.5875C50.0121 93.5875 57.1752 86.6875 57.1752 78.1751V58.1437H47.574V78.1777Z" fill="#002F6C"/>
</svg>
