<svg xmlns:xlink="http://www.w3.org/1999/xlink"  width="158" height="42" viewBox="0 0 158 42" fill="none" xmlns="http://www.w3.org/2000/svg">
<g clip-path="url(#clip0_496_155)">
<path d="M135.696 31.4426C136.579 31.4426 137.294 30.7273 137.294 29.8449C137.294 28.9626 136.579 28.2473 135.696 28.2473C134.814 28.2473 134.099 28.9626 134.099 29.8449C134.099 30.7273 134.814 31.4426 135.696 31.4426Z" fill="black"/>
<path d="M50.3445 40.3951C48.2363 39.2914 45.9627 38.4619 43.5686 37.9561C41.7984 37.5827 39.9644 37.3865 38.0832 37.3865C36.6084 37.3865 35.162 37.5071 33.7534 37.7411C32.0849 38.0152 30.4707 38.4453 28.9227 39.0173C28.5658 39.1496 28.2113 39.2891 27.8615 39.4356C25.9873 40.2226 24.0328 40.8324 22.0145 41.0971C21.0455 41.2247 20.0552 41.2909 19.0508 41.2909C17.6091 41.2909 16.1981 41.1538 14.8345 40.8938C13.9056 40.7213 12.9981 40.4873 12.1142 40.199C11.8235 40.1068 11.5399 40.0075 11.2539 39.9012C10.7552 39.7192 10.266 39.5183 9.78389 39.3009C9.45301 39.1213 9.12922 38.9346 8.81017 38.736C8.28313 38.417 7.77264 38.0719 7.27396 37.7103C5.96937 36.7626 4.77113 35.6731 3.70287 34.4677C2.19503 32.7756 0.940065 30.8518 -0.00292969 28.7578C3.45708 30.6367 7.42285 31.7002 11.6391 31.7026C12.5183 31.7026 13.3857 31.6553 14.2389 31.5655C14.5603 31.5324 14.8794 31.4946 15.1961 31.4473C15.8602 31.3528 16.5148 31.2275 17.16 31.081L17.2428 31.0621L17.2806 31.0526C17.5004 31.003 17.7202 30.9463 17.9376 30.8872L17.9541 30.8825L21.2653 30.0482L26.6538 28.6893C26.6538 28.6893 26.6585 28.6893 26.6609 28.6845H26.668L26.6845 28.6798L27.1288 28.5687C28.899 28.1362 30.7496 27.907 32.6497 27.907C33.5005 27.907 34.3443 27.9542 35.1715 28.044C36.5139 28.278 37.8137 28.6302 39.0616 29.0934C39.3145 29.1856 39.565 29.2825 39.8132 29.3841C40.0684 29.5141 40.3189 29.6512 40.5671 29.793C40.5978 29.8095 40.6285 29.8237 40.6569 29.8426C44.8897 32.2509 48.293 35.9449 50.3374 40.3975L50.3445 40.3951Z" fill="#FFBE00"/>
<path d="M45.0887 31.263C43.5406 29.9655 41.8036 28.8641 39.9081 28.0109C38.509 27.3799 37.02 26.886 35.4602 26.5433C34.2383 26.2762 33.0165 26.1131 31.804 26.0517C30.3695 25.9761 28.9514 26.0399 27.5641 26.2337C27.1883 26.2857 26.8125 26.3495 26.4391 26.4204C25.8341 26.5362 25.2291 26.6614 24.617 26.7111C22.7688 26.8623 20.8686 26.7465 18.9614 26.3306C17.7655 26.0682 16.6192 25.6995 15.5344 25.2363C14.7947 24.9244 14.0833 24.5651 13.4026 24.1681C13.1781 24.0404 12.9607 23.9057 12.7433 23.7663C12.3628 23.5252 11.9941 23.27 11.6325 23.0005C11.3914 22.7926 11.1551 22.5775 10.9258 22.3553C10.5453 21.9961 10.1837 21.618 9.83865 21.2256C8.92874 20.2023 8.13228 19.082 7.46344 17.8885C6.51808 16.2105 5.82797 14.3883 5.42383 12.4787C7.95502 14.6649 11.0511 16.2672 14.5489 17.0306C15.2792 17.189 16.0047 17.3095 16.7303 17.3899C17.0021 17.4206 17.2739 17.4466 17.5457 17.4655C18.1129 17.5057 18.6801 17.5222 19.2426 17.5175H19.3135H19.3466C19.538 17.5175 19.7295 17.508 19.9209 17.4986H19.9351L22.8326 17.4064L27.5499 17.2551C27.5499 17.2551 27.5546 17.2551 27.557 17.2551H27.5641H27.5783L27.9659 17.2433C29.5115 17.2055 31.0903 17.352 32.6667 17.6971C33.3733 17.8507 34.0634 18.0421 34.7346 18.2667C35.8053 18.7039 36.8215 19.2333 37.7716 19.8431C37.9654 19.9636 38.1545 20.0912 38.3412 20.2212C38.5279 20.3748 38.7122 20.5332 38.8942 20.6962C38.9179 20.7151 38.9391 20.7341 38.9604 20.753C42.0352 23.5181 44.1906 27.2003 45.0792 31.2653L45.0887 31.263Z" fill="#FFBE00"/>
<path d="M41.8583 22.0741C40.7735 20.7411 39.4973 19.5405 38.0509 18.5243C36.9826 17.7727 35.8175 17.1181 34.5696 16.5839C33.5911 16.1633 32.5962 15.8324 31.5917 15.5842C30.4053 15.2912 29.2094 15.1163 28.0183 15.0548C27.6945 15.0383 27.3707 15.0312 27.0493 15.0312C26.5246 15.0312 25.9999 15.0383 25.4776 14.9816C23.9083 14.8114 22.3367 14.4096 20.8123 13.755C19.8551 13.3437 18.957 12.8521 18.1227 12.2896C17.5555 11.9091 17.019 11.4955 16.5133 11.0536C16.3478 10.9094 16.1847 10.7629 16.0264 10.6116C15.7475 10.3493 15.4805 10.0751 15.2205 9.79391C15.0527 9.5812 14.8896 9.36377 14.7336 9.14161C14.4736 8.78001 14.2326 8.40423 14.0057 8.02136C13.4101 7.01928 12.9233 5.95575 12.5569 4.84969C12.037 3.29457 11.751 1.6591 11.7227 0C13.4857 2.23341 15.8184 4.07213 18.619 5.27273C19.2028 5.52325 19.7913 5.73832 20.3845 5.92267C20.6067 5.9912 20.8288 6.05738 21.0533 6.11646C21.5213 6.24172 21.9916 6.34571 22.4619 6.4308L22.521 6.44025L22.5494 6.44498C22.7101 6.47334 22.8708 6.49933 23.0339 6.52297H23.0457L25.4823 6.91529L29.4481 7.54632C29.4481 7.54632 29.4505 7.54632 29.4552 7.54632H29.4599L29.4717 7.54868L29.7979 7.60068C31.0978 7.81574 32.3905 8.19389 33.655 8.7351C34.2198 8.97853 34.7658 9.24796 35.2904 9.54339C36.1153 10.0799 36.8786 10.6873 37.5758 11.349C37.7176 11.4814 37.8571 11.6184 37.9918 11.7555C38.1241 11.9139 38.2518 12.0769 38.377 12.2424C38.3936 12.2613 38.4077 12.2802 38.4219 12.2991C40.5466 15.1045 41.7567 18.529 41.8465 22.0694L41.8583 22.0741Z" fill="#FFBE00"/>
<path d="M104.991 31.4402H100.64L100.073 21.1736C99.8768 17.6971 99.7255 13.6155 99.6145 10.2713H99.5318C98.8605 13.4855 97.9483 16.955 96.9462 20.2354L93.5595 31.6458H89.4259L86.0391 20.2354C85.0371 16.955 84.1248 13.4855 83.4536 10.2713H83.3709C83.2621 13.6155 83.1085 17.6971 82.9124 21.1736L82.3451 31.4402H77.9941L79.6934 5.76668H85.8264L89.1541 16.1538C90.0664 19.1577 90.8841 22.1686 91.4938 25.0047C92.1036 22.1686 92.9213 19.1577 93.8336 16.1538L97.1613 5.76668H103.294L104.994 31.4402H104.991Z" fill="black"/>
<path d="M65.2345 16.6359C61.9281 15.3715 60.4959 14.4805 60.4959 12.578C60.4959 11.1221 61.713 9.59302 64.5869 9.59302C66.9148 9.59302 68.6425 10.302 69.5382 10.77L70.6206 7.11854C69.3326 6.46625 67.3686 5.89194 64.6814 5.89194C59.3071 5.89194 55.9132 8.94781 55.9132 13.0058C55.9132 16.5556 58.5295 18.7512 62.6206 20.2047C65.7591 21.3438 67.0117 22.4452 67.0117 24.317C67.0117 26.3424 65.3952 27.699 62.5095 27.699C60.2004 27.699 57.9812 26.9616 56.5206 26.1202L55.5186 29.8686C56.8704 30.6981 59.5907 31.4426 62.2164 31.4426C68.6094 31.4426 71.6109 27.9873 71.6109 24.0003C71.6109 20.4386 69.5406 18.2785 65.2368 16.6359H65.2345Z" fill="black"/>
<path d="M121.339 16.6359C118.031 15.3715 116.601 14.4805 116.601 12.578C116.601 11.1221 117.818 9.59302 120.692 9.59302C123.017 9.59302 124.745 10.302 125.643 10.77L126.726 7.11854C125.433 6.46625 123.471 5.89194 120.786 5.89194C115.412 5.89194 112.018 8.94781 112.018 13.0058C112.018 16.5556 114.632 18.7512 118.725 20.2047C121.859 21.3438 123.117 22.4452 123.117 24.317C123.117 26.3424 121.5 27.699 118.612 27.699C116.305 27.699 114.084 26.9616 112.623 26.1202L111.621 29.8686C112.975 30.6981 115.696 31.4426 118.319 31.4426C124.714 31.4426 127.713 27.9873 127.713 24.0003C127.713 20.4386 125.643 18.2785 121.342 16.6359H121.339Z" fill="black"/>
<path d="M145.483 9.17942C144.42 9.17942 143.675 9.9877 143.678 10.9851C143.675 11.9706 144.38 12.7883 145.429 12.7883C146.58 12.7883 147.277 11.973 147.275 10.9851C147.268 9.97116 146.563 9.17942 145.483 9.17942ZM144.035 15.4944V31.4402H146.92V15.4944H144.035Z" fill="black"/>
<path d="M157.194 15.1304C155.256 15.1304 153.497 16.4823 152.753 18.6235H152.651L152.54 15.4944H149.997C150.085 16.9739 150.129 18.5786 150.129 20.4623V31.4402H153.015V22.9202C153.015 22.4499 153.058 21.9748 153.131 21.5683C153.526 19.3964 154.97 17.8554 157.014 17.8554C157.413 17.8554 157.706 17.8791 158 17.9405V15.2155C157.735 15.1517 157.508 15.1328 157.194 15.1328V15.1304Z" fill="black"/>
<path d="M55.7955 36.0063V41.3429H55.415V36.0063H55.7955Z" fill="black"/>
<path d="M58.0365 36.0867C58.4478 36.0158 58.8992 35.9685 59.4073 35.9685C60.381 35.9685 61.1184 36.2308 61.5604 36.6964C61.9881 37.1407 62.2245 37.741 62.2245 38.5493C62.2245 39.3576 62.0118 40.0383 61.5273 40.5677C61.0593 41.0829 60.2534 41.383 59.223 41.383C58.8117 41.383 58.4241 41.3759 58.0342 41.3358V36.0867H58.0365ZM58.417 41.0262C58.6298 41.0569 58.9394 41.0663 59.2797 41.0663C60.9908 41.0663 61.8369 40.1092 61.8369 38.5635C61.8534 37.2093 61.0995 36.2828 59.3813 36.2828C58.9701 36.2828 58.6439 36.323 58.4147 36.3703V41.0262H58.417Z" fill="black"/>
<path d="M66.6193 38.6911H64.4899V41.0262H66.8722V41.3429H64.1094V36.0063H66.7469V36.323H64.4899V38.3744H66.6193V38.6911Z" fill="black"/>
<path d="M69.1295 36.0063V38.3579H72.0743V36.0063H72.4548V41.3429H72.0743V38.6746H69.1295V41.3429H68.749V36.0063H69.1295Z" fill="black"/>
<path d="M74.6885 36.0701C74.9981 36.0158 75.3857 35.9661 75.8371 35.9661C76.4705 35.9661 76.9526 36.1316 77.2457 36.4175C77.508 36.6633 77.6569 37.0202 77.6569 37.4622C77.6569 37.9041 77.5293 38.261 77.2859 38.5304C76.9455 38.918 76.3759 39.1236 75.7189 39.1236C75.4731 39.1236 75.2604 39.1165 75.069 39.0598V41.3405H74.6885V36.0678V36.0701ZM75.069 38.7313C75.251 38.7951 75.4897 38.8093 75.7496 38.8093C76.7068 38.8093 77.2788 38.3508 77.2788 37.5023C77.2788 36.6539 76.669 36.2828 75.8229 36.2828C75.4755 36.2828 75.2132 36.3135 75.0714 36.3466V38.7289L75.069 38.7313Z" fill="black"/>
<path d="M79.4724 39.4758L78.8153 41.3452H78.4277L80.3586 36.0087H80.7226L82.6393 41.3452H82.2517L81.5781 39.4758H79.4724ZM81.4671 39.1591L80.8171 37.3771C80.6824 37.006 80.6115 36.7366 80.5406 36.4341H80.517C80.4461 36.7437 80.3586 37.0202 80.2405 37.3605L79.5905 39.1567H81.4671V39.1591Z" fill="black"/>
<path d="M84.4111 36.0867C84.7444 36.0087 85.1958 35.9685 85.5668 35.9685C86.264 35.9685 86.706 36.1198 87.0085 36.4199C87.2378 36.6326 87.3796 36.9895 87.3796 37.3629C87.3796 38.0837 86.9518 38.5422 86.3349 38.7573V38.7738C86.7627 38.9086 87.0321 39.3127 87.1574 39.9059C87.3394 40.7378 87.4434 41.1325 87.5544 41.3476H87.1669C87.0794 41.1892 86.9683 40.7213 86.8265 40.0501C86.6611 39.282 86.3278 38.9346 85.6236 38.9015H84.7916V41.3476H84.4111V36.089V36.0867ZM84.7916 38.5871H85.6401C86.4626 38.5871 87.0014 38.1286 87.0014 37.4243C87.0014 36.609 86.3987 36.2757 85.5597 36.2757C85.1958 36.2757 84.9263 36.3159 84.7916 36.3466V38.5871Z" fill="black"/>
<path d="M89.3608 36.0867C89.772 36.0158 90.2234 35.9685 90.7315 35.9685C91.7052 35.9685 92.4426 36.2308 92.8846 36.6964C93.3124 37.1407 93.5487 37.741 93.5487 38.5493C93.5487 39.3576 93.336 40.0383 92.8515 40.5677C92.3835 41.0829 91.5776 41.383 90.5472 41.383C90.136 41.383 89.7484 41.3759 89.3584 41.3358V36.0867H89.3608ZM89.7413 41.0262C89.954 41.0569 90.2636 41.0663 90.6039 41.0663C92.315 41.0663 93.1611 40.1092 93.1611 38.5635C93.1776 37.2093 92.4237 36.2828 90.7055 36.2828C90.2943 36.2828 89.9682 36.323 89.7389 36.3703V41.0262H89.7413Z" fill="black"/>
<path d="M95.9733 39.4758L95.3163 41.3452H94.9287L96.862 36.0087H97.2259L99.1426 41.3452H98.755L98.0815 39.4758H95.9757H95.9733ZM97.968 39.1591L97.3181 37.3771C97.1834 37.006 97.1125 36.7366 97.0416 36.4341H97.018C96.947 36.7437 96.8596 37.0202 96.7414 37.3605L96.0915 39.1567H97.968V39.1591Z" fill="black"/>
<path d="M100.541 41.0994L103.756 36.349V36.3254H100.801V36.0087H104.238V36.2616L101.014 41.0049V41.0285H104.276V41.3452H100.539V41.0994H100.541Z" fill="black"/>
<path d="M106.726 39.4758L106.069 41.3452H105.682L107.615 36.0087H107.979L109.896 41.3452H109.508L108.834 39.4758H106.729H106.726ZM108.721 39.1591L108.071 37.3771C107.936 37.006 107.865 36.7366 107.795 36.4341H107.771C107.7 36.7437 107.613 37.0202 107.494 37.3605L106.844 39.1567H108.721V39.1591Z" fill="black"/>
<path d="M111.676 41.3429V36.0063H112.033L114.108 39.1567C114.543 39.8208 114.852 40.3195 115.112 40.8347L115.129 40.8276C115.074 40.1068 115.065 39.497 115.065 38.658V36.0063H115.429V41.3429H115.081L113.047 38.2397C112.652 37.6229 112.286 37.0604 112.009 36.5144L111.992 36.5215C112.033 37.1786 112.04 37.7576 112.04 38.6439V41.3429H111.676Z" fill="black"/>
<path d="M123.814 41.1538C123.544 41.2885 123.029 41.4232 122.372 41.4232C121.082 41.4232 119.846 40.6007 119.846 38.7077C119.846 37.1242 120.867 35.9212 122.554 35.9212C123.235 35.9212 123.632 36.0725 123.79 36.1599L123.672 36.4766C123.403 36.3419 123.015 36.2474 122.564 36.2474C121.122 36.2474 120.243 37.1809 120.243 38.7171C120.243 40.1659 121.065 41.0994 122.5 41.0994C122.951 41.0994 123.396 41.0049 123.703 40.8536L123.814 41.1538Z" fill="black"/>
<path d="M129.911 38.6202C129.911 40.5038 128.756 41.4303 127.52 41.4303C126.206 41.4303 125.185 40.3928 125.185 38.7218C125.185 37.0509 126.246 35.9118 127.583 35.9118C128.921 35.9118 129.911 36.9658 129.911 38.6202ZM125.579 38.7148C125.579 39.9177 126.276 41.1136 127.543 41.1136C128.81 41.1136 129.514 39.965 129.514 38.6439C129.514 37.5118 128.897 36.2285 127.557 36.2285C126.217 36.2285 125.577 37.4645 125.577 38.7148H125.579Z" fill="black"/>
<path d="M136.3 38.8093C136.253 38.0105 136.189 37.0273 136.189 36.4506H136.173C135.974 37.0273 135.761 37.6465 135.452 38.4382L134.327 41.3452H134.064L133.01 38.5115C132.71 37.6796 132.479 37.0391 132.323 36.453H132.306C132.289 37.0793 132.252 38.0057 132.188 38.892L132.022 41.3476H131.651L132.039 36.011H132.474L133.622 39.0834C133.875 39.7641 134.057 40.303 134.209 40.8182H134.232C134.367 40.3266 134.556 39.8043 134.825 39.0929L136.021 36.0134H136.473L136.83 41.3499H136.459L136.3 38.8164V38.8093Z" fill="black"/>
<path d="M138.906 36.0701C139.216 36.0158 139.603 35.9661 140.055 35.9661C140.688 35.9661 141.17 36.1316 141.463 36.4175C141.726 36.6633 141.875 37.0202 141.875 37.4622C141.875 37.9041 141.747 38.261 141.504 38.5304C141.163 38.918 140.594 39.1236 139.937 39.1236C139.691 39.1236 139.478 39.1165 139.287 39.0598V41.3405H138.906V36.0678V36.0701ZM139.287 38.7313C139.469 38.7951 139.707 38.8093 139.967 38.8093C140.925 38.8093 141.497 38.3508 141.497 37.5023C141.497 36.6539 140.887 36.2828 140.041 36.2828C139.693 36.2828 139.431 36.3135 139.289 36.3466V38.7289L139.287 38.7313Z" fill="black"/>
<path d="M143.688 39.4758L143.031 41.3452H142.644L144.577 36.0087H144.941L146.857 41.3452H146.47L145.796 39.4758H143.691H143.688ZM145.685 39.1591L145.035 37.3771C144.901 37.006 144.83 36.7366 144.759 36.4341H144.735C144.664 36.7437 144.577 37.0202 144.459 37.3605L143.809 39.1567H145.685V39.1591Z" fill="black"/>
<path d="M148.64 41.3429V36.0063H148.997L151.072 39.1567C151.506 39.8208 151.816 40.3195 152.076 40.8347L152.093 40.8276C152.038 40.1068 152.029 39.497 152.029 38.658V36.0063H152.393V41.3429H152.045L150.01 38.2397C149.616 37.6229 149.249 37.0604 148.973 36.5144L148.956 36.5215C148.997 37.1786 149.004 37.7576 149.004 38.6439V41.3429H148.64Z" fill="black"/>
<path d="M155.805 41.3429V39.0315L154.11 36.0063H154.531L155.41 37.5969C155.639 38.0176 155.831 38.365 156.02 38.7455H156.037C156.195 38.3886 156.417 38.0176 156.653 37.5898L157.563 36.0063H157.984L156.185 39.0385V41.3429H155.805Z" fill="black"/>
</g>
<defs>
<clipPath id="clip0_496_155">
<rect width="158" height="41.4303" fill="white"/>
</clipPath>
</defs>
</svg>
