<svg xmlns:xlink="http://www.w3.org/1999/xlink"  width="105" height="105" viewBox="0 0 105 105" fill="none" xmlns="http://www.w3.org/2000/svg">
<mask id="mask0_696_18" style="mask-type:luminance" maskUnits="userSpaceOnUse" x="3" y="3" width="98" height="98">
<path d="M100.975 3.6748H3.6748V100.975H100.975V3.6748Z" fill="white"/>
</mask>
<g mask="url(#mask0_696_18)">
<path d="M43.7962 4.48724C52.9728 2.85392 62.6207 3.89891 71.2091 7.53789C82.5827 12.2959 91.9708 21.5631 96.8769 32.8729C101.401 43.1583 102.174 55.0481 99.0084 65.8232C98.821 66.6627 98.642 67.5284 98.2062 68.2776L98.2556 68.7585C98.2062 68.7033 98.1075 68.5941 98.0582 68.5385C97.8708 69.526 97.455 70.4416 97.0623 71.3588C94.5344 77.2934 90.8069 82.7119 86.1743 87.2028C80.6324 92.5919 73.7843 96.6344 66.3786 98.8578C55.1001 102.279 42.5743 101.417 31.894 96.4181C20.6479 91.2363 11.5618 81.5847 7.07936 70.0421C3.63581 61.2914 2.85001 51.5348 4.77749 42.3355C6.69674 33.0622 11.4404 24.408 18.1856 17.7657C25.1179 10.8868 34.1711 6.16995 43.7962 4.48724ZM60.9995 32.4142C58.5084 33.418 56.4141 35.4443 55.5012 37.9909C55.5054 36.6168 55.2009 35.1686 54.2627 34.1174C53.051 32.7207 51.1215 32.2332 49.336 32.2085C46.9086 32.1941 44.4792 32.2085 42.0498 32.2044C42.0457 37.0015 42.0539 41.7986 42.0457 46.5957C40.2251 41.8007 38.417 36.9994 36.5985 32.2044C34.8705 32.2044 33.1447 32.2044 31.4188 32.2044C29.8533 36.2692 28.2673 40.3257 26.7183 44.3967C26.6731 43.4381 26.5291 42.4384 25.9634 41.6361C25.0994 40.3545 23.606 39.7127 22.1743 39.2889C21.2198 38.9763 20.1768 38.7994 19.3622 38.174C18.8705 37.8079 18.7143 37.0694 19.0537 36.551C19.5494 35.8166 20.5265 35.6027 21.3596 35.7014C22.3614 35.7899 23.2583 36.2897 24.0667 36.8554C24.6921 35.6397 25.3195 34.426 25.9469 33.2123C23.6018 32.0089 20.8228 31.3301 18.2185 31.9884C16.0791 32.5315 14.3656 34.3931 14.0385 36.5798C13.7937 38.1987 13.8945 40.1365 15.1966 41.309C16.653 42.5947 18.6792 42.7531 20.4134 43.473C21.121 43.7528 21.8698 44.3761 21.7443 45.2216C21.6744 46.2172 20.6541 46.8117 19.7407 46.8487C18.0333 46.9907 16.4926 46.0485 15.2337 44.9974C14.5569 46.2666 13.876 47.5338 13.2012 48.8029C14.9991 50.0269 17.1179 50.7757 19.2964 50.8662C17.1941 51.578 15.3426 53.0568 14.3018 55.0297C12.9503 57.5786 12.7713 60.6824 13.625 63.4187C14.4252 65.9712 16.4576 68.0838 18.9755 68.9847C21.5592 69.9166 24.5255 69.9108 27.0578 68.812C29.3843 67.7919 31.0649 65.6237 31.7664 63.2129C31.7458 65.1591 31.7623 67.1047 31.7582 69.0509C35.2367 69.0509 38.7152 69.0509 42.1938 69.0509C42.1938 68.1804 42.1958 67.3126 42.1876 66.4427C45.0017 69.5649 49.7577 70.4064 53.6311 69.0036C56.4141 68.0408 58.5866 65.6793 59.467 62.8858C59.457 64.9407 59.4649 66.996 59.4628 69.0509C61.7135 69.0509 63.9636 69.0488 66.2164 69.053C68.3579 69.1107 70.701 68.7606 72.2828 67.1808C72.0255 67.8003 71.7851 68.4256 71.5462 69.0509C73.2267 69.0488 74.9078 69.053 76.5862 69.0467C77.0015 67.9956 77.4215 66.9446 77.8431 65.8951C80.0213 65.893 82.2021 65.893 84.3804 65.8951C84.7773 66.9467 85.1705 67.9998 85.5695 69.0509C89.3337 69.053 93.0985 69.0425 96.8606 69.0572C97.1405 69.0099 97.5027 69.1312 97.7348 68.9396C98.1852 67.5882 98.706 66.2469 99.0063 64.8462L98.7617 64.9879C97.2455 65.1344 95.713 65.0105 94.1905 65.0499C94.1863 60.3249 94.1947 55.5978 94.1863 50.8724C92.6045 50.8724 91.0248 50.8724 89.4429 50.8724C89.4366 55.8834 89.4492 60.8966 89.4366 65.9077C87.544 60.8966 85.6456 55.8855 83.753 50.8744C82.0252 50.8703 80.299 50.8744 78.5733 50.8703C76.8456 55.3405 75.1052 59.8062 73.3995 64.2865C73.3895 63.0255 73.221 61.6557 72.3526 60.6745C71.6822 59.8681 70.6495 59.5143 69.6478 59.3494C70.5508 58.8291 71.31 58.0044 71.5152 56.957C71.8402 55.3589 71.6964 53.4642 70.5072 52.2383C69.5076 51.2262 68.035 50.9629 66.6753 50.8683C69.0467 50.5639 71.3346 49.4304 72.8855 47.5914C74.7513 45.4108 75.4874 42.389 75.0947 39.5728C74.7183 37.0056 73.1076 34.7079 70.9372 33.3193C68.0371 31.4206 64.1983 31.073 60.9995 32.4142Z" fill="#4273B8"/>
<path d="M46.7971 35.8042C47.7084 35.8412 48.6731 35.8001 49.5104 36.2259C50.8866 36.8965 50.9133 39.2004 49.568 39.9163C48.7246 40.3792 47.7269 40.3318 46.795 40.3709C46.793 38.8487 46.7909 37.3264 46.7971 35.8042Z" fill="#4273B8"/>
<path d="M63.8378 36.3392C66.3127 35.6706 69.1471 37.1291 70.005 39.5503C70.7725 41.7966 69.7378 44.4976 67.695 45.6948C66.424 46.458 64.8154 46.6143 63.4183 46.1185C61.2669 45.3986 59.8615 43.1379 59.946 40.9039C59.9932 38.7192 61.7646 36.8391 63.8378 36.3392Z" fill="#4273B8"/>
<path d="M31.999 43.6069C32.6614 41.6588 33.3135 39.7067 33.9862 37.7627C34.6423 39.7087 35.2944 41.6568 35.9445 43.6048C34.628 43.611 33.3135 43.6089 31.999 43.6069Z" fill="#4273B8"/>
<path d="M51.5103 42.9607C53.0635 42.646 54.4254 41.6051 55.0443 40.1343C54.806 43.0101 55.7211 46.0402 57.7906 48.1014C59.29 49.6421 61.3391 50.5349 63.4391 50.8805C62.1145 50.864 60.7878 50.8723 59.4612 50.8743C59.4648 52.8183 59.457 54.7624 59.4669 56.7081C58.2227 53.3302 54.9971 50.8969 51.4609 50.4073C53.3822 50.3621 55.3058 50.3929 57.2267 50.3806C55.3262 47.906 53.4195 45.4313 51.5103 42.9607Z" fill="#4273B8"/>
<path d="M46.7996 43.3374C48.3157 45.6681 49.7988 48.0214 51.3107 50.3541C48.7291 50.0394 46.024 50.6051 43.862 52.0718C41.8358 53.4128 40.3157 55.5522 39.8795 57.9572C39.4517 60.3764 39.9371 62.9269 41.1611 65.0521C39.608 65.0479 38.0549 65.0521 36.5018 65.05C36.4997 60.325 36.5038 55.5979 36.5018 50.8725C34.9199 50.8725 33.338 50.8705 31.7561 50.8746C31.7561 53.5488 31.7582 56.2253 31.7561 58.9012C28.7775 58.9012 25.8009 58.9033 22.8222 58.9012C22.8181 60.1376 22.8181 61.376 22.8222 62.6145C24.1264 62.6124 25.4306 62.6061 26.7328 62.6203C26.5682 63.3054 26.4036 64.0336 25.912 64.5686C24.9616 65.659 23.3756 65.9241 22.0096 65.6978C20.6108 65.4616 19.4342 64.4615 18.8006 63.2172C17.6137 60.9256 17.8317 57.9137 19.4712 55.8961C20.5245 54.5773 22.3841 54.0344 23.9927 54.5117C25.3257 54.8655 26.2472 56.0069 26.7718 57.2291C28.2653 56.6017 29.7607 55.9801 31.2542 55.3548C30.092 52.7298 27.5885 50.745 24.7086 50.4138C26.2823 50.3665 27.8559 50.387 29.4316 50.3829C29.8513 49.3317 30.2688 48.2806 30.6885 47.2273C32.869 47.2232 35.0474 47.2273 37.228 47.2253C37.625 48.2785 38.0199 49.3317 38.4169 50.3829C41.2084 50.3829 44.0019 50.385 46.7934 50.3829C46.7975 48.0337 46.7852 45.6846 46.7996 43.3374Z" fill="#4273B8"/>
<path d="M24.8976 49.1074C24.731 49.5147 24.5726 49.9241 24.4142 50.3355C23.9164 50.3067 23.4207 50.2841 22.9229 50.2718C23.6243 49.9632 24.2846 49.5682 24.8976 49.1074Z" fill="#4273B8"/>
<path d="M64.2086 54.4741C64.9756 54.5135 65.7904 54.4494 66.5023 54.7891C67.6337 55.3341 67.5844 57.2923 66.4015 57.7533C65.7101 58.0431 64.941 57.9916 64.2086 58.0247C64.2065 56.8398 64.2065 55.6569 64.2086 54.4741Z" fill="#4273B8"/>
<path d="M48.7885 54.9536C51.3105 54.394 54.1162 56.011 54.8197 58.5105C55.3525 60.5533 54.5073 62.8795 52.7937 64.1138C51.1336 65.3481 48.7104 65.3911 47.005 64.2209C45.2545 63.0628 44.3555 60.7979 44.7649 58.7488C45.1969 56.83 46.8837 55.3342 48.7885 54.9536Z" fill="#4273B8"/>
<path d="M79.1514 62.2745C79.8113 60.3283 80.4633 58.3785 81.1364 56.4365C81.7984 58.3785 82.4447 60.3283 83.0946 62.2766C81.78 62.2745 80.4654 62.2745 79.1514 62.2745Z" fill="#4273B8"/>
<path d="M64.207 61.5325C65.361 61.5551 66.5806 61.3881 67.6668 61.8674C68.8869 62.4166 68.9278 64.4657 67.6999 65.0311C66.6157 65.5498 65.3715 65.4117 64.207 65.4364C64.207 64.1344 64.207 62.8324 64.207 61.5325Z" fill="#4273B8"/>
</g>
</svg>
