<svg xmlns:xlink="http://www.w3.org/1999/xlink"  width="133" height="39" viewBox="0 0 133 39" fill="none" xmlns="http://www.w3.org/2000/svg">
<path d="M67.3927 1.59336H66.6493V18.9382H67.3927V10.018H79.0385V18.9382H79.7818V1.59336H79.0385V9.52242H67.3927V1.59336ZM86.2184 10.2658H93.7757L93.8996 9.7702H86.2184V2.08893H96.5013L96.6252 1.59336H85.475V18.9382H97.1208V18.4426H86.2184V10.2658ZM107.905 12.0002L112.737 18.9382H113.604L108.649 11.8764V11.7525C108.649 11.7525 112.613 11.0091 112.613 6.79681C112.613 3.82341 110.383 1.59336 106.666 1.59336H100.719V18.9382H101.463V12.0002H107.905ZM106.666 11.5047H101.463V2.08893H106.666C109.887 2.08893 111.87 4.07119 111.87 6.79681C111.87 9.52242 109.887 11.5047 106.666 11.5047ZM130.077 18.9382H130.944L123.511 1.59336H123.015L115.582 18.9382H116.201L118.307 13.9825H127.971L130.077 18.9382ZM123.089 2.83228H123.189L127.723 13.4869H118.555L123.089 2.83228Z" fill="#006837"/>
<path d="M67.3927 1.59336H68.3838V0.602239H67.3927V1.59336ZM66.6493 1.59336V0.602239H65.6582V1.59336H66.6493ZM66.6493 18.9382H65.6582V19.9293H66.6493V18.9382ZM67.3927 18.9382V19.9293H68.3838V18.9382H67.3927ZM67.3927 10.018V9.02686H66.4015V10.018H67.3927ZM79.0385 10.018H80.0296V9.02686H79.0385V10.018ZM79.0385 18.9382H78.0473V19.9293H79.0385V18.9382ZM79.7818 18.9382V19.9293H80.7729V18.9382H79.7818ZM79.7818 1.59336H80.7729V0.602239H79.7818V1.59336ZM79.0385 1.59336V0.602239H78.0473V1.59336H79.0385ZM79.0385 9.52242V10.5135H80.0296V9.52242H79.0385ZM67.3927 9.52242H66.4015V10.5135H67.3927V9.52242ZM67.3927 0.602239H66.6493V2.58449H67.3927V0.602239ZM65.6582 1.59336V18.9382H67.6404V1.59336H65.6582ZM66.6493 19.9293H67.3927V17.947H66.6493V19.9293ZM68.3838 18.9382V10.018H66.4015V18.9382H68.3838ZM67.3927 11.0091H79.0385V9.02686H67.3927V11.0091ZM78.0473 10.018V18.9382H80.0296V10.018H78.0473ZM79.0385 19.9293H79.7818V17.947H79.0385V19.9293ZM80.7729 18.9382V1.59336H78.7907V18.9382H80.7729ZM79.7818 0.602239H79.0385V2.58449H79.7818V0.602239ZM78.0473 1.59336V9.52242H80.0296V1.59336H78.0473ZM79.0385 8.53129H67.3927V10.5135H79.0385V8.53129ZM68.3838 9.52242V1.59336H66.4015V9.52242H68.3838ZM86.2184 10.2658V9.27464H85.2272V10.2658H86.2184ZM93.7757 10.2658V11.2569H94.5496L94.7373 10.5062L93.7757 10.2658ZM93.8996 9.7702L94.8612 10.0106L95.169 8.77908H93.8996V9.7702ZM86.2184 9.7702H85.2272V10.7613H86.2184V9.7702ZM86.2184 2.08893V1.09781H85.2272V2.08893H86.2184ZM96.5013 2.08893V3.08005H97.2752L97.4629 2.32931L96.5013 2.08893ZM96.6252 1.59336L97.5868 1.83375L97.8946 0.602239H96.6252V1.59336ZM85.475 1.59336V0.602239H84.4839V1.59336H85.475ZM85.475 18.9382H84.4839V19.9293H85.475V18.9382ZM97.1208 18.9382V19.9293H98.1119V18.9382H97.1208ZM97.1208 18.4426H98.1119V17.4515H97.1208V18.4426ZM86.2184 18.4426H85.2272V19.4337H86.2184V18.4426ZM86.2184 11.2569H93.7757V9.27464H86.2184V11.2569ZM94.7373 10.5062L94.8612 10.0106L92.9381 9.52982L92.8142 10.0254L94.7373 10.5062ZM93.8996 8.77908H86.2184V10.7613H93.8996V8.77908ZM87.2095 9.7702V2.08893H85.2272V9.7702H87.2095ZM86.2184 3.08005H96.5013V1.09781H86.2184V3.08005ZM97.4629 2.32931L97.5868 1.83375L95.6637 1.35298L95.5398 1.84855L97.4629 2.32931ZM96.6252 0.602239H85.475V2.58449H96.6252V0.602239ZM84.4839 1.59336V18.9382H86.4661V1.59336H84.4839ZM85.475 19.9293H97.1208V17.947H85.475V19.9293ZM98.1119 18.9382V18.4426H96.1297V18.9382H98.1119ZM97.1208 17.4515H86.2184V19.4337H97.1208V17.4515ZM87.2095 18.4426V10.2658H85.2272V18.4426H87.2095ZM107.905 12.0002L108.718 11.4338L108.423 11.0091H107.905V12.0002ZM112.737 18.9382L111.924 19.5046L112.219 19.9293H112.737V18.9382ZM113.604 18.9382V19.9293H115.511L114.415 18.3688L113.604 18.9382ZM108.649 11.8764H107.657V12.1894L107.837 12.4457L108.649 11.8764ZM108.649 11.7525L108.466 10.7783L107.657 10.9299V11.7525H108.649ZM100.719 1.59336V0.602239H99.7283V1.59336H100.719ZM100.719 18.9382H99.7283V19.9293H100.719V18.9382ZM101.463 18.9382V19.9293H102.454V18.9382H101.463ZM101.463 12.0002V11.0091H100.472V12.0002H101.463ZM101.463 11.5047H100.472V12.4958H101.463V11.5047ZM101.463 2.08893V1.09781H100.472V2.08893H101.463ZM107.092 12.5667L111.924 19.5046L113.55 18.3717L108.718 11.4338L107.092 12.5667ZM112.737 19.9293H113.604V17.947H112.737V19.9293ZM114.415 18.3688L109.46 11.307L107.837 12.4457L112.793 19.5075L114.415 18.3688ZM109.64 11.8764V11.7525H107.657V11.8764H109.64ZM108.649 11.7525C108.831 12.7266 108.832 12.7265 108.832 12.7264C108.832 12.7264 108.833 12.7263 108.833 12.7262C108.834 12.7261 108.835 12.7259 108.836 12.7257C108.838 12.7254 108.84 12.725 108.842 12.7245C108.847 12.7236 108.852 12.7225 108.859 12.7212C108.872 12.7185 108.888 12.715 108.909 12.7105C108.949 12.7014 109.004 12.6884 109.071 12.6707C109.205 12.6354 109.39 12.5811 109.607 12.5017C110.04 12.3438 110.622 12.081 111.209 11.6591C112.412 10.7944 113.604 9.27601 113.604 6.79681H111.622C111.622 8.52991 110.832 9.48936 110.052 10.0494C109.648 10.3399 109.239 10.5262 108.928 10.6393C108.775 10.6954 108.649 10.7321 108.566 10.7539C108.525 10.7647 108.495 10.7718 108.477 10.7757C108.469 10.7777 108.463 10.7788 108.461 10.7792C108.46 10.7794 108.46 10.7794 108.461 10.7793C108.461 10.7792 108.462 10.7791 108.463 10.7789C108.463 10.7788 108.464 10.7788 108.464 10.7787C108.464 10.7786 108.465 10.7785 108.465 10.7785C108.465 10.7784 108.466 10.7783 108.649 11.7525ZM113.604 6.79681C113.604 5.05117 112.943 3.47695 111.7 2.34669C110.463 1.2216 108.723 0.602239 106.666 0.602239V2.58449C108.327 2.58449 109.56 3.08015 110.367 3.81343C111.168 4.54154 111.622 5.56905 111.622 6.79681H113.604ZM106.666 0.602239H100.719V2.58449H106.666V0.602239ZM99.7283 1.59336V18.9382H101.711V1.59336H99.7283ZM100.719 19.9293H101.463V17.947H100.719V19.9293ZM102.454 18.9382V12.0002H100.472V18.9382H102.454ZM101.463 12.9914H107.905V11.0091H101.463V12.9914ZM106.666 10.5136H101.463V12.4958H106.666V10.5136ZM102.454 11.5047V2.08893H100.472V11.5047H102.454ZM101.463 3.08005H106.666V1.09781H101.463V3.08005ZM106.666 3.08005C108.073 3.08005 109.117 3.50988 109.801 4.14616C110.48 4.77837 110.879 5.68386 110.879 6.79681H112.861C112.861 5.18414 112.269 3.73569 111.151 2.69537C110.038 1.65911 108.481 1.09781 106.666 1.09781V3.08005ZM110.879 6.79681C110.879 7.90976 110.48 8.81524 109.801 9.44745C109.117 10.0837 108.073 10.5136 106.666 10.5136V12.4958C108.481 12.4958 110.038 11.9345 111.151 10.8982C112.269 9.85793 112.861 8.40947 112.861 6.79681H110.879ZM130.077 18.9382L129.165 19.3258L129.421 19.9293H130.077V18.9382ZM130.944 18.9382V19.9293H132.447L131.855 18.5477L130.944 18.9382ZM123.511 1.59336L124.422 1.20294L124.164 0.602239H123.511V1.59336ZM123.015 1.59336V0.602239H122.362L122.104 1.20294L123.015 1.59336ZM115.582 18.9382L114.671 18.5477L114.079 19.9293H115.582V18.9382ZM116.201 18.9382V19.9293H116.857L117.113 19.3258L116.201 18.9382ZM118.307 13.9825V12.9914H117.652L117.395 13.5948L118.307 13.9825ZM127.971 13.9825L128.883 13.5948L128.626 12.9914H127.971V13.9825ZM123.089 2.83228V1.84115H122.434L122.177 2.44416L123.089 2.83228ZM123.189 2.83228L124.101 2.44416L123.844 1.84115H123.189V2.83228ZM127.723 13.4869V14.4781H129.222L128.635 13.0988L127.723 13.4869ZM118.555 13.4869L117.643 13.0988L117.056 14.4781H118.555V13.4869ZM130.077 19.9293H130.944V17.947H130.077V19.9293ZM131.855 18.5477L124.422 1.20294L122.6 1.98379L130.033 19.3286L131.855 18.5477ZM123.511 0.602239H123.015V2.58449H123.511V0.602239ZM122.104 1.20294L114.671 18.5477L116.493 19.3286L123.926 1.98379L122.104 1.20294ZM115.582 19.9293H116.201V17.947H115.582V19.9293ZM117.113 19.3258L119.219 14.3702L117.395 13.5948L115.289 18.5505L117.113 19.3258ZM118.307 14.9736H127.971V12.9914H118.307V14.9736ZM127.059 14.3702L129.165 19.3258L130.989 18.5505L128.883 13.5948L127.059 14.3702ZM123.089 3.8234H123.189V1.84115H123.089V3.8234ZM122.277 3.2204L126.811 13.8751L128.635 13.0988L124.101 2.44416L122.277 3.2204ZM127.723 12.4958H118.555V14.4781H127.723V12.4958ZM119.467 13.8751L124.001 3.2204L122.177 2.44416L117.643 13.0988L119.467 13.8751Z" fill="#333333"/>
<path d="M66.1563 28.4181H65.917V34H66.1563V31.1293H69.9041V34H70.1433V28.4181H69.9041V30.9698H66.1563V28.4181ZM75.2051 32.0065C75.2051 33.1627 74.4076 33.9601 73.4507 33.9601C72.4938 33.9601 71.6964 33.1627 71.6964 32.0065C71.6964 30.8502 72.4938 30.0528 73.4507 30.0528C74.4076 30.0528 75.2051 30.8502 75.2051 32.0065ZM71.4572 32.0065C71.4572 33.2425 72.3344 34.1196 73.4507 34.1196C74.5671 34.1196 75.4443 33.2425 75.4443 32.0065C75.4443 30.7705 74.5671 29.8933 73.4507 29.8933C72.3344 29.8933 71.4572 30.7705 71.4572 32.0065ZM76.6373 34H76.8765V30.9698C76.8765 30.9698 77.4347 30.0528 78.272 30.0528C78.9099 30.0528 79.4681 30.611 79.4681 31.4483V34H79.7073V31.4483C79.7073 31.2888 79.6675 31.0496 79.6675 31.0496C79.6675 31.0496 80.2655 30.0528 81.1028 30.0528C81.7408 30.0528 82.2989 30.611 82.2989 31.4483V34H82.5382V31.4483C82.5382 30.5312 81.9002 29.8933 81.1028 29.8933C80.2655 29.8933 79.6595 30.8103 79.6595 30.8103H79.6196C79.6196 30.8103 79.2688 29.8933 78.272 29.8933C77.4347 29.8933 76.8765 30.7306 76.8765 30.7306H76.8366C76.8366 30.3718 76.7569 30.0129 76.7569 30.0129H76.5177C76.5177 30.0129 76.6373 30.3718 76.6373 30.9698V34ZM87.4398 32.0862C87.4398 32.0862 87.4797 32.0065 87.4797 31.9267C87.4797 30.7705 86.6025 29.8933 85.5659 29.8933C84.5292 29.8933 83.6521 30.7705 83.6521 32.0065C83.6521 33.2425 84.5292 34.1196 85.6456 34.1196C86.762 34.1196 87.3202 33.2026 87.3202 33.2026L87.2006 33.1228C87.2006 33.1228 86.6822 33.9601 85.6456 33.9601C84.6887 33.9601 83.8913 33.1627 83.8913 32.0862H87.4398ZM83.8913 31.9267C83.8913 30.8502 84.6887 30.0528 85.5659 30.0528C86.443 30.0528 87.2404 30.8502 87.2404 31.9267H83.8913ZM93.4656 31.5679C93.4656 30.5312 92.8276 29.8933 91.791 29.8933C90.9138 29.8933 90.3955 30.5711 90.3955 30.5711L90.5151 30.6509C90.5151 30.6509 90.9936 30.0528 91.791 30.0528C92.6682 30.0528 93.2264 30.611 93.2264 31.5679V31.8868C93.2264 31.8868 92.4289 31.4881 91.6315 31.4881C90.5949 31.4881 90.0367 32.0463 90.0367 32.8039C90.0367 33.5614 90.5949 34.1196 91.6315 34.1196C92.5884 34.1196 93.2264 33.2823 93.2264 33.2823H93.2662C93.2662 33.6412 93.346 34 93.346 34H93.5852C93.5852 34 93.4656 33.6412 93.4656 33.0431V31.5679ZM91.6315 33.9601C90.7544 33.9601 90.2759 33.4817 90.2759 32.8039C90.2759 32.1261 90.7544 31.6476 91.6315 31.6476C92.4289 31.6476 93.2264 32.0862 93.2264 32.0862V33.0431C93.2264 33.0431 92.5884 33.9601 91.6315 33.9601ZM98.094 30.6509C98.094 30.6509 97.5358 29.8933 96.5789 29.8933C95.4625 29.8933 94.5854 30.7705 94.5854 32.0065C94.5854 33.2425 95.4625 34.1196 96.5789 34.1196C97.6953 34.1196 98.2535 33.2026 98.2535 33.2026L98.1339 33.1228C98.1339 33.1228 97.6156 33.9601 96.5789 33.9601C95.622 33.9601 94.8246 33.1627 94.8246 32.0065C94.8246 30.8502 95.622 30.0528 96.5789 30.0528C97.4561 30.0528 97.9744 30.7306 97.9744 30.7306L98.094 30.6509ZM102.323 30.6509C102.323 30.6509 101.764 29.8933 100.807 29.8933C99.691 29.8933 98.8139 30.7705 98.8139 32.0065C98.8139 33.2425 99.691 34.1196 100.807 34.1196C101.924 34.1196 102.482 33.2026 102.482 33.2026L102.362 33.1228C102.362 33.1228 101.844 33.9601 100.807 33.9601C99.8505 33.9601 99.0531 33.1627 99.0531 32.0065C99.0531 30.8502 99.8505 30.0528 100.807 30.0528C101.685 30.0528 102.203 30.7306 102.203 30.7306L102.323 30.6509ZM106.83 32.0862C106.83 32.0862 106.87 32.0065 106.87 31.9267C106.87 30.7705 105.993 29.8933 104.956 29.8933C103.92 29.8933 103.042 30.7705 103.042 32.0065C103.042 33.2425 103.92 34.1196 105.036 34.1196C106.152 34.1196 106.71 33.2026 106.71 33.2026L106.591 33.1228C106.591 33.1228 106.073 33.9601 105.036 33.9601C104.079 33.9601 103.282 33.1627 103.282 32.0862H106.83ZM103.282 31.9267C103.282 30.8502 104.079 30.0528 104.956 30.0528C105.833 30.0528 106.631 30.8502 106.631 31.9267H103.282ZM110.659 32.9634C110.659 31.5679 107.948 32.1261 107.948 30.9299C107.948 30.4914 108.387 30.0528 109.144 30.0528C109.942 30.0528 110.46 30.6509 110.46 30.6509L110.58 30.5711C110.58 30.5711 110.021 29.8933 109.144 29.8933C108.227 29.8933 107.709 30.4116 107.709 30.9299C107.709 32.3254 110.42 31.7672 110.42 32.9634C110.42 33.4817 109.942 33.9601 109.064 33.9601C108.108 33.9601 107.589 33.1228 107.589 33.1228L107.47 33.2026C107.47 33.2026 108.028 34.1196 109.064 34.1196C110.101 34.1196 110.659 33.5614 110.659 32.9634ZM114.405 32.9634C114.405 31.5679 111.694 32.1261 111.694 30.9299C111.694 30.4914 112.132 30.0528 112.89 30.0528C113.687 30.0528 114.206 30.6509 114.206 30.6509L114.325 30.5711C114.325 30.5711 113.767 29.8933 112.89 29.8933C111.973 29.8933 111.454 30.4116 111.454 30.9299C111.454 32.3254 114.166 31.7672 114.166 32.9634C114.166 33.4817 113.687 33.9601 112.81 33.9601C111.853 33.9601 111.335 33.1228 111.335 33.1228L111.215 33.2026C111.215 33.2026 111.773 34.1196 112.81 34.1196C113.847 34.1196 114.405 33.5614 114.405 32.9634ZM118.868 32.0065C118.868 33.1627 118.071 33.9601 117.114 33.9601C116.157 33.9601 115.36 33.1627 115.36 32.0065C115.36 30.8502 116.157 30.0528 117.114 30.0528C118.071 30.0528 118.868 30.8502 118.868 32.0065ZM115.12 32.0065C115.12 33.2425 115.998 34.1196 117.114 34.1196C118.23 34.1196 119.107 33.2425 119.107 32.0065C119.107 30.7705 118.23 29.8933 117.114 29.8933C115.998 29.8933 115.12 30.7705 115.12 32.0065ZM122.493 29.973C122.493 29.973 122.294 29.8933 121.975 29.8933C121.098 29.8933 120.54 30.7306 120.54 30.7306H120.5C120.5 30.3718 120.42 30.0129 120.42 30.0129H120.181C120.181 30.0129 120.301 30.3718 120.301 30.9698V34H120.54V30.9698C120.54 30.9698 121.098 30.0927 121.975 30.0927C122.214 30.0927 122.414 30.1724 122.414 30.1724L122.493 29.973ZM123.608 30.0129H123.369V34H123.608V30.0129ZM123.728 28.5776C123.728 28.458 123.608 28.3383 123.488 28.3383C123.369 28.3383 123.249 28.458 123.249 28.5776C123.249 28.6972 123.369 28.8168 123.488 28.8168C123.608 28.8168 123.728 28.6972 123.728 28.5776ZM128.595 32.0862C128.595 32.0862 128.635 32.0065 128.635 31.9267C128.635 30.7705 127.758 29.8933 126.722 29.8933C125.685 29.8933 124.808 30.7705 124.808 32.0065C124.808 33.2425 125.685 34.1196 126.801 34.1196C127.918 34.1196 128.476 33.2026 128.476 33.2026L128.356 33.1228C128.356 33.1228 127.838 33.9601 126.801 33.9601C125.844 33.9601 125.047 33.1627 125.047 32.0862H128.595ZM125.047 31.9267C125.047 30.8502 125.844 30.0528 126.722 30.0528C127.599 30.0528 128.396 30.8502 128.396 31.9267H125.047ZM132.425 32.9634C132.425 31.5679 129.713 32.1261 129.713 30.9299C129.713 30.4914 130.152 30.0528 130.91 30.0528C131.707 30.0528 132.225 30.6509 132.225 30.6509L132.345 30.5711C132.345 30.5711 131.787 29.8933 130.91 29.8933C129.993 29.8933 129.474 30.4116 129.474 30.9299C129.474 32.3254 132.185 31.7672 132.185 32.9634C132.185 33.4817 131.707 33.9601 130.83 33.9601C129.873 33.9601 129.355 33.1228 129.355 33.1228L129.235 33.2026C129.235 33.2026 129.793 34.1196 130.83 34.1196C131.866 34.1196 132.425 33.5614 132.425 32.9634Z" fill="white"/>
<path d="M66.1563 28.4181H66.3556V28.2187H66.1563V28.4181ZM65.917 28.4181V28.2187H65.7177V28.4181H65.917ZM65.917 34H65.7177V34.1994H65.917V34ZM66.1563 34V34.1994H66.3556V34H66.1563ZM66.1563 31.1293V30.9299H65.9569V31.1293H66.1563ZM69.9041 31.1293H70.1035V30.9299H69.9041V31.1293ZM69.9041 34H69.7047V34.1994H69.9041V34ZM70.1433 34V34.1994H70.3427V34H70.1433ZM70.1433 28.4181H70.3427V28.2187H70.1433V28.4181ZM69.9041 28.4181V28.2187H69.7047V28.4181H69.9041ZM69.9041 30.9698V31.1692H70.1035V30.9698H69.9041ZM66.1563 30.9698H65.9569V31.1692H66.1563V30.9698ZM66.1563 28.2187H65.917V28.6174H66.1563V28.2187ZM65.7177 28.4181V34H66.1164V28.4181H65.7177ZM65.917 34.1994H66.1563V33.8006H65.917V34.1994ZM66.3556 34V31.1293H65.9569V34H66.3556ZM66.1563 31.3287H69.9041V30.9299H66.1563V31.3287ZM69.7047 31.1293V34H70.1035V31.1293H69.7047ZM69.9041 34.1994H70.1433V33.8006H69.9041V34.1994ZM70.3427 34V28.4181H69.944V34H70.3427ZM70.1433 28.2187H69.9041V28.6174H70.1433V28.2187ZM69.7047 28.4181V30.9698H70.1035V28.4181H69.7047ZM69.9041 30.7705H66.1563V31.1692H69.9041V30.7705ZM66.3556 30.9698V28.4181H65.9569V30.9698H66.3556ZM75.0057 32.0065C75.0057 33.067 74.2837 33.7608 73.4507 33.7608V34.1595C74.5316 34.1595 75.4044 33.2584 75.4044 32.0065H75.0057ZM73.4507 33.7608C72.6178 33.7608 71.8958 33.067 71.8958 32.0065H71.4971C71.4971 33.2584 72.3699 34.1595 73.4507 34.1595V33.7608ZM71.8958 32.0065C71.8958 30.9459 72.6178 30.2522 73.4507 30.2522V29.8534C72.3699 29.8534 71.4971 30.7545 71.4971 32.0065H71.8958ZM73.4507 30.2522C74.2837 30.2522 75.0057 30.9459 75.0057 32.0065H75.4044C75.4044 30.7545 74.5316 29.8534 73.4507 29.8534V30.2522ZM71.2578 32.0065C71.2578 33.3448 72.2167 34.319 73.4507 34.319V33.9202C72.4521 33.9202 71.6566 33.1401 71.6566 32.0065H71.2578ZM73.4507 34.319C74.6848 34.319 75.6436 33.3448 75.6436 32.0065H75.2449C75.2449 33.1401 74.4494 33.9202 73.4507 33.9202V34.319ZM75.6436 32.0065C75.6436 30.6681 74.6848 29.6939 73.4507 29.6939V30.0927C74.4494 30.0927 75.2449 30.8728 75.2449 32.0065H75.6436ZM73.4507 29.6939C72.2167 29.6939 71.2578 30.6681 71.2578 32.0065H71.6566C71.6566 30.8728 72.4521 30.0927 73.4507 30.0927V29.6939ZM76.6373 34H76.4379V34.1994H76.6373V34ZM76.8765 34V34.1994H77.0759V34H76.8765ZM76.8765 30.9698L76.7062 30.8662L76.6772 30.9139V30.9698H76.8765ZM79.4681 34H79.2688V34.1994H79.4681V34ZM79.7073 34V34.1994H79.9067V34H79.7073ZM79.6675 31.0496L79.4965 30.947L79.4588 31.0099L79.4708 31.0823L79.6675 31.0496ZM82.2989 34H82.0996V34.1994H82.2989V34ZM82.5382 34V34.1994H82.7375V34H82.5382ZM79.6595 30.8103V31.0097H79.7667L79.8258 30.9203L79.6595 30.8103ZM79.6196 30.8103L79.4334 30.8816L79.4824 31.0097H79.6196V30.8103ZM76.8765 30.7306V30.93H76.9832L77.0424 30.8412L76.8765 30.7306ZM76.8366 30.7306H76.6373V30.93H76.8366V30.7306ZM76.7569 30.0129L76.9515 29.9697L76.9168 29.8136H76.7569V30.0129ZM76.5177 30.0129V29.8136H76.2411L76.3285 30.076L76.5177 30.0129ZM76.6373 34.1994H76.8765V33.8006H76.6373V34.1994ZM77.0759 34V30.9698H76.6772V34H77.0759ZM76.8765 30.9698C77.0468 31.0735 77.0468 31.0735 77.0468 31.0736C77.0467 31.0736 77.0467 31.0736 77.0467 31.0737C77.0467 31.0737 77.0467 31.0737 77.0466 31.0738C77.0466 31.0738 77.0466 31.0738 77.0467 31.0737C77.0468 31.0736 77.047 31.0732 77.0473 31.0727C77.048 31.0715 77.0492 31.0696 77.051 31.0669C77.0544 31.0615 77.06 31.053 77.0675 31.0418C77.0825 31.0196 77.1053 30.9869 77.1355 30.9473C77.196 30.8677 77.2846 30.7619 77.3967 30.6567C77.6251 30.4422 77.9271 30.2522 78.272 30.2522V29.8534C77.7796 29.8534 77.3838 30.1219 77.1238 30.366C76.9917 30.49 76.8885 30.6134 76.8182 30.7058C76.7829 30.7522 76.7556 30.7911 76.7368 30.819C76.7274 30.8329 76.7201 30.8442 76.715 30.8522C76.7124 30.8562 76.7104 30.8594 76.709 30.8617C76.7082 30.8629 76.7076 30.8639 76.7072 30.8646C76.7069 30.865 76.7068 30.8653 76.7066 30.8655C76.7065 30.8657 76.7064 30.8658 76.7064 30.8659C76.7064 30.8659 76.7063 30.866 76.7063 30.866C76.7063 30.8661 76.7062 30.8662 76.8765 30.9698ZM78.272 30.2522C78.7802 30.2522 79.2688 30.7004 79.2688 31.4483H79.6675C79.6675 30.5216 79.0397 29.8534 78.272 29.8534V30.2522ZM79.2688 31.4483V34H79.6675V31.4483H79.2688ZM79.4681 34.1994H79.7073V33.8006H79.4681V34.1994ZM79.9067 34V31.4483H79.508V34H79.9067ZM79.9067 31.4483C79.9067 31.3556 79.8954 31.2459 79.8852 31.1644C79.88 31.1225 79.8748 31.086 79.8709 31.0599C79.8689 31.0468 79.8672 31.0362 79.8661 31.0288C79.8655 31.0251 79.865 31.0222 79.8647 31.0202C79.8645 31.0192 79.8644 31.0184 79.8643 31.0178C79.8642 31.0175 79.8642 31.0173 79.8642 31.0171C79.8642 31.017 79.8642 31.017 79.8641 31.0169C79.8641 31.0169 79.8641 31.0169 79.8641 31.0168C79.8641 31.0168 79.8641 31.0168 79.8641 31.0168C79.8641 31.0168 79.8641 31.0168 79.6675 31.0496C79.4708 31.0823 79.4708 31.0823 79.4708 31.0823C79.4708 31.0823 79.4708 31.0823 79.4708 31.0823C79.4708 31.0823 79.4708 31.0823 79.4708 31.0823C79.4708 31.0823 79.4708 31.0823 79.4708 31.0823C79.4708 31.0824 79.4709 31.0825 79.4709 31.0827C79.4709 31.083 79.471 31.0836 79.4712 31.0844C79.4714 31.0859 79.4718 31.0883 79.4723 31.0915C79.4733 31.0978 79.4748 31.1072 79.4765 31.119C79.4801 31.1427 79.4848 31.1759 79.4896 31.2138C79.4993 31.2918 79.508 31.3814 79.508 31.4483H79.9067ZM79.6675 31.0496C79.8384 31.1521 79.8384 31.1522 79.8384 31.1522C79.8384 31.1522 79.8383 31.1523 79.8383 31.1523C79.8383 31.1523 79.8383 31.1524 79.8383 31.1524C79.8383 31.1524 79.8383 31.1523 79.8384 31.1522C79.8385 31.152 79.8387 31.1516 79.8391 31.151C79.8399 31.1496 79.8413 31.1474 79.8432 31.1444C79.8471 31.1383 79.8531 31.1289 79.8612 31.1165C79.8775 31.0919 79.902 31.0559 79.9343 31.0124C79.9989 30.925 80.093 30.8089 80.2107 30.6935C80.452 30.457 80.7627 30.2522 81.1028 30.2522V29.8534C80.6056 29.8534 80.1986 30.147 79.9316 30.4088C79.7951 30.5426 79.6874 30.6757 79.6137 30.7752C79.5768 30.8251 79.5481 30.867 79.5284 30.8969C79.5185 30.9119 79.5109 30.9238 79.5056 30.9323C79.5029 30.9366 79.5008 30.94 79.4993 30.9424C79.4985 30.9437 79.4979 30.9447 79.4975 30.9454C79.4972 30.9458 79.497 30.9461 79.4969 30.9464C79.4968 30.9465 79.4967 30.9466 79.4967 30.9467C79.4966 30.9468 79.4966 30.9468 79.4966 30.9469C79.4966 30.9469 79.4965 30.947 79.6675 31.0496ZM81.1028 30.2522C81.611 30.2522 82.0996 30.7004 82.0996 31.4483H82.4983C82.4983 30.5216 81.8705 29.8534 81.1028 29.8534V30.2522ZM82.0996 31.4483V34H82.4983V31.4483H82.0996ZM82.2989 34.1994H82.5382V33.8006H82.2989V34.1994ZM82.7375 34V31.4483H82.3388V34H82.7375ZM82.7375 31.4483C82.7375 30.4318 82.0207 29.6939 81.1028 29.6939V30.0927C81.7797 30.0927 82.3388 30.6307 82.3388 31.4483H82.7375ZM81.1028 29.6939C80.612 29.6939 80.205 29.961 79.9342 30.2033C79.7964 30.3266 79.6873 30.4494 79.6126 30.5413C79.5751 30.5874 79.5459 30.6261 79.5259 30.6538C79.5158 30.6676 79.508 30.6788 79.5025 30.6867C79.4998 30.6906 79.4976 30.6938 79.4961 30.6961C79.4953 30.6973 79.4947 30.6982 79.4942 30.6989C79.4939 30.6993 79.4937 30.6996 79.4936 30.6998C79.4935 30.7 79.4934 30.7001 79.4933 30.7002C79.4933 30.7002 79.4933 30.7003 79.4933 30.7003C79.4932 30.7004 79.4932 30.7004 79.6595 30.8103C79.8258 30.9203 79.8258 30.9203 79.8258 30.9203C79.8258 30.9204 79.8257 30.9204 79.8257 30.9204C79.8257 30.9205 79.8257 30.9205 79.8257 30.9205C79.8256 30.9205 79.8257 30.9205 79.8257 30.9204C79.8258 30.9203 79.8261 30.9199 79.8265 30.9193C79.8272 30.9181 79.8286 30.9162 79.8305 30.9134C79.8343 30.9079 79.8403 30.8993 79.8485 30.8881C79.8648 30.8656 79.8896 30.8327 79.922 30.7928C79.987 30.7128 80.0817 30.6063 80.2001 30.5004C80.4417 30.2842 80.7564 30.0927 81.1028 30.0927V29.6939ZM79.6595 30.611H79.6196V31.0097H79.6595V30.611ZM79.6196 30.8103C79.8058 30.7391 79.8058 30.739 79.8058 30.7389C79.8057 30.7389 79.8057 30.7388 79.8057 30.7387C79.8056 30.7386 79.8056 30.7384 79.8055 30.7382C79.8054 30.7379 79.8052 30.7375 79.805 30.737C79.8047 30.7361 79.8042 30.735 79.8037 30.7336C79.8026 30.7309 79.8012 30.7274 79.7993 30.723C79.7957 30.7143 79.7905 30.7023 79.7837 30.6876C79.7702 30.6581 79.7501 30.6174 79.7229 30.5691C79.6687 30.473 79.5849 30.3449 79.4659 30.2164C79.2261 29.9574 78.8394 29.6939 78.272 29.6939V30.0927C78.7014 30.0927 78.9885 30.2877 79.1733 30.4873C79.2666 30.588 79.3328 30.6892 79.3756 30.765C79.3968 30.8027 79.412 30.8336 79.4215 30.8543C79.4263 30.8646 79.4296 30.8724 79.4316 30.8771C79.4325 30.8794 79.4332 30.881 79.4335 30.8818C79.4337 30.8822 79.4337 30.8823 79.4337 30.8823C79.4337 30.8823 79.4337 30.8822 79.4336 30.8821C79.4336 30.882 79.4336 30.882 79.4335 30.8819C79.4335 30.8818 79.4335 30.8818 79.4335 30.8817C79.4335 30.8817 79.4334 30.8816 79.6196 30.8103ZM78.272 29.6939C77.786 29.6939 77.3923 29.9362 77.1305 30.1606C76.9981 30.2741 76.8944 30.3873 76.8237 30.4721C76.7882 30.5147 76.7607 30.5505 76.7417 30.5762C76.7322 30.5891 76.7249 30.5994 76.7197 30.6069C76.7171 30.6106 76.715 30.6136 76.7135 30.6158C76.7127 30.6169 76.7121 30.6178 76.7117 30.6185C76.7114 30.6188 76.7112 30.6192 76.711 30.6194C76.711 30.6195 76.7109 30.6196 76.7108 30.6197C76.7108 30.6198 76.7107 30.6199 76.7107 30.6199C76.7107 30.6199 76.7106 30.62 76.8765 30.7306C77.0424 30.8412 77.0424 30.8412 77.0423 30.8413C77.0423 30.8413 77.0423 30.8413 77.0423 30.8414C77.0422 30.8414 77.0422 30.8415 77.0422 30.8415C77.0422 30.8415 77.0422 30.8415 77.0422 30.8415C77.0423 30.8414 77.0425 30.8411 77.0428 30.8406C77.0434 30.8396 77.0446 30.8379 77.0463 30.8355C77.0497 30.8307 77.0551 30.823 77.0625 30.813C77.0774 30.7929 77.1 30.7633 77.13 30.7274C77.1901 30.6553 77.2783 30.5591 77.39 30.4633C77.6167 30.2691 77.9207 30.0927 78.272 30.0927V29.6939ZM76.8765 30.5312H76.8366V30.93H76.8765V30.5312ZM77.036 30.7306C77.036 30.5378 77.0147 30.3478 76.994 30.208C76.9836 30.1376 76.9731 30.0788 76.9652 30.0373C76.9613 30.0165 76.9579 30 76.9555 29.9886C76.9543 29.9828 76.9534 29.9783 76.9527 29.9751C76.9524 29.9735 76.9521 29.9723 76.9519 29.9714C76.9518 29.9709 76.9517 29.9705 76.9517 29.9703C76.9516 29.9701 76.9516 29.97 76.9516 29.9699C76.9516 29.9698 76.9516 29.9698 76.9515 29.9698C76.9515 29.9697 76.9515 29.9697 76.9515 29.9697C76.9515 29.9697 76.9515 29.9697 76.7569 30.0129C76.5623 30.0562 76.5623 30.0561 76.5623 30.0561C76.5623 30.0561 76.5623 30.0561 76.5623 30.0561C76.5623 30.0561 76.5623 30.0561 76.5623 30.0561C76.5623 30.0561 76.5623 30.0561 76.5623 30.0561C76.5623 30.0562 76.5623 30.0563 76.5624 30.0566C76.5625 30.057 76.5627 30.0578 76.5629 30.059C76.5634 30.0612 76.5641 30.0648 76.5651 30.0695C76.5671 30.0791 76.57 30.0934 76.5735 30.1119C76.5806 30.1489 76.5901 30.2022 76.5996 30.2664C76.6187 30.3957 76.6373 30.5646 76.6373 30.7306H77.036ZM76.7569 29.8136H76.5177V30.2123H76.7569V29.8136ZM76.5177 30.0129C76.3285 30.076 76.3285 30.0759 76.3285 30.0759C76.3285 30.0759 76.3285 30.0758 76.3285 30.0758C76.3285 30.0757 76.3285 30.0757 76.3284 30.0757C76.3284 30.0756 76.3284 30.0755 76.3284 30.0755C76.3284 30.0754 76.3284 30.0754 76.3284 30.0755C76.3285 30.0757 76.3286 30.0763 76.3289 30.0771C76.3295 30.0789 76.3304 30.082 76.3318 30.0864C76.3344 30.0953 76.3384 30.1094 76.3435 30.1287C76.3535 30.1671 76.3673 30.2257 76.3813 30.3028C76.4093 30.4568 76.4379 30.6841 76.4379 30.9698H76.8367C76.8367 30.6575 76.8054 30.4063 76.7736 30.2314C76.7577 30.144 76.7417 30.0755 76.7293 30.028C76.7231 30.0042 76.7178 29.9857 76.7139 29.9726C76.7119 29.966 76.7103 29.9609 76.7091 29.9571C76.7085 29.9552 76.708 29.9536 76.7076 29.9524C76.7075 29.9518 76.7073 29.9513 76.7071 29.9509C76.7071 29.9507 76.707 29.9505 76.707 29.9503C76.7069 29.9502 76.7069 29.9501 76.7069 29.9501C76.7069 29.95 76.7069 29.95 76.7068 29.95C76.7068 29.9499 76.7068 29.9499 76.5177 30.0129ZM76.4379 30.9698V34H76.8367V30.9698H76.4379ZM87.4398 32.0862V32.2856H87.563L87.6181 32.1754L87.4398 32.0862ZM87.3202 33.2026L87.4905 33.3062L87.5899 33.1428L87.4308 33.0367L87.3202 33.2026ZM87.2006 33.1228L87.3112 32.957L87.1396 32.8426L87.0311 33.0179L87.2006 33.1228ZM83.8913 32.0862V31.8868H83.6919V32.0862H83.8913ZM83.8913 31.9267H83.6919V32.1261H83.8913V31.9267ZM87.2404 31.9267V32.1261H87.4398V31.9267H87.2404ZM87.4398 32.0862C87.6181 32.1754 87.6181 32.1753 87.6181 32.1753C87.6181 32.1753 87.6182 32.1752 87.6182 32.1752C87.6182 32.1752 87.6182 32.1751 87.6183 32.1751C87.6183 32.175 87.6184 32.1749 87.6184 32.1747C87.6185 32.1745 87.6187 32.1743 87.6188 32.174C87.6191 32.1734 87.6194 32.1728 87.6197 32.1721C87.6204 32.1707 87.6212 32.169 87.6222 32.1669C87.6241 32.1628 87.6265 32.1575 87.6293 32.151C87.6348 32.1382 87.6418 32.1205 87.6489 32.0994C87.6621 32.0596 87.679 31.9967 87.679 31.9267H87.2803C87.2803 31.9364 87.2772 31.9534 87.2706 31.9733C87.2677 31.9821 87.2648 31.9893 87.2628 31.994C87.2618 31.9962 87.2611 31.9977 87.2608 31.9983C87.2607 31.9986 87.2607 31.9987 87.2608 31.9985C87.2608 31.9983 87.2609 31.9982 87.261 31.9979C87.2611 31.9978 87.2611 31.9977 87.2612 31.9975C87.2613 31.9975 87.2613 31.9974 87.2613 31.9973C87.2614 31.9973 87.2614 31.9972 87.2614 31.9972C87.2614 31.9972 87.2614 31.9971 87.2614 31.9971C87.2615 31.9971 87.2615 31.997 87.4398 32.0862ZM87.679 31.9267C87.679 30.6683 86.7204 29.6939 85.5659 29.6939V30.0927C86.4846 30.0927 87.2803 30.8726 87.2803 31.9267H87.679ZM85.5659 29.6939C84.4064 29.6939 83.4527 30.6735 83.4527 32.0065H83.8514C83.8514 30.8674 84.6521 30.0927 85.5659 30.0927V29.6939ZM83.4527 32.0065C83.4527 33.3448 84.4115 34.319 85.6456 34.319V33.9202C84.6469 33.9202 83.8514 33.1401 83.8514 32.0065H83.4527ZM85.6456 34.319C86.2621 34.319 86.724 34.065 87.0281 33.8152C87.18 33.6904 87.2939 33.5656 87.3703 33.4715C87.4086 33.4243 87.4377 33.3845 87.4577 33.3558C87.4677 33.3415 87.4754 33.3299 87.4808 33.3214C87.4836 33.3172 87.4857 33.3138 87.4873 33.3113C87.4882 33.31 87.4888 33.3089 87.4893 33.3081C87.4896 33.3077 87.4898 33.3073 87.49 33.307C87.4901 33.3068 87.4902 33.3067 87.4903 33.3066C87.4903 33.3065 87.4904 33.3064 87.4904 33.3064C87.4904 33.3063 87.4905 33.3062 87.3202 33.2026C87.1499 33.0989 87.1499 33.0989 87.15 33.0988C87.15 33.0988 87.15 33.0987 87.15 33.0987C87.1501 33.0986 87.1501 33.0985 87.1501 33.0985C87.1502 33.0984 87.1502 33.0984 87.1502 33.0984C87.1502 33.0984 87.15 33.0987 87.1497 33.0991C87.1492 33.1001 87.1481 33.1018 87.1464 33.1043C87.1432 33.1093 87.1378 33.1174 87.1304 33.1281C87.1154 33.1496 87.0922 33.1814 87.0607 33.2202C86.9976 33.298 86.9022 33.4026 86.775 33.507C86.5209 33.7158 86.1455 33.9202 85.6456 33.9202V34.319ZM87.4308 33.0367L87.3112 32.957L87.09 33.2887L87.2096 33.3685L87.4308 33.0367ZM87.2006 33.1228C87.0311 33.0179 87.0311 33.0178 87.0311 33.0178C87.0312 33.0177 87.0312 33.0177 87.0312 33.0176C87.0313 33.0176 87.0313 33.0175 87.0313 33.0175C87.0314 33.0174 87.0314 33.0173 87.0314 33.0173C87.0314 33.0173 87.0313 33.0175 87.0311 33.0179C87.0306 33.0187 87.0296 33.0202 87.0281 33.0224C87.0252 33.0268 87.0203 33.0341 87.0135 33.0437C86.9999 33.0629 86.9786 33.0917 86.9496 33.1268C86.8916 33.1971 86.8037 33.2918 86.6866 33.3864C86.4526 33.5754 86.1067 33.7608 85.6456 33.7608V34.1595C86.2212 34.1595 86.6527 33.9262 86.9371 33.6966C87.0791 33.5819 87.1856 33.4672 87.2571 33.3806C87.293 33.3372 87.3203 33.3005 87.339 33.274C87.3484 33.2607 87.3557 33.2499 87.3609 33.2421C87.3634 33.2382 87.3655 33.235 87.367 33.2326C87.3678 33.2314 87.3684 33.2304 87.369 33.2296C87.3692 33.2292 87.3694 33.2288 87.3696 33.2285C87.3697 33.2284 87.3698 33.2282 87.3699 33.2281C87.3699 33.2281 87.37 33.228 87.37 33.2279C87.37 33.2279 87.3701 33.2278 87.2006 33.1228ZM85.6456 33.7608C84.8073 33.7608 84.0907 33.0613 84.0907 32.0862H83.6919C83.6919 33.2641 84.5701 34.1595 85.6456 34.1595V33.7608ZM83.8913 32.2856H87.4398V31.8868H83.8913V32.2856ZM84.0907 31.9267C84.0907 30.9455 84.8131 30.2522 85.5659 30.2522V29.8534C84.5643 29.8534 83.6919 30.7549 83.6919 31.9267H84.0907ZM85.5659 30.2522C86.3186 30.2522 87.0411 30.9455 87.0411 31.9267H87.4398C87.4398 30.7549 86.5674 29.8534 85.5659 29.8534V30.2522ZM87.2404 31.7274H83.8913V32.1261H87.2404V31.7274ZM90.3955 30.5711L90.2372 30.45L90.1079 30.619L90.2849 30.737L90.3955 30.5711ZM90.5151 30.6509L90.4045 30.8167L90.5566 30.9181L90.6708 30.7754L90.5151 30.6509ZM93.2264 31.8868L93.1372 32.0652L93.4257 32.2094V31.8868H93.2264ZM93.2264 33.2823V33.083H93.1276L93.0678 33.1615L93.2264 33.2823ZM93.2662 33.2823H93.4656V33.083H93.2662V33.2823ZM93.346 34L93.1513 34.0432L93.186 34.1994H93.346V34ZM93.5852 34V34.1994H93.8618L93.7743 33.937L93.5852 34ZM93.2264 32.0862H93.4257V31.9683L93.3224 31.9115L93.2264 32.0862ZM93.2264 33.0431L93.39 33.1569L93.4257 33.1056V33.0431H93.2264ZM93.6649 31.5679C93.6649 31.0083 93.4919 30.5348 93.158 30.2009C92.8241 29.8669 92.3506 29.6939 91.791 29.6939V30.0927C92.2681 30.0927 92.6319 30.2386 92.8761 30.4828C93.1203 30.727 93.2662 31.0908 93.2662 31.5679H93.6649ZM91.791 29.6939C91.2993 29.6939 90.9108 29.8841 90.6491 30.0695C90.518 30.1624 90.4168 30.2553 90.3479 30.3256C90.3133 30.3609 90.2866 30.3907 90.2681 30.4122C90.2589 30.423 90.2516 30.4318 90.2465 30.4382C90.2439 30.4414 90.2418 30.444 90.2403 30.446C90.2395 30.447 90.2388 30.4478 90.2383 30.4485C90.2381 30.4488 90.2378 30.4491 90.2376 30.4494C90.2375 30.4495 90.2375 30.4496 90.2374 30.4497C90.2373 30.4498 90.2373 30.4498 90.2373 30.4499C90.2372 30.4499 90.2372 30.45 90.3955 30.5711C90.5539 30.6922 90.5538 30.6923 90.5538 30.6923C90.5538 30.6923 90.5537 30.6924 90.5537 30.6924C90.5537 30.6925 90.5536 30.6926 90.5536 30.6926C90.5535 30.6927 90.5535 30.6927 90.5535 30.6927C90.5535 30.6928 90.5536 30.6926 90.5538 30.6923C90.5543 30.6917 90.5552 30.6905 90.5566 30.6888C90.5595 30.6853 90.5642 30.6795 90.5709 30.6717C90.5841 30.6562 90.6048 30.6331 90.6326 30.6048C90.6882 30.548 90.7715 30.4715 90.8796 30.3949C91.0963 30.2414 91.4056 30.0927 91.791 30.0927V29.6939ZM90.2849 30.737L90.4045 30.8167L90.6257 30.485L90.5061 30.4052L90.2849 30.737ZM90.5151 30.6509C90.6708 30.7754 90.6708 30.7755 90.6707 30.7755C90.6707 30.7755 90.6707 30.7756 90.6706 30.7756C90.6706 30.7757 90.6705 30.7757 90.6705 30.7758C90.6704 30.7759 90.6704 30.7759 90.6704 30.776C90.6703 30.776 90.6704 30.7759 90.6706 30.7757C90.6709 30.7752 90.6718 30.7742 90.673 30.7728C90.6755 30.7698 90.6798 30.7648 90.6858 30.7581C90.6978 30.7448 90.7165 30.7246 90.7418 30.6999C90.7924 30.6504 90.8681 30.5835 90.9663 30.5165C91.1633 30.3822 91.4437 30.2522 91.791 30.2522V29.8534C91.3409 29.8534 90.9833 30.0224 90.7417 30.1871C90.6207 30.2696 90.527 30.3523 90.4629 30.4149C90.4309 30.4463 90.406 30.4729 90.3887 30.4922C90.3801 30.5018 90.3733 30.5097 90.3684 30.5155C90.3659 30.5184 90.364 30.5208 90.3625 30.5226C90.3617 30.5235 90.3611 30.5243 90.3606 30.5249C90.3604 30.5252 90.3601 30.5255 90.3599 30.5257C90.3598 30.5258 90.3598 30.5259 90.3597 30.526C90.3596 30.5261 90.3596 30.5262 90.3596 30.5262C90.3595 30.5262 90.3595 30.5263 90.5151 30.6509ZM91.791 30.2522C92.1864 30.2522 92.4893 30.3769 92.6939 30.5897C92.8993 30.8032 93.027 31.1279 93.027 31.5679H93.4257C93.4257 31.051 93.2743 30.6181 92.9813 30.3133C92.6875 30.0077 92.2727 29.8534 91.791 29.8534V30.2522ZM93.027 31.5679V31.8868H93.4257V31.5679H93.027ZM93.2264 31.8868C93.3155 31.7085 93.3155 31.7085 93.3154 31.7085C93.3154 31.7085 93.3154 31.7085 93.3153 31.7084C93.3153 31.7084 93.3152 31.7084 93.3151 31.7083C93.3149 31.7082 93.3147 31.7081 93.3144 31.708C93.3138 31.7077 93.313 31.7073 93.3121 31.7068C93.3101 31.7059 93.3075 31.7046 93.304 31.7029C93.2972 31.6996 93.2874 31.6949 93.2748 31.6891C93.2497 31.6773 93.2135 31.6609 93.1678 31.6413C93.0765 31.6022 92.9467 31.5503 92.791 31.4984C92.482 31.3954 92.0604 31.2888 91.6315 31.2888V31.6875C92.0001 31.6875 92.3758 31.7803 92.6649 31.8766C92.8083 31.9244 92.9276 31.9722 93.0108 32.0078C93.0523 32.0256 93.0846 32.0403 93.1062 32.0504C93.117 32.0554 93.1251 32.0593 93.1304 32.0618C93.133 32.0631 93.1349 32.064 93.136 32.0646C93.1366 32.0649 93.137 32.0651 93.1372 32.0652C93.1373 32.0652 93.1373 32.0652 93.1373 32.0652C93.1373 32.0652 93.1373 32.0652 93.1373 32.0652C93.1373 32.0652 93.1373 32.0652 93.1373 32.0652C93.1372 32.0652 93.1372 32.0652 93.2264 31.8868ZM91.6315 31.2888C91.0786 31.2888 90.6289 31.4379 90.3145 31.7115C89.9975 31.9874 89.8373 32.3734 89.8373 32.8039H90.236C90.236 32.4768 90.3549 32.2049 90.5762 32.0123C90.8001 31.8175 91.1478 31.6875 91.6315 31.6875V31.2888ZM89.8373 32.8039C89.8373 33.2343 89.9975 33.6203 90.3145 33.8962C90.6289 34.1699 91.0786 34.319 91.6315 34.319V33.9202C91.1478 33.9202 90.8001 33.7902 90.5762 33.5954C90.3549 33.4028 90.236 33.131 90.236 32.8039H89.8373ZM91.6315 34.319C92.1689 34.319 92.609 34.0843 92.9074 33.8605C93.0576 33.7478 93.1755 33.6353 93.2561 33.5506C93.2965 33.5082 93.3278 33.4725 93.3495 33.4468C93.3603 33.434 93.3687 33.4237 93.3746 33.4163C93.3776 33.4126 93.3799 33.4096 93.3817 33.4074C93.3825 33.4063 93.3832 33.4054 93.3838 33.4047C93.384 33.4043 93.3843 33.404 93.3845 33.4038C93.3846 33.4036 93.3847 33.4035 93.3847 33.4034C93.3848 33.4034 93.3848 33.4033 93.3848 33.4033C93.3849 33.4032 93.3849 33.4031 93.2264 33.2823C93.0678 33.1615 93.0678 33.1614 93.0679 33.1614C93.0679 33.1614 93.0679 33.1613 93.0679 33.1613C93.068 33.1613 93.068 33.1612 93.068 33.1612C93.068 33.1612 93.068 33.1612 93.068 33.1612C93.0679 33.1613 93.0677 33.1616 93.0673 33.1621C93.0666 33.163 93.0652 33.1648 93.0633 33.1672C93.0594 33.172 93.0532 33.1797 93.0447 33.1898C93.0277 33.2099 93.0017 33.2396 92.9674 33.2757C92.8985 33.348 92.797 33.4448 92.6682 33.5415C92.4084 33.7363 92.0511 33.9202 91.6315 33.9202V34.319ZM93.2264 33.4817H93.2662V33.083H93.2264V33.4817ZM93.0669 33.2823C93.0669 33.4751 93.0882 33.6651 93.1089 33.8049C93.1193 33.8753 93.1298 33.9341 93.1377 33.9756C93.1416 33.9964 93.1449 34.0129 93.1473 34.0244C93.1485 34.0301 93.1495 34.0346 93.1502 34.0378C93.1505 34.0394 93.1508 34.0406 93.151 34.0416C93.1511 34.042 93.1512 34.0424 93.1512 34.0427C93.1512 34.0428 93.1513 34.0429 93.1513 34.043C93.1513 34.0431 93.1513 34.0431 93.1513 34.0432C93.1513 34.0432 93.1513 34.0432 93.1513 34.0432C93.1513 34.0432 93.1513 34.0432 93.346 34C93.5406 33.9568 93.5406 33.9568 93.5406 33.9568C93.5406 33.9568 93.5406 33.9568 93.5406 33.9568C93.5406 33.9568 93.5406 33.9568 93.5406 33.9568C93.5406 33.9569 93.5406 33.9568 93.5406 33.9568C93.5406 33.9568 93.5405 33.9566 93.5405 33.9564C93.5404 33.9559 93.5402 33.9551 93.54 33.954C93.5395 33.9517 93.5387 33.9482 93.5377 33.9434C93.5358 33.9339 93.5329 33.9195 93.5293 33.901C93.5223 33.864 93.5128 33.8107 93.5033 33.7465C93.4841 33.6172 93.4656 33.4483 93.4656 33.2823H93.0669ZM93.346 34.1994H93.5852V33.8006H93.346V34.1994ZM93.5852 34C93.7743 33.937 93.7743 33.937 93.7744 33.937C93.7744 33.9371 93.7744 33.9371 93.7744 33.9371C93.7744 33.9372 93.7744 33.9372 93.7744 33.9373C93.7744 33.9373 93.7745 33.9374 93.7745 33.9374C93.7745 33.9375 93.7745 33.9375 93.7745 33.9374C93.7744 33.9372 93.7742 33.9367 93.774 33.9358C93.7734 33.934 93.7724 33.9309 93.7711 33.9265C93.7685 33.9176 93.7644 33.9035 93.7594 33.8843C93.7494 33.8458 93.7355 33.7872 93.7215 33.7102C93.6935 33.5561 93.6649 33.3289 93.6649 33.0431H93.2662C93.2662 33.3554 93.2974 33.6066 93.3292 33.7815C93.3451 33.8689 93.3612 33.9374 93.3736 33.9849C93.3798 34.0087 93.3851 34.0272 93.389 34.0403C93.3909 34.0469 93.3925 34.0521 93.3937 34.0559C93.3943 34.0578 93.3948 34.0593 93.3952 34.0605C93.3954 34.0611 93.3956 34.0616 93.3957 34.062C93.3958 34.0623 93.3959 34.0624 93.3959 34.0626C93.3959 34.0627 93.396 34.0628 93.396 34.0628C93.396 34.0629 93.396 34.0629 93.396 34.0629C93.396 34.063 93.3961 34.063 93.5852 34ZM93.6649 33.0431V31.5679H93.2662V33.0431H93.6649ZM91.6315 33.7608C91.2281 33.7608 90.9411 33.651 90.7574 33.4874C90.576 33.3257 90.4753 33.0936 90.4753 32.8039H90.0765C90.0765 33.1919 90.215 33.538 90.4921 33.785C90.767 34.03 91.1578 34.1595 91.6315 34.1595V33.7608ZM90.4753 32.8039C90.4753 32.5141 90.576 32.2821 90.7574 32.1204C90.9411 31.9567 91.2281 31.847 91.6315 31.847V31.4483C91.1578 31.4483 90.767 31.5777 90.4921 31.8227C90.215 32.0697 90.0765 32.4158 90.0765 32.8039H90.4753ZM91.6315 31.847C91.9971 31.847 92.3708 31.9483 92.6593 32.0541C92.8023 32.1065 92.9213 32.1589 93.0043 32.198C93.0457 32.2175 93.0779 32.2337 93.0995 32.2447C93.1103 32.2502 93.1183 32.2545 93.1235 32.2573C93.1261 32.2586 93.128 32.2597 93.1291 32.2603C93.1297 32.2606 93.1301 32.2608 93.1303 32.2609C93.1304 32.2609 93.1304 32.261 93.1304 32.261C93.1304 32.261 93.1304 32.261 93.1304 32.2609C93.1304 32.2609 93.1303 32.2609 93.1303 32.2609C93.1303 32.2609 93.1303 32.2609 93.2264 32.0862C93.3224 31.9115 93.3224 31.9115 93.3223 31.9115C93.3223 31.9115 93.3223 31.9114 93.3222 31.9114C93.3222 31.9114 93.3221 31.9113 93.322 31.9113C93.3218 31.9112 93.3216 31.911 93.3213 31.9109C93.3207 31.9106 93.3199 31.9101 93.3189 31.9096C93.317 31.9086 93.3143 31.9071 93.3109 31.9053C93.304 31.9016 93.2942 31.8965 93.2816 31.89C93.2564 31.8771 93.2201 31.8589 93.1743 31.8373C93.0828 31.7942 92.9527 31.737 92.7966 31.6797C92.4871 31.5663 92.0634 31.4483 91.6315 31.4483V31.847ZM93.027 32.0862V33.0431H93.4257V32.0862H93.027ZM93.2264 33.0431C93.0627 32.9293 93.0627 32.9292 93.0628 32.9291C93.0628 32.9291 93.0628 32.9291 93.0628 32.9291C93.0629 32.929 93.0629 32.929 93.0629 32.929C93.0629 32.9289 93.0629 32.9289 93.0629 32.929C93.0628 32.9291 93.0625 32.9295 93.0621 32.93C93.0613 32.9312 93.0599 32.9331 93.058 32.9358C93.054 32.9412 93.0477 32.9497 93.0391 32.9609C93.022 32.9831 92.9958 33.0159 92.9613 33.0556C92.892 33.1352 92.7903 33.2415 92.6612 33.3476C92.4004 33.5618 92.0454 33.7608 91.6315 33.7608V34.1595C92.1745 34.1595 92.617 33.8999 92.9143 33.6557C93.0643 33.5324 93.1819 33.4095 93.2622 33.3172C93.3024 33.2709 93.3336 33.232 93.355 33.2042C93.3658 33.1902 93.3741 33.179 93.3799 33.171C93.3829 33.167 93.3852 33.1638 93.3869 33.1614C93.3877 33.1602 93.3884 33.1593 93.3889 33.1585C93.3892 33.1581 93.3894 33.1578 93.3896 33.1576C93.3897 33.1574 93.3898 33.1573 93.3898 33.1572C93.3899 33.1572 93.3899 33.1571 93.3899 33.1571C93.39 33.157 93.39 33.1569 93.2264 33.0431ZM98.094 30.6509L98.2046 30.8167L98.3785 30.7008L98.2545 30.5326L98.094 30.6509ZM98.2535 33.2026L98.4238 33.3062L98.5233 33.1428L98.3641 33.0367L98.2535 33.2026ZM98.1339 33.1228L98.2445 32.957L98.0729 32.8426L97.9644 33.0179L98.1339 33.1228ZM97.9744 30.7306L97.816 30.8517L97.9295 31.0001L98.085 30.8965L97.9744 30.7306ZM98.094 30.6509C98.2545 30.5326 98.2545 30.5325 98.2544 30.5325C98.2544 30.5324 98.2543 30.5324 98.2543 30.5323C98.2542 30.5322 98.2541 30.5321 98.254 30.5319C98.2538 30.5317 98.2536 30.5314 98.2533 30.531C98.2528 30.5303 98.2521 30.5294 98.2513 30.5283C98.2497 30.5262 98.2475 30.5233 98.2448 30.5198C98.2393 30.5128 98.2317 30.5032 98.2218 30.4912C98.2021 30.4674 98.1736 30.4344 98.1366 30.3954C98.0627 30.3174 97.9541 30.2143 97.8129 30.1111C97.5312 29.9052 97.112 29.6939 96.5789 29.6939V30.0927C97.0028 30.0927 97.3411 30.2602 97.5777 30.433C97.6957 30.5193 97.7864 30.6055 97.8471 30.6696C97.8774 30.7016 97.9 30.7278 97.9145 30.7454C97.9218 30.7542 97.9271 30.7608 97.9302 30.7649C97.9318 30.7669 97.9329 30.7683 97.9334 30.769C97.9337 30.7694 97.9339 30.7696 97.9339 30.7696C97.9339 30.7696 97.9339 30.7696 97.9338 30.7695C97.9338 30.7695 97.9337 30.7694 97.9337 30.7693C97.9337 30.7693 97.9336 30.7692 97.9336 30.7692C97.9336 30.7692 97.9335 30.7691 98.094 30.6509ZM96.5789 29.6939C95.3448 29.6939 94.386 30.6681 94.386 32.0065H94.7847C94.7847 30.8728 95.5802 30.0927 96.5789 30.0927V29.6939ZM94.386 32.0065C94.386 33.3448 95.3448 34.319 96.5789 34.319V33.9202C95.5802 33.9202 94.7847 33.1401 94.7847 32.0065H94.386ZM96.5789 34.319C97.1954 34.319 97.6573 34.065 97.9614 33.8152C98.1133 33.6904 98.2272 33.5656 98.3036 33.4715C98.3419 33.4243 98.371 33.3845 98.391 33.3558C98.401 33.3415 98.4087 33.3299 98.4142 33.3214C98.4169 33.3172 98.4191 33.3138 98.4207 33.3113C98.4215 33.31 98.4221 33.3089 98.4227 33.3081C98.4229 33.3077 98.4231 33.3073 98.4233 33.307C98.4234 33.3068 98.4235 33.3067 98.4236 33.3066C98.4236 33.3065 98.4237 33.3064 98.4237 33.3064C98.4237 33.3063 98.4238 33.3062 98.2535 33.2026C98.0832 33.0989 98.0832 33.0989 98.0833 33.0988C98.0833 33.0988 98.0833 33.0987 98.0834 33.0987C98.0834 33.0986 98.0834 33.0985 98.0835 33.0985C98.0835 33.0984 98.0835 33.0984 98.0835 33.0984C98.0835 33.0984 98.0833 33.0987 98.0831 33.0991C98.0825 33.1001 98.0814 33.1018 98.0798 33.1043C98.0765 33.1093 98.0711 33.1174 98.0637 33.1281C98.0488 33.1496 98.0255 33.1814 97.994 33.2202C97.9309 33.298 97.8355 33.4026 97.7083 33.507C97.4542 33.7158 97.0788 33.9202 96.5789 33.9202V34.319ZM98.3641 33.0367L98.2445 32.957L98.0233 33.2887L98.1429 33.3685L98.3641 33.0367ZM98.1339 33.1228C97.9644 33.0179 97.9644 33.0178 97.9645 33.0178C97.9645 33.0177 97.9645 33.0177 97.9645 33.0176C97.9646 33.0176 97.9646 33.0175 97.9647 33.0175C97.9647 33.0174 97.9647 33.0173 97.9647 33.0173C97.9647 33.0173 97.9646 33.0175 97.9644 33.0179C97.9639 33.0187 97.9629 33.0202 97.9614 33.0224C97.9585 33.0268 97.9536 33.0341 97.9468 33.0437C97.9332 33.0629 97.9119 33.0917 97.8829 33.1268C97.8249 33.1971 97.737 33.2918 97.6199 33.3864C97.3859 33.5754 97.04 33.7608 96.5789 33.7608V34.1595C97.1545 34.1595 97.5861 33.9262 97.8704 33.6966C98.0124 33.5819 98.1189 33.4672 98.1905 33.3806C98.2263 33.3372 98.2536 33.3005 98.2723 33.274C98.2817 33.2607 98.289 33.2499 98.2942 33.2421C98.2968 33.2382 98.2988 33.235 98.3004 33.2326C98.3011 33.2314 98.3018 33.2304 98.3023 33.2296C98.3025 33.2292 98.3027 33.2288 98.3029 33.2285C98.303 33.2284 98.3031 33.2282 98.3032 33.2281C98.3032 33.2281 98.3033 33.228 98.3033 33.2279C98.3034 33.2279 98.3034 33.2278 98.1339 33.1228ZM96.5789 33.7608C95.746 33.7608 95.024 33.067 95.024 32.0065H94.6252C94.6252 33.2584 95.4981 34.1595 96.5789 34.1595V33.7608ZM95.024 32.0065C95.024 30.9459 95.746 30.2522 96.5789 30.2522V29.8534C95.4981 29.8534 94.6252 30.7545 94.6252 32.0065H95.024ZM96.5789 30.2522C96.9644 30.2522 97.2736 30.4009 97.4904 30.5544C97.5985 30.6309 97.6817 30.7075 97.7374 30.7643C97.7651 30.7926 97.7858 30.8157 97.7991 30.8312C97.8057 30.8389 97.8104 30.8447 97.8133 30.8483C97.8147 30.85 97.8157 30.8512 97.8161 30.8518C97.8163 30.8521 97.8165 30.8522 97.8164 30.8522C97.8164 30.8522 97.8164 30.8522 97.8163 30.8521C97.8163 30.852 97.8163 30.852 97.8162 30.8519C97.8162 30.8519 97.8161 30.8518 97.8161 30.8518C97.8161 30.8518 97.816 30.8517 97.9744 30.7306C98.1328 30.6095 98.1327 30.6094 98.1327 30.6094C98.1326 30.6093 98.1326 30.6093 98.1326 30.6092C98.1325 30.6091 98.1324 30.609 98.1323 30.6089C98.1321 30.6086 98.1319 30.6083 98.1316 30.608C98.1311 30.6073 98.1304 30.6065 98.1297 30.6055C98.1281 30.6035 98.126 30.6009 98.1235 30.5977C98.1183 30.5913 98.111 30.5825 98.1018 30.5717C98.0833 30.5501 98.0566 30.5204 98.0221 30.4851C97.9531 30.4148 97.852 30.3219 97.7208 30.229C97.4591 30.0436 97.0707 29.8534 96.5789 29.8534V30.2522ZM98.085 30.8965L98.2046 30.8167L97.9834 30.485L97.8638 30.5647L98.085 30.8965ZM102.323 30.6509L102.433 30.8167L102.607 30.7008L102.483 30.5326L102.323 30.6509ZM102.482 33.2026L102.652 33.3062L102.752 33.1428L102.593 33.0367L102.482 33.2026ZM102.362 33.1228L102.473 32.957L102.301 32.8426L102.193 33.0179L102.362 33.1228ZM102.203 30.7306L102.045 30.8517L102.158 31.0001L102.313 30.8965L102.203 30.7306ZM102.323 30.6509C102.483 30.5326 102.483 30.5325 102.483 30.5325C102.483 30.5324 102.483 30.5324 102.483 30.5323C102.483 30.5322 102.483 30.5321 102.483 30.5319C102.482 30.5317 102.482 30.5314 102.482 30.531C102.481 30.5303 102.481 30.5294 102.48 30.5283C102.478 30.5262 102.476 30.5233 102.473 30.5198C102.468 30.5128 102.46 30.5032 102.45 30.4912C102.431 30.4674 102.402 30.4344 102.365 30.3954C102.291 30.3174 102.183 30.2143 102.041 30.1111C101.76 29.9052 101.34 29.6939 100.807 29.6939V30.0927C101.231 30.0927 101.57 30.2602 101.806 30.433C101.924 30.5193 102.015 30.6055 102.076 30.6696C102.106 30.7016 102.128 30.7278 102.143 30.7454C102.15 30.7542 102.156 30.7608 102.159 30.7649C102.16 30.7669 102.161 30.7683 102.162 30.769C102.162 30.7694 102.162 30.7696 102.162 30.7696C102.162 30.7696 102.162 30.7696 102.162 30.7695C102.162 30.7695 102.162 30.7694 102.162 30.7693C102.162 30.7693 102.162 30.7692 102.162 30.7692C102.162 30.7692 102.162 30.7691 102.323 30.6509ZM100.807 29.6939C99.5733 29.6939 98.6145 30.6681 98.6145 32.0065H99.0132C99.0132 30.8728 99.8087 30.0927 100.807 30.0927V29.6939ZM98.6145 32.0065C98.6145 33.3448 99.5733 34.319 100.807 34.319V33.9202C99.8087 33.9202 99.0132 33.1401 99.0132 32.0065H98.6145ZM100.807 34.319C101.424 34.319 101.886 34.065 102.19 33.8152C102.342 33.6904 102.456 33.5656 102.532 33.4715C102.57 33.4243 102.6 33.3845 102.619 33.3558C102.629 33.3415 102.637 33.3299 102.643 33.3214C102.645 33.3172 102.648 33.3138 102.649 33.3113C102.65 33.31 102.651 33.3089 102.651 33.3081C102.651 33.3077 102.652 33.3073 102.652 33.307C102.652 33.3068 102.652 33.3067 102.652 33.3066C102.652 33.3065 102.652 33.3064 102.652 33.3064C102.652 33.3063 102.652 33.3062 102.482 33.2026C102.312 33.0989 102.312 33.0989 102.312 33.0988C102.312 33.0988 102.312 33.0987 102.312 33.0987C102.312 33.0986 102.312 33.0985 102.312 33.0985C102.312 33.0984 102.312 33.0984 102.312 33.0984C102.312 33.0984 102.312 33.0987 102.312 33.0991C102.311 33.1001 102.31 33.1018 102.308 33.1043C102.305 33.1093 102.3 33.1174 102.292 33.1281C102.277 33.1496 102.254 33.1814 102.223 33.2202C102.159 33.298 102.064 33.4026 101.937 33.507C101.683 33.7158 101.307 33.9202 100.807 33.9202V34.319ZM102.593 33.0367L102.473 32.957L102.252 33.2887L102.371 33.3685L102.593 33.0367ZM102.362 33.1228C102.193 33.0179 102.193 33.0178 102.193 33.0178C102.193 33.0177 102.193 33.0177 102.193 33.0176C102.193 33.0176 102.193 33.0175 102.193 33.0175C102.193 33.0174 102.193 33.0173 102.193 33.0173C102.193 33.0173 102.193 33.0175 102.193 33.0179C102.192 33.0187 102.191 33.0202 102.19 33.0224C102.187 33.0268 102.182 33.0341 102.175 33.0437C102.162 33.0629 102.14 33.0917 102.111 33.1268C102.053 33.1971 101.966 33.2918 101.848 33.3864C101.614 33.5754 101.268 33.7608 100.807 33.7608V34.1595C101.383 34.1595 101.815 33.9262 102.099 33.6966C102.241 33.5819 102.347 33.4672 102.419 33.3806C102.455 33.3372 102.482 33.3005 102.501 33.274C102.51 33.2607 102.517 33.2499 102.523 33.2421C102.525 33.2382 102.527 33.235 102.529 33.2326C102.53 33.2314 102.53 33.2304 102.531 33.2296C102.531 33.2292 102.531 33.2288 102.531 33.2285C102.532 33.2284 102.532 33.2282 102.532 33.2281C102.532 33.2281 102.532 33.228 102.532 33.2279C102.532 33.2279 102.532 33.2278 102.362 33.1228ZM100.807 33.7608C99.9745 33.7608 99.2525 33.067 99.2525 32.0065H98.8537C98.8537 33.2584 99.7266 34.1595 100.807 34.1595V33.7608ZM99.2525 32.0065C99.2525 30.9459 99.9745 30.2522 100.807 30.2522V29.8534C99.7266 29.8534 98.8537 30.7545 98.8537 32.0065H99.2525ZM100.807 30.2522C101.193 30.2522 101.502 30.4009 101.719 30.5544C101.827 30.6309 101.91 30.7075 101.966 30.7643C101.994 30.7926 102.014 30.8157 102.028 30.8312C102.034 30.8389 102.039 30.8447 102.042 30.8483C102.043 30.85 102.044 30.8512 102.045 30.8518C102.045 30.8521 102.045 30.8522 102.045 30.8522C102.045 30.8522 102.045 30.8522 102.045 30.8521C102.045 30.852 102.045 30.852 102.045 30.8519C102.045 30.8519 102.045 30.8518 102.045 30.8518C102.045 30.8518 102.045 30.8517 102.203 30.7306C102.361 30.6095 102.361 30.6094 102.361 30.6094C102.361 30.6093 102.361 30.6093 102.361 30.6092C102.361 30.6091 102.361 30.609 102.361 30.6089C102.361 30.6086 102.36 30.6083 102.36 30.608C102.36 30.6073 102.359 30.6065 102.358 30.6055C102.357 30.6035 102.355 30.6009 102.352 30.5977C102.347 30.5913 102.34 30.5825 102.33 30.5717C102.312 30.5501 102.285 30.5204 102.251 30.4851C102.182 30.4148 102.08 30.3219 101.949 30.229C101.688 30.0436 101.299 29.8534 100.807 29.8534V30.2522ZM102.313 30.8965L102.433 30.8167L102.212 30.485L102.092 30.5647L102.313 30.8965ZM106.83 32.0862V32.2856H106.953L107.008 32.1754L106.83 32.0862ZM106.71 33.2026L106.881 33.3062L106.98 33.1428L106.821 33.0367L106.71 33.2026ZM106.591 33.1228L106.701 32.957L106.53 32.8426L106.421 33.0179L106.591 33.1228ZM103.282 32.0862V31.8868H103.082V32.0862H103.282ZM103.282 31.9267H103.082V32.1261H103.282V31.9267ZM106.631 31.9267V32.1261H106.83V31.9267H106.631ZM106.83 32.0862C107.008 32.1754 107.008 32.1753 107.008 32.1753C107.008 32.1753 107.008 32.1752 107.008 32.1752C107.008 32.1752 107.009 32.1751 107.009 32.1751C107.009 32.175 107.009 32.1749 107.009 32.1747C107.009 32.1745 107.009 32.1743 107.009 32.174C107.009 32.1734 107.01 32.1728 107.01 32.1721C107.011 32.1707 107.012 32.169 107.012 32.1669C107.014 32.1628 107.017 32.1575 107.02 32.151C107.025 32.1382 107.032 32.1205 107.039 32.0994C107.052 32.0596 107.069 31.9967 107.069 31.9267H106.671C106.671 31.9364 106.668 31.9534 106.661 31.9733C106.658 31.9821 106.655 31.9893 106.653 31.994C106.652 31.9962 106.651 31.9977 106.651 31.9983C106.651 31.9986 106.651 31.9987 106.651 31.9985C106.651 31.9983 106.651 31.9982 106.651 31.9979C106.651 31.9978 106.651 31.9977 106.652 31.9975C106.652 31.9975 106.652 31.9974 106.652 31.9973C106.652 31.9973 106.652 31.9972 106.652 31.9972C106.652 31.9972 106.652 31.9971 106.652 31.9971C106.652 31.9971 106.652 31.997 106.83 32.0862ZM107.069 31.9267C107.069 30.6683 106.111 29.6939 104.956 29.6939V30.0927C105.875 30.0927 106.671 30.8726 106.671 31.9267H107.069ZM104.956 29.6939C103.797 29.6939 102.843 30.6735 102.843 32.0065H103.242C103.242 30.8674 104.042 30.0927 104.956 30.0927V29.6939ZM102.843 32.0065C102.843 33.3448 103.802 34.319 105.036 34.319V33.9202C104.037 33.9202 103.242 33.1401 103.242 32.0065H102.843ZM105.036 34.319C105.652 34.319 106.114 34.065 106.418 33.8152C106.57 33.6904 106.684 33.5656 106.761 33.4715C106.799 33.4243 106.828 33.3845 106.848 33.3558C106.858 33.3415 106.866 33.3299 106.871 33.3214C106.874 33.3172 106.876 33.3138 106.878 33.3113C106.878 33.31 106.879 33.3089 106.88 33.3081C106.88 33.3077 106.88 33.3073 106.88 33.307C106.88 33.3068 106.88 33.3067 106.881 33.3066C106.881 33.3065 106.881 33.3064 106.881 33.3064C106.881 33.3063 106.881 33.3062 106.71 33.2026C106.54 33.0989 106.54 33.0989 106.54 33.0988C106.54 33.0988 106.54 33.0987 106.54 33.0987C106.54 33.0986 106.54 33.0985 106.54 33.0985C106.54 33.0984 106.541 33.0984 106.541 33.0984C106.54 33.0984 106.54 33.0987 106.54 33.0991C106.539 33.1001 106.538 33.1018 106.537 33.1043C106.533 33.1093 106.528 33.1174 106.521 33.1281C106.506 33.1496 106.483 33.1814 106.451 33.2202C106.388 33.298 106.292 33.4026 106.165 33.507C105.911 33.7158 105.536 33.9202 105.036 33.9202V34.319ZM106.821 33.0367L106.701 32.957L106.48 33.2887L106.6 33.3685L106.821 33.0367ZM106.591 33.1228C106.421 33.0179 106.421 33.0178 106.421 33.0178C106.421 33.0177 106.421 33.0177 106.422 33.0176C106.422 33.0176 106.422 33.0175 106.422 33.0175C106.422 33.0174 106.422 33.0173 106.422 33.0173C106.422 33.0173 106.422 33.0175 106.421 33.0179C106.421 33.0187 106.42 33.0202 106.418 33.0224C106.415 33.0268 106.411 33.0341 106.404 33.0437C106.39 33.0629 106.369 33.0917 106.34 33.1268C106.282 33.1971 106.194 33.2918 106.077 33.3864C105.843 33.5754 105.497 33.7608 105.036 33.7608V34.1595C105.611 34.1595 106.043 33.9262 106.327 33.6966C106.469 33.5819 106.576 33.4672 106.647 33.3806C106.683 33.3372 106.711 33.3005 106.729 33.274C106.739 33.2607 106.746 33.2499 106.751 33.2421C106.754 33.2382 106.756 33.235 106.757 33.2326C106.758 33.2314 106.759 33.2304 106.759 33.2296C106.759 33.2292 106.76 33.2288 106.76 33.2285C106.76 33.2284 106.76 33.2282 106.76 33.2281C106.76 33.2281 106.76 33.228 106.76 33.2279C106.76 33.2279 106.76 33.2278 106.591 33.1228ZM105.036 33.7608C104.198 33.7608 103.481 33.0613 103.481 32.0862H103.082C103.082 33.2641 103.96 34.1595 105.036 34.1595V33.7608ZM103.282 32.2856H106.83V31.8868H103.282V32.2856ZM103.481 31.9267C103.481 30.9455 104.203 30.2522 104.956 30.2522V29.8534C103.955 29.8534 103.082 30.7549 103.082 31.9267H103.481ZM104.956 30.2522C105.709 30.2522 106.431 30.9455 106.431 31.9267H106.83C106.83 30.7549 105.958 29.8534 104.956 29.8534V30.2522ZM106.631 31.7274H103.282V32.1261H106.631V31.7274ZM110.46 30.6509L110.309 30.7814L110.424 30.9142L110.57 30.8167L110.46 30.6509ZM110.58 30.5711L110.69 30.737L110.874 30.6146L110.733 30.4444L110.58 30.5711ZM107.589 33.1228L107.759 33.0179L107.65 32.8426L107.479 32.957L107.589 33.1228ZM107.47 33.2026L107.359 33.0367L107.2 33.1428L107.299 33.3062L107.47 33.2026ZM110.859 32.9634C110.859 32.532 110.641 32.2478 110.343 32.0572C110.059 31.8754 109.69 31.7703 109.356 31.6795C109.006 31.5844 108.695 31.5047 108.467 31.3807C108.356 31.3206 108.277 31.2563 108.226 31.1862C108.177 31.1193 108.147 31.0385 108.147 30.9299H107.749C107.749 31.1204 107.804 31.2838 107.903 31.4208C108.001 31.5546 108.134 31.6538 108.277 31.7313C108.556 31.8828 108.923 31.975 109.251 32.0643C109.595 32.1578 109.904 32.2496 110.128 32.3931C110.338 32.5276 110.46 32.697 110.46 32.9634H110.859ZM108.147 30.9299C108.147 30.6397 108.454 30.2522 109.144 30.2522V29.8534C108.319 29.8534 107.749 30.343 107.749 30.9299H108.147ZM109.144 30.2522C109.492 30.2522 109.784 30.3828 109.992 30.5188C110.096 30.5865 110.177 30.6541 110.232 30.7042C110.259 30.7292 110.279 30.7497 110.292 30.7634C110.299 30.7702 110.304 30.7753 110.307 30.7784C110.308 30.78 110.309 30.781 110.309 30.7815C110.31 30.7818 110.31 30.7819 110.31 30.7819C110.31 30.7819 110.31 30.7818 110.31 30.7818C110.309 30.7817 110.309 30.7817 110.309 30.7816C110.309 30.7816 110.309 30.7815 110.309 30.7815C110.309 30.7815 110.309 30.7814 110.46 30.6509C110.611 30.5203 110.61 30.5202 110.61 30.5202C110.61 30.5201 110.61 30.5201 110.61 30.52C110.61 30.5199 110.61 30.5198 110.61 30.5197C110.61 30.5195 110.61 30.5192 110.609 30.5189C110.609 30.5184 110.608 30.5176 110.607 30.5167C110.606 30.515 110.604 30.5127 110.601 30.5099C110.596 30.5042 110.589 30.4965 110.58 30.4869C110.561 30.4679 110.535 30.4416 110.501 30.4106C110.434 30.3486 110.335 30.2667 110.21 30.1848C109.96 30.0218 109.593 29.8534 109.144 29.8534V30.2522ZM110.57 30.8167L110.69 30.737L110.469 30.4052L110.349 30.485L110.57 30.8167ZM110.58 30.5711C110.733 30.4444 110.733 30.4443 110.733 30.4443C110.733 30.4442 110.733 30.4442 110.733 30.4441C110.733 30.444 110.733 30.4439 110.733 30.4438C110.733 30.4435 110.732 30.4433 110.732 30.4429C110.732 30.4423 110.731 30.4415 110.73 30.4405C110.729 30.4386 110.726 30.4361 110.724 30.4329C110.718 30.4266 110.711 30.418 110.701 30.4073C110.681 30.386 110.653 30.3565 110.617 30.3215C110.544 30.2518 110.438 30.1596 110.303 30.0673C110.033 29.8836 109.635 29.6939 109.144 29.6939V30.0927C109.53 30.0927 109.851 30.2419 110.079 30.3971C110.192 30.4743 110.281 30.5515 110.34 30.6089C110.37 30.6375 110.392 30.6609 110.407 30.6766C110.414 30.6845 110.419 30.6904 110.422 30.6941C110.424 30.6959 110.425 30.6971 110.426 30.6978C110.426 30.6981 110.426 30.6983 110.426 30.6983C110.426 30.6983 110.426 30.6983 110.426 30.6982C110.426 30.6982 110.426 30.6981 110.426 30.698C110.426 30.698 110.426 30.698 110.426 30.698C110.426 30.6979 110.426 30.6978 110.58 30.5711ZM109.144 29.6939C108.162 29.6939 107.509 30.2615 107.509 30.9299H107.908C107.908 30.5618 108.292 30.0927 109.144 30.0927V29.6939ZM107.509 30.9299C107.509 31.3613 107.727 31.6455 108.025 31.8361C108.309 32.0179 108.678 32.123 109.012 32.2138C109.362 32.3089 109.673 32.3886 109.901 32.5126C110.012 32.5727 110.091 32.637 110.142 32.7071C110.191 32.774 110.221 32.8548 110.221 32.9634H110.619C110.619 32.7729 110.564 32.6095 110.465 32.4725C110.367 32.3387 110.234 32.2395 110.091 32.162C109.812 32.0105 109.445 31.9183 109.117 31.829C108.773 31.7355 108.464 31.6437 108.24 31.5002C108.03 31.3657 107.908 31.1963 107.908 30.9299H107.509ZM110.221 32.9634C110.221 33.3332 109.874 33.7608 109.064 33.7608V34.1595C110.009 34.1595 110.619 33.6301 110.619 32.9634H110.221ZM109.064 33.7608C108.647 33.7608 108.322 33.5789 108.096 33.3888C107.983 33.294 107.897 33.1991 107.84 33.1282C107.812 33.0929 107.79 33.0639 107.777 33.0444C107.77 33.0347 107.765 33.0273 107.762 33.0228C107.76 33.0205 107.759 33.0189 107.759 33.0181C107.759 33.0177 107.758 33.0174 107.758 33.0174C107.758 33.0174 107.758 33.0174 107.758 33.0175C107.758 33.0176 107.759 33.0176 107.759 33.0177C107.759 33.0177 107.759 33.0178 107.759 33.0178C107.759 33.0178 107.759 33.0179 107.589 33.1228C107.42 33.2278 107.42 33.2278 107.42 33.2279C107.42 33.228 107.42 33.228 107.42 33.2281C107.42 33.2282 107.42 33.2283 107.42 33.2285C107.42 33.2288 107.421 33.2291 107.421 33.2295C107.421 33.2303 107.422 33.2312 107.423 33.2324C107.424 33.2348 107.426 33.2379 107.429 33.2417C107.434 33.2494 107.441 33.2601 107.45 33.2732C107.468 33.2995 107.495 33.3359 107.53 33.3791C107.6 33.4652 107.703 33.5796 107.84 33.6941C108.112 33.9228 108.525 34.1595 109.064 34.1595V33.7608ZM107.479 32.957L107.359 33.0367L107.58 33.3685L107.7 33.2887L107.479 32.957ZM107.47 33.2026C107.299 33.3062 107.299 33.3063 107.299 33.3064C107.299 33.3064 107.299 33.3065 107.299 33.3066C107.3 33.3067 107.3 33.3068 107.3 33.307C107.3 33.3073 107.3 33.3076 107.3 33.308C107.301 33.3088 107.302 33.3099 107.302 33.3111C107.304 33.3136 107.306 33.317 107.309 33.3211C107.314 33.3294 107.322 33.3409 107.331 33.3551C107.351 33.3836 107.38 33.4232 107.417 33.4701C107.492 33.5638 107.603 33.6882 107.749 33.8129C108.041 34.0616 108.484 34.319 109.064 34.319V33.9202C108.608 33.9202 108.254 33.7191 108.008 33.5093C107.885 33.4047 107.791 33.2999 107.729 33.2216C107.698 33.1826 107.675 33.1505 107.66 33.1288C107.652 33.118 107.647 33.1098 107.644 33.1047C107.642 33.1021 107.641 33.1003 107.64 33.0993C107.64 33.0988 107.64 33.0985 107.64 33.0985C107.64 33.0984 107.64 33.0985 107.64 33.0985C107.64 33.0986 107.64 33.0986 107.64 33.0987C107.64 33.0987 107.64 33.0988 107.64 33.0988C107.64 33.0989 107.64 33.0989 107.47 33.2026ZM109.064 34.319C110.166 34.319 110.859 33.7115 110.859 32.9634H110.46C110.46 33.4114 110.036 33.9202 109.064 33.9202V34.319ZM114.206 30.6509L114.055 30.7814L114.17 30.9142L114.316 30.8167L114.206 30.6509ZM114.325 30.5711L114.436 30.737L114.619 30.6146L114.479 30.4444L114.325 30.5711ZM111.335 33.1228L111.504 33.0179L111.396 32.8426L111.224 32.957L111.335 33.1228ZM111.215 33.2026L111.105 33.0367L110.945 33.1428L111.045 33.3062L111.215 33.2026ZM114.604 32.9634C114.604 32.532 114.387 32.2478 114.089 32.0572C113.805 31.8754 113.435 31.7703 113.102 31.6795C112.752 31.5844 112.441 31.5047 112.212 31.3807C112.101 31.3206 112.022 31.2563 111.971 31.1862C111.923 31.1193 111.893 31.0385 111.893 30.9299H111.494C111.494 31.1204 111.549 31.2838 111.649 31.4208C111.746 31.5546 111.879 31.6538 112.022 31.7313C112.302 31.8828 112.669 31.975 112.997 32.0643C113.341 32.1578 113.65 32.2496 113.874 32.3931C114.084 32.5276 114.206 32.697 114.206 32.9634H114.604ZM111.893 30.9299C111.893 30.6397 112.2 30.2522 112.89 30.2522V29.8534C112.065 29.8534 111.494 30.343 111.494 30.9299H111.893ZM112.89 30.2522C113.238 30.2522 113.529 30.3828 113.738 30.5188C113.842 30.5865 113.923 30.6541 113.977 30.7042C114.004 30.7292 114.025 30.7497 114.038 30.7634C114.045 30.7702 114.049 30.7753 114.052 30.7784C114.054 30.78 114.055 30.781 114.055 30.7815C114.055 30.7818 114.055 30.7819 114.055 30.7819C114.055 30.7819 114.055 30.7818 114.055 30.7818C114.055 30.7817 114.055 30.7817 114.055 30.7816C114.055 30.7816 114.055 30.7815 114.055 30.7815C114.055 30.7815 114.055 30.7814 114.206 30.6509C114.356 30.5203 114.356 30.5202 114.356 30.5202C114.356 30.5201 114.356 30.5201 114.356 30.52C114.356 30.5199 114.356 30.5198 114.356 30.5197C114.356 30.5195 114.355 30.5192 114.355 30.5189C114.355 30.5184 114.354 30.5176 114.353 30.5167C114.352 30.515 114.349 30.5127 114.347 30.5099C114.342 30.5042 114.335 30.4965 114.325 30.4869C114.307 30.4679 114.281 30.4416 114.247 30.4106C114.179 30.3486 114.081 30.2667 113.956 30.1848C113.706 30.0218 113.339 29.8534 112.89 29.8534V30.2522ZM114.316 30.8167L114.436 30.737L114.215 30.4052L114.095 30.485L114.316 30.8167ZM114.325 30.5711C114.479 30.4444 114.479 30.4443 114.479 30.4443C114.479 30.4442 114.479 30.4442 114.479 30.4441C114.479 30.444 114.479 30.4439 114.479 30.4438C114.478 30.4435 114.478 30.4433 114.478 30.4429C114.477 30.4423 114.477 30.4415 114.476 30.4405C114.474 30.4386 114.472 30.4361 114.469 30.4329C114.464 30.4266 114.456 30.418 114.446 30.4073C114.427 30.386 114.399 30.3565 114.362 30.3215C114.29 30.2518 114.184 30.1596 114.049 30.0673C113.778 29.8836 113.381 29.6939 112.89 29.6939V30.0927C113.276 30.0927 113.596 30.2419 113.824 30.3971C113.938 30.4743 114.026 30.5515 114.086 30.6089C114.116 30.6375 114.138 30.6609 114.152 30.6766C114.16 30.6845 114.165 30.6904 114.168 30.6941C114.17 30.6959 114.171 30.6971 114.171 30.6978C114.171 30.6981 114.172 30.6983 114.172 30.6983C114.172 30.6983 114.172 30.6983 114.172 30.6982C114.172 30.6982 114.171 30.6981 114.171 30.698C114.171 30.698 114.171 30.698 114.171 30.698C114.171 30.6979 114.171 30.6978 114.325 30.5711ZM112.89 29.6939C111.908 29.6939 111.255 30.2615 111.255 30.9299H111.654C111.654 30.5618 112.038 30.0927 112.89 30.0927V29.6939ZM111.255 30.9299C111.255 31.3613 111.473 31.6455 111.771 31.8361C112.055 32.0179 112.424 32.123 112.758 32.2138C113.107 32.3089 113.418 32.3886 113.647 32.5126C113.758 32.5727 113.837 32.637 113.888 32.7071C113.937 32.774 113.966 32.8548 113.966 32.9634H114.365C114.365 32.7729 114.31 32.6095 114.21 32.4725C114.113 32.3387 113.98 32.2395 113.837 32.162C113.557 32.0105 113.191 31.9183 112.862 31.829C112.518 31.7355 112.21 31.6437 111.986 31.5002C111.775 31.3657 111.654 31.1963 111.654 30.9299H111.255ZM113.966 32.9634C113.966 33.3332 113.62 33.7608 112.81 33.7608V34.1595C113.755 34.1595 114.365 33.6301 114.365 32.9634H113.966ZM112.81 33.7608C112.393 33.7608 112.068 33.5789 111.842 33.3888C111.729 33.294 111.643 33.1991 111.586 33.1282C111.557 33.0929 111.536 33.0639 111.522 33.0444C111.515 33.0347 111.511 33.0273 111.508 33.0228C111.506 33.0205 111.505 33.0189 111.504 33.0181C111.504 33.0177 111.504 33.0174 111.504 33.0174C111.504 33.0174 111.504 33.0174 111.504 33.0175C111.504 33.0176 111.504 33.0176 111.504 33.0177C111.504 33.0177 111.504 33.0178 111.504 33.0178C111.504 33.0178 111.504 33.0179 111.335 33.1228C111.165 33.2278 111.165 33.2278 111.165 33.2279C111.165 33.228 111.166 33.228 111.166 33.2281C111.166 33.2282 111.166 33.2283 111.166 33.2285C111.166 33.2288 111.166 33.2291 111.166 33.2295C111.167 33.2303 111.168 33.2312 111.168 33.2324C111.17 33.2348 111.172 33.2379 111.174 33.2417C111.179 33.2494 111.187 33.2601 111.196 33.2732C111.214 33.2995 111.241 33.3359 111.276 33.3791C111.346 33.4652 111.449 33.5796 111.585 33.6941C111.858 33.9228 112.27 34.1595 112.81 34.1595V33.7608ZM111.224 32.957L111.105 33.0367L111.326 33.3685L111.445 33.2887L111.224 32.957ZM111.215 33.2026C111.045 33.3062 111.045 33.3063 111.045 33.3064C111.045 33.3064 111.045 33.3065 111.045 33.3066C111.045 33.3067 111.045 33.3068 111.045 33.307C111.046 33.3073 111.046 33.3076 111.046 33.308C111.047 33.3088 111.047 33.3099 111.048 33.3111C111.05 33.3136 111.052 33.317 111.054 33.3211C111.06 33.3294 111.067 33.3409 111.077 33.3551C111.097 33.3836 111.125 33.4232 111.163 33.4701C111.237 33.5638 111.348 33.6882 111.495 33.8129C111.787 34.0616 112.23 34.319 112.81 34.319V33.9202C112.354 33.9202 111.999 33.7191 111.753 33.5093C111.63 33.4047 111.537 33.2999 111.475 33.2216C111.443 33.1826 111.42 33.1505 111.405 33.1288C111.398 33.118 111.393 33.1098 111.389 33.1047C111.388 33.1021 111.386 33.1003 111.386 33.0993C111.385 33.0988 111.385 33.0985 111.385 33.0985C111.385 33.0984 111.385 33.0985 111.385 33.0985C111.385 33.0986 111.385 33.0986 111.385 33.0987C111.385 33.0987 111.385 33.0988 111.385 33.0988C111.386 33.0989 111.386 33.0989 111.215 33.2026ZM112.81 34.319C113.912 34.319 114.604 33.7115 114.604 32.9634H114.206C114.206 33.4114 113.781 33.9202 112.81 33.9202V34.319ZM118.669 32.0065C118.669 33.067 117.947 33.7608 117.114 33.7608V34.1595C118.195 34.1595 119.068 33.2584 119.068 32.0065H118.669ZM117.114 33.7608C116.281 33.7608 115.559 33.067 115.559 32.0065H115.16C115.16 33.2584 116.033 34.1595 117.114 34.1595V33.7608ZM115.559 32.0065C115.559 30.9459 116.281 30.2522 117.114 30.2522V29.8534C116.033 29.8534 115.16 30.7545 115.16 32.0065H115.559ZM117.114 30.2522C117.947 30.2522 118.669 30.9459 118.669 32.0065H119.068C119.068 30.7545 118.195 29.8534 117.114 29.8534V30.2522ZM114.921 32.0065C114.921 33.3448 115.88 34.319 117.114 34.319V33.9202C116.115 33.9202 115.32 33.1401 115.32 32.0065H114.921ZM117.114 34.319C118.348 34.319 119.307 33.3448 119.307 32.0065H118.908C118.908 33.1401 118.113 33.9202 117.114 33.9202V34.319ZM119.307 32.0065C119.307 30.6681 118.348 29.6939 117.114 29.6939V30.0927C118.113 30.0927 118.908 30.8728 118.908 32.0065H119.307ZM117.114 29.6939C115.88 29.6939 114.921 30.6681 114.921 32.0065H115.32C115.32 30.8728 116.115 30.0927 117.114 30.0927V29.6939ZM122.493 29.973L122.679 30.0471L122.753 29.862L122.567 29.7879L122.493 29.973ZM120.54 30.7306V30.93H120.646L120.706 30.8412L120.54 30.7306ZM120.5 30.7306H120.3V30.93H120.5V30.7306ZM120.42 30.0129L120.615 29.9697L120.58 29.8136H120.42V30.0129ZM120.181 30.0129V29.8136H119.904L119.992 30.076L120.181 30.0129ZM120.301 34H120.101V34.1994H120.301V34ZM120.54 34V34.1994H120.739V34H120.54ZM120.54 30.9698L120.372 30.8628L120.34 30.9118V30.9698H120.54ZM122.414 30.1724L122.34 30.3575L122.525 30.4315L122.599 30.2464L122.414 30.1724ZM122.493 29.973C122.567 29.7879 122.567 29.7879 122.567 29.7879C122.567 29.7879 122.567 29.7879 122.567 29.7879C122.567 29.7878 122.567 29.7878 122.567 29.7878C122.567 29.7877 122.567 29.7876 122.566 29.7876C122.566 29.7874 122.566 29.7873 122.565 29.7871C122.564 29.7867 122.563 29.7863 122.562 29.7858C122.559 29.7848 122.556 29.7835 122.552 29.782C122.543 29.779 122.532 29.775 122.517 29.7705C122.489 29.7614 122.448 29.7499 122.397 29.7386C122.295 29.7159 122.151 29.6939 121.975 29.6939V30.0927C122.118 30.0927 122.233 30.1105 122.311 30.1278C122.349 30.1364 122.379 30.1448 122.397 30.1507C122.407 30.1536 122.413 30.1559 122.417 30.1573C122.419 30.1579 122.42 30.1584 122.42 30.1585C122.421 30.1586 122.421 30.1586 122.42 30.1586C122.42 30.1585 122.42 30.1585 122.42 30.1584C122.42 30.1584 122.42 30.1583 122.42 30.1583C122.42 30.1583 122.42 30.1583 122.42 30.1582C122.42 30.1582 122.419 30.1582 122.419 30.1582C122.419 30.1582 122.419 30.1582 122.493 29.973ZM121.975 29.6939C121.472 29.6939 121.069 29.9339 120.8 30.1593C120.665 30.273 120.56 30.3863 120.488 30.4714C120.452 30.5141 120.424 30.5501 120.405 30.5759C120.396 30.5888 120.388 30.5992 120.383 30.6067C120.38 30.6104 120.378 30.6135 120.377 30.6157C120.376 30.6168 120.375 30.6177 120.375 30.6185C120.375 30.6188 120.374 30.6191 120.374 30.6194C120.374 30.6195 120.374 30.6196 120.374 30.6197C120.374 30.6198 120.374 30.6199 120.374 30.6199C120.374 30.6199 120.374 30.62 120.54 30.7306C120.706 30.8412 120.706 30.8412 120.706 30.8413C120.706 30.8413 120.705 30.8414 120.705 30.8414C120.705 30.8414 120.705 30.8415 120.705 30.8415C120.705 30.8416 120.705 30.8416 120.705 30.8415C120.705 30.8414 120.706 30.8412 120.706 30.8407C120.707 30.8398 120.708 30.8381 120.709 30.8357C120.713 30.8309 120.718 30.8233 120.726 30.8134C120.74 30.7934 120.763 30.7639 120.793 30.7281C120.854 30.6562 120.943 30.5603 121.057 30.4646C121.287 30.2713 121.601 30.0927 121.975 30.0927V29.6939ZM120.54 30.5312H120.5V30.93H120.54V30.5312ZM120.699 30.7306C120.699 30.5378 120.678 30.3478 120.657 30.208C120.647 30.1376 120.636 30.0788 120.628 30.0373C120.624 30.0165 120.621 30 120.619 29.9886C120.618 29.9828 120.617 29.9783 120.616 29.9751C120.616 29.9735 120.615 29.9723 120.615 29.9714C120.615 29.9709 120.615 29.9705 120.615 29.9703C120.615 29.9701 120.615 29.97 120.615 29.9699C120.615 29.9698 120.615 29.9698 120.615 29.9698C120.615 29.9697 120.615 29.9697 120.615 29.9697C120.615 29.9697 120.615 29.9697 120.42 30.0129C120.225 30.0562 120.225 30.0561 120.225 30.0561C120.225 30.0561 120.225 30.0561 120.225 30.0561C120.225 30.0561 120.225 30.0561 120.225 30.0561C120.225 30.0561 120.225 30.0561 120.225 30.0561C120.225 30.0562 120.226 30.0563 120.226 30.0566C120.226 30.057 120.226 30.0578 120.226 30.059C120.227 30.0612 120.227 30.0648 120.228 30.0695C120.23 30.0791 120.233 30.0934 120.237 30.1119C120.244 30.1489 120.253 30.2022 120.263 30.2664C120.282 30.3957 120.3 30.5646 120.3 30.7306H120.699ZM120.42 29.8136H120.181V30.2123H120.42V29.8136ZM120.181 30.0129C119.992 30.076 119.992 30.0759 119.992 30.0759C119.992 30.0759 119.992 30.0758 119.992 30.0758C119.992 30.0757 119.992 30.0757 119.992 30.0757C119.992 30.0756 119.992 30.0755 119.992 30.0755C119.992 30.0754 119.992 30.0754 119.992 30.0755C119.992 30.0757 119.992 30.0763 119.992 30.0771C119.993 30.0789 119.994 30.082 119.995 30.0864C119.998 30.0953 120.002 30.1094 120.007 30.1287C120.017 30.1671 120.031 30.2257 120.045 30.3028C120.073 30.4568 120.101 30.6841 120.101 30.9698H120.5C120.5 30.6575 120.469 30.4063 120.437 30.2314C120.421 30.144 120.405 30.0755 120.392 30.028C120.386 30.0042 120.381 29.9857 120.377 29.9726C120.375 29.966 120.374 29.9609 120.372 29.9571C120.372 29.9552 120.371 29.9536 120.371 29.9524C120.371 29.9518 120.37 29.9513 120.37 29.9509C120.37 29.9507 120.37 29.9505 120.37 29.9503C120.37 29.9502 120.37 29.9501 120.37 29.9501C120.37 29.95 120.37 29.95 120.37 29.95C120.37 29.9499 120.37 29.9499 120.181 30.0129ZM120.101 30.9698V34H120.5V30.9698H120.101ZM120.301 34.1994H120.54V33.8006H120.301V34.1994ZM120.739 34V30.9698H120.34V34H120.739ZM120.54 30.9698C120.708 31.0769 120.708 31.0769 120.708 31.077C120.708 31.077 120.708 31.077 120.708 31.077C120.708 31.0771 120.708 31.0771 120.708 31.0772C120.708 31.0772 120.708 31.0772 120.708 31.0772C120.708 31.0771 120.708 31.0768 120.708 31.0762C120.709 31.0752 120.71 31.0734 120.712 31.0709C120.715 31.0658 120.721 31.0578 120.728 31.0473C120.743 31.0262 120.766 30.9952 120.796 30.9576C120.857 30.882 120.946 30.7813 121.06 30.6809C121.291 30.4777 121.605 30.292 121.975 30.292V29.8933C121.468 29.8933 121.064 30.1462 120.797 30.3816C120.662 30.5005 120.557 30.619 120.485 30.7079C120.449 30.7525 120.422 30.79 120.403 30.817C120.393 30.8304 120.386 30.8413 120.381 30.849C120.378 30.8529 120.376 30.856 120.374 30.8584C120.374 30.8595 120.373 30.8605 120.373 30.8612C120.372 30.8616 120.372 30.8619 120.372 30.8622C120.372 30.8623 120.372 30.8624 120.372 30.8625C120.372 30.8626 120.372 30.8626 120.372 30.8627C120.372 30.8627 120.372 30.8628 120.54 30.9698ZM121.975 30.292C122.074 30.292 122.166 30.3086 122.236 30.3259C122.27 30.3345 122.297 30.343 122.316 30.3491C122.325 30.3521 122.332 30.3545 122.336 30.356C122.338 30.3568 122.339 30.3573 122.34 30.3576C122.34 30.3577 122.34 30.3578 122.34 30.3578C122.34 30.3578 122.34 30.3577 122.34 30.3577C122.34 30.3577 122.34 30.3576 122.34 30.3576C122.34 30.3576 122.34 30.3576 122.34 30.3576C122.34 30.3576 122.34 30.3575 122.34 30.3575C122.34 30.3575 122.34 30.3575 122.414 30.1724C122.488 29.9873 122.488 29.9873 122.488 29.9873C122.488 29.9873 122.488 29.9872 122.488 29.9872C122.487 29.9872 122.487 29.9872 122.487 29.9872C122.487 29.9871 122.487 29.9871 122.487 29.987C122.487 29.9869 122.486 29.9867 122.486 29.9866C122.485 29.9863 122.484 29.9859 122.483 29.9854C122.481 29.9845 122.477 29.9833 122.474 29.9819C122.466 29.9791 122.455 29.9752 122.442 29.9708C122.415 29.962 122.378 29.9505 122.332 29.9391C122.242 29.9166 122.116 29.8933 121.975 29.8933V30.292ZM122.599 30.2464L122.679 30.0471L122.308 29.899L122.229 30.0984L122.599 30.2464ZM123.608 30.0129H123.807V29.8136H123.608V30.0129ZM123.369 30.0129V29.8136H123.169V30.0129H123.369ZM123.369 34H123.169V34.1994H123.369V34ZM123.608 34V34.1994H123.807V34H123.608ZM123.608 29.8136H123.369V30.2123H123.608V29.8136ZM123.169 30.0129V34H123.568V30.0129H123.169ZM123.369 34.1994H123.608V33.8006H123.369V34.1994ZM123.807 34V30.0129H123.409V34H123.807ZM123.927 28.5776C123.927 28.4529 123.867 28.345 123.794 28.2721C123.721 28.1993 123.613 28.139 123.488 28.139V28.5377C123.485 28.5377 123.486 28.537 123.492 28.5396C123.497 28.5422 123.505 28.547 123.512 28.5541C123.519 28.5612 123.524 28.5685 123.526 28.574C123.529 28.5796 123.528 28.5809 123.528 28.5776H123.927ZM123.488 28.139C123.364 28.139 123.256 28.1993 123.183 28.2721C123.11 28.345 123.05 28.4529 123.05 28.5776H123.448C123.448 28.5809 123.448 28.5796 123.45 28.574C123.453 28.5685 123.458 28.5612 123.465 28.5541C123.472 28.547 123.479 28.5422 123.485 28.5396C123.49 28.537 123.492 28.5377 123.488 28.5377V28.139ZM123.05 28.5776C123.05 28.7022 123.11 28.8102 123.183 28.883C123.256 28.9558 123.364 29.0162 123.488 29.0162V28.6174C123.492 28.6174 123.49 28.6182 123.485 28.6156C123.479 28.613 123.472 28.6082 123.465 28.6011C123.458 28.5939 123.453 28.5867 123.45 28.5811C123.448 28.5755 123.448 28.5743 123.448 28.5776H123.05ZM123.488 29.0162C123.613 29.0162 123.721 28.9558 123.794 28.883C123.867 28.8102 123.927 28.7022 123.927 28.5776H123.528C123.528 28.5743 123.529 28.5755 123.526 28.5811C123.524 28.5867 123.519 28.5939 123.512 28.6011C123.505 28.6082 123.497 28.613 123.492 28.6156C123.486 28.6182 123.485 28.6174 123.488 28.6174V29.0162ZM128.595 32.0862V32.2856H128.719L128.774 32.1754L128.595 32.0862ZM128.476 33.2026L128.646 33.3062L128.746 33.1428L128.586 33.0367L128.476 33.2026ZM128.356 33.1228L128.467 32.957L128.295 32.8426L128.187 33.0179L128.356 33.1228ZM125.047 32.0862V31.8868H124.848V32.0862H125.047ZM125.047 31.9267H124.848V32.1261H125.047V31.9267ZM128.396 31.9267V32.1261H128.596V31.9267H128.396ZM128.595 32.0862C128.774 32.1754 128.774 32.1753 128.774 32.1753C128.774 32.1753 128.774 32.1752 128.774 32.1752C128.774 32.1752 128.774 32.1751 128.774 32.1751C128.774 32.175 128.774 32.1749 128.774 32.1747C128.774 32.1745 128.774 32.1743 128.774 32.174C128.775 32.1734 128.775 32.1728 128.775 32.1721C128.776 32.1707 128.777 32.169 128.778 32.1669C128.78 32.1628 128.782 32.1575 128.785 32.151C128.79 32.1382 128.798 32.1205 128.805 32.0994C128.818 32.0596 128.835 31.9967 128.835 31.9267H128.436C128.436 31.9364 128.433 31.9534 128.426 31.9733C128.423 31.9821 128.42 31.9893 128.418 31.994C128.418 31.9962 128.417 31.9977 128.417 31.9983C128.416 31.9986 128.416 31.9987 128.416 31.9985C128.417 31.9983 128.417 31.9982 128.417 31.9979C128.417 31.9978 128.417 31.9977 128.417 31.9975C128.417 31.9975 128.417 31.9974 128.417 31.9973C128.417 31.9973 128.417 31.9972 128.417 31.9972C128.417 31.9972 128.417 31.9971 128.417 31.9971C128.417 31.9971 128.417 31.997 128.595 32.0862ZM128.835 31.9267C128.835 30.6683 127.876 29.6939 126.722 29.6939V30.0927C127.64 30.0927 128.436 30.8726 128.436 31.9267H128.835ZM126.722 29.6939C125.562 29.6939 124.608 30.6735 124.608 32.0065H125.007C125.007 30.8674 125.808 30.0927 126.722 30.0927V29.6939ZM124.608 32.0065C124.608 33.3448 125.567 34.319 126.801 34.319V33.9202C125.803 33.9202 125.007 33.1401 125.007 32.0065H124.608ZM126.801 34.319C127.418 34.319 127.88 34.065 128.184 33.8152C128.336 33.6904 128.45 33.5656 128.526 33.4715C128.564 33.4243 128.593 33.3845 128.613 33.3558C128.623 33.3415 128.631 33.3299 128.637 33.3214C128.639 33.3172 128.641 33.3138 128.643 33.3113C128.644 33.31 128.645 33.3089 128.645 33.3081C128.645 33.3077 128.646 33.3073 128.646 33.307C128.646 33.3068 128.646 33.3067 128.646 33.3066C128.646 33.3065 128.646 33.3064 128.646 33.3064C128.646 33.3063 128.646 33.3062 128.476 33.2026C128.306 33.0989 128.306 33.0989 128.306 33.0988C128.306 33.0988 128.306 33.0987 128.306 33.0987C128.306 33.0986 128.306 33.0985 128.306 33.0985C128.306 33.0984 128.306 33.0984 128.306 33.0984C128.306 33.0984 128.306 33.0987 128.305 33.0991C128.305 33.1001 128.304 33.1018 128.302 33.1043C128.299 33.1093 128.294 33.1174 128.286 33.1281C128.271 33.1496 128.248 33.1814 128.216 33.2202C128.153 33.298 128.058 33.4026 127.931 33.507C127.677 33.7158 127.301 33.9202 126.801 33.9202V34.319ZM128.586 33.0367L128.467 32.957L128.246 33.2887L128.365 33.3685L128.586 33.0367ZM128.356 33.1228C128.187 33.0179 128.187 33.0178 128.187 33.0178C128.187 33.0177 128.187 33.0177 128.187 33.0176C128.187 33.0176 128.187 33.0175 128.187 33.0175C128.187 33.0174 128.187 33.0173 128.187 33.0173C128.187 33.0173 128.187 33.0175 128.187 33.0179C128.186 33.0187 128.185 33.0202 128.184 33.0224C128.181 33.0268 128.176 33.0341 128.169 33.0437C128.156 33.0629 128.134 33.0917 128.105 33.1268C128.047 33.1971 127.959 33.2918 127.842 33.3864C127.608 33.5754 127.262 33.7608 126.801 33.7608V34.1595C127.377 34.1595 127.808 33.9262 128.093 33.6966C128.235 33.5819 128.341 33.4672 128.413 33.3806C128.449 33.3372 128.476 33.3005 128.495 33.274C128.504 33.2607 128.511 33.2499 128.517 33.2421C128.519 33.2382 128.521 33.235 128.523 33.2326C128.524 33.2314 128.524 33.2304 128.525 33.2296C128.525 33.2292 128.525 33.2288 128.525 33.2285C128.525 33.2284 128.525 33.2282 128.526 33.2281C128.526 33.2281 128.526 33.228 128.526 33.2279C128.526 33.2279 128.526 33.2278 128.356 33.1228ZM126.801 33.7608C125.963 33.7608 125.246 33.0613 125.246 32.0862H124.848C124.848 33.2641 125.726 34.1595 126.801 34.1595V33.7608ZM125.047 32.2856H128.595V31.8868H125.047V32.2856ZM125.246 31.9267C125.246 30.9455 125.969 30.2522 126.722 30.2522V29.8534C125.72 29.8534 124.848 30.7549 124.848 31.9267H125.246ZM126.722 30.2522C127.474 30.2522 128.197 30.9455 128.197 31.9267H128.596C128.596 30.7549 127.723 29.8534 126.722 29.8534V30.2522ZM128.396 31.7274H125.047V32.1261H128.396V31.7274ZM132.225 30.6509L132.075 30.7814L132.19 30.9142L132.336 30.8167L132.225 30.6509ZM132.345 30.5711L132.455 30.737L132.639 30.6146L132.499 30.4444L132.345 30.5711ZM129.355 33.1228L129.524 33.0179L129.416 32.8426L129.244 32.957L129.355 33.1228ZM129.235 33.2026L129.124 33.0367L128.965 33.1428L129.065 33.3062L129.235 33.2026ZM132.624 32.9634C132.624 32.532 132.407 32.2478 132.108 32.0572C131.824 31.8754 131.455 31.7703 131.121 31.6795C130.772 31.5844 130.461 31.5047 130.232 31.3807C130.121 31.3206 130.042 31.2563 129.991 31.1862C129.943 31.1193 129.913 31.0385 129.913 30.9299H129.514C129.514 31.1204 129.569 31.2838 129.669 31.4208C129.766 31.5546 129.899 31.6538 130.042 31.7313C130.322 31.8828 130.689 31.975 131.017 32.0643C131.361 32.1578 131.669 32.2496 131.894 32.3931C132.104 32.5276 132.225 32.697 132.225 32.9634H132.624ZM129.913 30.9299C129.913 30.6397 130.22 30.2522 130.91 30.2522V29.8534C130.084 29.8534 129.514 30.343 129.514 30.9299H129.913ZM130.91 30.2522C131.258 30.2522 131.549 30.3828 131.758 30.5188C131.861 30.5865 131.942 30.6541 131.997 30.7042C132.024 30.7292 132.045 30.7497 132.058 30.7634C132.064 30.7702 132.069 30.7753 132.072 30.7784C132.073 30.78 132.074 30.781 132.075 30.7815C132.075 30.7818 132.075 30.7819 132.075 30.7819C132.075 30.7819 132.075 30.7818 132.075 30.7818C132.075 30.7817 132.075 30.7817 132.075 30.7816C132.075 30.7816 132.075 30.7815 132.075 30.7815C132.075 30.7815 132.075 30.7814 132.225 30.6509C132.376 30.5203 132.376 30.5202 132.376 30.5202C132.376 30.5201 132.376 30.5201 132.376 30.52C132.376 30.5199 132.376 30.5198 132.375 30.5197C132.375 30.5195 132.375 30.5192 132.375 30.5189C132.374 30.5184 132.374 30.5176 132.373 30.5167C132.371 30.515 132.369 30.5127 132.367 30.5099C132.362 30.5042 132.354 30.4965 132.345 30.4869C132.327 30.4679 132.301 30.4416 132.267 30.4106C132.199 30.3486 132.101 30.2667 131.975 30.1848C131.725 30.0218 131.359 29.8534 130.91 29.8534V30.2522ZM132.336 30.8167L132.455 30.737L132.234 30.4052L132.115 30.485L132.336 30.8167ZM132.345 30.5711C132.499 30.4444 132.499 30.4443 132.499 30.4443C132.499 30.4442 132.499 30.4442 132.499 30.4441C132.499 30.444 132.498 30.4439 132.498 30.4438C132.498 30.4435 132.498 30.4433 132.498 30.4429C132.497 30.4423 132.496 30.4415 132.496 30.4405C132.494 30.4386 132.492 30.4361 132.489 30.4329C132.484 30.4266 132.476 30.418 132.466 30.4073C132.447 30.386 132.419 30.3565 132.382 30.3215C132.31 30.2518 132.204 30.1596 132.068 30.0673C131.798 29.8836 131.401 29.6939 130.91 29.6939V30.0927C131.296 30.0927 131.616 30.2419 131.844 30.3971C131.958 30.4743 132.046 30.5515 132.106 30.6089C132.135 30.6375 132.158 30.6609 132.172 30.6766C132.179 30.6845 132.185 30.6904 132.188 30.6941C132.189 30.6959 132.19 30.6971 132.191 30.6978C132.191 30.6981 132.191 30.6983 132.191 30.6983C132.191 30.6983 132.191 30.6983 132.191 30.6982C132.191 30.6982 132.191 30.6981 132.191 30.698C132.191 30.698 132.191 30.698 132.191 30.698C132.191 30.6979 132.191 30.6978 132.345 30.5711ZM130.91 29.6939C129.927 29.6939 129.275 30.2615 129.275 30.9299H129.674C129.674 30.5618 130.058 30.0927 130.91 30.0927V29.6939ZM129.275 30.9299C129.275 31.3613 129.492 31.6455 129.79 31.8361C130.075 32.0179 130.444 32.123 130.777 32.2138C131.127 32.3089 131.438 32.3886 131.667 32.5126C131.778 32.5727 131.857 32.637 131.908 32.7071C131.956 32.774 131.986 32.8548 131.986 32.9634H132.385C132.385 32.7729 132.33 32.6095 132.23 32.4725C132.133 32.3387 132 32.2395 131.857 32.162C131.577 32.0105 131.21 31.9183 130.882 31.829C130.538 31.7355 130.23 31.6437 130.005 31.5002C129.795 31.3657 129.674 31.1963 129.674 30.9299H129.275ZM131.986 32.9634C131.986 33.3332 131.64 33.7608 130.83 33.7608V34.1595C131.774 34.1595 132.385 33.6301 132.385 32.9634H131.986ZM130.83 33.7608C130.413 33.7608 130.088 33.5789 129.862 33.3888C129.749 33.294 129.663 33.1991 129.605 33.1282C129.577 33.0929 129.556 33.0639 129.542 33.0444C129.535 33.0347 129.53 33.0273 129.527 33.0228C129.526 33.0205 129.525 33.0189 129.524 33.0181C129.524 33.0177 129.524 33.0174 129.524 33.0174C129.524 33.0174 129.524 33.0174 129.524 33.0175C129.524 33.0176 129.524 33.0176 129.524 33.0177C129.524 33.0177 129.524 33.0178 129.524 33.0178C129.524 33.0178 129.524 33.0179 129.355 33.1228C129.185 33.2278 129.185 33.2278 129.185 33.2279C129.185 33.228 129.185 33.228 129.185 33.2281C129.185 33.2282 129.185 33.2283 129.186 33.2285C129.186 33.2288 129.186 33.2291 129.186 33.2295C129.187 33.2303 129.187 33.2312 129.188 33.2324C129.189 33.2348 129.192 33.2379 129.194 33.2417C129.199 33.2494 129.206 33.2601 129.215 33.2732C129.234 33.2995 129.261 33.3359 129.296 33.3791C129.365 33.4652 129.469 33.5796 129.605 33.6941C129.877 33.9228 130.29 34.1595 130.83 34.1595V33.7608ZM129.244 32.957L129.124 33.0367L129.346 33.3685L129.465 33.2887L129.244 32.957ZM129.235 33.2026C129.065 33.3062 129.065 33.3063 129.065 33.3064C129.065 33.3064 129.065 33.3065 129.065 33.3066C129.065 33.3067 129.065 33.3068 129.065 33.307C129.065 33.3073 129.066 33.3076 129.066 33.308C129.066 33.3088 129.067 33.3099 129.068 33.3111C129.069 33.3136 129.071 33.317 129.074 33.3211C129.079 33.3294 129.087 33.3409 129.097 33.3551C129.116 33.3836 129.145 33.4232 129.183 33.4701C129.257 33.5638 129.368 33.6882 129.514 33.8129C129.806 34.0616 130.249 34.319 130.83 34.319V33.9202C130.374 33.9202 130.019 33.7191 129.773 33.5093C129.65 33.4047 129.557 33.2999 129.494 33.2216C129.463 33.1826 129.44 33.1505 129.425 33.1288C129.418 33.118 129.412 33.1098 129.409 33.1047C129.407 33.1021 129.406 33.1003 129.406 33.0993C129.405 33.0988 129.405 33.0985 129.405 33.0985C129.405 33.0984 129.405 33.0985 129.405 33.0985C129.405 33.0986 129.405 33.0986 129.405 33.0987C129.405 33.0987 129.405 33.0988 129.405 33.0988C129.405 33.0989 129.405 33.0989 129.235 33.2026ZM130.83 34.319C131.932 34.319 132.624 33.7115 132.624 32.9634H132.225C132.225 33.4114 131.801 33.9202 130.83 33.9202V34.319Z" fill="#333333"/>
<path d="M39.7508 11.6162L38.694 10.7858L38.6688 10.7606H38.6437L30.8182 2.90996L31.2962 2.93512L0.648438 26.462L30.8433 2.35639L31.0949 2.15509L31.3214 2.38155L39.2979 10.0812L39.2727 10.0309L40.3295 10.8361L39.7508 11.6162Z" fill="#272829"/>
<path d="M48.3059 18.3597L57.616 27.4936L47.4756 19.2907L48.3059 18.3597Z" fill="#272829"/>
<path d="M42.0605 21.6928L43.9931 22.0147C44.9785 22.2502 45.4359 22.5941 45.3653 23.0464C45.3301 23.2726 45.1328 23.3577 44.7736 23.3016C43.0308 23.0298 41.7008 22.8632 40.7837 22.8019L31.5842 30.9337L30.3087 32.1656C29.6462 32.7437 29.142 33.0057 28.7961 32.9518C28.5566 32.9144 28.3414 32.765 28.1505 32.5036C27.9729 32.2442 27.9028 31.9948 27.9401 31.7553C28.0065 31.3296 29.5372 29.7286 32.5322 26.9523L37.6444 22.3532L27.3048 21.1493C22.8662 24.5316 19.8519 26.7325 18.262 27.7519C13.7804 30.6233 10.4154 31.8837 8.16706 31.533C7.16926 31.3773 6.39317 30.936 5.83879 30.209C5.28441 29.4821 5.08503 28.6197 5.24064 27.6219C5.61204 25.2405 7.4949 23.1289 10.8892 21.2871C14.299 19.4341 19.1791 18.9006 25.5296 19.6868C35.5107 11.786 40.5586 7.59922 40.6732 7.1265L40.5721 6.98809C39.65 6.87152 37.5173 7.52687 34.174 8.95414L29.1789 11.0982C29.006 11.0712 28.933 10.9712 28.96 10.7983C29.0554 10.1863 31.1009 9.12895 35.0965 7.62625C39.0942 6.11025 41.5786 5.42799 42.5498 5.57947C42.8957 5.63342 43.2208 5.82042 43.5252 6.14045C43.8296 6.46049 43.9559 6.7868 43.904 7.11941C43.8293 7.59835 42.5615 8.82469 40.1005 10.7984L28.5585 20.057L38.9873 21.2135C48.7193 12.9877 53.8979 8.92352 54.5232 9.02105C55.0953 9.11028 55.345 9.38772 55.2724 9.85336C55.2184 10.1993 54.6285 10.8363 53.5025 11.7645C49.2623 15.2732 45.4482 18.5827 42.0605 21.6928ZM24.2652 20.716C21.111 20.3194 18.5255 20.3386 16.509 20.7736C14.1985 21.2581 11.9071 22.4066 9.63478 24.219C7.65677 25.8047 6.57854 27.1696 6.4001 28.3138C6.24242 29.3249 6.7556 29.9228 7.93966 30.1075C8.69799 30.2257 9.67449 30.0374 10.8692 29.5423C12.2226 28.9903 14.4975 27.6417 17.6939 25.4964C20.6001 23.5513 22.7906 21.9578 24.2652 20.716Z" fill="#272829"/>
</svg>
