<svg xmlns:xlink="http://www.w3.org/1999/xlink"  xmlns="http://www.w3.org/2000/svg" width="37" height="27" fill="none" viewBox="0 0 37 27">
  <path fill="#0F0099" d="M17.098 2.403c1.05-.796 2.292-1.405 3.624-1.49 1.505-.096 3.036.574 4 1.73.983 1.415.958 3.258.687 4.892-.166 1.122-.552 2.217-1.208 3.15-1.49 2.156-3.594 3.786-5.723 5.27a52.417 52.417 0 0 1-4.84 2.864c.13 1.52.816 3.053 2.078 3.959.902.658 2.067.87 3.158.687 1.224-.127 2.322-.826 3.122-1.739 1.416-1.615 2.38-3.58 3.888-5.12 1.04-1.055 2.256-1.923 3.527-2.677.61-.324 1.197-.707 1.864-.9-.127.403-.28.813-.598 1.107-.808.794-1.863 1.251-2.872 1.73-.47.264-1.05.443-1.305.96.73.262 1.505.078 2.254.037-.17 1.077-.597 2.163-1.443 2.887-.605.553-1.391.852-2.19.993-1.178 2.269-3.023 4.231-5.326 5.375-1.346.66-2.905.974-4.388.669-1.682-.484-2.75-2.047-3.44-3.562-.506-1.063-.856-2.192-1.113-3.339-3.486 1.13-6.73 2.934-9.68 5.096-.254.18-.488.385-.72.592.08-.327.198-.645.374-.932 1.215-2.148 3.136-3.807 5.2-5.113 1.584-.775 3.219-1.442 4.82-2.181.18-3.061.732-6.126 1.9-8.971.947-2.293 2.347-4.466 4.35-5.974Zm.972 2.02c-1.417 1.089-2.268 2.736-2.894 4.372-.869 2.328-1.308 4.793-1.535 7.26 2.602-.58 4.834-2.227 6.635-4.138.727-.796 1.513-1.593 1.902-2.619.49-1.202.9-2.52.663-3.829-.17-1.003-.985-1.9-2.012-2.037a4.534 4.534 0 0 0-2.76.991Zm13.813 8.692c.89-.7 1.73-1.465 2.662-2.109.674.878 1.379 1.733 2.083 2.589a121.98 121.98 0 0 1-2.62 2.137c-.702-.878-1.428-1.736-2.125-2.617Z"/>
</svg>
