<svg xmlns:xlink="http://www.w3.org/1999/xlink"  width="140" height="38" viewBox="0 0 140 38" fill="none" xmlns="http://www.w3.org/2000/svg">
<path d="M124.874 34.6808V35.163C124.859 35.147 124.841 35.1287 124.825 35.1127C124.044 35.8897 123.303 36.7102 122.516 37.4803H122.509C121.645 36.6393 120.833 35.7435 119.983 34.8887C119.128 35.7412 118.309 36.6302 117.454 37.4803H117.447C116.577 36.6348 115.76 35.7343 114.903 34.8727C115.754 34.0066 116.59 33.1244 117.443 32.2605L119.98 34.859C120.831 33.9951 121.665 33.1175 122.511 32.2514C123.29 33.0696 124.08 33.874 124.872 34.6808H124.874Z" fill="#F99F1B"/>
<path d="M117.97 25.025C119.785 26.7551 122.552 27.5824 124.929 26.6865C126.419 26.1289 127.352 24.7234 128.227 23.4527C128.47 21.8072 128.631 20.1412 128.756 18.4797C128.513 18.6008 128.276 18.7494 128.169 19.0167C127.484 20.2349 126.6 21.4095 125.366 22.0769C123.139 23.199 120.305 23.0207 118.294 21.5055C117.305 20.7856 116.859 19.4761 116.993 18.2671C117.087 16.2971 117.917 14.4803 118.72 12.7228C119.845 10.7597 121.389 9.09818 122.98 7.52584C124.351 6.406 125.779 5.35929 127.165 4.25774C126.725 2.8408 126.294 1.41929 125.861 7.05719e-05H125.846C122.875 2.466 119.923 5.08276 117.845 8.41028C115.897 11.5115 114.966 15.2847 115.341 18.9596C115.565 21.1879 116.363 23.4458 117.97 25.025Z" fill="#16687E"/>
<path d="M127.268 6.94303C124.172 8.43082 121.655 10.9287 119.611 13.6963C119.086 14.4117 118.754 15.2527 118.566 16.1234C118.841 16.2514 119.24 16.7359 119.464 16.272C121.22 13.774 123.755 11.964 126.446 10.6591C130.285 8.82847 134.516 8.20914 138.647 7.47781C139.008 6.182 139.39 4.89076 139.727 3.58809C135.471 4.20286 131.191 5.08502 127.268 6.94303Z" fill="#16687E"/>
<path d="M129.29 11.3219C128.973 12.4852 128.56 13.6302 128.399 14.8323C128.348 15.2482 128.304 15.815 128.752 16.0253C130.301 17.072 131.838 18.1827 133.057 19.6316C134.764 21.7022 136.262 24.1795 136.371 26.9631C136.545 29.0999 136.596 31.2962 135.963 33.3668C135.806 33.785 136.215 33.9838 136.503 34.1346C137.502 32.8114 137.739 31.0997 137.967 29.4907C138.453 25.7724 138 21.8256 136.128 18.5483C134.51 15.5682 131.91 13.3445 129.29 11.3219Z" fill="#16687E"/>
<path d="M131.74 25.8135C131.32 24.2594 130.858 22.7099 130.32 21.1947C130.218 21.1582 130.01 21.085 129.908 21.0485C129.832 23.439 128.823 25.8866 126.906 27.3241C125.275 28.5011 123.175 28.6177 121.253 28.4303C119.265 28.1697 117.754 26.6408 116.498 25.1644C114.273 22.6048 113.271 19.195 112.869 15.8515C111.333 15.8561 109.798 15.8515 108.263 15.8561V15.9269C108.847 20.4908 111.726 24.408 115.138 27.2419C117.078 28.7365 119.184 30.1672 121.61 30.6425C124.02 31.1407 126.665 31.1682 128.908 30.0163C130.468 29.2324 131.626 27.603 131.74 25.8135Z" fill="#16687E"/>
<path d="M132.144 20.2691C132.554 22.2414 132.748 24.28 132.597 26.2911C132.182 28.8073 130.66 31.0607 128.653 32.5393C127.486 33.4124 126.21 34.1231 124.871 34.6808V34.6812L124.539 34.8247L124.871 35.1623V35.163C125.629 35.9331 126.382 36.7056 127.138 37.4803H127.156C129.834 36.0108 132.336 33.8717 133.516 30.9327C134.891 27.4955 134.297 23.5372 132.751 20.2668C132.599 20.2668 132.295 20.2691 132.144 20.2691Z" fill="#16687E"/>
<path d="M124.342 21.2359C125.976 21.0188 127.201 19.2819 126.888 17.625C126.656 15.8264 124.71 14.5558 123.019 15.1134C121.543 15.5202 120.55 17.1702 120.861 18.7037C121.11 20.3286 122.76 21.533 124.342 21.2359Z" fill="#F99F1B"/>
<path d="M4.49054 16.494C4.49054 16.3157 4.32518 16.0885 3.99444 15.8122L2.95025 14.9431V15.1972C2.95025 15.7231 3.05023 16.1443 3.25041 16.4606C3.45059 16.7767 3.71593 16.935 4.04667 16.935C4.34258 16.935 4.49054 16.7881 4.49054 16.494ZM5.9525 16.6677C5.80454 16.6677 5.65882 16.6475 5.51532 16.6075C5.3716 16.5676 5.25198 16.4985 5.15625 16.4003C5.15625 17.0955 5.0585 17.6101 4.86256 17.9443C4.66684 18.2786 4.35129 18.4457 3.91611 18.4457C3.58538 18.4457 3.31133 18.352 3.09375 18.165C2.87616 17.9779 2.70432 17.7438 2.57823 17.4632C2.45192 17.1823 2.36288 16.8727 2.31066 16.534C2.25844 16.1955 2.23233 15.8703 2.23233 15.5581H1.71012C1.53583 15.5581 1.37068 15.5871 1.21402 15.6452C1.05736 15.7032 0.979028 15.8479 0.979028 16.0796C0.979028 16.2666 0.983269 16.4629 0.992195 16.6677C1.00068 16.8727 1.01183 17.0975 1.02478 17.3428C1.03794 17.5877 1.0529 17.8618 1.07053 18.165C1.08771 18.4679 1.10088 18.8065 1.10958 19.1809C0.961622 19.4394 0.846245 19.6464 0.763673 19.8025C0.680879 19.9584 0.615714 20.0765 0.567957 20.1567C0.519976 20.237 0.482931 20.2904 0.457044 20.3172C0.430933 20.3439 0.404823 20.3572 0.378713 20.3572C0.334972 20.3572 0.308862 20.2815 0.300381 20.13C0.23053 19.2387 0.163134 18.4635 0.0979696 17.8039C0.032582 17.1444 0 16.6277 0 16.2533C0 15.8703 0.0564609 15.538 0.169829 15.2573C0.282751 14.9767 0.443877 14.7472 0.65276 14.569C0.861643 14.3907 1.10958 14.2593 1.39679 14.1745C1.68401 14.09 2.00581 14.0431 2.36288 14.0342L2.66304 13.1251C3.66371 13.9273 4.22944 14.364 4.35999 14.4353C4.62109 14.6046 4.88867 14.7294 5.16272 14.8096C5.43699 14.8896 5.7001 14.9298 5.9525 14.9298V16.6677Z" fill="#16687E"/>
<path d="M5.95271 16.6677C5.85697 16.6677 5.76994 16.6588 5.6916 16.641C5.61327 16.6232 5.57422 16.5964 5.57422 16.5608V15.0369C5.57422 15.0012 5.61327 14.9745 5.6916 14.9567C5.76994 14.9388 5.85697 14.9299 5.95271 14.9299H9.04333V16.6677H5.95271Z" fill="#16687E"/>
<path d="M12.3715 16.6677C12.1104 16.6677 11.8513 16.5898 11.5948 16.4339C11.338 16.2778 11.1574 16.0708 11.053 15.8121C10.9224 16.0527 10.731 16.2557 10.4788 16.4204C10.2262 16.5855 9.9827 16.6677 9.7477 16.6677H9.04272C8.94721 16.6677 7.07462 16.6588 6.99629 16.641C6.91796 16.6232 6.87891 16.5964 6.87891 16.5608V15.0369C6.87891 15.0012 6.91796 14.9745 6.99629 14.9567C7.07462 14.9388 8.94721 14.9299 9.04272 14.9299H9.73454C10.3786 14.9299 10.7006 14.6223 10.7006 14.0075C10.7006 13.6867 10.6919 13.3123 10.6745 12.8845C10.6569 12.4569 10.6308 11.9713 10.5962 11.4273C10.5614 10.866 10.5286 10.4161 10.4982 10.0774C10.4676 9.73867 10.4395 9.50693 10.4134 9.38215L11.6926 8.15238C11.7622 8.08108 11.797 8.09434 11.797 8.19238V13.9808C11.797 14.6136 12.1059 14.9299 12.7238 14.9299H13.5462V16.6677H12.3715Z" fill="#16687E"/>
<path d="M13.5474 16.6677C13.4517 16.6677 13.3647 16.6588 13.2863 16.641C13.208 16.6232 13.1689 16.5964 13.1689 16.5608V15.0369C13.1689 15.0012 13.208 14.9745 13.2863 14.9567C13.3647 14.9388 13.4517 14.9299 13.5474 14.9299H16.4149V16.6677H13.5474Z" fill="#16687E"/>
<path d="M19.9513 9.6132L19.155 10.4419L18.3456 9.6132L19.155 8.78429L19.9513 9.6132ZM19.3378 12.8445C19.294 12.7465 19.2376 12.6438 19.168 12.5369C19.0983 12.4299 19.018 12.3344 18.9265 12.2496C18.8352 12.1651 18.7328 12.0938 18.6199 12.0357C18.5065 11.9779 18.3891 11.9486 18.2673 11.9486C18.1106 11.9486 17.9778 12.0023 17.8691 12.1091C17.7602 12.216 17.706 12.3276 17.706 12.4434C17.706 12.7554 18.0062 12.9112 18.6067 12.9112C18.7285 12.9112 18.8502 12.9046 18.9722 12.8911C19.0941 12.8779 19.2157 12.8623 19.3378 12.8445ZM18.386 9.6132L17.5768 10.4419L16.7805 9.6132L17.5768 8.78429L18.386 9.6132ZM19.4422 14.649C19.5467 14.6045 19.6096 14.5199 19.6315 14.3951C19.6531 14.2704 19.6511 14.1458 19.625 14.0208C19.4507 14.0564 19.2463 14.0898 19.0113 14.1211C18.7765 14.1524 18.5284 14.1677 18.2673 14.1677C17.3797 14.1677 16.9359 13.8382 16.9359 13.1786C16.9359 12.9558 16.9684 12.6953 17.0338 12.3966C17.099 12.0981 17.199 11.8149 17.334 11.5478C17.4688 11.2804 17.6384 11.053 17.843 10.8658C18.0474 10.6789 18.2889 10.5852 18.5676 10.5852C18.9071 10.5852 19.1896 10.6967 19.4161 10.9193C19.6422 11.1421 19.8227 11.4207 19.9577 11.7548C20.0925 12.089 20.1905 12.4457 20.2514 12.8244C20.3124 13.2031 20.3429 13.5484 20.3429 13.8604C20.3429 14.4219 20.2711 14.8831 20.1276 15.2439C19.9839 15.6048 19.7727 15.8923 19.4944 16.1062C19.2157 16.3201 18.8763 16.4671 18.4761 16.5473C18.0758 16.6275 17.619 16.6677 17.1055 16.6677H16.4136C16.3179 16.6677 16.2309 16.6588 16.1525 16.6408C16.0742 16.6232 16.0352 16.5964 16.0352 16.5608V15.0366C16.0352 15.0012 16.0742 14.9745 16.1525 14.9564C16.2309 14.9388 16.3179 14.9299 16.4136 14.9299H17.3536C18.3891 14.9299 19.0852 14.8362 19.4422 14.649Z" fill="#16687E"/>
<path d="M23.0037 16.6677C22.6642 16.6677 22.3857 16.5987 22.1681 16.4604C21.9505 16.3224 21.7765 16.1441 21.6461 15.9257C21.5156 15.7074 21.4219 15.4645 21.3654 15.1973C21.3087 14.9299 21.2761 14.6671 21.2674 14.4086C21.25 14.1234 21.2369 13.7625 21.2284 13.3256C21.2197 12.8891 21.2023 12.4167 21.1762 11.9086C21.1324 11.2226 21.0891 10.6544 21.0456 10.2042C21.0019 9.75444 20.9715 9.43129 20.9541 9.2352L22.0637 8.28608C22.1855 8.18804 22.2596 8.1389 22.2857 8.1389C22.3203 8.1389 22.338 8.19695 22.338 8.31259V13.9808C22.338 14.6136 22.6859 14.9299 23.3821 14.9299H23.9566V16.6677H23.0037Z" fill="#16687E"/>
<path d="M23.9566 16.6677C23.8609 16.6677 23.7738 16.6588 23.6955 16.641C23.6172 16.6232 23.5781 16.5964 23.5781 16.5608V15.0369C23.5781 15.0012 23.6172 14.9745 23.6955 14.9567C23.7738 14.9388 23.8609 14.9299 23.9566 14.9299H29.7252V16.6677H23.9566Z" fill="#16687E"/>
<path d="M30.0911 13.0216L29.1121 14.0107L28.1592 13.0216L29.1121 12.059L30.0911 13.0216ZM29.7238 16.6677C29.6283 16.6677 29.541 16.659 29.4627 16.641C29.3844 16.6232 29.3453 16.5966 29.3453 16.5608V15.0369C29.3453 15.0015 29.3844 14.9745 29.4627 14.9567C29.541 14.9388 29.6283 14.9299 29.7238 14.9299H30.5854C31.2293 14.9299 31.5513 14.8097 31.5513 14.5691C31.5513 14.3641 31.3034 13.9854 30.8073 13.4328C30.7812 13.3971 30.7682 13.3615 30.7682 13.3258C30.7682 13.2902 30.7812 13.2502 30.8073 13.2054L31.5774 12.1093C31.6122 12.0558 31.647 12.0291 31.6819 12.0291C31.7167 12.0291 31.7472 12.0423 31.7734 12.0693C31.8778 12.176 31.9711 12.3077 32.0539 12.4635C32.1367 12.6196 32.2061 12.7867 32.2628 12.9647C32.3192 13.1432 32.365 13.3258 32.3998 13.5128C32.4346 13.7002 32.452 13.8738 32.452 14.0343C32.452 14.8275 32.2802 15.4645 31.9365 15.9458C31.5926 16.4271 31.1119 16.6677 30.4939 16.6677H29.7238Z" fill="#16687E"/>
<path d="M48.172 15.0571C48.172 15.7791 48.0238 16.4562 47.7281 17.0891C47.6411 17.2762 47.5344 17.4655 47.4083 17.6572C47.282 17.8487 47.1539 18.0226 47.0233 18.1785C46.8928 18.3344 46.7729 18.4614 46.6643 18.5595C46.5554 18.6575 46.4793 18.7067 46.4357 18.7067C46.1572 18.7067 45.8591 18.6952 45.5415 18.6733C45.2242 18.6509 44.9303 18.6219 44.6605 18.5862C44.3909 18.5506 44.1666 18.5083 43.9883 18.4594C43.81 18.4103 43.7207 18.3591 43.7207 18.3056C43.7207 18.2875 43.7513 18.2656 43.812 18.2386C44.2384 18.0871 44.6605 17.8867 45.0782 17.6373C45.496 17.3875 45.8722 17.1202 46.2074 16.8352C46.5424 16.5497 46.812 16.2647 47.0166 15.9795C47.2211 15.6943 47.3235 15.4361 47.3235 15.2043C47.3235 15.1152 47.2862 14.997 47.2126 14.8499C47.1385 14.7029 47.0427 14.5491 46.9254 14.3887C46.8078 14.2285 46.6817 14.0726 46.5469 13.9208C46.4119 13.7696 46.2791 13.6402 46.1485 13.5332L46.7883 12.1563C46.8055 12.1117 46.8316 12.0896 46.8667 12.0896C46.8928 12.0896 46.9189 12.1028 46.9448 12.1296C47.7629 12.9674 48.172 13.9432 48.172 15.0571Z" fill="#16687E"/>
<path d="M49.7342 15.1305C49.7342 15.4692 49.5688 15.9951 49.2381 16.7079C49.1423 16.8951 49.0814 16.9885 49.0553 16.9885C49.0031 16.9885 48.9553 16.7792 48.9118 16.3603L48.2983 9.24862L49.5123 8.21928C49.5817 8.14798 49.634 8.11232 49.669 8.11232C49.7123 8.11232 49.7342 8.16123 49.7342 8.25927V15.1305ZM50.896 6.50798C50.896 6.54386 50.8547 6.62842 50.7719 6.76212C50.6891 6.89581 50.5739 7.03842 50.426 7.18971C50.278 7.34146 50.0952 7.47721 49.8779 7.59766C49.6601 7.71787 49.4164 7.77797 49.1468 7.77797C49.0162 7.77797 48.8835 7.76015 48.7487 7.72449C48.6136 7.68907 48.4876 7.64656 48.3699 7.59766C48.2526 7.54875 48.1501 7.50624 48.0633 7.47059C47.9763 7.43516 47.9154 7.41711 47.8805 7.41711C47.8283 7.41711 47.7806 7.43722 47.7371 7.47721C47.6935 7.51721 47.652 7.562 47.613 7.61091C47.5737 7.66005 47.5326 7.70461 47.4889 7.74461C47.4456 7.7846 47.3976 7.80471 47.3454 7.80471C47.2584 7.80471 47.2148 7.7558 47.2148 7.65776C47.2148 7.61319 47.2432 7.52864 47.2996 7.40363C47.3563 7.27907 47.4237 7.14972 47.5021 7.01602C47.5804 6.88233 47.6632 6.7644 47.75 6.66179C47.837 6.5594 47.9111 6.50798 47.972 6.50798C48.0327 6.50798 48.1111 6.53038 48.2068 6.57495C48.3026 6.61951 48.4112 6.66636 48.5333 6.71527C48.6549 6.7644 48.7877 6.81125 48.9314 6.85559C49.0749 6.90038 49.2294 6.92255 49.3947 6.92255C49.5688 6.92255 49.7319 6.89581 49.8844 6.84234C50.0363 6.78886 50.1736 6.72852 50.2954 6.66179C50.4173 6.59506 50.5195 6.53472 50.6023 6.48124C50.6848 6.42777 50.7478 6.40126 50.7915 6.40126C50.8612 6.40126 50.896 6.43691 50.896 6.50798Z" fill="#16687E"/>
<path d="M57.8841 12.5701L57.0879 13.399L56.2785 12.5701L57.0879 11.7414L57.8841 12.5701ZM56.3189 12.5701L55.5097 13.399L54.7134 12.5701L55.5097 11.7414L56.3189 12.5701ZM55.2722 16.788C52.8877 16.788 51.6953 15.9906 51.6953 14.3952C51.6953 14.1813 51.7259 13.9587 51.7868 13.7267C51.8475 13.495 51.9238 13.2813 52.0151 13.085C52.1066 12.8891 52.2046 12.7287 52.309 12.6037C52.4135 12.4791 52.509 12.4167 52.596 12.4167C52.7353 12.4167 52.8049 12.4926 52.8049 12.6439C52.8049 12.7689 52.7701 12.9092 52.7005 13.0651C52.6308 13.2212 52.596 13.4015 52.596 13.6065C52.596 13.9719 52.7005 14.2548 52.9093 14.4553C53.1182 14.6557 53.3771 14.8029 53.6862 14.8964C53.995 14.9901 54.3235 15.0435 54.6717 15.0568C55.0196 15.0703 55.3374 15.0769 55.6246 15.0769C56.2684 15.0769 56.8451 15.0657 57.3541 15.0435C57.8634 15.0214 58.2961 14.9855 58.6532 14.9366C59.0098 14.8877 59.2838 14.8209 59.4755 14.7361C59.6668 14.6514 59.7625 14.5467 59.7625 14.4219C59.7625 14.3952 59.7344 14.3351 59.6777 14.2414C59.621 14.1479 59.5539 14.0432 59.4755 13.9271C59.3972 13.8115 59.3122 13.6979 59.2209 13.5864C59.1296 13.4751 59.0488 13.3839 58.9794 13.3124L59.8411 12.2028C59.8757 12.1493 59.9063 12.1226 59.9324 12.1226C59.9585 12.1226 59.9888 12.145 60.0236 12.1893C60.2238 12.4748 60.3847 12.76 60.5068 13.045C60.6284 13.3302 60.6896 13.6378 60.6896 13.9673C60.6896 14.4486 60.6155 14.8586 60.4675 15.1973C60.3196 15.536 60.089 15.8212 59.7757 16.0528C59.6103 16.1778 59.3992 16.2845 59.1426 16.3736C58.8857 16.4628 58.5746 16.5386 58.2093 16.6008C57.8438 16.6634 57.4195 16.7098 56.9366 16.7411C56.4534 16.7724 55.8986 16.788 55.2722 16.788Z" fill="#16687E"/>
<path d="M62.472 15.1304C62.472 15.4691 62.3066 15.9949 61.9759 16.7078C61.8801 16.8949 61.8192 16.9884 61.7931 16.9884C61.7409 16.9884 61.6931 16.7791 61.6496 16.3602L61.0361 9.24849L62.2502 8.21916C62.3196 8.14785 62.3718 8.1122 62.4068 8.1122C62.4501 8.1122 62.472 8.16111 62.472 8.25915V15.1304Z" fill="#16687E"/>
<path d="M65.4874 15.0571C65.4874 15.7791 65.3392 16.4562 65.0435 17.0891C64.9565 17.2762 64.8498 17.4655 64.7237 17.6572C64.5974 17.8487 64.4693 18.0226 64.3388 18.1785C64.2082 18.3344 64.0884 18.4614 63.9797 18.5595C63.8708 18.6575 63.7947 18.7067 63.7512 18.7067C63.4727 18.7067 63.1745 18.6952 62.8569 18.6733C62.5396 18.6509 62.2457 18.6219 61.9759 18.5862C61.7063 18.5506 61.482 18.5083 61.3037 18.4594C61.1254 18.4103 61.0361 18.3591 61.0361 18.3056C61.0361 18.2875 61.0667 18.2656 61.1274 18.2386C61.5539 18.0871 61.9759 17.8867 62.3937 17.6373C62.8114 17.3875 63.1877 17.1202 63.5229 16.8352C63.8578 16.5497 64.1274 16.2647 64.3321 15.9795C64.5365 15.6943 64.6389 15.4361 64.6389 15.2043C64.6389 15.1152 64.6017 14.997 64.528 14.8499C64.4539 14.7029 64.3582 14.5491 64.2408 14.3887C64.1232 14.2285 63.9971 14.0726 63.8623 13.9208C63.7273 13.7696 63.5945 13.6402 63.464 13.5332L64.1038 12.1563C64.121 12.1117 64.1471 12.0896 64.1821 12.0896C64.2082 12.0896 64.2343 12.1028 64.2602 12.1296C65.0783 12.9674 65.4874 13.9432 65.4874 15.0571Z" fill="#16687E"/>
<path d="M67.6999 16.6677C67.3605 16.6677 67.082 16.5987 66.8644 16.4604C66.6468 16.3224 66.4728 16.1441 66.3424 15.9257C66.2119 15.7074 66.1181 15.4645 66.0617 15.1973C66.005 14.9299 65.9724 14.6671 65.9637 14.4086C65.9463 14.1234 65.9331 13.7625 65.9247 13.3256C65.916 12.8891 65.8986 12.4167 65.8724 11.9086C65.8287 11.2226 65.7854 10.6544 65.7419 10.2042C65.6981 9.75444 65.6678 9.43129 65.6504 9.2352L66.76 8.28608C66.8818 8.18804 66.9559 8.1389 66.982 8.1389C67.0166 8.1389 67.0342 8.19695 67.0342 8.31259V13.9808C67.0342 14.6136 67.3822 14.9299 68.0784 14.9299H68.6529V16.6677H67.6999Z" fill="#16687E"/>
<path d="M68.6558 16.6677C68.5601 16.6677 68.4731 16.6588 68.3947 16.641C68.3164 16.6232 68.2773 16.5964 68.2773 16.5608V15.0369C68.2773 15.0012 68.3164 14.9745 68.3947 14.9567C68.4731 14.9388 68.5601 14.9299 68.6558 14.9299H75.3171V16.6677H68.6558Z" fill="#16687E"/>
<path d="M80.4594 12.3683L81.2557 11.5529L82.0651 12.3683L81.2557 13.197L80.4594 12.3683ZM79.5458 10.9914L80.342 10.1892L81.1512 10.9914L80.342 11.8203L79.5458 10.9914ZM78.658 12.3683L79.4675 11.5529L80.2767 12.3683L79.4675 13.197L78.658 12.3683ZM84.1002 16.6676C83.5518 16.6676 83.0993 16.3559 82.7426 15.732C82.5683 16.0439 82.3706 16.2779 82.1486 16.4338C81.9267 16.5899 81.6938 16.6676 81.4503 16.6676C81.1454 16.6676 80.8868 16.5899 80.6737 16.4338C80.4603 16.2779 80.2666 16.0439 80.0928 15.732C79.9185 16.0439 79.7228 16.2779 79.5052 16.4338C79.2876 16.5899 79.0309 16.6676 78.735 16.6676C78.1693 16.6676 77.7212 16.3559 77.3907 15.732C77.0336 16.3559 76.4985 16.6676 75.785 16.6676H75.315C75.2193 16.6676 75.1322 16.6589 75.0539 16.6409C74.9756 16.6233 74.9365 16.5965 74.9365 16.5609V15.0368C74.9365 15.0013 74.9756 14.9746 75.0539 14.9565C75.1322 14.9389 75.2193 14.9298 75.315 14.9298H76.0852C76.2764 14.9298 76.4311 14.9031 76.5487 14.8496C76.6661 14.7963 76.7618 14.7205 76.8357 14.6224C76.9095 14.5246 76.9707 14.4042 77.0184 14.2616C77.0662 14.1189 77.1119 13.9585 77.1557 13.7802C77.2251 13.5042 77.3295 13.3659 77.4688 13.3659C77.6254 13.3659 77.7386 13.5042 77.8082 13.7802C77.843 13.9318 77.8778 14.0767 77.9127 14.2147C77.9475 14.353 77.9997 14.4755 78.0693 14.5824C78.139 14.6891 78.2325 14.7739 78.3501 14.8363C78.4675 14.8987 78.6219 14.9298 78.8134 14.9298C78.9961 14.9298 79.1441 14.901 79.2572 14.843C79.3702 14.7851 79.4639 14.7026 79.538 14.5957C79.6116 14.4887 79.6705 14.3664 79.7141 14.228C79.7576 14.0899 79.8011 13.9407 79.8446 13.7802C79.9142 13.5042 80.0316 13.3659 80.1972 13.3659C80.3362 13.3659 80.4407 13.5042 80.5105 13.7802C80.5364 13.9407 80.567 14.0899 80.6018 14.228C80.6364 14.3664 80.6886 14.4867 80.7585 14.589C80.8281 14.6917 80.9236 14.7739 81.0457 14.8363C81.1673 14.8987 81.3284 14.9298 81.5286 14.9298C81.8243 14.9298 82.0377 14.8228 82.1682 14.6092C82.2988 14.3952 82.3987 14.1189 82.4684 13.7802C82.4945 13.6466 82.5422 13.5442 82.6121 13.4729C82.6817 13.4016 82.7556 13.3659 82.8339 13.3659C82.9993 13.3659 83.1037 13.5042 83.1472 13.7802C83.1733 13.9585 83.2059 14.1167 83.2452 14.2547C83.2843 14.393 83.3409 14.5134 83.4148 14.6156C83.4887 14.7184 83.5889 14.7963 83.7152 14.8496C83.8413 14.9031 84.0089 14.9298 84.2178 14.9298H84.9486V16.6676H84.1002Z" fill="#16687E"/>
<path d="M84.9508 16.6677C84.855 16.6677 84.768 16.6588 84.6897 16.641C84.6113 16.6232 84.5723 16.5964 84.5723 16.5608V15.0369C84.5723 15.0012 84.6113 14.9745 84.6897 14.9567C84.768 14.9388 84.855 14.9299 84.9508 14.9299H92.5047V16.6677H84.9508Z" fill="#16687E"/>
<path d="M93.5321 12.3415L92.7358 13.1704L91.9264 12.3415L92.7358 11.5128L93.5321 12.3415ZM91.967 12.3415L91.1576 13.1704L90.3613 12.3415L91.1576 11.5128L91.967 12.3415ZM96.013 16.6677C95.6823 16.6677 95.3558 16.5898 95.034 16.4337C94.7119 16.2778 94.4682 16.026 94.3029 15.6784C94.1375 15.9638 93.9025 16.1997 93.5981 16.3869C93.2933 16.574 92.9715 16.6677 92.632 16.6677H92.5015C92.406 16.6677 92.3187 16.6588 92.2404 16.6408C92.1623 16.6232 92.123 16.5964 92.123 16.5608V15.0366C92.123 15.0012 92.1623 14.9745 92.2404 14.9564C92.3187 14.9388 92.406 14.9299 92.5015 14.9299H92.5798C92.8148 14.921 93.0302 14.881 93.2261 14.8095C93.4218 14.7382 93.5805 14.6314 93.7026 14.4886C93.8331 14.3282 93.9286 14.0564 93.9898 13.6732C94.0244 13.3791 94.1288 13.2321 94.3029 13.2321C94.4682 13.2321 94.5727 13.3791 94.6162 13.6732C94.6771 14.0654 94.7599 14.3371 94.8644 14.4886C95.0733 14.7827 95.4386 14.9299 95.9608 14.9299H96.1045V16.6677H96.013Z" fill="#16687E"/>
<path d="M96.106 16.6677C96.0103 16.6677 95.9233 16.6588 95.8449 16.641C95.7666 16.6232 95.7275 16.5964 95.7275 16.5608V15.0369C95.7275 15.0012 95.7666 14.9745 95.8449 14.9567C95.9233 14.9388 96.0103 14.9299 96.106 14.9299H100.089V16.6677H96.106Z" fill="#16687E"/>
<path d="M100.679 12.336L99.7 13.3251L98.7471 12.336L99.7 11.3734L100.679 12.336ZM100.089 16.6677C99.993 16.6677 99.9057 16.659 99.8274 16.641C99.7491 16.6232 99.71 16.5966 99.71 16.5608V15.0369C99.71 15.0015 99.7491 14.9745 99.8274 14.9567C99.9057 14.9388 99.993 14.9299 100.089 14.9299H100.95C101.594 14.9299 101.916 14.8097 101.916 14.5691C101.916 14.3641 101.668 13.9854 101.172 13.4328C101.146 13.3971 101.133 13.3615 101.133 13.3258C101.133 13.2902 101.146 13.2502 101.172 13.2054L101.942 12.1093C101.977 12.0558 102.012 12.0291 102.047 12.0291C102.081 12.0291 102.112 12.0423 102.138 12.0693C102.243 12.176 102.336 12.3077 102.419 12.4635C102.501 12.6196 102.571 12.7867 102.627 12.9647C102.684 13.1432 102.73 13.3258 102.765 13.5128C102.799 13.7002 102.817 13.8738 102.817 14.0343C102.817 14.8275 102.645 15.4645 102.301 15.9458C101.957 16.4271 101.477 16.6677 100.859 16.6677H100.089Z" fill="#16687E"/>
<path d="M104.703 15.1304C104.703 15.4691 104.538 15.9949 104.207 16.7078C104.112 16.8949 104.051 16.9884 104.025 16.9884C103.972 16.9884 103.925 16.7791 103.881 16.3602L103.268 9.24849L104.482 8.21916C104.551 8.14785 104.603 8.1122 104.638 8.1122C104.682 8.1122 104.703 8.16111 104.703 8.25915V15.1304Z" fill="#16687E"/>
<path d="M35.0554 16.6677C34.716 16.6677 34.4375 16.5987 34.2199 16.4604C34.0023 16.3224 33.8282 16.1441 33.6979 15.9257C33.5673 15.7074 33.4736 15.4645 33.4172 15.1973C33.3605 14.9299 33.3279 14.6671 33.3192 14.4086C33.3018 14.1234 33.2886 13.7625 33.2801 13.3256C33.2714 12.8891 33.254 12.4167 33.2279 11.9086C33.1842 11.2226 33.1409 10.6544 33.0974 10.2042C33.0536 9.75444 33.0233 9.43129 33.0059 9.2352L34.1154 8.28608C34.2373 8.18804 34.3114 8.1389 34.3375 8.1389C34.3721 8.1389 34.3897 8.19695 34.3897 8.31259V13.9808C34.3897 14.6136 34.7376 14.9299 35.4339 14.9299H36.0083V16.6677H35.0554Z" fill="#16687E"/>
<path d="M36.0064 16.6677C35.9107 16.6677 35.8236 16.6588 35.7453 16.641C35.667 16.6232 35.6279 16.5964 35.6279 16.5608V15.0369C35.6279 15.0012 35.667 14.9745 35.7453 14.9567C35.8236 14.9388 35.9107 14.9299 36.0064 14.9299H42.4445V16.6677H36.0064Z" fill="#16687E"/>
<path d="M42.4439 16.6677C42.3482 16.6677 42.2611 16.6588 42.1828 16.641C42.1045 16.6232 42.0654 16.5964 42.0654 16.5608V15.0369C42.0654 15.0012 42.1045 14.9745 42.1828 14.9567C42.2611 14.9388 42.3482 14.9299 42.4439 14.9299H43.3056C43.9494 14.9299 44.2714 14.8097 44.2714 14.5688C44.2714 14.3641 44.0235 13.9854 43.5274 13.4328C43.5013 13.3971 43.4881 13.3615 43.4881 13.3256C43.4881 13.2902 43.5013 13.2502 43.5274 13.2054L44.2975 12.1093C44.3321 12.0558 44.3672 12.0291 44.402 12.0291C44.4366 12.0291 44.4671 12.0423 44.4935 12.0691C44.5977 12.176 44.6912 12.3077 44.774 12.4635C44.8566 12.6196 44.9262 12.7867 44.9829 12.9647C45.0393 13.1432 45.0851 13.3256 45.1199 13.5128C45.1545 13.7002 45.1721 13.8738 45.1721 14.0343C45.1721 14.8275 45.0003 15.4645 44.6566 15.9458C44.3127 16.4271 43.8318 16.6677 43.2141 16.6677H42.4439Z" fill="#16687E"/>
<path d="M39.9299 17.9112L39.1207 18.7401L38.3242 17.9112L39.1207 17.0825L39.9299 17.9112Z" fill="#16687E"/>
<path d="M41.4943 17.9112L40.6981 18.7401L39.8887 17.9112L40.6981 17.0825L41.4943 17.9112Z" fill="#16687E"/>
<path d="M0 32.0559H0.205313C0.43986 32.0559 0.636915 32.0292 0.796479 31.9759C0.956042 31.9222 1.08481 31.8539 1.18256 31.7707C1.2803 31.687 1.35194 31.592 1.39769 31.4855C1.44321 31.3785 1.46598 31.2686 1.46598 31.155V28.5828H2.58024V30.9649C2.58024 31.2853 2.53449 31.5805 2.44344 31.8507C2.35217 32.121 2.22184 32.3544 2.05246 32.5514C1.88285 32.7481 1.67441 32.9017 1.42692 33.0116C1.17921 33.1218 0.899135 33.1769 0.58648 33.1769H0.166035L0 32.0559Z" fill="#F99F1B"/>
<path d="M4.43925 31.3153C4.0679 31.3153 3.79564 31.1969 3.62313 30.9599C3.4504 30.7232 3.36426 30.3945 3.36426 29.974V26.1707H4.4783V29.7539C4.4783 29.9409 4.50441 30.0577 4.55663 30.1043C4.60863 30.1509 4.71932 30.1742 4.88893 30.1742H5.05496V31.3153H4.43925Z" fill="#F99F1B"/>
<path d="M4.81934 30.2441C4.81934 30.2176 4.84545 30.1991 4.89744 30.1891C4.94966 30.179 5.00189 30.174 5.05388 30.174H7.06728C7.20409 30.174 7.2726 30.1207 7.2726 30.014C7.2726 29.9605 7.24961 29.9107 7.20409 29.8638L5.30807 27.8319L5.19068 26.7811L8.17173 25.6702L8.34759 26.801L6.56873 27.5117L8.07399 29.1631C8.20431 29.2968 8.30206 29.4502 8.36723 29.6237C8.43217 29.7971 8.46497 29.9674 8.46497 30.134C8.46497 30.2876 8.43708 30.4343 8.38195 30.5744C8.32639 30.7147 8.24493 30.8397 8.13759 30.9499C8.03002 31.0598 7.89144 31.1485 7.72205 31.215C7.55267 31.2817 7.35718 31.3151 7.1358 31.3151H5.05388C5.00189 31.3151 4.94966 31.3084 4.89744 31.2952C4.84545 31.2817 4.81934 31.2618 4.81934 31.2351V30.2441Z" fill="#F99F1B"/>
<path d="M11.104 30.1742V29.5437C11.104 29.3501 11.0583 29.2119 10.9672 29.1282C10.876 29.045 10.7816 29.0032 10.6838 29.0032C10.5338 29.0032 10.4296 29.0533 10.3709 29.1534C10.3125 29.2535 10.283 29.3737 10.283 29.5138C10.283 29.7272 10.3384 29.8906 10.4493 30.004C10.56 30.1176 10.7392 30.1742 10.9866 30.1742H11.104ZM9.24707 32.056H10.0875C10.3221 32.056 10.5388 31.9959 10.7376 31.8757C10.9362 31.7557 11.0583 31.5688 11.104 31.3153C10.8237 31.3087 10.5698 31.2788 10.3417 31.2253C10.1136 31.1718 9.91813 31.0818 9.75522 30.9549C9.59231 30.8283 9.46689 30.6615 9.37896 30.4544C9.29103 30.2478 9.24707 29.9875 9.24707 29.6737C9.24707 29.0866 9.36579 28.638 9.60369 28.3276C9.84158 28.0173 10.2147 27.8621 10.7229 27.8621C10.9442 27.8621 11.148 27.8989 11.3337 27.9723C11.5193 28.0459 11.6789 28.1608 11.8126 28.3176C11.946 28.4744 12.0505 28.6746 12.1255 28.9182C12.2002 29.1618 12.2377 29.4571 12.2377 29.804V31.1951C12.2377 31.4753 12.1806 31.7356 12.0668 31.9758C11.9527 32.216 11.8012 32.4263 11.6122 32.6063C11.4232 32.7867 11.2067 32.9268 10.9623 33.0269C10.718 33.127 10.4687 33.177 10.2147 33.177H9.39369L9.24707 32.056Z" fill="#F99F1B"/>
<path d="M15.462 32.8165C15.462 32.6496 15.5189 32.5077 15.6329 32.3912C15.747 32.2744 15.8856 32.2159 16.0485 32.2159C16.2112 32.2159 16.3513 32.2744 16.4687 32.3912C16.5859 32.5077 16.6446 32.6496 16.6446 32.8165C16.6446 32.9831 16.5859 33.1268 16.4687 33.2468C16.3513 33.367 16.2112 33.4271 16.0485 33.4271C15.8856 33.4271 15.747 33.367 15.6329 33.2468C15.5189 33.1268 15.462 32.9831 15.462 32.8165ZM19.2346 31.3152C18.9675 31.3152 18.7914 31.245 18.7068 31.1049C18.6156 31.1984 18.5227 31.2569 18.4283 31.2802C18.3337 31.3035 18.2049 31.3152 18.0422 31.3152H14.2109C13.8005 31.3152 13.499 31.1868 13.3069 30.9299C13.1145 30.673 13.0186 30.3343 13.0186 29.9138V28.5828H14.1328V29.8139C14.1328 30.0541 14.2404 30.1741 14.4553 30.1741H17.7099C17.9965 30.1741 18.14 30.0475 18.14 29.7938V28.5828H19.2737V29.8139C19.2737 30.0541 19.3649 30.1741 19.5473 30.1741H19.7916V31.3152H19.2346Z" fill="#F99F1B"/>
<path d="M25.9095 31.3151C25.5968 31.3151 25.3719 31.2317 25.2351 31.0649C25.1242 31.1785 24.9988 31.2669 24.8588 31.3302C24.7187 31.3935 24.5542 31.4253 24.3652 31.4253C23.9287 31.4253 23.6029 31.2685 23.388 30.9547C23.2641 31.1083 23.1157 31.2251 22.9432 31.3051C22.7705 31.3853 22.5962 31.4253 22.4203 31.4253C22.2313 31.4253 22.0552 31.3853 21.8925 31.3051C21.7296 31.2251 21.5959 31.1083 21.4917 30.9547C21.4004 31.0617 21.2799 31.1485 21.1302 31.215C20.9802 31.2818 20.7847 31.3151 20.5437 31.3151H19.7912C19.7392 31.3151 19.687 31.3085 19.6347 31.295C19.5828 31.2818 19.5566 31.2619 19.5566 31.2351V30.2442C19.5566 30.2177 19.5828 30.1992 19.6347 30.1891C19.687 30.1791 19.7392 30.174 19.7912 30.174H20.5046C20.7066 30.174 20.8077 30.0641 20.8077 29.8438V28.5827H21.9316V29.8539C21.9316 29.994 21.9673 30.0991 22.0391 30.169C22.1108 30.2392 22.1922 30.2741 22.2835 30.2741C22.3746 30.2741 22.4594 30.2392 22.5375 30.169C22.6158 30.0991 22.6549 29.994 22.6549 29.8539V28.5827H23.7593V29.8539C23.7593 29.994 23.7984 30.0991 23.8765 30.169C23.9548 30.2392 24.0394 30.2741 24.1306 30.2741C24.2219 30.2741 24.3032 30.2392 24.375 30.169C24.4466 30.0991 24.4826 29.994 24.4826 29.8539V28.5827H25.6064V29.954C25.6129 30.1007 25.7107 30.174 25.8997 30.174H26.3884V31.3151H25.9095Z" fill="#F99F1B"/>
<path d="M26.1543 30.2441C26.1543 30.2176 26.1804 30.1991 26.2324 30.1891C26.2846 30.179 26.3368 30.174 26.3888 30.174H28.4022C28.539 30.174 28.6076 30.1207 28.6076 30.014C28.6076 29.9605 28.5846 29.9107 28.539 29.8638L26.643 27.8319L26.5256 26.7811L29.5067 25.6702L29.6825 26.801L27.9037 27.5117L29.4089 29.1631C29.5393 29.2968 29.637 29.4502 29.7022 29.6237C29.7671 29.7971 29.7999 29.9674 29.7999 30.134C29.7999 30.2876 29.772 30.4343 29.7169 30.5744C29.6613 30.7147 29.5799 30.8397 29.4725 30.9499C29.365 31.0598 29.2264 31.1485 29.057 31.215C28.8876 31.2817 28.6921 31.3151 28.4708 31.3151H26.3888C26.3368 31.3151 26.2846 31.3084 26.2324 31.2952C26.1804 31.2817 26.1543 31.2618 26.1543 31.2351V30.2441Z" fill="#F99F1B"/>
<path d="M33.1724 30.1742V29.5437C33.1724 29.3501 33.1266 29.2119 33.0356 29.1282C32.9443 29.045 32.8499 29.0032 32.7522 29.0032C32.6022 29.0032 32.498 29.0533 32.4393 29.1534C32.3808 29.2535 32.3514 29.3737 32.3514 29.5138C32.3514 29.7272 32.4067 29.8906 32.5176 30.004C32.6283 30.1176 32.8075 30.1742 33.055 30.1742H33.1724ZM31.3154 32.056H32.1559C32.3904 32.056 32.6071 31.9959 32.806 31.8757C33.0046 31.7557 33.1266 31.5688 33.1724 31.3153C32.8921 31.3087 32.6381 31.2788 32.4101 31.2253C32.182 31.1718 31.9865 31.0818 31.8236 30.9549C31.6607 30.8283 31.5352 30.6615 31.4473 30.4544C31.3594 30.2478 31.3154 29.9875 31.3154 29.6737C31.3154 29.0866 31.4342 28.638 31.672 28.3276C31.9099 28.0173 32.2831 27.8621 32.7912 27.8621C33.0126 27.8621 33.2164 27.8989 33.402 27.9723C33.5877 28.0459 33.7473 28.1608 33.8809 28.3176C34.0144 28.4744 34.1188 28.6746 34.1938 28.9182C34.2686 29.1618 34.3061 29.4571 34.3061 29.804V31.1951C34.3061 31.4753 34.2489 31.7356 34.1351 31.9758C34.0211 32.216 33.8696 32.4263 33.6805 32.6063C33.4915 32.7867 33.275 32.9268 33.0307 33.0269C32.7863 33.127 32.537 33.177 32.2831 33.177H31.462L31.3154 32.056Z" fill="#F99F1B"/>
<path d="M39.0553 27.6018C39.0553 27.4352 39.1107 27.2914 39.2216 27.1714C39.3323 27.0512 39.4722 26.9911 39.6418 26.9911C39.8045 26.9911 39.9446 27.0512 40.062 27.1714C40.1792 27.2914 40.2379 27.4352 40.2379 27.6018C40.2379 27.7686 40.1792 27.9105 40.062 28.0271C39.9446 28.1439 39.8045 28.2024 39.6418 28.2024C39.4722 28.2024 39.3323 28.1439 39.2216 28.0271C39.1107 27.9105 39.0553 27.7686 39.0553 27.6018ZM37.6773 27.6018C37.6773 27.4352 37.7342 27.2914 37.8482 27.1714C37.9623 27.0512 38.1008 26.9911 38.2638 26.9911C38.4331 26.9911 38.5748 27.0512 38.6889 27.1714C38.8027 27.2914 38.8598 27.4352 38.8598 27.6018C38.8598 27.7686 38.8027 27.9105 38.6889 28.0271C38.5748 28.1439 38.4331 28.2024 38.2638 28.2024C38.1008 28.2024 37.9623 28.1439 37.8482 28.0271C37.7342 27.9105 37.6773 27.7686 37.6773 27.6018ZM42.0364 31.3151C41.769 31.3151 41.5932 31.2451 41.5086 31.1048C41.4173 31.1985 41.3243 31.2568 41.2301 31.2801C41.1355 31.3036 41.0067 31.3151 40.844 31.3151H37.0127C36.6021 31.3151 36.3008 31.1866 36.1086 30.9297C35.9163 30.6729 35.8203 30.3342 35.8203 29.9139V28.5827H36.9346V29.8138C36.9346 30.054 37.0419 30.174 37.2571 30.174H40.5117C40.7982 30.174 40.9417 30.0474 40.9417 29.7937V28.5827H42.0754V29.8138C42.0754 30.054 42.1665 30.174 42.349 30.174H42.5934V31.3151H42.0364Z" fill="#F99F1B"/>
<path d="M43.4532 32.8066C43.4532 32.6397 43.5086 32.4978 43.6195 32.3813C43.7302 32.2645 43.8701 32.206 44.0397 32.206C44.2024 32.206 44.3426 32.2645 44.4599 32.3813C44.5771 32.4978 44.6358 32.6397 44.6358 32.8066C44.6358 32.9732 44.5771 33.1169 44.4599 33.2369C44.3426 33.3571 44.2024 33.4172 44.0397 33.4172C43.8701 33.4172 43.7302 33.3571 43.6195 33.2369C43.5086 33.1169 43.4532 32.9732 43.4532 32.8066ZM42.3586 30.2442C42.3586 30.2177 42.3847 30.1992 42.4367 30.1891C42.4889 30.1793 42.5412 30.1743 42.5932 30.1743H43.6878C43.9159 30.1743 44.0299 30.0541 44.0299 29.8139V28.5827H45.1442V29.914C45.1442 30.0941 45.1132 30.2677 45.0513 30.4344C44.9893 30.6014 44.9047 30.7497 44.7971 30.8798C44.6896 31.01 44.5626 31.1152 44.416 31.1952C44.2694 31.2751 44.108 31.3151 43.9322 31.3151H42.5932C42.5412 31.3151 42.4889 31.3087 42.4367 31.2953C42.3847 31.282 42.3586 31.2619 42.3586 31.2352V30.2442ZM42.0752 32.8066C42.0752 32.6397 42.1323 32.4978 42.2461 32.3813C42.3604 32.2645 42.4988 32.206 42.6617 32.206C42.8311 32.206 42.9728 32.2645 43.0868 32.3813C43.2006 32.4978 43.2578 32.6397 43.2578 32.8066C43.2578 32.9732 43.2006 33.1169 43.0868 33.2369C42.9728 33.3571 42.8311 33.4172 42.6617 33.4172C42.4988 33.4172 42.3604 33.3571 42.2461 33.2369C42.1323 33.1169 42.0752 32.9732 42.0752 32.8066Z" fill="#F99F1B"/>
<path d="M47.8003 31.3151C47.6635 31.3151 47.5462 31.2751 47.4484 31.1951C47.4484 31.5219 47.3882 31.8087 47.2676 32.0558C47.1471 32.3026 46.9907 32.5094 46.7985 32.6763C46.6062 32.8431 46.3928 32.9681 46.1583 33.0517C45.9237 33.1349 45.6892 33.1768 45.4546 33.1768H45.0344L44.8682 32.0558H45.0735C45.308 32.0558 45.5053 32.029 45.6649 31.9756C45.8244 31.9221 45.9532 31.8537 46.0509 31.7706C46.1487 31.6869 46.2201 31.5918 46.2659 31.4853C46.3114 31.3784 46.3344 31.2685 46.3344 31.1549V28.5827H47.4484V29.9039C47.4549 30.0839 47.5689 30.174 47.7905 30.174H47.9568V31.3151H47.8003Z" fill="#F99F1B"/>
<path d="M49.3276 32.8066C49.3276 32.6397 49.383 32.4978 49.4936 32.3813C49.6046 32.2645 49.7445 32.206 49.9141 32.206C50.0768 32.206 50.2169 32.2645 50.3343 32.3813C50.4515 32.4978 50.5102 32.6397 50.5102 32.8066C50.5102 32.9732 50.4515 33.1169 50.3343 33.2369C50.2169 33.3571 50.0768 33.4172 49.9141 33.4172C49.7445 33.4172 49.6046 33.3571 49.4936 33.2369C49.383 33.1169 49.3276 32.9732 49.3276 32.8066ZM47.9496 32.8066C47.9496 32.6397 48.0065 32.4978 48.1205 32.3813C48.2345 32.2645 48.3729 32.206 48.536 32.206C48.7052 32.206 48.8469 32.2645 48.9612 32.3813C49.075 32.4978 49.1321 32.6397 49.1321 32.8066C49.1321 32.9732 49.075 33.1169 48.9612 33.2369C48.8469 33.3571 48.7052 33.4172 48.536 33.4172C48.3729 33.4172 48.2345 33.3571 48.1205 33.2369C48.0065 33.1169 47.9496 32.9732 47.9496 32.8066ZM47.7246 30.2442C47.7246 30.2177 47.7507 30.1992 47.8029 30.1891C47.8552 30.1793 47.9072 30.1743 47.9594 30.1743H49.5622C49.7902 30.1743 49.9043 30.0541 49.9043 29.8139V28.5827H51.0185V29.914C51.0185 30.0941 50.9875 30.2677 50.9257 30.4344C50.8637 30.6014 50.7791 30.7497 50.6715 30.8798C50.5639 31.01 50.437 31.1152 50.2903 31.1952C50.1437 31.2751 49.9824 31.3151 49.8065 31.3151H47.9594C47.9072 31.3151 47.8552 31.3087 47.8029 31.2953C47.7507 31.282 47.7246 31.2619 47.7246 31.2352V30.2442Z" fill="#F99F1B"/>
<path d="M56.3447 31.3153C56.0644 31.3153 55.8477 31.2753 55.6948 31.1953C55.5415 31.1151 55.4031 31.0184 55.2793 30.9049C55.1684 31.0317 55.0316 31.1318 54.8689 31.2052C54.706 31.2787 54.5105 31.3153 54.2824 31.3153H51.8488L51.7021 30.1843H54.2628C54.3083 30.1843 54.3442 30.1726 54.3703 30.1493C54.3964 30.126 54.4094 30.0977 54.4094 30.0643C54.4094 30.0177 54.39 29.974 54.3509 29.934L52.6209 28.0424L53.4027 27.2316L55.7093 29.764C55.8396 29.9107 55.9537 30.0158 56.0514 30.0791C56.1492 30.1427 56.2469 30.1742 56.3447 30.1742H56.4132V31.3153H56.3447Z" fill="#F99F1B"/>
<path d="M58.5126 28.9431C58.3627 28.9431 58.2372 28.9931 58.1364 29.0932C58.0353 29.1933 57.9848 29.3535 57.9848 29.5736C57.9848 29.7672 58.0368 29.9157 58.1413 30.019C58.2453 30.1226 58.3691 30.1742 58.5126 30.1742C58.6885 30.1742 58.8253 30.1175 58.923 30.004C59.0208 29.8906 59.0697 29.7473 59.0697 29.5736C59.0697 29.4203 59.0223 29.2767 58.9279 29.1433C58.8335 29.0098 58.695 28.9431 58.5126 28.9431ZM56.1768 30.2441C56.1768 30.2176 56.2029 30.1991 56.2549 30.1891C56.3071 30.1792 56.3593 30.1742 56.4113 30.1742H56.5091C56.6914 30.1742 56.8266 30.1308 56.9145 30.0439C57.0027 29.9573 57.0467 29.8106 57.0467 29.6036C57.0467 29.3835 57.0808 29.1668 57.1493 28.9531C57.2176 28.7397 57.3153 28.5477 57.4423 28.3777C57.5695 28.2074 57.7224 28.0707 57.9018 27.9672C58.0808 27.8639 58.2781 27.812 58.493 27.812C58.7275 27.812 58.9393 27.8671 59.1283 27.9773C59.3174 28.0872 59.4769 28.231 59.6073 28.4076C59.7376 28.5845 59.8385 28.7815 59.9103 28.9982C59.982 29.215 60.0179 29.4303 60.0179 29.6438C60.0179 29.8773 59.9802 30.0958 59.9054 30.2992C59.8304 30.5029 59.726 30.6797 59.5925 30.8297C59.4591 30.9798 59.2977 31.0984 59.1089 31.185C58.9197 31.2719 58.7146 31.3153 58.493 31.3153C58.0304 31.3153 57.6916 31.1652 57.4767 30.8649C57.2877 31.1652 56.9846 31.3153 56.5677 31.3153H56.4113C56.3593 31.3153 56.3071 31.3087 56.2549 31.2952C56.2029 31.2819 56.1768 31.2618 56.1768 31.2351V30.2441Z" fill="#F99F1B"/>
<path d="M66.5382 31.055C66.5382 31.3487 66.4876 31.6239 66.3867 31.8807C66.2856 32.1376 66.1472 32.3627 65.9714 32.5565C65.7953 32.7499 65.5869 32.9016 65.3459 33.0118C65.1046 33.1219 64.844 33.177 64.5639 33.177H63.4594C63.1271 33.177 62.8404 33.127 62.5994 33.0269C62.3583 32.9268 62.1579 32.7867 61.9984 32.6063C61.8386 32.4263 61.7214 32.2126 61.6464 31.966C61.5714 31.7189 61.5342 31.4486 61.5342 31.1551V29.3136H62.6482V31.1551C62.6482 31.282 62.6759 31.3985 62.7315 31.5055C62.7866 31.6122 62.8584 31.7057 62.9464 31.7857C63.0343 31.8656 63.1336 31.9274 63.2445 31.9708C63.3552 32.0142 63.4693 32.0359 63.5866 32.0359H64.515C64.6257 32.0359 64.74 32.0174 64.8571 31.9808C64.9745 31.944 65.0803 31.8908 65.1747 31.8209C65.2691 31.7507 65.3474 31.667 65.4095 31.5704C65.4713 31.4737 65.5023 31.3686 65.5023 31.2552C65.5023 31.135 65.4695 31.0349 65.4045 30.9549C65.3392 30.8749 65.2383 30.8349 65.1015 30.8349H63.7527V29.4836C63.7527 29.2701 63.7951 29.0699 63.8797 28.883C63.9645 28.6963 64.0767 28.5329 64.2171 28.3926C64.357 28.2525 64.5184 28.1423 64.7007 28.0623C64.883 27.9823 65.0723 27.9423 65.2677 27.9423H66.372V29.0832H65.2872C65.0136 29.0832 64.8768 29.2368 64.8768 29.5437V29.8141H65.3947C65.8116 29.8141 66.1064 29.9258 66.2791 30.1491C66.4519 30.3728 66.5382 30.6747 66.5382 31.055Z" fill="#F99F1B"/>
<path d="M68.3953 31.3153C68.024 31.3153 67.7517 31.1969 67.5792 30.9599C67.4065 30.7232 67.3203 30.3945 67.3203 29.974V26.1707H68.4344V29.7539C68.4344 29.9409 68.4605 30.0577 68.5127 30.1043C68.5647 30.1509 68.6754 30.1742 68.845 30.1742H69.011V31.3153H68.3953Z" fill="#F99F1B"/>
<path d="M72.2255 29.6336C72.2255 29.7673 72.1914 29.9024 72.1229 30.0391C72.0546 30.1757 71.9649 30.3078 71.8542 30.4344C71.9582 30.4744 72.0546 30.5028 72.1425 30.5195C72.2304 30.5361 72.3101 30.5446 72.382 30.5446C72.4991 30.5446 72.5953 30.5062 72.6703 30.4294C72.7451 30.3526 72.7826 30.2575 72.7826 30.1442C72.7826 30.0039 72.737 29.8656 72.6458 29.7287C72.5545 29.592 72.3882 29.3934 72.1474 29.1331C72.1994 29.2933 72.2255 29.4602 72.2255 29.6336ZM70.2708 29.3535C70.2708 29.4602 70.3277 29.5635 70.4418 29.6638C70.5558 29.7637 70.6812 29.8505 70.8183 29.9239C70.9289 29.8638 71.0169 29.7888 71.082 29.6988C71.147 29.6087 71.1798 29.5036 71.1798 29.3834C71.1798 29.2502 71.1325 29.1482 71.0381 29.0783C70.9434 29.0081 70.8408 28.9732 70.7301 28.9732C70.6192 28.9732 70.5152 29.0081 70.4174 29.0783C70.3197 29.1482 70.2708 29.2401 70.2708 29.3535ZM68.7754 30.2443C68.7754 30.2176 68.8015 30.1993 68.8537 30.1892C68.9059 30.1792 68.9579 30.1741 69.0099 30.1741H69.6161C69.5833 30.1476 69.5556 30.1209 69.5328 30.0941C69.5101 30.0674 69.4889 30.0407 69.4694 30.0139C69.3779 29.9207 69.3112 29.8222 69.269 29.7187C69.2266 29.6154 69.2054 29.507 69.2054 29.3934C69.2054 29.1932 69.251 29.0049 69.3422 28.828C69.4335 28.6512 69.5507 28.4976 69.6942 28.3675C69.8374 28.2375 69.9986 28.134 70.178 28.0572C70.3572 27.9806 70.538 27.9422 70.7205 27.9422C70.7854 27.9422 70.849 27.9457 70.9109 27.9523C70.9729 27.9589 71.0332 27.9722 71.0919 27.9923L71.8834 27.2614L73.0954 28.6128C73.3168 28.853 73.5025 29.0982 73.6525 29.3484C73.8024 29.5987 73.8772 29.8706 73.8772 30.1641C73.8772 30.4111 73.8299 30.6246 73.7355 30.8047C73.6411 30.985 73.5172 31.1351 73.3641 31.2551C73.211 31.3753 73.0352 31.4635 72.8363 31.5205C72.6375 31.5769 72.434 31.6055 72.2255 31.6055C71.9649 31.6055 71.7174 31.5636 71.4828 31.4802C71.2481 31.3968 71.0233 31.2885 70.8084 31.155C70.5739 31.2617 70.3489 31.3152 70.134 31.3152H69.0099C68.9579 31.3152 68.9059 31.3086 68.8537 31.2951C68.8015 31.2819 68.7754 31.2617 68.7754 31.235V30.2443Z" fill="#F99F1B"/>
<path d="M77.2121 32.8166C77.2121 32.6498 77.269 32.5078 77.3831 32.3913C77.4971 32.2745 77.6357 32.216 77.7986 32.216C77.9613 32.216 78.1015 32.2745 78.2188 32.3913C78.336 32.5078 78.3947 32.6498 78.3947 32.8166C78.3947 32.9832 78.336 33.1269 78.2188 33.2469C78.1015 33.3671 77.9613 33.4272 77.7986 33.4272C77.6357 33.4272 77.4971 33.3671 77.3831 33.2469C77.269 33.1269 77.2121 32.9832 77.2121 32.8166ZM80.9261 29.9139C80.9261 30.3678 80.8299 30.7147 80.6377 30.9549C80.4456 31.1951 80.1345 31.3153 79.7045 31.3153H75.883C75.4529 31.3153 75.1416 31.1919 74.9495 30.9449C74.7573 30.698 74.6611 30.3543 74.6611 29.9139V28.5829H75.7754V29.8141C75.7754 30.0542 75.8861 30.1742 76.1077 30.1742H79.4601C79.6882 30.1742 79.8022 30.0542 79.8022 29.8141V28.5829H80.9261V29.9139Z" fill="#F99F1B"/>
<path d="M82.781 31.3152C82.4097 31.3152 82.1374 31.1968 81.9649 30.9598C81.7922 30.723 81.7061 30.3944 81.7061 29.9739V26.1706H82.8201V29.7538C82.8201 29.9408 82.8462 30.0575 82.8984 30.1042C82.9504 30.1508 83.0611 30.1741 83.2307 30.1741H83.3968V31.3152H82.781Z" fill="#F99F1B"/>
<path d="M85.0191 27.2316C85.0191 27.065 85.0744 26.9212 85.1853 26.8012C85.296 26.681 85.4359 26.6209 85.6056 26.6209C85.7682 26.6209 85.9084 26.681 86.0258 26.8012C86.1429 26.9212 86.2016 27.065 86.2016 27.2316C86.2016 27.3984 86.1429 27.5403 86.0258 27.6569C85.9084 27.7736 85.7682 27.8322 85.6056 27.8322C85.4359 27.8322 85.296 27.7736 85.1853 27.6569C85.0744 27.5403 85.0191 27.3984 85.0191 27.2316ZM83.641 27.2316C83.641 27.065 83.6979 26.9212 83.812 26.8012C83.926 26.681 84.0646 26.6209 84.2275 26.6209C84.3969 26.6209 84.5386 26.681 84.6526 26.8012C84.7664 26.9212 84.8236 27.065 84.8236 27.2316C84.8236 27.3984 84.7664 27.5403 84.6526 27.6569C84.5386 27.7736 84.3969 27.8322 84.2275 27.8322C84.0646 27.8322 83.926 27.7736 83.812 27.6569C83.6979 27.5403 83.641 27.3984 83.641 27.2316ZM85.9084 31.3153C85.7194 31.3153 85.55 31.2385 85.4002 31.0849C85.3284 31.1585 85.2503 31.215 85.1657 31.2552C85.0809 31.2952 84.9831 31.3153 84.8725 31.3153H83.3967C83.3447 31.3153 83.2924 31.3087 83.2402 31.2952C83.1882 31.2819 83.1621 31.2618 83.1621 31.2351V30.2441C83.1621 30.2176 83.1882 30.1991 83.2402 30.1891C83.2924 30.1792 83.3447 30.1742 83.3967 30.1742H84.5109C84.7258 30.1742 84.8334 30.054 84.8334 29.8138V28.5829H85.9477V29.8138C85.9477 30.054 86.0584 30.1742 86.28 30.1742H86.71V31.3153H85.9084Z" fill="#F99F1B"/>
<path d="M86.4746 30.2441C86.4746 30.2176 86.5007 30.1991 86.5527 30.1891C86.6049 30.179 86.6572 30.174 86.7092 30.174H88.7226C88.8594 30.174 88.9279 30.1207 88.9279 30.014C88.9279 29.9605 88.9049 29.9107 88.8594 29.8638L86.9633 27.8319L86.846 26.7811L89.827 25.6702L90.0029 26.801L88.224 27.5117L89.7293 29.1631C89.8596 29.2968 89.9573 29.4502 90.0225 29.6237C90.0874 29.7971 90.1202 29.9674 90.1202 30.134C90.1202 30.2876 90.0923 30.4343 90.0372 30.5744C89.9817 30.7147 89.9002 30.8397 89.7929 30.9499C89.6853 31.0598 89.5467 31.1485 89.3773 31.215C89.2079 31.2817 89.0125 31.3151 88.7908 31.3151H86.7092C86.6572 31.3151 86.6049 31.3084 86.5527 31.2952C86.5007 31.2817 86.4746 31.2618 86.4746 31.2351V30.2441Z" fill="#F99F1B"/>
<path d="M93.7066 31.3151C93.5698 31.3151 93.4524 31.2751 93.3547 31.1951C93.3547 31.5219 93.2944 31.8087 93.1739 32.0558C93.0534 32.3026 92.8985 32.5094 92.7097 32.6763C92.5207 32.8431 92.3073 32.9681 92.0694 33.0517C91.8316 33.1349 91.5954 33.1768 91.3609 33.1768H90.9407L90.7744 32.0558H90.9797C91.2143 32.0558 91.4116 32.029 91.5711 31.9756C91.7307 31.9221 91.8594 31.8537 91.9572 31.7706C92.0549 31.6869 92.1264 31.5918 92.1721 31.4853C92.2176 31.3784 92.2406 31.2685 92.2406 31.1549V28.5827H93.3547V29.924C93.3743 30.0908 93.4881 30.174 93.6968 30.174H93.863V31.3151H93.7066Z" fill="#F99F1B"/>
<path d="M97.3625 27.2316C97.3625 27.065 97.4178 26.9213 97.5287 26.8013C97.6394 26.6811 97.7793 26.621 97.9489 26.621C98.1116 26.621 98.2518 26.6811 98.3692 26.8013C98.4863 26.9213 98.545 27.065 98.545 27.2316C98.545 27.3984 98.4863 27.5404 98.3692 27.6569C98.2518 27.7737 98.1116 27.8322 97.9489 27.8322C97.7793 27.8322 97.6394 27.7737 97.5287 27.6569C97.4178 27.5404 97.3625 27.3984 97.3625 27.2316ZM96.6782 26.0206C96.6782 25.8538 96.7354 25.7102 96.8494 25.59C96.9632 25.47 97.1018 25.4099 97.2647 25.4099C97.4276 25.4099 97.5678 25.47 97.6849 25.59C97.8023 25.7102 97.861 25.8538 97.861 26.0206C97.861 26.1874 97.8023 26.3293 97.6849 26.4459C97.5678 26.5627 97.4276 26.621 97.2647 26.621C97.1018 26.621 96.9632 26.5627 96.8494 26.4459C96.7354 26.3293 96.6782 26.1874 96.6782 26.0206ZM95.9844 27.2316C95.9844 27.065 96.0413 26.9213 96.1554 26.8013C96.2694 26.6811 96.408 26.621 96.5709 26.621C96.7403 26.621 96.882 26.6811 96.996 26.8013C97.1098 26.9213 97.167 27.065 97.167 27.2316C97.167 27.3984 97.1098 27.5404 96.996 27.6569C96.882 27.7737 96.7403 27.8322 96.5709 27.8322C96.408 27.8322 96.2694 27.7737 96.1554 27.6569C96.0413 27.5404 95.9844 27.3984 95.9844 27.2316ZM93.6289 30.2442C93.6289 30.2177 93.655 30.1992 93.7072 30.1891C93.7595 30.1793 93.8115 30.1743 93.8635 30.1743H94.5769C94.7789 30.1743 94.88 30.0641 94.88 29.844V28.583H96.0041V29.8539C96.0041 29.9942 96.0398 30.0991 96.1114 30.1692C96.183 30.2392 96.2645 30.2744 96.3558 30.2744C96.447 30.2744 96.5316 30.2392 96.61 30.1692C96.6881 30.0991 96.7271 29.9942 96.7271 29.8539V28.583H97.8316V29.8539C97.8316 29.9942 97.8706 30.0991 97.9489 30.1692C98.0271 30.2392 98.1116 30.2744 98.2031 30.2744C98.2942 30.2744 98.3756 30.2392 98.4473 30.1692C98.5189 30.0991 98.5548 29.9942 98.5548 29.8539V28.583H99.6789V29.914C99.6789 30.1343 99.6528 30.3361 99.6006 30.5196C99.5484 30.7031 99.4703 30.8615 99.3661 30.995C99.2618 31.1284 99.1315 31.2335 98.9751 31.3103C98.8188 31.3869 98.6394 31.4253 98.4377 31.4253C98.0009 31.4253 97.6753 31.2687 97.4602 30.955C97.3364 31.1085 97.1882 31.2251 97.0154 31.3053C96.8427 31.3853 96.6686 31.4253 96.4926 31.4253C96.3035 31.4253 96.1277 31.3853 95.9648 31.3053C95.8019 31.2251 95.6682 31.1085 95.5642 30.955C95.4727 31.0617 95.3524 31.1485 95.2024 31.215C95.0525 31.282 94.857 31.3154 94.6162 31.3154H93.8635C93.8115 31.3154 93.7595 31.3087 93.7072 31.2953C93.655 31.282 93.6289 31.2619 93.6289 31.2351V30.2442Z" fill="#F99F1B"/>
<path d="M101.537 31.3153C101.166 31.3153 100.893 31.1969 100.721 30.9599C100.548 30.7232 100.462 30.3945 100.462 29.974V26.1707H101.576V29.7539C101.576 29.9409 101.602 30.0577 101.654 30.1043C101.706 30.1509 101.817 30.1742 101.987 30.1742H102.153V31.3153H101.537Z" fill="#F99F1B"/>
<path d="M102.837 27.2316C102.837 27.065 102.894 26.9212 103.008 26.8012C103.122 26.681 103.26 26.6209 103.423 26.6209C103.586 26.6209 103.726 26.681 103.843 26.8012C103.961 26.9212 104.019 27.065 104.019 27.2316C104.019 27.3984 103.961 27.5403 103.843 27.6569C103.726 27.7736 103.586 27.8322 103.423 27.8322C103.26 27.8322 103.122 27.7736 103.008 27.6569C102.894 27.5403 102.837 27.3984 102.837 27.2316ZM101.918 30.2441C101.918 30.2176 101.944 30.1991 101.996 30.1891C102.049 30.1792 102.101 30.1742 102.153 30.1742H103.247C103.475 30.1742 103.589 30.054 103.589 29.8138V28.5829H104.704V29.9139C104.704 30.094 104.673 30.2677 104.611 30.4345C104.549 30.6014 104.464 30.7497 104.357 30.8799C104.249 31.01 104.122 31.1151 103.975 31.1951C103.829 31.2751 103.668 31.3153 103.492 31.3153H102.153C102.101 31.3153 102.049 31.3087 101.996 31.2952C101.944 31.2819 101.918 31.2618 101.918 31.2351V30.2441Z" fill="#F99F1B"/>
</svg>
