<svg xmlns="http://www.w3.org/2000/svg" width="31" height="29" fill="none" viewBox="0 0 31 29">
  <path fill="#0F0099" d="M15.528 2.72A18.839 18.839 0 0 1 18.666.5c1.123 1.714 1.98 3.612 2.448 5.61-2.234.808-4.374 1.933-6.182 3.488-1.82 1.546-3.277 3.533-4.118 5.774-.507 1.367-.862 2.813-.835 4.28a16.464 16.464 0 0 0 .808 5.542c.398 1.201.932 2.363 1.65 3.407 3.437-2.361 5.9-6.156 6.498-10.299.259-1.792.242-3.629-.104-5.41-.306-1.561-.833-3.098-1.688-4.448a24.207 24.207 0 0 1 4.136-1.956c.78 2.94.895 6.06.327 9.048-.308 1.277-.776 2.51-1.276 3.722-.598 1.405-1.29 2.784-2.198 4.018a27.581 27.581 0 0 1-2.838 3.147c-.883.815-1.802 1.617-2.86 2.198-1.132-1.345-1.944-2.935-2.546-4.579a19.45 19.45 0 0 1-1.127-5.89c-.127-1.651.013-3.32.36-4.937.885-4.089 3.268-7.767 6.407-10.494Z"/>
  <path fill="#0F0099" d="M3.686 5.455c2.259-.003 4.518-.001 6.777-.001-1.315 5.692-2.688 11.372-3.93 17.08-.192.929-.39 1.861-.445 2.809-.006.645.085 1.348.522 1.855.198.24.482.38.762.5-.517-.12-.994-.355-1.472-.577-1.396-.696-2.707-1.661-3.562-2.987-.826-1.233-1.5-2.627-1.605-4.128C.706 19.46.71 18.91.807 18.37c.244-1.554.586-3.09.924-4.627a394.25 394.25 0 0 1 1.955-8.289Zm20.794 0c2.174-.003 4.347-.001 6.52-.001-.786 3.356-1.573 6.712-2.377 10.064-.274 1.102-.512 2.215-.831 3.305-.599 1.436-1.47 2.755-2.504 3.916-.444.504-.963.932-1.453 1.388-1.979 1.708-4.357 2.98-6.901 3.594.854-.459 1.777-.915 2.348-1.733.407-.619.52-1.369.753-2.06a7296.59 7296.59 0 0 0 4.444-18.473Z"/>
</svg>
