<svg width="31" height="29" viewBox="0 0 31 29" fill="none" xmlns="http://www.w3.org/2000/svg">
<path d="M11.6885 2.34933C12.7877 1.84295 13.9429 1.45635 15.0664 1C15.976 1.3108 16.8857 1.62615 17.7953 1.93695C18.7065 1.62615 19.6162 1.30777 20.5289 1C21.5234 1.38812 22.518 1.77928 23.5141 2.16285C23.699 2.25382 23.9568 2.2993 24.0159 2.53126C24.2266 3.06796 24.3737 3.62589 24.5572 4.17169C25.3425 4.37636 26.1324 4.56739 26.9147 4.78116C27.3058 5.72266 27.6091 6.69903 28.0381 7.62385C28.6628 8.66541 29.3632 9.65998 30 10.694C29.815 11.7219 29.6255 12.7468 29.4466 13.7747C29.4147 14.607 28.54 14.9375 28.0275 15.4545C28.3141 15.9988 28.6051 16.5416 28.8796 17.0919C28.399 17.9712 28.0199 18.9188 27.4559 19.7451C26.3568 20.2742 25.1833 20.6366 24.0796 21.152C23.9962 21.4977 24.1933 21.9768 23.8006 22.1709C22.7712 22.8804 21.7327 23.5763 20.6956 24.2737C19.8315 24.0993 18.9718 23.9113 18.1092 23.7294C18.1092 24.962 18.1092 26.1946 18.1092 27.4287C21.296 27.4317 24.4829 27.4211 27.6697 27.4332C28.0351 27.3408 28.2837 27.8047 27.9638 28.0276C27.4605 28.0988 26.9511 28.0579 26.4447 28.0655C20.3287 28.0655 14.2128 28.0624 8.09532 28.067C7.83303 28.0746 7.4631 28.067 7.46007 27.7137C7.52223 27.3969 7.85274 27.4363 8.09835 27.4272C11.2246 27.4287 14.3508 27.4287 17.477 27.4287C17.477 26.1946 17.477 24.962 17.477 23.7294C16.6173 23.9113 15.7592 24.0963 14.8996 24.2752C13.8656 23.5854 12.8362 22.891 11.8128 22.186C11.4004 21.9965 11.5839 21.5144 11.5141 21.1596C10.5908 20.729 9.62506 20.3894 8.68356 19.9998C8.41976 19.88 8.08774 19.8072 7.9619 19.5146C7.52981 18.7141 7.12501 17.9 6.70808 17.0919C6.98553 16.5431 7.2751 16.0003 7.56165 15.456C7.19324 15.1483 6.82785 14.839 6.45641 14.5358C5.81813 14.4781 5.08889 14.413 4.64315 13.8884C4.17468 13.3168 3.81536 12.6452 3.61523 11.9341C3.70468 11.7749 3.8381 11.6931 4.01549 11.69C4.81902 11.6415 5.73323 11.7643 6.30935 12.3829C6.73689 12.8347 6.8324 13.4745 6.89456 14.0673C7.21446 14.3387 7.53739 14.6085 7.8588 14.8784C8.05135 14.5646 8.16506 14.1795 8.44705 13.9324C8.67143 13.7504 9.01711 14.1097 8.8473 14.3387C8.40763 15.2741 7.88306 16.1686 7.41459 17.0919C7.78755 17.8121 8.16202 18.5307 8.53499 19.2508C9.56139 19.6663 10.5878 20.0817 11.6142 20.4956C11.6703 19.9452 11.6324 19.3721 11.8037 18.84C12.4405 18.6126 13.1121 18.511 13.7655 18.3442C13.8777 18.0092 13.9581 17.6589 14.1249 17.3436C14.2871 17.104 14.6661 17.2481 14.6646 17.5255C14.6055 17.8682 14.4857 18.1971 14.3887 18.5307C14.9845 19.0113 15.8426 19.1735 16.2398 19.8785C16.5734 20.5016 16.5612 21.2551 16.446 21.9359C16.4551 22.1314 16.211 22.2527 16.0473 22.1815C15.5379 21.9874 15.0679 21.669 14.7177 21.2506C14.2856 20.7093 14.3826 19.9695 14.4129 19.3236C14.2598 19.2008 14.1097 19.0765 13.9581 18.9537C13.4153 19.0735 12.8741 19.2038 12.3328 19.3312C12.2752 20.109 12.2191 20.8852 12.163 21.663C13.1106 22.3103 14.0657 22.9456 15.0072 23.6005C15.8335 23.4383 16.6537 23.2564 17.477 23.0835C17.477 20.9474 17.477 18.8097 17.477 16.6735C16.4415 16.0322 15.409 15.3893 14.372 14.7495C13.5033 15.2968 12.5875 15.7714 11.7431 16.3521C11.455 16.7705 11.3883 17.3072 11.1199 17.7423C10.8865 17.8606 10.7106 17.7999 10.5908 17.5589C10.6848 17.1283 10.8698 16.725 11.0244 16.3142C10.6318 16.1383 10.2179 15.9988 9.85551 15.7608C9.78122 15.5591 9.84187 15.3166 10.0738 15.2605C10.5423 15.3681 10.9683 15.6031 11.4095 15.7865C12.2904 15.2605 13.1697 14.7329 14.0506 14.2068C14.0339 13.7595 13.9748 13.3092 14.0278 12.8635C14.1446 12.6528 14.4918 12.6285 14.5857 12.8726C14.6707 13.3077 14.66 13.755 14.6858 14.1977C15.6152 14.7753 16.5461 15.3529 17.477 15.9291C17.4754 15.1028 17.48 14.2765 17.4815 13.4517C17.4572 13.2516 17.5285 13.0045 17.3526 12.8574C16.587 12.0721 15.785 11.3231 15.0118 10.5469C14.419 10.647 13.8277 10.7501 13.2349 10.8531C12.6724 11.5324 12.1918 12.2843 11.5717 12.915C10.6985 12.7028 9.8919 12.2798 9.0444 11.9842C8.68356 12.1722 8.33183 12.389 7.93916 12.5102C7.87245 12.4435 7.73752 12.3086 7.67081 12.2419C7.76632 11.784 8.30909 11.7037 8.64415 11.4702C8.57744 11.1821 8.51376 10.8926 8.45615 10.6015C8.64263 10.556 8.85488 10.3983 9.02924 10.5605C9.15204 10.8289 9.21572 11.1185 9.30062 11.402C9.99044 11.6734 10.6818 11.9417 11.3716 12.2131C11.881 11.593 12.3298 10.9199 12.871 10.3286C13.5033 10.0981 14.1885 10.0693 14.845 9.93287C14.9299 9.55233 14.9708 9.15663 15.1149 8.79125C15.2013 8.52593 15.5227 8.62448 15.6698 8.77609C15.6698 9.22637 15.5454 9.66301 15.4605 10.1027C16.1322 10.7622 16.8053 11.4232 17.477 12.0842C17.4754 10.3938 17.4815 8.70332 17.4739 7.01286C16.9827 6.52922 16.4991 6.03649 16.0109 5.54982C15.3302 5.71659 14.5312 5.80908 13.9369 5.35273C13.3911 4.91458 12.9999 4.2763 12.8574 3.59102C13.1652 3.29235 13.6291 3.36512 14.0187 3.31964C14.5979 3.3257 15.2998 3.23019 15.7425 3.6926C16.1883 4.12469 16.167 4.83119 16.6128 5.25873C16.8917 5.55437 17.1889 5.83333 17.477 6.12139C17.4785 4.91458 17.4754 3.70776 17.4785 2.50094C16.6795 2.22198 15.8775 1.94908 15.077 1.67315C14.0976 2.05521 13.1182 2.44181 12.1388 2.82084C11.9826 3.51218 11.4489 4.21414 11.7552 4.93277C11.8765 5.32544 12.0069 5.71659 12.1297 6.10926C12.7043 6.39581 13.3198 6.60806 13.858 6.96131C13.9429 7.16296 13.8929 7.32973 13.7094 7.46163C13.0939 7.34034 12.5602 6.98254 11.9902 6.73693C11.8628 6.94009 11.734 7.14173 11.6066 7.34489C11.9113 7.92859 12.1418 8.65177 11.8022 9.27337C11.4611 9.86313 10.8683 10.3028 10.2179 10.4938C9.80396 10.083 9.73271 9.45227 9.67813 8.89889C9.619 8.22726 10.1117 7.68601 10.6439 7.35398C11.0623 7.12505 11.2746 6.68538 11.5247 6.30181C11.3716 5.80604 11.217 5.31179 11.0608 4.81755C10.2846 5.01161 9.5159 5.23447 8.72905 5.38608C8.68205 5.19051 8.46524 4.85393 8.77301 4.77358C9.50984 4.51736 10.2831 4.38394 11.0335 4.17017C11.2564 3.56676 11.358 2.90422 11.6885 2.34933ZM18.1061 2.50549C18.1137 3.70927 18.1077 4.91306 18.1107 6.11836C18.4579 5.77572 18.8354 5.45582 19.1265 5.06164C19.4267 4.59771 19.5055 3.9943 19.9315 3.61224C20.353 3.26657 20.9397 3.32418 21.4507 3.31206C21.8812 3.34996 22.3815 3.28628 22.7333 3.5895C22.5802 4.30055 22.1738 4.97522 21.581 5.40276C20.9913 5.81362 20.2393 5.68324 19.5783 5.56498C19.0855 6.03801 18.6049 6.52771 18.1168 7.0068C18.1016 8.69877 18.1122 10.3907 18.1107 12.0827C18.7823 11.4278 19.4479 10.7682 20.1195 10.1148C20.0346 9.66907 19.93 9.22182 19.9315 8.76699C20.0513 8.66238 20.1893 8.61387 20.3485 8.62296C20.632 8.99744 20.6395 9.49472 20.7517 9.93439C21.4067 10.0724 22.1071 10.0784 22.7242 10.3544C23.2851 10.9168 23.7066 11.6006 24.2115 12.2116C24.8952 11.9478 25.5775 11.6825 26.2597 11.4156C26.4295 11.0821 26.4204 10.3483 26.9602 10.4878C27.1967 10.7713 26.9935 11.1442 26.9799 11.4687C27.3013 11.7386 28.1079 11.8826 27.8228 12.4344C27.3483 12.5375 26.9556 12.1676 26.5478 11.9902C25.7003 12.2722 24.9028 12.7089 24.028 12.9044C23.3852 12.2995 22.9228 11.5324 22.3588 10.8562C21.7645 10.7516 21.1702 10.647 20.5759 10.5469C19.7557 11.361 18.9279 12.1661 18.1077 12.9787C18.1107 13.9627 18.1092 14.9451 18.1107 15.9291C19.0082 15.3332 19.9861 14.8511 20.8351 14.1886C21.0383 13.7246 20.8169 13.1167 21.1414 12.6922C21.3294 12.674 21.5992 12.7604 21.5719 12.9969C21.5962 13.4017 21.5613 13.8065 21.5447 14.2098C22.424 14.7344 23.3003 15.262 24.1796 15.785C24.6648 15.5879 25.1363 15.2817 25.6776 15.2908C26.0187 15.97 24.9786 16.0579 24.5723 16.3202C24.73 16.7311 24.9043 17.1389 24.9908 17.5725C24.8755 17.7923 24.7103 17.8515 24.492 17.7529C24.1372 17.2511 24.1448 16.4915 23.5717 16.1595C22.8 15.6759 21.9995 15.2407 21.2339 14.7495C20.1832 15.3742 19.1538 16.0352 18.1107 16.6735C18.1137 18.8127 18.1001 20.9519 18.1183 23.0896C18.9506 23.2063 19.7678 23.549 20.6092 23.5338C21.5917 22.982 22.4786 22.2694 23.4277 21.6614C23.37 20.8852 23.3139 20.109 23.2563 19.3327C22.6999 19.2008 22.145 19.0704 21.5917 18.9309C20.8609 19.457 21.4476 20.4759 20.9519 21.1369C20.5698 21.6508 20.0058 22.0738 19.3736 22.2088C18.8884 21.81 19.0931 20.9913 19.1462 20.4273C19.3054 19.3706 20.4364 19.0613 21.196 18.5383C21.1353 18.1213 20.6062 17.286 21.3081 17.1996C21.622 17.5028 21.6887 17.9591 21.8403 18.3503C22.4907 18.5155 23.1669 18.5974 23.79 18.8551C23.9446 19.3858 23.9325 19.9467 23.981 20.4925C25.0074 20.0786 26.0323 19.6647 27.0572 19.2478C27.4287 18.5292 27.8016 17.8105 28.1731 17.0919C27.7122 16.1671 27.1694 15.2817 26.7479 14.3372C26.6115 14.1113 26.8298 13.8793 27.0557 13.8596C27.3741 14.1279 27.5378 14.5221 27.7425 14.8739C28.0836 14.5767 28.4884 14.3281 28.7355 13.9414C28.9614 13.1955 29.0251 12.4102 29.1934 11.6506C29.2358 11.3004 29.395 10.9032 29.1767 10.5802C28.7643 9.88436 28.2898 9.22789 27.8577 8.54564C27.18 7.56472 26.8995 6.38823 26.4386 5.30421C25.8004 5.14351 25.1621 4.97977 24.5238 4.81906C24.3692 5.32241 24.2145 5.82424 24.0599 6.32758C24.2979 6.67326 24.5193 7.0447 24.868 7.29182C25.3167 7.62688 25.8383 8.00591 25.8959 8.61386C25.9353 9.26124 25.8216 9.98139 25.3895 10.4893C24.6875 10.3104 24.0584 9.81462 23.7369 9.16573C23.464 8.5608 23.7172 7.90433 23.9719 7.34186C23.8491 7.1387 23.7248 6.93857 23.602 6.73693C23.0395 6.9977 22.4968 7.31457 21.8918 7.46618C21.6948 7.33731 21.6447 7.16902 21.7418 6.96435C22.2709 6.59897 22.8879 6.38974 23.4625 6.10623C23.6263 5.56953 23.837 5.04344 23.931 4.48704C23.8779 3.90788 23.6217 3.37118 23.4489 2.82084C22.4725 2.44181 21.4961 2.05976 20.5228 1.67315C19.7147 1.94453 18.9097 2.22198 18.1061 2.50549ZM13.6185 3.96701C13.8413 4.29449 14.0339 4.66745 14.3735 4.89032C14.7919 5.13138 15.2953 5.02525 15.7516 5.01161C15.5924 4.69019 15.4984 4.30965 15.2195 4.06707C14.7131 3.86543 14.1491 3.97004 13.6185 3.96701ZM10.3331 8.6078C10.2573 8.99895 10.3922 9.38859 10.4589 9.77217C10.7818 9.47198 11.2215 9.21121 11.3231 8.75031C11.3549 8.4001 11.2276 8.062 11.1533 7.72543C10.8546 7.98923 10.4771 8.21665 10.3331 8.6078ZM4.39299 12.2707C4.60222 12.674 4.79173 13.0955 5.09343 13.4411C5.38453 13.7914 5.87877 13.805 6.28357 13.9278C6.15774 13.523 6.10922 13.0515 5.78174 12.7468C5.40878 12.3965 4.86753 12.3753 4.39299 12.2707ZM15.0072 19.5586C15.0224 19.9376 14.9921 20.3303 15.1164 20.6957C15.2877 21.0307 15.6288 21.2263 15.9078 21.4598C15.8775 21.0823 15.8805 20.6942 15.7577 20.3333C15.6106 19.9922 15.2756 19.7921 15.0072 19.5586Z" fill="#0F0099"/>
<path d="M4.03689 3.00437C4.22944 2.89369 4.41743 3.09837 4.58875 3.16659C5.07239 3.46678 5.68034 3.85035 5.65457 4.49924C5.63789 4.8525 5.67428 5.30884 5.35742 5.54536C4.8571 5.53929 4.37043 5.2952 4.03386 4.93133C3.69577 4.52805 3.71851 3.958 3.79128 3.4683C3.84889 3.31062 3.82918 3.04379 4.03689 3.00437ZM4.32192 3.7321C4.30827 4.27031 4.59936 4.69482 5.08452 4.91314C5.11484 4.36734 4.75552 3.99135 4.32192 3.7321Z" fill="#0F0099"/>
<path d="M4.8009 7.15232C5.51044 6.9901 6.2791 6.95219 6.98409 7.14929C7.59659 7.45554 7.94075 8.12717 8.1242 8.75939C7.97107 9.03532 7.64511 9.1278 7.36008 9.19754C6.79306 9.32035 6.12143 9.34006 5.65901 8.93222C5.19812 8.52742 4.86306 7.97556 4.69629 7.3858C4.72206 7.32819 4.77513 7.20993 4.8009 7.15232ZM5.43008 7.66021C5.66356 7.97253 5.86217 8.3364 6.20026 8.54713C6.5899 8.70178 7.02351 8.59717 7.42982 8.58504C7.24637 8.30607 7.10083 7.98466 6.82944 7.77847C6.38826 7.60109 5.89553 7.67234 5.43008 7.66021Z" fill="#0F0099"/>
<path d="M1.95342 8.23951C2.72512 7.94538 3.47559 8.54576 3.77881 9.22043C3.49682 9.71164 2.89189 9.93148 2.35064 9.94664C1.73511 9.87842 1.23631 9.39781 0.927023 8.8884C0.892153 8.37899 1.60017 8.3896 1.95342 8.23951ZM1.68962 8.93995C2.07623 9.29926 2.58412 9.36446 3.07079 9.17798C2.7039 8.77318 2.17478 8.77773 1.68962 8.93995Z" fill="#0F0099"/>
<path d="M8.62134 22.7835C9.32329 22.4863 10.142 22.694 10.753 23.1034C10.9076 23.1792 11.0153 23.3793 10.9182 23.54C10.5953 24.1783 10.045 24.8029 9.29752 24.8999C8.69411 24.9682 8.08009 24.9379 7.48275 24.8332C7.28869 24.8211 7.15982 24.7226 7.09766 24.5376C7.37662 23.8053 7.90119 23.1231 8.62134 22.7835ZM8.88969 23.3581C8.45912 23.5339 8.19077 23.9357 7.89513 24.2723C8.4106 24.2874 8.94578 24.3678 9.44913 24.2101C9.79329 24.06 10.0192 23.7401 10.2724 23.4763C9.82512 23.3732 9.343 23.1746 8.88969 23.3581Z" fill="#0F0099"/>
</svg>
