<svg width="316" height="160" viewBox="0 0 316 160" fill="none" xmlns="http://www.w3.org/2000/svg">
<path d="M43.3574 125.659C43.3574 123.588 45.5577 122.552 49.9581 122.552C52.5465 122.552 55.0271 122.38 57.3999 122.035C59.7727 121.69 61.9513 121.301 63.9358 120.87C65.9203 120.439 67.6459 120.05 69.1127 119.705C70.5795 119.36 71.7875 119.188 72.7366 119.188C73.5132 119.188 74.2034 119.338 74.8074 119.64C75.4114 119.942 75.7133 120.525 75.7133 121.388C75.7133 122.164 74.9368 123.135 73.3838 124.3C71.8307 125.465 69.8246 126.586 67.3655 127.665C64.9065 128.743 62.167 129.692 59.1471 130.512C56.1272 131.332 53.1936 131.742 50.3463 131.742C49.3109 131.742 48.3618 131.526 47.499 131.094C46.6362 130.663 45.9028 130.124 45.2988 129.477C44.6948 128.83 44.2203 128.161 43.8751 127.471C43.53 126.78 43.3574 126.176 43.3574 125.659Z" fill="#CD6C58"/>
<path d="M139.302 147.229C141.287 147.229 142.689 147.877 143.509 149.171C144.328 150.465 144.738 151.716 144.738 152.924C144.738 154.65 144.156 156.203 142.991 157.583C141.826 158.964 140.338 159.654 138.526 159.654C136.627 159.654 134.837 158.964 133.155 157.583C131.472 156.203 130.631 154.65 130.631 152.924C130.717 151.975 131.062 151.134 131.666 150.4C132.27 149.667 133.004 149.063 133.866 148.588C134.729 148.114 135.635 147.769 136.584 147.553C137.533 147.337 138.439 147.229 139.302 147.229Z" fill="#CD6C58"/>
<path d="M194.313 100.897C194.313 104.952 192.717 108.727 189.524 112.221C186.332 115.716 181.845 118.757 176.064 121.345C170.283 123.934 163.359 125.962 155.292 127.428C147.224 128.895 138.316 129.629 128.566 129.629C125.201 129.629 121.793 129.434 118.341 129.046C114.89 128.658 111.547 128.075 108.311 127.299C105.075 126.522 102.012 125.509 99.122 124.257C96.2315 123.006 93.7509 121.518 91.6801 119.792C90.4722 118.843 89.5015 117.851 88.7681 116.816C88.0347 115.78 87.668 114.961 87.668 114.357C87.668 113.235 88.1641 112.89 89.1563 113.321C90.1486 113.753 91.7664 114.27 94.0097 114.874C96.6845 115.651 99.2945 116.298 101.84 116.816C104.385 117.333 107.017 117.743 109.735 118.045C112.453 118.347 115.343 118.563 118.406 118.692C121.469 118.822 124.856 118.886 128.566 118.886C131.931 118.886 135.576 118.692 139.502 118.304C143.428 117.916 147.354 117.376 151.28 116.686C155.206 115.996 159.002 115.133 162.669 114.098C166.336 113.062 169.636 111.898 172.57 110.603C175.504 109.309 177.919 107.907 179.818 106.397C181.716 104.887 182.881 103.226 183.312 101.414C183.485 100.638 183.679 99.7965 183.895 98.8906C184.11 97.9846 184.434 97.1434 184.865 96.3668C185.297 95.5903 185.857 94.9432 186.548 94.4255C187.238 93.9078 188.187 93.6489 189.395 93.6489C191.121 93.6489 192.372 94.4039 193.148 95.9138C193.925 97.4238 194.313 99.0847 194.313 100.897Z" fill="#CD6C58"/>
<path d="M174.294 139.767C177.055 139.767 180.355 139.27 184.195 138.278C188.035 137.286 191.917 135.97 195.843 134.331C199.769 132.691 203.501 130.793 207.038 128.636C210.576 126.479 213.509 124.193 215.839 121.777H214.157C210.705 121.777 208.138 120.828 206.456 118.929C204.773 117.031 203.932 114.702 203.932 111.941C203.932 110.388 204.256 108.77 204.903 107.087C205.55 105.405 206.456 103.873 207.621 102.493C208.786 101.112 210.101 99.9905 211.568 99.1277C213.035 98.2649 214.631 97.8335 216.357 97.8335C217.996 97.8335 219.592 98.2433 221.145 99.063C222.699 99.8827 224.058 101.004 225.222 102.428C226.387 103.852 227.315 105.513 228.005 107.411C228.695 109.309 229.04 111.293 229.04 113.364C229.04 116.47 228.177 119.512 226.452 122.489C224.726 125.465 222.461 128.291 219.657 130.966C216.853 133.641 213.66 136.1 210.08 138.343C206.499 140.586 202.875 142.528 199.208 144.167C195.541 145.806 191.96 147.079 188.466 147.985C184.972 148.891 181.887 149.344 179.212 149.344C176.192 149.344 173.474 148.438 171.058 146.626C168.643 144.814 167.348 142.571 167.176 139.896C167.176 139.378 167.391 139.119 167.823 139.119C168.254 139.119 168.88 139.227 169.7 139.443C170.519 139.659 172.051 139.767 174.294 139.767ZM215.451 112.329C215.882 112.329 216.465 112.307 217.198 112.264C217.931 112.221 218.902 112.07 220.11 111.811C219.851 110.258 219.226 109.007 218.233 108.058C217.241 107.109 216.357 106.634 215.58 106.634C214.631 106.634 213.747 107.044 212.927 107.864C212.107 108.683 211.698 109.568 211.698 110.517C211.698 111.725 212.949 112.329 215.451 112.329Z" fill="#CD6C58"/>
<path d="M104.316 96.1513C100.347 96.1513 97.3267 94.2962 95.2559 90.5861C93.7891 92.6568 91.8046 94.6198 89.3024 96.4748C86.8002 98.3299 84.0392 99.2574 81.0193 99.2574C79.1211 99.2574 77.9778 98.7613 77.5896 97.7691C77.2013 96.7768 77.0071 95.5473 77.0071 94.0805C77.0071 92.6137 77.2013 91.341 77.5896 90.2625C77.9778 89.184 79.1211 88.6447 81.0193 88.6447C83.0038 88.6447 84.7078 88.1055 86.1315 87.0269C87.5552 85.9484 88.8278 84.7405 89.9495 83.4031C91.0712 82.0657 92.1281 80.8578 93.1204 79.7792C94.1126 78.7007 95.2127 78.1614 96.4207 78.1614C97.6287 78.1614 98.4699 78.4419 98.9445 79.0027C99.419 79.5635 99.872 80.3185 100.303 81.2676C101.339 84.0286 103.064 85.4091 105.48 85.4091C106.861 85.4091 108.047 84.9993 109.04 84.1796C110.032 83.3599 110.938 82.4755 111.757 81.5264C112.577 80.5773 113.375 79.693 114.152 78.8733C114.928 78.0536 115.791 77.6438 116.74 77.6438C117.689 77.6438 118.682 77.8163 119.717 78.1614C120.752 78.5066 121.701 78.6791 122.564 78.6791C123.513 78.6791 124.031 77.5143 124.117 75.1847C124.204 73.9768 124.204 72.812 124.117 71.6903C124.031 70.5686 123.988 69.4901 123.988 68.4547C123.988 67.6782 124.333 66.8154 125.023 65.8663C125.714 64.9172 126.792 64.4426 128.259 64.4426C129.467 64.4426 130.416 64.7662 131.106 65.4133C131.797 66.0604 132.336 66.8801 132.724 67.8723C133.112 68.8646 133.371 69.8999 133.501 70.9785C133.63 72.057 133.695 72.9845 133.695 73.7611C133.695 74.969 133.522 76.3927 133.177 78.032C132.832 79.6714 132.314 81.2676 131.624 82.8207C130.934 84.3738 130.071 85.6896 129.035 86.7681C128 87.8466 126.749 88.3859 125.282 88.3859C124.161 88.3859 123.017 88.2349 121.852 87.9329C120.688 87.6309 119.89 87.4799 119.458 87.4799C118.94 87.4799 118.293 87.9329 117.517 88.8388C116.74 89.7448 115.77 90.7371 114.605 91.8156C113.44 92.8941 112.038 93.8864 110.398 94.7923C108.759 95.6983 106.731 96.1513 104.316 96.1513ZM59.1467 71.9491C57.1622 71.9491 54.7031 72.3806 51.7695 73.2434C48.8359 74.1062 46.0101 75.2494 43.2922 76.6731C40.5743 78.0967 38.2447 79.693 36.3034 81.4617C34.362 83.2305 33.3913 85.064 33.3913 86.9622V87.0916C34.8581 86.4014 36.3681 85.7758 37.9212 85.215C39.4743 84.6542 41.1136 84.3738 42.8393 84.3738C46.4631 84.3738 49.1379 85.2581 50.8635 87.0269C52.5892 88.7957 53.452 91.0606 53.452 93.8217C53.452 97.4455 52.2225 100.099 49.7634 101.781C47.3044 103.464 44.4355 104.305 41.1568 104.305C38.6546 104.305 36.4328 103.852 34.4914 102.946C32.5501 102.04 30.846 100.854 29.3792 99.3868C28.0849 100.077 26.726 100.616 25.3023 101.005C23.8787 101.393 22.3472 101.587 20.7078 101.587C18.8096 101.587 17.6663 101.091 17.2781 100.099C16.8898 99.1064 16.6956 97.8769 16.6956 96.4101C16.6956 95.0296 16.8898 93.7785 17.2781 92.6568C17.6663 91.5352 18.8096 90.9743 20.7078 90.9743C22.2609 90.9743 23.5982 90.8018 24.7199 90.4566C24.5474 89.8527 24.4611 89.2703 24.4611 88.7094C24.4611 88.1486 24.4611 87.5662 24.4611 86.9622C24.4611 84.46 25.1514 82.0873 26.5319 79.8439C27.9124 77.6006 29.7027 75.5083 31.9029 73.5669C34.1031 71.6256 36.5838 69.8784 39.3448 68.3253C42.1058 66.7722 44.8453 65.4564 47.5632 64.3779C50.2811 63.2994 52.8696 62.4581 55.3286 61.8541C57.7877 61.2502 59.7938 60.9482 61.3469 60.9482C65.4884 60.9482 68.4652 62.0483 70.2771 64.2485C72.089 66.4487 72.995 70.4392 72.995 76.2201C73.0813 80.8793 73.8147 84.1149 75.1952 85.9268C76.5757 87.7388 78.5171 88.6447 81.0193 88.6447V99.2574C77.6543 99.2574 74.8932 98.6534 72.7362 97.4455C70.5791 96.2375 68.8966 94.6198 67.6886 92.5921C66.4807 90.5645 65.6394 88.2133 65.1648 85.5386C64.6903 82.8638 64.453 80.0165 64.453 76.9966C64.453 75.1847 63.9785 73.8905 63.0294 73.114C62.0803 72.3374 60.786 71.9491 59.1467 71.9491ZM41.8039 92.6568C41.1136 92.6568 40.4018 92.8294 39.6684 93.1745C38.935 93.5197 38.1369 93.9511 37.274 94.4688C38.7408 95.6767 40.2939 96.2807 41.9333 96.2807C42.3647 96.2807 42.7745 96.1297 43.1628 95.8277C43.5511 95.5257 43.7452 95.1159 43.7452 94.5982C43.7452 93.9942 43.5511 93.5197 43.1628 93.1745C42.7745 92.8294 42.3215 92.6568 41.8039 92.6568ZM20.8372 101.587C14.1072 101.587 8.95179 99.7751 5.37107 96.1513C1.79034 92.5274 0 86.7897 0 78.938C0 75.1416 0.17256 71.4962 0.51769 68.0017C0.862821 64.5073 1.35895 61.4443 2.00607 58.8127C2.65319 56.1811 3.47285 54.0888 4.4651 52.5357C5.45735 50.9826 6.60062 50.2061 7.89486 50.2061C9.87936 50.2061 11.2167 50.7237 11.907 51.7591C12.5973 52.7945 12.9424 54.2182 12.9424 56.0301C12.9424 57.5832 12.5757 60.3011 11.8423 64.1838C11.1089 68.0665 10.7422 72.6394 10.7422 77.9026C10.7422 82.6481 11.605 86.0131 13.3306 87.9976C15.0563 89.9821 17.5585 90.9743 20.8372 90.9743V101.587Z" fill="#CD6C58"/>
<path d="M254.009 93.1069C257.982 91.2043 260.92 89.4766 262.822 87.9238C264.725 86.371 265.676 84.9371 265.676 83.6221C265.676 83.0625 265.55 82.5589 265.299 82.1112C265.047 81.6636 264.774 81.2579 264.48 80.8942C264.186 80.5304 263.914 80.1807 263.662 79.845C263.41 79.5092 263.284 79.1595 263.284 78.7958C263.284 78.2082 263.459 77.7396 263.809 77.3898C264.158 77.0401 264.613 76.8652 265.173 76.8652C265.536 76.8652 265.963 77.0611 266.453 77.4528C266.942 77.8445 267.404 78.3481 267.838 78.9636C268.271 79.5792 268.642 80.2646 268.95 81.0201C269.258 81.7755 269.412 82.5309 269.412 83.2863C269.412 84.4335 269.104 85.5526 268.488 86.6438C267.873 87.735 266.956 88.7562 265.739 89.7075C264.522 90.6587 263.011 91.5121 261.207 92.2675C259.402 93.0229 257.325 93.6385 254.974 94.1141C254.555 94.198 254.177 94.233 253.841 94.219C253.506 94.205 253.275 94.1491 253.149 94.0511C253.023 93.9532 253.016 93.8273 253.128 93.6734C253.24 93.5195 253.534 93.3307 254.009 93.1069Z" fill="white"/>
<path d="M183.818 59.2026C184.713 59.2026 185.784 59.0417 187.029 58.72C188.274 58.3982 189.533 57.9716 190.806 57.44C192.079 56.9084 193.289 56.2928 194.436 55.5934C195.583 54.8939 196.534 54.1525 197.29 53.3691H196.744C195.625 53.3691 194.793 53.0613 194.247 52.4458C193.702 51.8302 193.429 51.0748 193.429 50.1795C193.429 49.6759 193.534 49.1513 193.744 48.6057C193.953 48.0601 194.247 47.5635 194.625 47.1158C195.003 46.6682 195.429 46.3044 195.905 46.0247C196.381 45.7449 196.898 45.605 197.458 45.605C197.989 45.605 198.507 45.7379 199.011 46.0037C199.514 46.2695 199.955 46.6332 200.333 47.0948C200.71 47.5565 201.011 48.0951 201.235 48.7106C201.459 49.3261 201.571 49.9697 201.571 50.6411C201.571 51.6484 201.291 52.6346 200.731 53.5999C200.172 54.5652 199.437 55.4815 198.528 56.3488C197.619 57.2161 196.583 58.0135 195.422 58.741C194.261 59.4684 193.086 60.0979 191.897 60.6295C190.708 61.1611 189.547 61.5738 188.414 61.8676C187.28 62.1614 186.28 62.3083 185.413 62.3083C184.434 62.3083 183.552 62.0145 182.769 61.4269C181.985 60.8394 181.566 60.1119 181.51 59.2446C181.51 59.0767 181.58 58.9928 181.72 58.9928C181.86 58.9928 182.062 59.0278 182.328 59.0977C182.594 59.1676 183.091 59.2026 183.818 59.2026ZM197.164 50.3054C197.304 50.3054 197.493 50.2984 197.73 50.2844C197.968 50.2704 198.283 50.2215 198.675 50.1375C198.591 49.6339 198.388 49.2282 198.066 48.9205C197.744 48.6127 197.458 48.4588 197.206 48.4588C196.898 48.4588 196.611 48.5917 196.346 48.8575C196.08 49.1233 195.947 49.4101 195.947 49.7178C195.947 50.1095 196.353 50.3054 197.164 50.3054Z" fill="white"/>
<path d="M194.548 77.3228C195.192 77.3228 195.646 77.5326 195.912 77.9523C196.178 78.372 196.311 78.7776 196.311 79.1693C196.311 79.7289 196.122 80.2325 195.744 80.6802C195.367 81.1279 194.884 81.3517 194.296 81.3517C193.681 81.3517 193.1 81.1279 192.555 80.6802C192.009 80.2325 191.736 79.7289 191.736 79.1693C191.764 78.8616 191.876 78.5888 192.072 78.351C192.268 78.1132 192.506 77.9173 192.786 77.7634C193.065 77.6095 193.359 77.4976 193.667 77.4277C193.975 77.3577 194.268 77.3228 194.548 77.3228Z" fill="white"/>
<path d="M259.529 82.3446C259.361 82.3446 259.165 82.3096 258.942 82.2397C258.718 82.1697 258.48 82.0998 258.228 82.0298C257.976 81.9599 257.725 81.8899 257.473 81.82C257.221 81.75 257.011 81.7151 256.843 81.7151C256.591 81.7151 256.361 81.827 256.151 82.0508C255.941 82.2746 255.717 82.5264 255.479 82.8062C255.241 83.086 254.962 83.3378 254.64 83.5616C254.318 83.7855 253.919 83.8974 253.444 83.8974C253.052 83.8974 252.695 83.7925 252.374 83.5826C252.052 83.3728 251.772 83.135 251.534 82.8692C251.296 82.6034 251.108 82.3306 250.968 82.0508C250.828 81.771 250.758 81.5472 250.758 81.3793C250.758 81.2394 250.793 81.0646 250.863 80.8547C250.933 80.6449 251.024 80.449 251.136 80.2672C251.247 80.0853 251.387 79.9314 251.555 79.8055C251.723 79.6796 251.919 79.6167 252.143 79.6167C252.283 79.6167 252.416 79.6796 252.541 79.8055C252.667 79.9314 252.779 80.0783 252.877 80.2462C252.975 80.414 253.08 80.5609 253.192 80.6868C253.304 80.8127 253.43 80.8757 253.57 80.8757C253.738 80.8757 253.912 80.7638 254.094 80.54C254.276 80.3161 254.486 80.0643 254.724 79.7845C254.962 79.5047 255.22 79.2529 255.5 79.0291C255.78 78.8053 256.102 78.6934 256.465 78.6934C256.857 78.6934 257.27 78.7983 257.704 79.0081C258.137 79.218 258.529 79.4698 258.879 79.7635C259.228 80.0573 259.522 80.3861 259.76 80.7498C259.998 81.1135 260.117 81.4353 260.117 81.7151C260.117 82.1347 259.921 82.3446 259.529 82.3446Z" fill="white"/>
<path d="M255.667 67.4282C256.647 67.4282 257.416 67.1694 257.976 66.6517C258.535 66.1341 258.815 65.3717 258.815 64.3645C258.815 63.693 258.955 63.1684 259.235 62.7907C259.514 62.413 259.934 62.2241 260.494 62.2241C261.137 62.2241 261.55 62.4619 261.732 62.9376C261.914 63.4132 262.005 63.9728 262.005 64.6163C262.005 66.5189 261.452 68.0367 260.347 69.1698C259.242 70.303 257.682 70.8695 255.667 70.8695C255.052 70.8695 254.681 70.7087 254.555 70.3869C254.429 70.0651 254.366 69.6665 254.366 69.1908C254.366 68.7152 254.429 68.3025 254.555 67.9528C254.681 67.603 255.052 67.4282 255.667 67.4282ZM226.961 81.5294C228.472 81.4455 230.074 81.2147 231.766 80.8369C233.459 80.4592 235.138 79.9836 236.803 79.41C238.467 78.8365 240.069 78.186 241.608 77.4585C243.147 76.7311 244.539 75.9756 245.784 75.1922C247.029 74.4088 248.057 73.6114 248.868 72.8001C249.68 71.9887 250.197 71.2193 250.421 70.4918C249.386 70.3519 248.547 69.9602 247.903 69.3167C247.26 68.6732 246.938 67.9458 246.938 67.1344C246.938 66.7986 247.015 66.4489 247.169 66.0852C247.323 65.7215 247.54 65.3927 247.819 65.0989C248.099 64.8052 248.428 64.5603 248.806 64.3645C249.183 64.1686 249.61 64.0707 250.086 64.0707C251.009 64.0707 251.827 64.3855 252.541 65.015C253.254 65.6445 253.751 66.4489 254.031 67.4282H255.667V70.8695C255.36 70.8695 255.073 70.8695 254.807 70.8695C254.541 70.8695 254.254 70.8555 253.947 70.8276C253.583 72.0027 252.918 73.1428 251.953 74.248C250.988 75.3531 249.848 76.3883 248.533 77.3536C247.218 78.3189 245.791 79.2002 244.252 79.9976C242.713 80.795 241.202 81.4804 239.719 82.054C238.237 82.6276 236.838 83.0682 235.523 83.376C234.208 83.6838 233.116 83.8377 232.249 83.8377C231.074 83.8377 230.039 83.7048 229.143 83.439C228.248 83.1732 227.437 82.7185 226.709 82.075C226.541 81.9071 226.478 81.7882 226.52 81.7183C226.562 81.6483 226.709 81.5854 226.961 81.5294Z" fill="white"/>
<path d="M281.955 73.3992C281.955 72.6997 282.669 72.35 284.095 72.35C284.935 72.35 285.739 72.294 286.509 72.1821C287.278 72.0702 287.985 71.9443 288.628 71.8044C289.272 71.6645 289.831 71.5386 290.307 71.4267C290.782 71.3147 291.174 71.2588 291.482 71.2588C291.734 71.2588 291.957 71.3147 292.153 71.4267C292.349 71.5386 292.447 71.7344 292.447 72.0142C292.447 72.266 292.195 72.5738 291.692 72.9375C291.188 73.3012 290.538 73.665 289.74 74.0287C288.943 74.3924 288.054 74.7002 287.075 74.952C286.096 75.2038 285.145 75.3297 284.221 75.3297C283.886 75.3297 283.578 75.2597 283.298 75.1198C283.018 74.98 282.78 74.8051 282.585 74.5952C282.389 74.3854 282.235 74.1756 282.123 73.9657C282.011 73.7559 281.955 73.567 281.955 73.3992Z" fill="white"/>
<path d="M167.029 46.3748C167.141 46.2628 167.267 46.1649 167.407 46.081C167.547 45.997 167.729 45.9551 167.952 45.9551C168.372 45.9551 168.68 46.109 168.876 46.4167C169.072 46.7245 169.169 47.0742 169.169 47.4659C169.169 47.9416 169.086 48.3682 168.918 48.746C168.75 49.1237 168.526 49.4804 168.246 49.8161C166.903 51.3829 165.413 52.7819 163.777 54.0129C162.14 55.244 160.524 56.3002 158.929 57.1815C157.334 58.0629 155.831 58.7343 154.418 59.196C153.005 59.6576 151.837 59.8885 150.913 59.8885C149.822 59.8885 149.249 59.7136 149.193 59.3639C149.137 59.0141 149.542 58.6294 150.41 58.2097C151.976 57.4543 153.459 56.6779 154.858 55.8805C156.257 55.0831 157.628 54.2158 158.971 53.2785C160.314 52.3412 161.643 51.306 162.958 50.1729C164.273 49.0397 165.63 47.7737 167.029 46.3748Z" fill="white"/>
<path d="M178.525 53.1735C179.477 53.1735 180.463 53.0266 181.484 52.7328C182.505 52.439 183.443 52.0753 184.296 51.6417C185.149 51.208 185.849 50.7463 186.395 50.2567C186.94 49.7671 187.213 49.3264 187.213 48.9347C187.213 48.627 187.038 48.3821 186.688 48.2003C186.339 48.0184 185.828 47.9275 185.156 47.9275C184.149 47.9275 183.142 48.0814 182.135 48.3891C181.128 48.6969 180.211 49.1096 179.386 49.6272C178.56 50.1448 177.861 50.7393 177.287 51.4108C176.714 52.0823 176.357 52.7678 176.217 53.4673C175.658 53.1595 175.238 52.7538 174.958 52.2502C174.678 51.7466 174.538 51.215 174.538 50.6554C174.958 49.844 175.553 49.0816 176.322 48.3682C177.092 47.6547 177.966 47.0392 178.945 46.5216C179.924 46.004 180.967 45.5913 182.072 45.2835C183.177 44.9757 184.289 44.8219 185.408 44.8219C187.059 44.8219 188.318 45.1576 189.185 45.8291C190.053 46.5006 190.486 47.4239 190.486 48.599C190.486 49.5503 190.13 50.5015 189.416 51.4528C188.703 52.4041 187.779 53.2644 186.646 54.0338C185.513 54.8032 184.233 55.4258 182.806 55.9014C181.379 56.377 179.952 56.6149 178.525 56.6149C177.91 56.6149 177.539 56.454 177.413 56.1322C177.287 55.8105 177.224 55.4118 177.224 54.9361C177.224 54.4605 177.287 54.0478 177.413 53.6981C177.539 53.3484 177.91 53.1735 178.525 53.1735ZM223.557 0.923302C223.557 1.17511 223.487 1.53184 223.348 1.99349C223.208 2.45513 223.033 2.93077 222.823 3.42039C222.613 3.91002 222.375 4.37167 222.109 4.80534C221.844 5.23901 221.585 5.56776 221.333 5.79159C215.905 10.548 210.386 15.2484 204.777 19.8928C199.167 24.5373 193.438 29.1538 187.591 33.7423C186.611 34.5537 185.709 35.2112 184.884 35.7148C184.058 36.2184 183.478 36.4702 183.142 36.4702C182.834 36.4702 182.68 36.3303 182.68 36.0505C182.68 35.7428 182.995 35.2182 183.625 34.4767C184.254 33.7353 185.1 32.9169 186.164 32.0216C189.129 29.4476 192.102 26.9085 195.082 24.4044C198.062 21.9003 201.027 19.3752 203.979 16.8292C206.931 14.2831 209.876 11.6881 212.814 9.04411C215.751 6.40012 218.647 3.63723 221.501 0.755426C221.725 0.531596 221.949 0.349736 222.172 0.209842C222.396 0.0699488 222.62 0 222.844 0C223.096 0 223.278 0.0979241 223.389 0.293775C223.501 0.489626 223.557 0.699472 223.557 0.923302ZM178.567 56.6149C176.385 56.6149 174.713 56.0273 173.552 54.8522C172.391 53.6771 171.811 51.8165 171.811 49.2705C171.811 48.0394 171.867 46.8573 171.978 45.7242C172.09 44.591 172.251 43.5978 172.461 42.7444C172.671 41.8911 172.937 41.2126 173.258 40.709C173.58 40.2054 173.951 39.9536 174.371 39.9536C175.014 39.9536 175.448 40.1214 175.672 40.4572C175.895 40.7929 176.007 41.2546 176.007 41.8421C176.007 42.3457 175.888 43.2271 175.651 44.4861C175.413 45.7452 175.294 47.228 175.294 48.9347C175.294 50.4736 175.574 51.5647 176.133 52.2082C176.693 52.8517 177.504 53.1735 178.567 53.1735V56.6149Z" fill="white"/>
<path d="M298.95 87.3315C297.663 87.3315 296.683 86.7299 296.012 85.5269C295.536 86.1983 294.893 86.8349 294.081 87.4364C293.27 88.0379 292.375 88.3387 291.395 88.3387C290.78 88.3387 290.409 88.1778 290.283 87.8561C290.157 87.5343 290.094 87.1356 290.094 86.66C290.094 86.1844 290.157 85.7717 290.283 85.4219C290.409 85.0722 290.78 84.8973 291.395 84.8973C292.039 84.8973 292.592 84.7225 293.053 84.3727C293.515 84.023 293.927 83.6313 294.291 83.1976C294.655 82.764 294.998 82.3723 295.319 82.0225C295.641 81.6728 295.998 81.4979 296.39 81.4979C296.781 81.4979 297.054 81.5889 297.208 81.7707C297.362 81.9526 297.509 82.1974 297.649 82.5052C297.984 83.4005 298.544 83.8481 299.327 83.8481C299.775 83.8481 300.16 83.7152 300.482 83.4494C300.803 83.1836 301.097 82.8969 301.363 82.5891C301.629 82.2813 301.887 81.9945 302.139 81.7288C302.391 81.463 302.671 81.3301 302.979 81.3301C303.286 81.3301 303.608 81.386 303.944 81.4979C304.28 81.6098 304.587 81.6658 304.867 81.6658C305.175 81.6658 305.343 81.2881 305.371 80.5327C305.399 80.141 305.399 79.7632 305.371 79.3995C305.343 79.0358 305.329 78.6861 305.329 78.3503C305.329 78.0985 305.441 77.8187 305.665 77.511C305.888 77.2032 306.238 77.0493 306.714 77.0493C307.106 77.0493 307.413 77.1542 307.637 77.3641C307.861 77.5739 308.036 77.8397 308.162 78.1615C308.288 78.4832 308.372 78.819 308.414 79.1687C308.455 79.5184 308.476 79.8192 308.476 80.071C308.476 80.4627 308.421 80.9244 308.309 81.456C308.197 81.9876 308.029 82.5052 307.805 83.0088C307.581 83.5124 307.301 83.9391 306.966 84.2888C306.63 84.6385 306.224 84.8134 305.749 84.8134C305.385 84.8134 305.014 84.7644 304.636 84.6665C304.259 84.5686 304 84.5196 303.86 84.5196C303.692 84.5196 303.482 84.6665 303.23 84.9603C302.979 85.2541 302.664 85.5758 302.286 85.9256C301.908 86.2753 301.454 86.597 300.922 86.8908C300.391 87.1846 299.733 87.3315 298.95 87.3315ZM291.395 88.3387C290.444 88.3387 289.619 88.2198 288.919 87.982C288.22 87.7442 287.674 87.3595 287.283 86.8279C286.639 87.8631 285.849 88.6465 284.911 89.1781C283.974 89.7097 283.016 89.9755 282.036 89.9755C281.421 89.9755 281.05 89.8146 280.924 89.4928C280.798 89.1711 280.735 88.7724 280.735 88.2967C280.735 87.8211 280.798 87.4084 280.924 87.0587C281.05 86.709 281.421 86.5341 282.036 86.5341C282.848 86.5341 283.575 86.2473 284.219 85.6737C284.862 85.1002 285.282 84.3238 285.478 83.3445C285.59 82.8409 285.807 82.4702 286.128 82.2324C286.45 81.9945 286.793 81.8756 287.157 81.8756C287.52 81.8756 287.856 82.0015 288.164 82.2534C288.472 82.5052 288.667 82.8549 288.751 83.3026C288.835 83.7782 289.087 84.1629 289.507 84.4567C289.927 84.7504 290.556 84.8973 291.395 84.8973V88.3387ZM253.33 100.635C254.841 100.551 256.443 100.321 258.136 99.9429C259.828 99.5652 261.507 99.0895 263.172 98.516C264.837 97.9424 266.438 97.2919 267.977 96.5644C269.516 95.837 270.908 95.0816 272.153 94.2982C273.398 93.5148 274.426 92.7174 275.238 91.906C276.049 91.0946 276.567 90.3252 276.79 89.5978C275.755 89.4579 274.916 89.0662 274.272 88.4226C273.629 87.7791 273.307 87.0517 273.307 86.2403C273.307 85.9046 273.384 85.5548 273.538 85.1911C273.692 84.8274 273.909 84.4986 274.188 84.2049C274.468 83.9111 274.797 83.6663 275.175 83.4704C275.552 83.2746 275.979 83.1766 276.455 83.1766C277.378 83.1766 278.196 83.4914 278.91 84.1209C279.623 84.7504 280.12 85.5548 280.4 86.5341H282.036V89.9755C281.729 89.9755 281.442 89.9755 281.176 89.9755C280.91 89.9755 280.624 89.9615 280.316 89.9335C279.952 91.1086 279.288 92.2487 278.322 93.3539C277.357 94.4591 276.217 95.4943 274.902 96.4595C273.587 97.4248 272.16 98.3061 270.621 99.1035C269.082 99.9009 267.571 100.586 266.089 101.16C264.606 101.734 263.207 102.174 261.892 102.482C260.577 102.79 259.486 102.944 258.618 102.944C257.443 102.944 256.408 102.811 255.513 102.545C254.617 102.279 253.806 101.824 253.078 101.181C252.911 101.013 252.848 100.894 252.89 100.824C252.932 100.754 253.078 100.691 253.33 100.635Z" fill="white"/>
<path d="M313.975 76.1812C314.311 76.1812 314.605 76.2651 314.857 76.433C315.109 76.6008 315.304 76.9016 315.444 77.3353C315.584 77.7689 315.689 78.3635 315.759 79.1189C315.829 79.8743 315.864 80.8396 315.864 82.0147C315.864 83.9452 315.801 85.6379 315.675 87.0928C315.549 88.5477 315.332 89.8557 315.025 91.0168C314.717 92.178 314.304 93.2342 313.787 94.1854C313.269 95.1367 312.618 96.06 311.835 96.9553C311.415 97.431 310.933 97.9066 310.387 98.3822C309.842 98.8579 309.289 99.2776 308.729 99.6413C308.17 100.005 307.624 100.299 307.093 100.523C306.561 100.746 306.099 100.858 305.708 100.858C305.344 100.858 305.162 100.732 305.162 100.481C305.19 100.173 305.561 99.7112 306.274 99.0957C306.988 98.4802 307.848 97.5709 308.855 96.3678C309.555 95.5284 310.121 94.696 310.555 93.8707C310.989 93.0453 311.324 92.101 311.562 91.0378C311.8 89.9746 311.961 88.7156 312.045 87.2607C312.129 85.8058 312.157 84.0432 312.129 81.9727C312.101 80.0982 312.178 78.6643 312.36 77.671C312.542 76.6778 313.08 76.1812 313.975 76.1812Z" fill="white"/>
<path d="M233.394 63.826C234.01 63.826 234.436 63.4273 234.674 62.6299C234.912 61.8325 235.031 60.7483 235.031 59.3774C235.031 58.6219 235.024 57.9504 235.01 57.3629C234.996 56.7753 234.989 56.2018 234.989 55.6422C234.989 54.2433 235.576 53.5438 236.751 53.5438C237.423 53.5438 237.864 53.7746 238.074 54.2363C238.283 54.6979 238.388 55.2505 238.388 55.894C238.388 56.5095 238.395 57.188 238.409 57.9295C238.423 58.6709 238.43 59.3634 238.43 60.0069C238.43 60.9022 238.339 61.7835 238.157 62.6509C237.976 63.5182 237.682 64.2946 237.276 64.9801C236.87 65.6656 236.346 66.2181 235.702 66.6378C235.059 67.0575 234.289 67.2673 233.394 67.2673C232.779 67.2673 232.408 67.1065 232.282 66.7847C232.156 66.463 232.093 66.0643 232.093 65.5886C232.093 65.113 232.156 64.7003 232.282 64.3506C232.408 64.0008 232.779 63.826 233.394 63.826ZM277.419 10.9882C277.419 11.24 277.349 11.5968 277.209 12.0584C277.069 12.5201 276.894 12.9957 276.684 13.4853C276.474 13.975 276.237 14.4366 275.971 14.8703C275.705 15.3039 275.446 15.6327 275.194 15.8565C269.767 20.6129 264.248 25.3133 258.638 29.9578C253.028 34.6022 247.3 39.2327 241.452 43.8492C240.473 44.6326 239.57 45.2761 238.745 45.7797C237.92 46.2833 237.339 46.5351 237.003 46.5351C236.696 46.5351 236.542 46.4092 236.542 46.1574C236.542 45.8497 236.856 45.3181 237.486 44.5627C238.115 43.8072 238.962 42.9819 240.025 42.0865C242.991 39.5125 245.964 36.9734 248.943 34.4693C251.923 31.9653 254.889 29.4402 257.841 26.8941C260.792 24.3481 263.737 21.753 266.675 19.109C269.613 16.4651 272.508 13.7022 275.362 10.8204C275.586 10.5965 275.81 10.4147 276.034 10.2748C276.258 10.1349 276.481 10.0649 276.705 10.0649C276.957 10.0649 277.139 10.1629 277.251 10.3587C277.363 10.5546 277.419 10.7644 277.419 10.9882ZM221.055 66.428C221.951 66.428 222.524 65.9104 222.776 64.8752C222.916 64.3156 223.105 63.9169 223.343 63.6791C223.58 63.4413 223.951 63.3224 224.455 63.3224C224.791 63.3224 225.035 63.4133 225.189 63.5951C225.343 63.777 225.476 63.9938 225.588 64.2457C225.868 64.9171 226.301 65.2529 226.889 65.2529C227.616 65.2529 228.12 64.6793 228.4 63.5322C228.512 63.1405 228.673 62.7838 228.882 62.462C229.092 62.1403 229.421 61.9794 229.869 61.9794C230.288 61.9794 230.582 62.0773 230.75 62.2732C230.918 62.469 231.086 62.6788 231.254 62.9027C231.422 63.1265 231.652 63.3363 231.946 63.5322C232.24 63.728 232.723 63.826 233.394 63.826V67.2673C232.751 67.2673 232.17 67.1904 231.652 67.0365C231.135 66.8826 230.708 66.6098 230.372 66.2181C229.393 67.8689 228.162 68.6943 226.679 68.6943C225.868 68.6943 225.21 68.4145 224.707 67.8549C224.203 68.5823 223.636 69.0999 223.007 69.4077C222.377 69.7155 221.643 69.8694 220.804 69.8694C219.573 69.8694 218.649 69.3098 218.034 68.1906C217.502 69.086 216.845 69.7714 216.061 70.2471C215.278 70.7227 214.48 70.9605 213.669 70.9605C213.053 70.9605 212.683 70.7997 212.557 70.4779C212.431 70.1561 212.368 69.7574 212.368 69.2818C212.368 68.8062 212.431 68.3935 212.557 68.0438C212.683 67.694 213.053 67.5192 213.669 67.5192C214.34 67.5192 214.893 67.3443 215.327 66.9946C215.76 66.6448 216.131 66.2601 216.439 65.8404C216.747 65.4208 217.04 65.036 217.32 64.6863C217.6 64.3366 217.936 64.1617 218.327 64.1617C218.663 64.1617 218.922 64.2177 219.104 64.3296C219.286 64.4415 219.461 64.7073 219.628 65.127C219.964 65.9943 220.44 66.428 221.055 66.428ZM209.094 67.3933C209.094 67.0855 209.115 66.8197 209.157 66.5959C209.199 66.372 209.22 66.1482 209.22 65.9244C209.22 65.5886 208.996 65.4208 208.549 65.4208C207.821 65.4208 206.8 65.7215 205.485 66.3231C204.17 66.9246 202.561 67.5821 200.659 68.2956C198.756 69.009 196.567 69.6665 194.091 70.2681C191.615 70.8696 188.866 71.1704 185.844 71.1704C182.039 71.1704 179.01 70.6388 176.758 69.5756C174.506 68.5124 172.988 66.7917 172.204 64.4135C172.064 64.0498 172.029 63.735 172.099 63.4692C172.169 63.2034 172.274 63.0006 172.414 62.8607C172.554 62.7208 172.708 62.6509 172.876 62.6509C173.044 62.6509 173.17 62.7068 173.254 62.8187C174.373 64.5254 175.905 65.7285 177.849 66.428C179.794 67.1275 182.361 67.4772 185.55 67.4772C187.649 67.4772 189.579 67.3303 191.342 67.0365C193.105 66.7427 194.727 66.379 196.21 65.9454C197.693 65.5117 199.05 65.036 200.281 64.5184C201.512 64.0008 202.666 63.5252 203.743 63.0915C204.821 62.6579 205.821 62.2941 206.744 62.0004C207.668 61.7066 208.563 61.5597 209.43 61.5597C210.242 61.5597 210.836 61.7346 211.214 62.0843C211.592 62.434 211.78 62.9167 211.78 63.5322C211.78 64.0918 211.724 64.5254 211.613 64.8332C211.501 65.141 211.445 65.4907 211.445 65.8824C211.445 66.386 211.613 66.7847 211.948 67.0785C212.284 67.3723 212.858 67.5192 213.669 67.5192V70.9605C212.13 70.9605 210.983 70.6458 210.228 70.0163C209.472 69.3867 209.094 68.5124 209.094 67.3933Z" fill="white"/>
</svg>
