<svg width="391" height="176" viewBox="0 0 391 176" fill="none" xmlns="http://www.w3.org/2000/svg">
<path d="M307.506 59.3892C308.358 59.3892 308.983 59.7089 309.379 60.3485C309.774 60.9881 309.972 61.6124 309.972 62.2216C309.972 63.0743 309.683 63.8662 309.104 64.5971C308.526 65.3281 307.81 65.6935 306.957 65.6935C305.922 65.6935 304.962 65.3281 304.079 64.5971C303.196 63.8662 302.754 63.0743 302.754 62.2216C302.876 61.247 303.47 60.5313 304.536 60.0744C305.602 59.6176 306.592 59.3892 307.506 59.3892Z" fill="white"/>
<path d="M384.956 101.297C385.808 101.297 386.433 101.616 386.829 102.256C387.225 102.896 387.423 103.52 387.423 104.129C387.423 104.982 387.133 105.774 386.555 106.505C385.976 107.236 385.26 107.601 384.408 107.601C383.372 107.601 382.413 107.236 381.529 106.505C380.646 105.774 380.205 104.982 380.205 104.129C380.326 103.154 380.92 102.439 381.986 101.982C383.052 101.525 384.042 101.297 384.956 101.297Z" fill="white"/>
<path d="M224.573 48.0597C224.573 51.7144 225.761 54.5925 228.137 56.694C230.512 58.7954 233.863 59.8462 238.187 59.8462C241.781 59.8462 245.375 59.3436 248.969 58.3386C252.562 57.3336 255.806 56.0544 258.699 54.5011C261.593 52.9479 263.938 51.2576 265.735 49.4302C267.532 47.6029 268.43 45.8364 268.43 44.1309C268.43 42.9127 267.912 42.1056 266.877 41.7096C265.841 41.3137 264.471 41.1157 262.765 41.1157C260.816 41.1157 258.578 41.1767 256.05 41.2985C253.522 41.4203 251.07 41.4812 248.695 41.4812C246.745 41.4812 245.344 41.1614 244.492 40.5219C243.639 39.8823 243.212 38.9534 243.212 37.7351C243.212 36.7605 243.913 35.4814 245.314 33.8977C246.715 32.314 248.497 30.6084 250.659 28.7811C252.821 26.9537 255.197 25.1264 257.786 23.299C260.374 21.4716 262.872 19.8118 265.278 18.3195C267.684 16.8271 269.846 15.6089 271.765 14.6647C273.684 13.7206 275.039 13.2485 275.831 13.2485C277.354 13.2485 278.115 13.9186 278.115 15.2586C278.115 15.7459 277.917 16.416 277.521 17.2687C277.125 18.1215 276.638 18.959 276.059 19.7813C275.481 20.6037 274.887 21.3194 274.278 21.9285C273.668 22.5376 273.181 22.8422 272.816 22.8422C272.511 22.8422 272.328 22.7508 272.267 22.5681C272.207 22.3853 272.161 22.1874 272.13 21.9742C272.1 21.761 272.039 21.563 271.948 21.3803C271.856 21.1975 271.658 21.1062 271.354 21.1062C270.623 21.1062 269.526 21.4564 268.065 22.1569C266.603 22.8574 264.989 23.7406 263.222 24.8066C261.456 25.8725 259.628 27.0451 257.74 28.3242C255.852 29.6034 254.146 30.8216 252.623 31.979C251.101 33.1363 249.852 34.187 248.877 35.1312C247.903 36.0753 247.415 36.6996 247.415 37.0042C247.415 37.3088 247.69 37.4763 248.238 37.5067C248.786 37.5372 249.578 37.5524 250.613 37.5524C252.562 37.5524 254.542 37.4915 256.552 37.3697C258.562 37.2478 260.755 37.1869 263.131 37.1869C266.054 37.1869 268.278 37.7351 269.801 38.8316C271.323 39.928 272.085 41.6335 272.085 43.9482C272.085 46.6283 271.11 49.2475 269.161 51.8058C267.212 54.3641 264.623 56.6483 261.395 58.6584C258.166 60.6685 254.496 62.2979 250.385 63.5466C246.273 64.7953 242.025 65.4196 237.639 65.4196C231.304 65.4196 226.614 63.8207 223.568 60.6228C220.523 57.4249 219 53.1763 219 47.877C219 45.3187 219.548 42.5776 220.645 39.6539C221.741 36.7301 223.264 33.8215 225.213 30.9282C227.162 28.0349 229.477 25.233 232.157 22.5224C234.837 19.8118 237.761 17.3601 240.928 15.1673C242.573 14.0099 243.654 13.5074 244.172 13.6597C244.69 13.812 244.431 14.4059 243.395 15.4414C239.984 18.7306 237.091 21.8219 234.715 24.7152C232.34 27.6085 230.391 30.38 228.868 33.0297C227.345 35.6794 226.249 38.2377 225.578 40.7046C224.908 43.1715 224.573 45.6232 224.573 48.0597Z" fill="white"/>
<path d="M293.19 0C293.678 0 294.104 0.167508 294.469 0.502523C294.835 0.837539 295.124 1.43143 295.337 2.2842C295.551 3.13697 295.703 4.29429 295.794 5.75618C295.886 7.21806 295.931 9.10634 295.931 11.421C295.931 15.563 295.794 19.2025 295.52 22.3395C295.246 25.4764 294.789 28.2784 294.15 30.7453C293.51 33.2122 292.657 35.4508 291.591 37.4608C290.525 39.4709 289.17 41.4201 287.525 43.3084C286.673 44.3439 285.683 45.3489 284.556 46.3235C283.429 47.2981 282.317 48.1966 281.221 49.0189C280.125 49.8412 279.104 50.496 278.16 50.9833C277.216 51.4706 276.47 51.7142 275.922 51.7142C275.556 51.7142 275.374 51.5924 275.374 51.3488C275.434 50.8615 276.196 49.963 277.658 48.6534C279.12 47.3438 280.947 45.4099 283.14 42.8516C284.784 40.9633 286.094 39.1207 287.069 37.3238C288.043 35.5269 288.805 33.4863 289.353 31.2021C289.901 28.9179 290.251 26.1921 290.404 23.0247C290.556 19.8573 290.602 15.9589 290.541 11.3296C290.48 8.95406 290.495 7.03533 290.586 5.57344C290.678 4.11156 290.83 2.96946 291.043 2.14715C291.256 1.32483 291.546 0.761398 291.911 0.456838C292.277 0.152279 292.703 0 293.19 0Z" fill="white"/>
<path d="M311.83 34.9029C311.16 34.9029 310.749 34.705 310.597 34.309C310.444 33.9131 310.368 33.3801 310.368 32.7101C310.368 32.0401 310.444 31.5223 310.597 31.1568C310.749 30.7914 311.16 30.365 311.83 29.8777C312.865 29.2686 313.733 28.6747 314.434 28.096C315.134 27.5174 315.683 26.893 316.079 26.223C316.475 25.5529 316.764 24.7915 316.947 23.9388C317.129 23.086 317.221 22.0505 317.221 20.8323C317.221 19.7968 317.388 18.9135 317.723 18.1826C318.058 17.4517 318.622 17.0862 319.414 17.0862C320.51 17.0862 321.21 17.543 321.515 18.4567C321.82 19.3704 321.972 20.345 321.972 21.3805C321.972 23.1469 321.774 24.6545 321.378 25.9032C320.982 27.1519 320.373 28.2635 319.551 29.2381C318.728 30.2127 317.678 31.1416 316.398 32.0248C315.119 32.9081 313.596 33.8674 311.83 34.9029ZM306.348 41.6642C306.104 44.8925 305.114 47.9685 303.378 50.8923C301.642 53.8161 299.419 56.3896 296.709 58.6129C293.998 60.8362 290.937 62.6026 287.526 63.9122C284.115 65.2218 280.582 65.8767 276.927 65.8767C275.161 65.8767 273.669 65.435 272.45 64.5518C271.232 63.6686 270.623 62.7092 270.623 61.6737C270.623 61.3692 270.714 61.2169 270.897 61.2169C271.08 61.2169 271.598 61.2778 272.45 61.3996C273.303 61.5214 274.278 61.5824 275.374 61.5824C276.897 61.5824 278.618 61.3387 280.536 60.8514C282.455 60.3641 284.404 59.6789 286.384 58.7956C288.364 57.9124 290.282 56.8465 292.14 55.5978C293.998 54.3491 295.658 52.9481 297.12 51.3948C298.582 49.8416 299.785 48.1513 300.729 46.3239C301.673 44.4966 302.175 42.5474 302.236 40.4764C302.297 39.5018 302.419 38.6338 302.602 37.8724C302.785 37.111 303.196 36.3496 303.835 35.5882C304.475 34.8268 305.419 34.0045 306.668 33.1213C307.916 32.238 309.637 31.1568 311.83 29.8777V34.9029C310.551 35.6339 309.546 36.2734 308.815 36.8217C308.084 37.3699 307.551 37.8724 307.216 38.3292C306.881 38.7861 306.668 39.2734 306.576 39.7911C306.485 40.3089 306.409 40.9332 306.348 41.6642Z" fill="white"/>
<path d="M388.244 70.0487C388.914 70.0487 389.416 70.2771 389.751 70.734C390.087 71.1908 390.254 71.7543 390.254 72.4243C390.254 74.0689 389.98 75.6831 389.432 77.2668C388.883 78.8505 388.153 80.2667 387.239 81.5154C386.325 82.7641 385.29 83.7691 384.132 84.5305C382.975 85.2919 381.787 85.6726 380.569 85.6726C377.889 85.6726 375.924 84.2717 374.676 81.4697C373.427 78.6678 372.803 74.5867 372.803 69.2264C372.803 63.257 372.985 58.8562 373.351 56.0238C373.716 53.1914 374.508 51.7751 375.727 51.7751C376.457 51.7751 376.96 52.0949 377.234 52.7345C377.508 53.3741 377.645 54.3944 377.645 55.7953C377.645 57.1963 377.569 58.8866 377.417 60.8663C377.265 62.8459 377.188 65.3281 377.188 68.3127C377.188 72.8202 377.447 75.9267 377.965 77.6323C378.483 79.3378 379.442 80.1906 380.843 80.1906C382.122 80.1906 383.188 79.5967 384.041 78.4089C384.894 77.2211 385.655 75.1653 386.325 72.2416C386.63 70.7797 387.269 70.0487 388.244 70.0487Z" fill="white"/>
<path d="M347.433 49.1863C346.763 49.1863 346.352 48.9884 346.2 48.5924C346.047 48.1965 345.971 47.6635 345.971 46.9935C345.971 46.3235 346.047 45.8057 346.2 45.4402C346.352 45.0748 346.763 44.6484 347.433 44.1611C348.347 43.6738 349.199 43.1865 349.991 42.6992C350.783 42.2119 351.514 41.7246 352.184 41.2373C349.565 40.6282 347.509 39.6231 346.017 38.2222C344.524 36.8212 343.778 35.1766 343.778 33.2883C343.778 32.1919 344.068 31.0955 344.646 29.9991C345.225 28.9026 346.017 27.9281 347.022 27.0753C348.027 26.2225 349.199 25.5068 350.54 24.9281C351.88 24.3495 353.281 24.0601 354.742 24.0601C354.925 22.7201 355.321 22.05 355.93 22.05C361.29 22.8419 365.676 23.4663 369.087 23.9231C372.498 24.3799 375.178 24.8825 377.128 25.4307C379.077 25.9789 380.417 26.6794 381.148 27.5321C381.879 28.3849 382.244 29.5727 382.244 31.0955C382.244 32.801 381.468 34.3086 379.914 35.6182C378.361 36.9278 376.397 38.0242 374.021 38.9074C371.645 39.7907 369.042 40.4607 366.209 40.9175C363.377 41.3744 360.681 41.6332 358.123 41.6942C356.844 42.9124 355.321 44.1306 353.555 45.3489C351.788 46.5671 349.748 47.8463 347.433 49.1863ZM363.514 31.735C363.514 33.5015 362.996 35.3289 361.96 37.2171C364.153 37.0344 366.194 36.7298 368.082 36.3034C369.97 35.8771 371.63 35.3745 373.062 34.7959C374.493 34.2172 375.62 33.6081 376.442 32.9685C377.265 32.3289 377.676 31.735 377.676 31.1868C377.676 30.6995 377.402 30.3188 376.853 30.0447C376.305 29.7706 375.407 29.527 374.158 29.3138C372.909 29.1006 371.28 28.857 369.27 28.5829C367.26 28.3088 364.823 27.9585 361.96 27.5321C362.996 28.8722 363.514 30.2732 363.514 31.735ZM347.524 32.3746C347.524 33.8365 348.362 34.9938 350.037 35.8466C351.712 36.6994 353.951 37.1867 356.753 37.3085C358.458 35.4202 359.311 33.6842 359.311 32.1005C359.311 30.6386 358.747 29.5118 357.621 28.7199C356.494 27.9281 355.291 27.5321 354.011 27.5321C353.281 27.5321 352.519 27.6844 351.727 27.989C350.935 28.2935 350.235 28.6742 349.626 29.1311C349.017 29.5879 348.514 30.1057 348.118 30.6843C347.722 31.263 347.524 31.8264 347.524 32.3746ZM336.377 58.049C336.377 55.7344 337.352 53.3436 339.301 50.8766C341.25 48.4097 343.961 46.1712 347.433 44.1611V49.1863C345.667 50.2218 344.281 51.4248 343.276 52.7954C342.271 54.1659 341.768 55.643 341.768 57.2267C341.768 59.6023 342.514 61.2926 344.007 62.2976C345.499 63.3027 347.585 63.8661 350.265 63.9879C352.397 64.0488 354.133 64.46 355.473 65.2214C356.813 65.9828 357.483 67.0031 357.483 68.2822C357.483 69.135 357.164 69.7898 356.524 70.2466C355.885 70.7035 355.047 70.9319 354.011 70.9319C352.489 70.9319 351.027 70.7339 349.626 70.338C348.225 69.9421 346.763 69.7441 345.24 69.7441C342.499 69.7441 339.728 70.2314 336.926 71.206C334.124 72.1806 331.352 73.3836 328.611 74.815C325.87 76.2465 323.175 77.8149 320.525 79.5205C317.875 81.226 315.271 82.7945 312.713 84.2259C310.155 85.6574 307.688 86.8604 305.312 87.835C302.937 88.8095 300.653 89.2968 298.46 89.2968C297.302 89.2968 296.206 89.1141 295.171 88.7486C294.135 88.3832 293.206 87.8502 292.384 87.1497C291.562 86.4492 290.907 85.566 290.419 84.5C289.932 83.4341 289.688 82.2006 289.688 80.7996C289.688 80.3732 289.734 80.0078 289.826 79.7032C289.917 79.3986 290.054 79.2464 290.237 79.2464C290.419 79.2464 290.663 79.5052 290.968 80.023C291.272 80.5407 291.699 81.1194 292.247 81.759C292.795 82.3986 293.526 82.9772 294.44 83.495C295.353 84.0127 296.511 84.2716 297.912 84.2716C299.8 84.2716 301.749 83.8757 303.759 83.0838C305.769 82.292 307.825 81.2869 309.926 80.0687C312.028 78.8504 314.19 77.4799 316.414 75.9571C318.637 74.4343 320.952 72.942 323.358 71.4801C325.764 70.0182 328.246 68.6934 330.804 67.5056C333.362 66.3178 336.042 65.3889 338.844 64.7189C337.809 63.6225 337.139 62.4956 336.834 61.3383C336.53 60.1809 336.377 59.0845 336.377 58.049Z" fill="white"/>
<path d="M80.7583 56.599C80.7583 56.0458 81.6634 55.7692 83.4737 55.7692C85.0325 55.7692 86.516 55.6687 87.924 55.4675C89.332 55.2664 90.6268 55.0401 91.8085 54.7887C92.9902 54.5372 93.9959 54.311 94.8257 54.1098C95.6554 53.9087 96.2965 53.8081 96.7491 53.8081C97.1514 53.8081 97.3525 53.9087 97.3525 54.1098C97.3525 54.4618 96.9251 54.927 96.0702 55.5052C95.2154 56.0835 94.1342 56.6367 92.8268 57.1647C91.5194 57.6927 90.0611 58.1452 88.452 58.5224C86.8428 58.8995 85.2589 59.0881 83.7 59.0881C82.8451 59.0881 82.1411 58.7738 81.588 58.1452C81.0348 57.5167 80.7583 57.0012 80.7583 56.599Z" fill="#CD6C58"/>
<path d="M93.0537 97.7069C93.0537 97.1537 93.9588 96.8772 95.7691 96.8772C97.328 96.8772 98.8114 96.7766 100.219 96.5754C101.627 96.3743 102.922 96.148 104.104 95.8966C105.286 95.6452 106.291 95.4189 107.121 95.2177C107.951 95.0166 108.592 94.916 109.045 94.916C109.447 94.916 109.648 95.0166 109.648 95.2177C109.648 95.5697 109.221 96.0349 108.366 96.6132C107.511 97.1914 106.43 97.7446 105.122 98.2726C103.815 98.8006 102.357 99.2531 100.747 99.6303C99.1383 100.007 97.5543 100.196 95.9954 100.196C95.1406 100.196 94.4365 99.8817 93.8834 99.2531C93.3302 98.6246 93.0537 98.1091 93.0537 97.7069Z" fill="#CD6C58"/>
<path d="M119.453 97.4053C120.157 97.4053 120.672 97.6693 120.999 98.1973C121.326 98.7253 121.49 99.2407 121.49 99.7436C121.49 100.448 121.251 101.101 120.773 101.705C120.295 102.308 119.704 102.61 119 102.61C118.146 102.61 117.354 102.308 116.625 101.705C115.895 101.101 115.531 100.448 115.531 99.7436C115.631 98.939 116.122 98.3481 117.002 97.971C117.882 97.5938 118.699 97.4053 119.453 97.4053Z" fill="#CD6C58"/>
<path d="M137.531 93.8602C137.33 93.8602 137.04 93.7973 136.663 93.6716C136.286 93.5459 135.884 93.4202 135.456 93.2945C135.029 93.1687 134.602 93.043 134.174 92.9173C133.747 92.7916 133.382 92.7287 133.08 92.7287C132.628 92.7287 132.213 92.9299 131.836 93.3322C131.459 93.7345 131.069 94.187 130.667 94.6899C130.264 95.1927 129.812 95.6453 129.309 96.0476C128.806 96.4499 128.203 96.651 127.499 96.651C126.946 96.651 126.443 96.5127 125.99 96.2362C125.538 95.9596 125.135 95.6202 124.783 95.2179C124.431 94.8156 124.155 94.4133 123.954 94.011C123.752 93.6087 123.652 93.2819 123.652 93.0305C123.652 92.7287 123.79 92.339 124.067 91.8613C124.343 91.3836 124.758 91.1448 125.311 91.1448C125.512 91.1448 125.714 91.2579 125.915 91.4842C126.116 91.7105 126.304 91.9619 126.48 92.2385C126.656 92.515 126.845 92.7665 127.046 92.9927C127.247 93.219 127.474 93.3322 127.725 93.3322C128.077 93.3322 128.416 93.1185 128.743 92.691C129.07 92.2636 129.422 91.811 129.799 91.3333C130.176 90.8556 130.579 90.403 131.006 89.9756C131.434 89.5482 131.899 89.3345 132.402 89.3345C133.005 89.3345 133.634 89.4728 134.287 89.7493C134.941 90.0259 135.544 90.3779 136.098 90.8053C136.651 91.2328 137.103 91.6853 137.455 92.163C137.807 92.6407 137.983 93.0556 137.983 93.4076C137.983 93.7093 137.832 93.8602 137.531 93.8602Z" fill="#CD6C58"/>
<path d="M239.661 154.127C239.459 154.127 239.17 154.064 238.793 153.939C238.416 153.813 238.014 153.687 237.586 153.562C237.159 153.436 236.731 153.31 236.304 153.184C235.877 153.059 235.512 152.996 235.21 152.996C234.758 152.996 234.343 153.197 233.966 153.599C233.589 154.002 233.199 154.454 232.797 154.957C232.394 155.46 231.942 155.912 231.439 156.315C230.936 156.717 230.333 156.918 229.629 156.918C229.075 156.918 228.573 156.78 228.12 156.503C227.667 156.227 227.265 155.887 226.913 155.485C226.561 155.083 226.285 154.68 226.083 154.278C225.882 153.876 225.782 153.549 225.782 153.298C225.782 152.996 225.92 152.606 226.197 152.128C226.473 151.651 226.888 151.412 227.441 151.412C227.642 151.412 227.843 151.525 228.045 151.751C228.246 151.978 228.434 152.229 228.61 152.506C228.786 152.782 228.975 153.034 229.176 153.26C229.377 153.486 229.603 153.599 229.855 153.599C230.207 153.599 230.546 153.386 230.873 152.958C231.2 152.531 231.552 152.078 231.929 151.6C232.306 151.123 232.709 150.67 233.136 150.243C233.563 149.815 234.029 149.602 234.531 149.602C235.135 149.602 235.763 149.74 236.417 150.016C237.071 150.293 237.674 150.645 238.227 151.072C238.781 151.5 239.233 151.952 239.585 152.43C239.937 152.908 240.113 153.323 240.113 153.675C240.113 153.976 239.962 154.127 239.661 154.127Z" fill="#CD6C58"/>
<path d="M236.115 123.805C236.668 123.805 237.083 123.994 237.36 124.371C237.636 124.748 237.774 125.213 237.774 125.766C237.774 127.124 237.548 128.457 237.096 129.764C236.643 131.071 236.04 132.241 235.285 133.271C234.531 134.302 233.676 135.132 232.721 135.761C231.765 136.389 230.785 136.703 229.779 136.703C227.567 136.703 225.945 135.547 224.914 133.234C223.883 130.921 223.368 127.551 223.368 123.126C223.368 118.198 223.519 114.565 223.82 112.227C224.122 109.889 224.776 108.719 225.781 108.719C226.385 108.719 226.8 108.983 227.026 109.511C227.252 110.039 227.365 110.882 227.365 112.038C227.365 113.195 227.303 114.59 227.177 116.225C227.051 117.859 226.988 119.908 226.988 122.372C226.988 126.093 227.202 128.658 227.629 130.066C228.057 131.474 228.849 132.178 230.005 132.178C231.061 132.178 231.941 131.687 232.645 130.707C233.349 129.726 233.978 128.029 234.531 125.615C234.783 124.409 235.311 123.805 236.115 123.805Z" fill="#CD6C58"/>
<path d="M313.832 120.487C313.832 121.442 313.417 122.297 312.587 123.051C311.758 123.805 310.677 124.434 309.344 124.937C308.011 125.44 306.515 125.829 304.856 126.106C303.197 126.383 301.537 126.521 299.878 126.521C299.325 126.521 298.721 126.458 298.067 126.332C297.414 126.206 297.087 125.741 297.087 124.937C297.087 124.384 297.288 123.919 297.69 123.541C298.093 123.164 298.721 122.976 299.576 122.976C302.09 122.976 304.152 122.8 305.761 122.448C307.37 122.096 308.854 121.367 310.211 120.26C310.966 119.707 311.393 119.267 311.494 118.94C311.594 118.613 311.821 118.45 312.173 118.45C312.474 118.45 312.826 118.689 313.229 119.167C313.631 119.644 313.832 120.084 313.832 120.487Z" fill="#CD6C58"/>
<path d="M319.564 113.17C319.916 113.17 320.206 113.27 320.432 113.471C320.658 113.673 320.91 113.886 321.186 114.113C321.463 114.339 321.815 114.553 322.242 114.754C322.67 114.955 323.26 115.055 324.015 115.055C324.97 115.055 325.8 115.005 326.504 114.905C327.208 114.804 327.874 114.703 328.503 114.603C329.131 114.502 329.76 114.402 330.388 114.301C331.017 114.201 331.759 114.15 332.614 114.15C333.167 114.15 333.607 114.201 333.934 114.301C334.26 114.402 334.424 114.603 334.424 114.905C334.424 115.156 334.009 115.483 333.179 115.885C332.35 116.287 331.331 116.677 330.124 117.054C328.918 117.431 327.648 117.758 326.315 118.035C324.983 118.311 323.839 118.45 322.883 118.45C321.174 118.45 319.904 118.249 319.074 117.846C318.244 117.444 317.83 116.74 317.83 115.734C317.83 115.181 317.968 114.615 318.244 114.037C318.521 113.459 318.961 113.17 319.564 113.17Z" fill="#CD6C58"/>
<path d="M355.016 94.0111C354.815 94.0111 354.526 93.9482 354.149 93.8225C353.771 93.6968 353.369 93.5711 352.942 93.4453C352.514 93.3196 352.087 93.1939 351.659 93.0682C351.232 92.9425 350.867 92.8796 350.566 92.8796C350.113 92.8796 349.698 93.0808 349.321 93.4831C348.944 93.8853 348.554 94.3379 348.152 94.8408C347.75 95.3436 347.297 95.7962 346.794 96.1985C346.291 96.6008 345.688 96.8019 344.984 96.8019C344.431 96.8019 343.928 96.6636 343.475 96.387C343.023 96.1105 342.621 95.771 342.269 95.3688C341.917 94.9665 341.64 94.5642 341.439 94.1619C341.238 93.7596 341.137 93.4328 341.137 93.1813C341.137 92.8796 341.276 92.4899 341.552 92.0122C341.829 91.5345 342.243 91.2956 342.797 91.2956C342.998 91.2956 343.199 91.4088 343.4 91.6351C343.601 91.8613 343.79 92.1128 343.966 92.3893C344.142 92.6659 344.33 92.9173 344.531 93.1436C344.733 93.3699 344.959 93.4831 345.21 93.4831C345.562 93.4831 345.902 93.2693 346.229 92.8419C346.555 92.4145 346.907 91.9619 347.285 91.4842C347.662 91.0065 348.064 90.5539 348.491 90.1265C348.919 89.6991 349.384 89.4854 349.887 89.4854C350.49 89.4854 351.119 89.6236 351.773 89.9002C352.426 90.1768 353.03 90.5288 353.583 90.9562C354.136 91.3836 354.589 91.8362 354.941 92.3139C355.293 92.7916 355.469 93.2065 355.469 93.5585C355.469 93.8602 355.318 94.0111 355.016 94.0111Z" fill="#CD6C58"/>
<path d="M46.3132 7.92227C46.3132 8.72684 46.0869 9.51884 45.6343 10.2983C45.1817 11.0777 44.5783 11.8068 43.824 12.4857C43.0698 13.1645 42.2149 13.768 41.2595 14.296C40.304 14.824 39.3235 15.1885 38.3178 15.3897H39.3738C41.0835 15.3897 43.0823 15.1257 45.3703 14.5977C47.6583 14.0697 49.9337 13.3531 52.1966 12.448C52.5486 12.2971 52.6994 12.3725 52.6491 12.6743C52.5989 12.976 52.448 13.2274 52.1966 13.4285C49.8332 15.1885 47.6206 16.408 45.5589 17.0868C43.4972 17.7657 41.2846 18.1051 38.9212 18.1051C37.9658 18.1051 37.0103 18.0297 36.0549 17.8788C35.0995 17.728 34.2446 17.4765 33.4904 17.1245C32.7361 16.7725 32.1201 16.2823 31.6424 15.6537C31.1646 15.0251 30.9258 14.2331 30.9258 13.2777C30.9258 12.0708 31.3532 10.9143 32.2081 9.80798C33.0629 8.7017 34.0686 7.70856 35.2252 6.82856C36.3818 5.94857 37.5886 5.25714 38.8458 4.75428C40.1029 4.25143 41.1338 4 41.9383 4C43.3463 4 44.4275 4.352 45.1818 5.056C45.936 5.76 46.3132 6.71542 46.3132 7.92227ZM34.4709 13.0514C34.4709 13.7051 34.7098 14.1954 35.1875 14.5223C35.6652 14.8491 36.2309 15.088 36.8846 15.2388C38.8458 13.7805 40.3795 12.448 41.4858 11.2411C42.592 10.0343 43.1452 9.00341 43.1452 8.14856C43.1452 7.44456 42.8183 7.09256 42.1646 7.09256C41.7623 7.09256 41.1338 7.30628 40.2789 7.73371C39.424 8.16113 38.5692 8.67656 37.7143 9.27999C36.8595 9.88341 36.1052 10.5246 35.4515 11.2034C34.7978 11.8823 34.4709 12.4983 34.4709 13.0514Z" fill="#CD6C58"/>
<path d="M132.302 79.1012C146.734 72.5641 153.95 66.7058 153.95 61.5264C153.95 60.4202 153.723 59.4396 153.271 58.5847C152.818 57.7299 152.328 56.963 151.8 56.2842C151.272 55.6053 150.782 54.9893 150.329 54.4362C149.876 53.883 149.65 53.355 149.65 52.8522C149.65 52.0979 149.851 51.4945 150.254 51.0419C150.656 50.5893 151.209 50.363 151.913 50.363C152.466 50.363 153.12 50.6773 153.874 51.3059C154.628 51.9345 155.345 52.7642 156.024 53.795C156.703 54.8259 157.268 55.9699 157.721 57.227C158.174 58.4842 158.4 59.7162 158.4 60.923C158.4 62.8841 157.847 64.795 156.74 66.6556C155.634 68.5161 154.012 70.2761 151.875 71.9355C149.738 73.595 147.111 75.1035 143.993 76.4613C140.875 77.819 137.33 78.9755 133.358 79.931C133.006 80.0315 132.641 80.0818 132.264 80.0818C131.887 80.0818 131.598 80.0567 131.396 80.0064C131.195 79.9561 131.145 79.8555 131.246 79.7047C131.346 79.5538 131.698 79.3527 132.302 79.1012Z" fill="#CD6C58"/>
<path d="M186.559 132.555C187.665 132.555 188.822 132.404 190.029 132.102C189.325 131.599 188.772 131.009 188.369 130.33C187.967 129.651 187.766 128.809 187.766 127.803C187.766 126.898 187.992 125.967 188.445 125.012C188.897 124.057 189.513 123.189 190.293 122.41C191.072 121.63 192.002 120.989 193.084 120.486C194.165 119.983 195.334 119.732 196.591 119.732C196.993 119.732 197.27 119.757 197.421 119.807V118.525C197.421 117.871 197.647 117.57 198.1 117.62C201.871 118.324 205.077 118.953 207.717 119.506C210.357 120.059 212.506 120.65 214.166 121.278C215.825 121.907 217.02 122.661 217.749 123.541C218.478 124.421 218.842 125.49 218.842 126.747C218.842 129.211 217.095 131.059 213.6 132.291C210.105 133.523 205.014 134.139 198.326 134.139C197.823 134.139 197.333 134.139 196.855 134.139C196.377 134.139 195.887 134.089 195.384 133.988C193.926 134.843 192.442 135.509 190.934 135.987C189.425 136.465 187.967 136.703 186.559 136.703C186.006 136.703 185.667 136.502 185.541 136.1C185.415 135.698 185.352 135.22 185.352 134.667C185.352 134.114 185.415 133.623 185.541 133.196C185.667 132.769 186.006 132.555 186.559 132.555ZM202.625 125.012C202.625 125.917 202.374 126.835 201.871 127.765C201.368 128.695 200.689 129.588 199.834 130.443C204.561 130.443 208.308 130.154 211.073 129.575C213.839 128.997 215.222 128.105 215.222 126.898C215.222 125.791 214.09 124.962 211.828 124.409C209.565 123.855 206.221 123.151 201.796 122.297C202.349 123.101 202.625 124.006 202.625 125.012ZM191.085 127.501C191.085 128.859 192.442 129.764 195.158 130.217C196.365 129.513 197.383 128.758 198.213 127.954C199.042 127.149 199.457 126.319 199.457 125.465C199.457 124.911 199.218 124.446 198.741 124.069C198.263 123.692 197.496 123.503 196.44 123.503C195.837 123.503 195.221 123.579 194.592 123.73C193.964 123.881 193.385 124.132 192.857 124.484C192.329 124.836 191.902 125.263 191.575 125.766C191.248 126.269 191.085 126.847 191.085 127.501ZM186.559 136.703C183.24 136.703 180.726 135.735 179.016 133.799C177.307 131.863 176.452 128.758 176.452 124.484C176.452 122.372 176.527 120.373 176.678 118.487C176.829 116.602 177.055 114.942 177.357 113.509C177.659 112.076 178.023 110.932 178.451 110.077C178.878 109.222 179.368 108.795 179.921 108.795C180.625 108.795 181.103 109.009 181.355 109.436C181.606 109.863 181.732 110.429 181.732 111.133C181.732 111.535 181.669 112.139 181.543 112.943C181.417 113.748 181.267 114.716 181.091 115.847C180.915 116.979 180.764 118.223 180.638 119.581C180.512 120.939 180.449 122.372 180.449 123.881C180.449 127.049 180.952 129.286 181.958 130.594C182.964 131.901 184.497 132.555 186.559 132.555V136.703Z" fill="#CD6C58"/>
<path d="M224.123 142.135C225.933 142.135 228.083 141.783 230.572 141.079C233.061 140.375 235.55 139.457 238.039 138.326C240.528 137.194 242.854 135.899 245.016 134.441C247.179 132.983 248.838 131.499 249.995 129.991C249.492 130.041 249.064 130.066 248.712 130.066C248.36 130.066 248.059 130.066 247.807 130.066C246.047 130.066 244.803 129.576 244.073 128.595C243.344 127.615 242.98 126.546 242.98 125.39C242.98 124.635 243.143 123.856 243.47 123.051C243.797 122.247 244.224 121.505 244.752 120.826C245.28 120.147 245.896 119.594 246.6 119.167C247.304 118.739 248.059 118.526 248.863 118.526C249.668 118.526 250.447 118.727 251.201 119.129C251.956 119.531 252.597 120.084 253.125 120.788C253.653 121.492 254.08 122.297 254.407 123.202C254.734 124.107 254.897 125.038 254.897 125.993C254.897 127.602 254.407 129.211 253.427 130.82C252.446 132.43 251.164 133.963 249.58 135.422C247.996 136.88 246.198 138.238 244.187 139.495C242.175 140.752 240.139 141.833 238.077 142.738C236.015 143.643 233.991 144.36 232.005 144.888C230.019 145.416 228.296 145.68 226.838 145.68C225.43 145.68 224.148 145.328 222.991 144.624C221.835 143.92 221.206 143.09 221.105 142.135C221.105 141.934 221.156 141.833 221.256 141.833C221.407 141.833 221.696 141.883 222.124 141.984C222.551 142.084 223.217 142.135 224.123 142.135ZM248.335 125.993C248.687 125.993 249.102 125.968 249.58 125.918C250.057 125.867 250.648 125.792 251.352 125.691C251.201 124.585 250.799 123.743 250.145 123.164C249.492 122.586 248.913 122.297 248.411 122.297C247.807 122.297 247.241 122.574 246.713 123.127C246.185 123.68 245.921 124.258 245.921 124.862C245.921 125.163 246.11 125.427 246.487 125.654C246.864 125.88 247.48 125.993 248.335 125.993Z" fill="#CD6C58"/>
<path d="M273.981 123.428C274.282 123.127 274.609 122.976 274.961 122.976C275.364 122.976 275.653 123.152 275.829 123.504C276.005 123.856 276.093 124.233 276.093 124.635C276.093 125.339 275.967 125.943 275.716 126.446C275.464 126.948 275.137 127.451 274.735 127.954C272.321 130.72 269.669 133.234 266.777 135.497C263.886 137.76 261.032 139.708 258.216 141.343C255.4 142.977 252.76 144.234 250.296 145.114C247.832 145.994 245.846 146.434 244.337 146.434C242.879 146.434 242.163 146.245 242.188 145.868C242.213 145.491 242.728 145.076 243.734 144.624C246.6 143.266 249.316 141.883 251.88 140.475C254.445 139.067 256.934 137.521 259.348 135.836C261.761 134.152 264.162 132.304 266.551 130.292C268.94 128.281 271.416 125.993 273.981 123.428Z" fill="#CD6C58"/>
<path d="M123.375 56.5235C122.822 56.5235 122.483 56.36 122.357 56.0332C122.231 55.7063 122.169 55.2663 122.169 54.7132C122.169 54.1601 122.231 53.7326 122.357 53.4309C122.483 53.1292 122.822 52.7772 123.375 52.3749C124.23 51.8721 124.947 51.3818 125.525 50.9041C126.103 50.4263 126.556 49.9109 126.883 49.3578C127.21 48.8046 127.449 48.1761 127.599 47.4721C127.75 46.7681 127.826 45.9132 127.826 44.9075C127.826 44.0527 127.964 43.3235 128.241 42.7201C128.517 42.1167 128.982 41.8149 129.636 41.8149C130.541 41.8149 131.119 42.1921 131.371 42.9464C131.622 43.7007 131.748 44.5052 131.748 45.3601C131.748 46.8184 131.585 48.0629 131.258 49.0938C130.931 50.1246 130.428 51.0423 129.749 51.8469C129.07 52.6515 128.203 53.4183 127.147 54.1475C126.091 54.8766 124.834 55.6686 123.375 56.5235ZM112.438 61.5772C112.438 60.8229 112.702 60.1189 113.23 59.4652C113.758 58.8115 114.5 58.12 115.455 57.3909C116.411 56.6618 117.567 55.8949 118.925 55.0903C120.283 54.2858 121.766 53.3806 123.375 52.3749V56.5235C121.867 57.5292 120.66 58.296 119.755 58.824C118.85 59.352 118.146 59.7669 117.643 60.0686C117.14 60.3703 116.813 60.5715 116.662 60.672C116.511 60.7726 116.436 60.8732 116.436 60.9737C116.436 61.376 116.662 61.6275 117.115 61.728C117.567 61.8286 118.447 61.8789 119.755 61.8789C122.018 61.8789 124.369 61.8035 126.807 61.6526C129.246 61.5017 131.346 61.4263 133.106 61.4263C134.011 61.4263 134.878 61.6149 135.708 61.992C136.538 62.3692 136.952 63.1612 136.952 64.368C136.952 65.9772 136.135 67.6114 134.501 69.2709C132.867 70.9303 130.805 72.4514 128.316 73.8343C125.827 75.2171 123.086 76.3486 120.094 77.2286C117.102 78.1086 114.223 78.5486 111.458 78.5486C110.905 78.5486 110.565 78.3474 110.439 77.9451C110.314 77.5428 110.251 77.0651 110.251 76.512C110.251 75.9589 110.314 75.4686 110.439 75.0411C110.565 74.6137 110.905 74.4 111.458 74.4C114.173 74.4 116.788 73.9977 119.302 73.1931C121.817 72.3886 124.042 71.4583 125.978 70.4023C127.914 69.3463 129.46 68.3154 130.617 67.3097C131.773 66.304 132.351 65.6 132.351 65.1977C132.351 64.9966 132.175 64.896 131.823 64.896C129.812 64.896 127.863 64.984 125.978 65.16C124.092 65.336 121.766 65.424 119.001 65.424C116.889 65.424 115.267 65.1223 114.135 64.5189C113.004 63.9155 112.438 62.9349 112.438 61.5772ZM111.458 78.5486C108.34 78.5486 106.153 77.5428 104.895 75.5314C103.789 77.4423 102.406 78.9131 100.747 79.944C99.0875 80.9748 97.3777 81.4903 95.6177 81.4903C95.0646 81.4903 94.7252 81.2891 94.5995 80.8868C94.4738 80.4846 94.4109 80.0068 94.4109 79.4537C94.4109 78.9006 94.4738 78.4103 94.5995 77.9828C94.7252 77.5554 95.0646 77.3417 95.6177 77.3417C97.3275 77.3417 98.8737 76.7634 100.257 75.6068C101.639 74.4503 102.532 72.8411 102.934 70.7794C103.085 70.1257 103.337 69.648 103.689 69.3463C104.041 69.0446 104.43 68.9189 104.858 68.9692C105.285 69.0194 105.675 69.208 106.027 69.5349C106.379 69.8617 106.605 70.3017 106.706 70.8549C106.907 71.9109 107.41 72.7657 108.214 73.4194C109.019 74.0731 110.1 74.4 111.458 74.4V78.5486ZM95.6177 81.4903C92.5 81.4903 90.3126 80.4846 89.0555 78.4731C87.9492 80.384 86.5664 81.8548 84.9069 82.8857C83.2475 83.9165 81.5378 84.432 79.7778 84.432C79.2246 84.432 78.8852 84.2308 78.7595 83.8285C78.6338 83.4263 78.5709 82.9485 78.5709 82.3954C78.5709 81.8423 78.6338 81.352 78.7595 80.9245C78.8852 80.4971 79.2246 80.2834 79.7778 80.2834C81.4875 80.2834 83.0338 79.7051 84.4166 78.5486C85.7995 77.392 86.6921 75.7829 87.0943 73.7211C87.2452 73.0674 87.4966 72.5897 87.8486 72.288C88.2006 71.9863 88.5903 71.8606 89.0178 71.9109C89.4452 71.9611 89.8349 72.1497 90.1869 72.4766C90.5389 72.8034 90.7652 73.2434 90.8658 73.7966C91.0669 74.8526 91.5698 75.7074 92.3743 76.3611C93.1789 77.0148 94.26 77.3417 95.6177 77.3417V81.4903ZM79.7778 84.432C76.4589 84.432 73.9447 83.464 72.2349 81.528C70.5252 79.592 69.6704 76.4868 69.6704 72.2126C69.6704 70.1006 69.7458 68.1017 69.8967 66.216C70.0475 64.3303 70.2738 62.6709 70.5756 61.2377C70.8773 59.8046 71.2418 58.6606 71.6693 57.8058C72.0967 56.9509 72.5869 56.5235 73.1401 56.5235C73.8441 56.5235 74.3218 56.7372 74.5732 57.1646C74.8247 57.592 74.9504 58.1578 74.9504 58.8618C74.9504 59.264 74.8875 59.8675 74.7618 60.672C74.6361 61.4766 74.4853 62.4446 74.3093 63.576C74.1333 64.7075 73.9824 65.952 73.8567 67.3097C73.731 68.6674 73.6681 70.1006 73.6681 71.6091C73.6681 74.7771 74.171 77.0148 75.1767 78.3223C76.1824 79.6297 77.7161 80.2834 79.7778 80.2834V84.432Z" fill="#CD6C58"/>
<path d="M166.923 119.908C163.051 119.908 159.657 119.28 156.74 118.022C153.824 116.765 151.36 115.156 149.348 113.195C147.337 111.234 145.828 109.046 144.823 106.633C143.817 104.219 143.314 101.831 143.314 99.4671C143.314 97.5059 143.892 95.5071 145.049 93.4705C146.205 91.434 147.714 89.4603 149.575 87.5494C151.435 85.6385 153.497 83.8534 155.76 82.194C158.022 80.5346 160.248 79.0888 162.435 77.8569C164.622 76.6249 166.659 75.6569 168.545 74.9529C170.43 74.2489 171.926 73.8969 173.033 73.8969C173.636 73.8969 174.013 73.9346 174.164 74.01C174.315 74.0854 174.328 74.1734 174.202 74.274C174.076 74.3746 173.862 74.4877 173.561 74.6134C173.259 74.7391 173.008 74.8523 172.806 74.9529C171.549 75.6066 170.053 76.4489 168.318 77.4797C166.584 78.5106 164.786 79.6797 162.925 80.9871C161.065 82.2946 159.229 83.7151 157.419 85.2488C155.609 86.7825 154 88.3414 152.592 89.9254C151.184 91.5094 150.04 93.0934 149.16 94.6774C148.28 96.2614 147.84 97.7574 147.84 99.1654C147.84 101.428 148.405 103.603 149.537 105.69C150.668 107.777 152.164 109.612 154.025 111.196C155.885 112.78 158.022 114.05 160.436 115.005C162.85 115.961 165.339 116.438 167.904 116.438C171.977 116.438 175.736 115.822 179.18 114.59C182.625 113.358 185.604 111.9 188.118 110.216C190.633 108.531 192.594 106.834 194.002 105.124C195.41 103.414 196.114 102.082 196.114 101.127C196.114 100.121 195.158 99.5425 193.248 99.3917C189.878 99.1402 187.037 98.8511 184.724 98.5242C182.411 98.1974 180.55 97.7448 179.142 97.1665C177.734 96.5882 176.716 95.8591 176.088 94.9791C175.459 94.0991 175.145 92.9802 175.145 91.6225C175.145 90.5162 175.572 89.2968 176.427 87.9643C177.282 86.6317 178.388 85.274 179.746 83.8911C181.104 82.5083 182.625 81.1757 184.309 79.8934C185.994 78.6111 187.678 77.4671 189.363 76.4614C191.048 75.4557 192.632 74.6511 194.115 74.0477C195.598 73.4443 196.843 73.1426 197.849 73.1426C198.754 73.1426 199.307 73.4694 199.508 74.1232C199.709 74.7769 199.722 75.4934 199.546 76.2729C199.37 77.0523 199.081 77.7689 198.678 78.4226C198.276 79.0763 197.924 79.4031 197.622 79.4031C197.321 79.4031 196.906 79.1769 196.378 78.7243C195.85 78.2717 195.385 78.0454 194.982 78.0454C194.58 78.0454 193.901 78.2843 192.946 78.762C191.99 79.2397 190.934 79.8683 189.778 80.6477C188.621 81.4271 187.414 82.2946 186.157 83.25C184.9 84.2054 183.756 85.1734 182.725 86.154C181.694 87.1345 180.852 88.0774 180.198 88.9825C179.545 89.8877 179.218 90.6671 179.218 91.3208C179.218 92.0248 179.482 92.6157 180.01 93.0934C180.538 93.5711 181.393 93.9734 182.574 94.3002C183.756 94.6271 185.315 94.9162 187.251 95.1677C189.187 95.4191 191.563 95.6957 194.379 95.9974C196.089 96.1985 197.472 96.6385 198.528 97.3174C199.583 97.9962 200.112 99.2911 200.112 101.202C200.112 102.66 199.408 104.445 198 106.557C196.592 108.669 194.505 110.718 191.739 112.705C188.973 114.691 185.516 116.388 181.368 117.796C177.219 119.204 172.404 119.908 166.923 119.908Z" fill="#CD6C58"/>
<path d="M342.948 121.241C342.395 121.241 342.055 121.077 341.93 120.75C341.804 120.424 341.741 119.984 341.741 119.43C341.741 118.877 341.804 118.45 341.93 118.148C342.055 117.846 342.395 117.494 342.948 117.092C343.803 116.589 344.519 116.099 345.098 115.621C345.676 115.144 346.128 114.628 346.455 114.075C346.782 113.522 347.021 112.893 347.172 112.189C347.323 111.485 347.398 110.63 347.398 109.625C347.398 108.77 347.536 108.041 347.813 107.437C348.09 106.834 348.555 106.532 349.208 106.532C350.114 106.532 350.692 106.909 350.943 107.664C351.195 108.418 351.32 109.223 351.32 110.077C351.32 111.536 351.157 112.78 350.83 113.811C350.503 114.842 350 115.76 349.322 116.564C348.643 117.369 347.775 118.136 346.719 118.865C345.663 119.594 344.406 120.386 342.948 121.241ZM357.279 128.557C357.279 129.412 356.663 130.418 355.431 131.574C354.199 132.731 352.678 133.913 350.868 135.12C349.058 136.326 347.122 137.521 345.06 138.702C342.998 139.884 341.138 140.953 339.478 141.908C338.925 141.908 338.586 141.745 338.46 141.418C338.334 141.091 338.271 140.651 338.271 140.098C338.271 139.545 338.322 139.105 338.422 138.778C338.523 138.451 338.875 138.112 339.478 137.76C340.534 137.156 341.816 136.414 343.325 135.534C344.834 134.654 346.279 133.8 347.662 132.97C349.045 132.14 350.227 131.386 351.207 130.707C352.188 130.028 352.678 129.588 352.678 129.387C352.678 129.186 352.502 129.085 352.15 129.085C350.139 129.085 348.115 129.173 346.078 129.349C344.042 129.525 341.892 129.613 339.629 129.613C338.07 129.613 336.801 129.525 335.82 129.349C334.839 129.173 334.06 128.934 333.482 128.633C332.903 128.331 332.514 127.979 332.312 127.577C332.111 127.174 332.011 126.722 332.011 126.219C332.011 125.515 332.275 124.836 332.803 124.182C333.331 123.529 334.073 122.837 335.028 122.108C335.983 121.379 337.14 120.612 338.498 119.808C339.855 119.003 341.339 118.098 342.948 117.092V121.241C341.439 122.246 340.22 123.013 339.29 123.541C338.359 124.069 337.655 124.484 337.178 124.786C336.7 125.088 336.373 125.301 336.197 125.427C336.021 125.553 335.933 125.691 335.933 125.842C335.933 126.093 336.21 126.244 336.763 126.294C337.316 126.345 338.397 126.37 340.006 126.37C342.269 126.37 344.632 126.307 347.096 126.181C349.56 126.056 351.673 125.993 353.433 125.993C354.338 125.993 355.205 126.118 356.035 126.37C356.864 126.621 357.279 127.35 357.279 128.557ZM314.738 152.694C314.185 152.694 313.845 152.493 313.719 152.091C313.594 151.689 313.531 151.211 313.531 150.658C313.531 150.105 313.594 149.614 313.719 149.187C313.845 148.76 314.185 148.546 314.738 148.546C316.85 148.546 318.811 148.232 320.621 147.603C322.431 146.974 323.99 146.157 325.298 145.152C322.884 145.001 320.973 144.372 319.565 143.266C318.157 142.16 317.453 140.651 317.453 138.74C317.453 137.684 317.679 136.741 318.132 135.912C318.585 135.082 319.188 134.378 319.942 133.8C320.697 133.221 321.564 132.769 322.545 132.442C323.525 132.115 324.518 131.952 325.524 131.952C327.636 131.952 329.396 132.467 330.804 133.498C332.212 134.529 332.916 136.075 332.916 138.137C332.916 139.092 332.765 140.022 332.463 140.928C334.676 140.324 337.014 139.293 339.478 137.835V141.908C338.02 142.763 336.537 143.429 335.028 143.907C333.519 144.385 331.961 144.724 330.351 144.925C328.742 147.138 326.555 148.986 323.789 150.469C321.023 151.953 318.006 152.694 314.738 152.694ZM328.239 141.606C328.742 140.752 328.994 139.796 328.994 138.74C328.994 137.584 328.604 136.754 327.825 136.251C327.045 135.748 326.153 135.497 325.147 135.497C323.839 135.497 322.859 135.836 322.205 136.515C321.551 137.194 321.225 137.885 321.225 138.589C321.225 139.444 321.727 140.161 322.733 140.739C323.739 141.317 325.398 141.606 327.711 141.606H328.239ZM309.91 153.072C308.553 153.222 307.195 153.298 305.837 153.298C303.775 153.298 302.154 152.757 300.972 151.676C299.79 150.595 299.25 149.099 299.35 147.188C299.401 146.384 299.589 145.592 299.916 144.812C300.243 144.033 300.683 143.341 301.236 142.738C301.789 142.134 302.43 141.644 303.159 141.267C303.889 140.89 304.706 140.701 305.611 140.701C307.421 140.701 309.03 141.443 310.438 142.926C311.846 144.41 312.877 146.283 313.531 148.546H314.738V152.694H314.21V153.222C314.21 156.139 313.468 158.917 311.985 161.557C310.501 164.197 308.515 166.523 306.026 168.534C303.537 170.546 300.695 172.142 297.502 173.324C294.309 174.506 290.978 175.097 287.508 175.097C284.139 175.097 281.046 174.594 278.23 173.588C275.414 172.582 272.988 171.199 270.952 169.439C268.915 167.679 267.331 165.567 266.2 163.104C265.068 160.64 264.502 157.924 264.502 154.957C264.502 152.694 265.018 150.331 266.049 147.867C267.08 145.403 268.576 142.939 270.537 140.475C272.498 138.011 274.874 135.572 277.665 133.158C280.456 130.745 283.586 128.457 287.056 126.294C287.508 125.993 288.061 125.691 288.715 125.389C289.369 125.088 289.897 124.886 290.299 124.786C290.701 124.685 290.89 124.723 290.865 124.899C290.84 125.075 290.399 125.49 289.545 126.144C285.924 128.859 282.819 131.461 280.229 133.95C277.64 136.44 275.515 138.853 273.856 141.192C272.196 143.53 270.977 145.805 270.197 148.018C269.418 150.23 269.028 152.418 269.028 154.58C269.028 156.742 269.518 158.792 270.499 160.728C271.48 162.664 272.825 164.348 274.534 165.781C276.244 167.214 278.218 168.358 280.456 169.213C282.693 170.068 285.094 170.495 287.659 170.495C290.425 170.495 293.153 170.005 295.843 169.025C298.533 168.044 300.909 166.749 302.971 165.14C305.033 163.531 306.705 161.696 307.987 159.634C309.269 157.572 309.91 155.435 309.91 153.222V153.072ZM309.231 148.697C308.879 147.59 308.389 146.622 307.761 145.793C307.132 144.963 306.265 144.548 305.158 144.548C304.655 144.548 304.19 144.774 303.763 145.227C303.335 145.68 303.122 146.182 303.122 146.736C303.071 148.043 304.127 148.697 306.29 148.697H309.231Z" fill="#CD6C58"/>
<path d="M20.5165 44.5049C19.9634 44.5049 19.6239 44.3414 19.4982 44.0146C19.3725 43.6877 19.3097 43.2477 19.3097 42.6946C19.3097 42.1415 19.3725 41.714 19.4982 41.4123C19.6239 41.1106 19.9634 40.7586 20.5165 40.3563C21.6731 39.6523 22.8925 39.0866 24.1748 38.6592C25.4571 38.2317 26.7016 38.018 27.9085 38.018C29.6182 38.018 30.7999 38.546 31.4536 39.602C32.1576 40.7586 32.7862 41.5632 33.3393 42.0157C33.8925 42.4683 34.7222 42.6946 35.8285 42.6946C36.7336 42.6946 37.513 42.4557 38.1668 41.978C38.8205 41.5003 39.4113 40.9597 39.9393 40.3563C40.4673 39.7529 40.945 39.2123 41.3724 38.7346C41.7999 38.2569 42.2399 38.018 42.6924 38.018C43.2959 38.018 43.9496 38.1312 44.6536 38.3575C45.3576 38.5837 46.0113 38.6969 46.6147 38.6969C47.3187 38.6969 47.6959 37.7917 47.7462 35.9815C47.7964 35.2272 47.7964 34.4729 47.7462 33.7186C47.6959 32.9643 47.6707 32.3609 47.6707 31.9083C47.6707 31.5563 47.8216 31.2043 48.1233 30.8523C48.425 30.5003 48.8273 30.3243 49.3301 30.3243C49.7827 30.3243 50.1473 30.4878 50.4239 30.8146C50.7004 31.1415 50.9141 31.5312 51.065 31.9838C51.2159 32.4363 51.3164 32.9266 51.3667 33.4546C51.417 33.9826 51.4421 34.4226 51.4421 34.7746C51.4421 35.378 51.3541 36.1072 51.1781 36.962C51.0021 37.8169 50.7507 38.634 50.4239 39.4135C50.097 40.1929 49.6696 40.8592 49.1416 41.4123C48.6136 41.9655 47.9976 42.242 47.2936 42.242C46.7404 42.242 46.1119 42.1415 45.4079 41.9403C44.7039 41.7392 44.201 41.6386 43.8993 41.6386C43.5473 41.6386 43.145 41.9026 42.6924 42.4306C42.2399 42.9586 41.6867 43.5494 41.033 44.2032C40.3793 44.8569 39.5873 45.4477 38.657 45.9757C37.7268 46.5037 36.6079 46.7677 35.3005 46.7677C33.8422 46.7677 32.6479 46.4283 31.7176 45.7494C30.7873 45.0706 29.8445 44.0272 28.8891 42.6192C28.6376 42.2169 28.0845 42.0157 27.2296 42.0157C26.4753 42.0157 25.4319 42.2797 24.0994 42.8077C22.7668 43.3357 21.5725 43.9014 20.5165 44.5049ZM13.0491 50.0111C13.0491 48.3014 13.6902 46.6169 14.9725 44.9574C16.2548 43.298 18.1028 41.7643 20.5165 40.3563V44.5049C18.0022 45.9632 16.7451 47.7986 16.7451 50.0111C16.7451 50.514 16.7954 50.8911 16.896 51.1426C17.8011 50.7403 18.7062 50.3631 19.6114 50.0111C20.5165 49.6591 21.4719 49.4831 22.4776 49.4831C24.1873 49.4831 25.4445 49.9106 26.2491 50.7654C27.0536 51.6203 27.4559 52.7014 27.4559 54.0088C27.4559 55.7186 26.8651 56.9757 25.6833 57.7803C24.5016 58.5848 23.1062 58.9871 21.4971 58.9871C20.1896 58.9871 19.0079 58.7357 17.952 58.2328C16.896 57.73 16.0159 57.0511 15.3119 56.1963C14.5074 56.5483 13.6777 56.8374 12.8228 57.0637C11.968 57.29 11.0628 57.4031 10.1074 57.4031C9.55425 57.4031 9.21483 57.202 9.08911 56.7997C8.9634 56.3974 8.90055 55.9197 8.90055 55.3666C8.90055 54.8134 8.9634 54.3231 9.08911 53.8957C9.21483 53.4683 9.55425 53.2546 10.1074 53.2546C11.2137 53.2546 12.32 53.0534 13.4262 52.6511C13.1748 51.746 13.0491 50.866 13.0491 50.0111ZM21.8742 53.33C21.4719 53.33 21.0319 53.418 20.5542 53.594C20.0765 53.77 19.5611 53.9837 19.0079 54.2351C19.9634 55.0397 20.9439 55.442 21.9496 55.442C22.2011 55.442 22.4399 55.3666 22.6662 55.2157C22.8925 55.0648 23.0056 54.8386 23.0056 54.5368C23.0056 54.1346 22.8925 53.8328 22.6662 53.6317C22.4399 53.4306 22.1759 53.33 21.8742 53.33ZM10.1074 57.4031C6.78854 57.4031 4.27427 56.4351 2.56456 54.4991C0.854846 52.5631 0 49.458 0 45.1837C0 43.0717 0.0754192 41.0729 0.226276 39.1872C0.377133 37.3015 0.603428 35.642 0.905142 34.2089C1.20686 32.7758 1.57142 31.6318 1.99885 30.7769C2.42627 29.9221 2.91656 29.4946 3.4697 29.4946C4.1737 29.4946 4.65141 29.7083 4.90284 30.1358C5.15426 30.5632 5.27998 31.1289 5.27998 31.8329C5.27998 32.2352 5.21711 32.8386 5.0914 33.6432C4.96569 34.4478 4.81485 35.4158 4.63885 36.5472C4.46285 37.6786 4.31199 38.9232 4.18628 40.2809C4.06056 41.6386 3.99769 43.0717 3.99769 44.5803C3.99769 47.7483 4.50055 49.986 5.50626 51.2934C6.51197 52.6009 8.04568 53.2546 10.1074 53.2546V57.4031Z" fill="#CD6C58"/>
<path d="M47.4948 64.1415C44.6285 64.9964 41.8376 66.1655 39.1222 67.649C36.4068 69.1324 33.9931 70.8044 31.8811 72.6649C29.7691 74.5255 28.072 76.4741 26.7897 78.5106C25.5074 80.5472 24.8662 82.5209 24.8662 84.4318C24.8662 85.89 25.2057 87.2603 25.8845 88.5426C26.5634 89.8249 27.5314 90.9312 28.7885 91.8615C30.0457 92.7917 31.5794 93.5335 33.3897 94.0866C35.1999 94.6397 37.2365 94.9163 39.4994 94.9163C42.1645 94.9163 44.7919 94.4637 47.3816 93.5586C49.9713 92.6535 52.2845 91.346 54.321 89.6363C56.3576 87.9266 57.9919 85.8523 59.2239 83.4135C60.4559 80.9746 61.0719 78.2215 61.0719 75.1541C61.0719 72.3884 61.0467 69.8489 60.9965 67.5358C60.9462 65.2227 60.8959 62.9598 60.8456 60.7473C60.7953 58.5347 60.745 56.2844 60.6947 53.9964C60.6444 51.7084 60.6193 49.2319 60.6193 46.5667C60.6193 45.8124 60.6319 45.0707 60.657 44.3416C60.6821 43.6125 60.7701 42.9587 60.921 42.3805C61.0718 41.8022 61.2981 41.337 61.5999 40.985C61.9016 40.633 62.3038 40.457 62.8067 40.457C63.3096 40.457 63.6993 40.7085 63.9759 41.2113C64.2524 41.7142 64.441 42.3176 64.5416 43.0216C64.6421 43.7256 64.6924 44.4673 64.6924 45.2467C64.6924 46.0262 64.6924 46.6924 64.6924 47.2456C64.793 49.609 64.881 51.809 64.9564 53.8456C65.0319 55.8821 65.0821 57.8936 65.1073 59.8798C65.1324 61.8661 65.145 63.9027 65.145 65.9895C65.145 68.0764 65.145 70.3518 65.145 72.8158C65.145 76.6375 64.4787 80.1701 63.1462 83.4135C61.8136 86.6569 59.9782 89.4478 57.6399 91.786C55.3016 94.1243 52.5107 95.9472 49.2673 97.2546C46.0239 98.562 42.4914 99.2157 38.6696 99.2157C35.9039 99.2157 33.3771 98.8512 31.0891 98.122C28.8011 97.3929 26.8525 96.4123 25.2434 95.1803C23.6343 93.9483 22.3771 92.5026 21.472 90.8432C20.5668 89.1838 20.1143 87.3986 20.1143 85.4878C20.1143 83.4763 20.5166 81.5655 21.3211 79.7552C22.1257 77.9449 23.2194 76.2604 24.6023 74.7015C25.9851 73.1427 27.5691 71.7221 29.3542 70.4398C31.1394 69.1575 33.0251 68.0387 35.0114 67.0832C36.9976 66.1278 39.0216 65.3484 41.0834 64.745C43.1451 64.1415 45.1062 63.7141 46.9668 63.4627C47.6708 63.3621 48.0982 63.3998 48.249 63.5758C48.3999 63.7518 48.1485 63.9404 47.4948 64.1415Z" fill="#CD6C58"/>
</svg>
