<svg xmlns="http://www.w3.org/2000/svg" width="50" height="178" fill="none" viewBox="0 0 50 178">
  <path fill="url(#a)" fill-rule="evenodd" d="M50 140.349a16 16 0 0 1-12.397 15.589L25 158.851l-12.603 2.912A16.001 16.001 0 0 0 0 177.352V.647a16 16 0 0 0 12.397 15.59L25 19.148l12.603 2.913A16 16 0 0 1 50 37.65v102.698Zm-30-78.06v1.45c0 .191.093.303.277.337l5.98 1.32a.074.074 0 0 1 0 .143l-5.98 1.335c-.184.046-.276.158-.276.338v1.45c0 .19.092.303.276.337l7.747 1.938c.185.056.277-.011.277-.202V69.52c0-.19-.092-.303-.277-.337l-6.093-1.219a.073.073 0 0 1-.002-.143l6.095-1.436c.185-.045.277-.163.277-.354v-1.113c0-.18-.092-.287-.277-.32l-6.096-1.47a.074.074 0 0 1 .003-.144l6.093-1.218c.185-.023.277-.135.277-.338v-1.213c0-.18-.092-.248-.277-.203l-7.747 1.94c-.184.055-.276.168-.276.336Zm0 16.097v-3.65c0-.833.223-1.48.668-1.942.445-.45 1.063-.676 1.855-.676h3.255c.803 0 1.422.225 1.856.676.445.462.667 1.11.667 1.943v1.385c0 .834-.222 1.482-.667 1.943-.434.462-1.053.693-1.856.693h-2.066c-.196 0-.293-.101-.293-.304v-4.528c0-.124-.055-.186-.163-.186h-.7c-.792 0-1.188.411-1.188 1.233v3.413c0 .203-.098.305-.293.305h-.814c-.173 0-.26-.102-.26-.305Zm4.525-4.46v3.024c0 .113.055.17.163.17h1.042c.412 0 .71-.097.895-.288.195-.191.293-.501.293-.93v-.929c0-.428-.098-.737-.293-.929-.185-.191-.483-.287-.895-.287h-1.042c-.108 0-.163.056-.163.169Zm-4.524 14.8v3.115c0 1.681.705 2.522 2.115 2.522.543 0 .982-.113 1.319-.339.347-.214.645-.615.895-1.202l.911-1.862c.26-.575.564-.863.912-.863h.179c.184 0 .33.09.439.27.12.181.18.44.18.78v2.471c0 .18.091.271.276.271h.797c.185 0 .277-.09.277-.27v-2.811c0-1.614-.7-2.421-2.1-2.421-.51 0-.922.13-1.236.39-.315.259-.603.676-.863 1.252l-.846 1.845c-.228.53-.56.796-.993.796h-.196c-.488 0-.732-.367-.732-1.1v-2.845c0-.191-.087-.287-.26-.287h-.798c-.184 0-.276.096-.276.287Zm0 11.456v-1.053c0-.189.092-.284.276-.284h7.747c.185 0 .277.095.277.284v1.053c0 .189-.092.283-.277.283h-.585c.575.323.862.98.862 1.837v.552c0 .968-.358 1.659-1.074 2.07a1.8 1.8 0 0 1 .797.819c.185.367.277.762.277 1.185v.535c0 .813-.222 1.431-.667 1.854-.434.434-1.053.651-1.856.651h-5.5c-.185 0-.277-.095-.277-.284v-1.069c0-.189.092-.284.276-.284h5.436c.803 0 1.205-.4 1.205-1.202v-.484c0-.925-.472-1.387-1.416-1.387h-5.225c-.184 0-.276-.1-.276-.3v-1.052c0-.19.092-.284.276-.284h5.436c.803 0 1.205-.401 1.205-1.203v-.584c0-.913-.461-1.37-1.384-1.37h-5.257c-.184 0-.276-.094-.276-.283Zm0 14.038v.652c0 .859.287 1.422.862 1.689v.067h-.586c-.184 0-.276.095-.276.285v1.053c0 .201.092.301.276.301h7.747c.185 0 .277-.1.277-.301v-3.746c0-.825-.222-1.467-.667-1.924-.434-.446-1.053-.669-1.856-.669h-3.255c-.792 0-1.41.223-1.855.669-.445.457-.667 1.099-.667 1.924Zm6.754 2.408h-3.988c-.922 0-1.383-.457-1.383-1.371v-.803c0-.803.402-1.204 1.204-1.204h3.125c.803 0 1.205.401 1.205 1.204v1.99c0 .123-.055.184-.163.184Zm3.095-21.103h1.506c.177 0 .265.091.265.274v1.112c0 .183-.088.274-.265.274H29.85c-.188 0-.282-.091-.282-.274V95.8c0-.183.094-.274.282-.274Zm-9.568 0h7.88c.187 0 .28.091.28.274v1.095c0 .194-.093.291-.28.291h-7.88c-.11 0-.188-.023-.232-.068-.033-.035-.05-.103-.05-.206v-1.095c0-.194.095-.291.282-.291Zm1.124-11.178v-2.1c0-.124.06-.186.181-.186h4.116c.926 0 1.389.463 1.389 1.389v.897c0 .813-.408 1.219-1.223 1.219h-3.24c-.816 0-1.223-.406-1.223-1.219Zm9.934-3.928H20.282c-.188 0-.281.096-.281.288v3.877c0 .835.226 1.484.677 1.947.452.463 1.08.694 1.885.694h3.388c.805 0 1.427-.231 1.868-.694.452-.463.678-1.112.678-1.947v-.745c0-.858-.298-1.495-.893-1.778h3.736c.187 0 .281-.096.281-.288v-1.066c0-.192-.094-.288-.28-.288Z" clip-rule="evenodd"/>
  <defs>
    <linearGradient id="a" x1="0" x2="50" y1="89" y2="89" gradientUnits="userSpaceOnUse">
      <stop stop-color="#fff"/>
      <stop offset="1" stop-color="#DDDCE6"/>
    </linearGradient>
  </defs>
</svg>
