<svg width="169" height="97" viewBox="0 0 169 97" fill="none" xmlns="http://www.w3.org/2000/svg">
<path d="M52.0097 20.228C53.9917 20.228 55.0487 23.6634 55.0487 26.1078C56.8325 25.5793 58.418 24.8526 59.4751 23.267C59.6733 23.0027 60.0696 23.267 59.8715 23.5313C58.8144 25.3811 56.9646 26.0417 55.0487 26.6363C54.9827 29.0807 53.7935 32.7803 51.8116 33.7052C48.5083 35.2247 45.2051 29.1468 52.9347 26.7024C53.0668 24.8526 52.6043 21.0208 50.9527 21.8136C46.2621 24.0598 46.3942 39.585 46.7246 44.9362C46.9888 46.1915 47.3192 47.2485 47.187 48.2395C47.121 48.6359 46.5264 48.768 46.3282 48.5037C45.6015 47.6449 45.3372 46.3236 45.073 45.2666C41.9019 34.1016 43.2231 23.3331 44.2802 21.4172C44.8748 20.3602 46.3943 20.8887 46.4603 22.0118C46.5264 24.1258 45.2051 29.411 45.9979 38.7922C45.9979 35.0265 46.4603 28.354 47.8477 24.8526C48.4423 23.3331 49.8296 20.8226 51.3491 20.3602C51.5473 20.228 51.8116 20.228 52.0097 20.228ZM52.9347 27.363C47.2531 29.411 48.8386 33.1106 50.4242 32.8464C51.6794 32.7143 52.7365 28.9486 52.9347 27.363Z" fill="#CD6C58"/>
<path d="M31.2203 20.7568C33.929 20.8229 35.5806 22.8048 34.7218 24.1922C34.2593 24.985 33.2023 24.7207 32.4095 24.0601C30.6918 22.4745 26.7279 25.6456 25.8691 27.5615C25.5388 28.4203 25.1424 29.6095 25.8691 30.2702C26.8601 31.129 30.3615 28.2221 31.8149 26.4384C31.8149 26.3063 31.7488 26.1741 31.7488 26.042C31.6828 25.1171 33.0041 25.051 33.2683 25.8438C33.5987 26.8348 34.3254 27.6276 35.2503 28.09C36.2413 28.6846 37.4965 28.4864 38.5535 28.1561C41.1961 27.3633 42.9138 24.985 44.6975 23.0691C44.9618 22.8048 45.3582 23.2012 45.0939 23.4655C43.0459 25.6456 41.064 28.5525 38.025 29.4113C35.7127 30.072 32.8059 29.2131 31.947 26.9669C30.8239 28.4203 27.4546 31.7896 25.6709 31.3933C24.1514 31.0629 23.755 28.6846 24.0193 27.033C24.6139 23.9279 27.3225 21.3514 30.1633 20.8229C30.5597 20.7568 30.89 20.7568 31.2203 20.7568Z" fill="#CD6C58"/>
<path d="M18.2814 20.6245C18.6118 20.6245 18.9421 20.6906 19.2724 20.8227C21.6507 22.0779 19.2724 26.0418 16.3656 26.7025C15.1764 31.6573 17.0923 34.1017 20.924 31.1288C23.4345 29.2129 24.954 26.3721 26.4735 23.4653C26.6716 23.201 27.1341 23.4653 26.9359 23.7956C25.5485 26.4382 24.0951 29.2129 21.8489 31.327C19.6027 33.3089 17.0923 34.2999 15.0443 32.1198C11.0804 28.0238 14.9782 20.6245 18.2814 20.6245ZM18.9421 23.135C17.7529 23.7296 17.0262 24.7205 16.6298 25.9758C17.7529 25.5794 18.8099 24.6545 18.9421 23.4653C18.9421 23.3992 18.876 23.201 18.9421 23.135Z" fill="#CD6C58"/>
<path d="M4.44596 0.0123868C5.23874 0.0123868 5.89938 0.606969 5.76725 1.73007C5.70119 2.06039 5.43693 2.25859 5.23873 2.45679C3.58712 10.7149 1.9355 20.2943 3.52105 28.3542C6.62609 44.2757 11.8452 39.9815 16.9983 37.0086C20.1694 35.0928 24.6618 34.4321 27.7668 36.8765C27.965 37.0747 27.7007 37.5372 27.4365 37.405C25.1242 36.6122 22.7459 36.0837 20.3676 36.7444C16.5358 37.8675 13.695 41.9635 9.26868 41.3028C3.91744 40.444 1.01059 31.9216 0.283881 26.0419C-0.508896 19.3694 0.482075 12.3004 1.7373 5.62789C2.53008 1.33368 2.59615 1.00336 2.99253 0.60697C3.38892 0.144519 3.91744 -0.0536771 4.44596 0.0123868Z" fill="#CD6C58"/>
<path d="M74.7512 30.7897C75.7066 30.2164 76.6938 29.5636 77.7129 28.8311C78.732 28.0986 79.6714 27.3502 80.5313 26.5859C81.3911 25.8215 82.0917 25.0891 82.6331 24.3884C83.1745 23.6878 83.4452 23.0827 83.4452 22.5731C83.4452 21.4903 82.4898 20.9489 80.579 20.9489C78.4772 20.9489 76.3913 21.4426 74.3212 22.4298C72.2512 23.4171 70.4201 24.7069 68.8278 26.2992C68.573 26.4903 68.3978 26.6655 68.3023 26.8247C68.2068 26.984 68.0953 27.0636 67.9679 27.0636C67.7132 27.0636 67.4743 26.777 67.2514 26.2037C67.0285 25.6305 66.917 25.1209 66.917 24.675C66.917 24.2292 67.2514 23.5604 67.9202 22.6687C68.5889 21.777 69.5284 20.8852 70.7385 19.9935C71.9487 19.1018 73.4136 18.3375 75.1333 17.7005C76.853 17.0636 78.732 16.7451 80.7701 16.7451C82.5535 16.7451 84.0662 17.2387 85.3082 18.226C86.5502 19.2133 87.1712 20.5349 87.1712 22.191C87.1712 23.3375 86.7891 24.5317 86.0247 25.7738C85.2604 27.0158 84.2891 28.1305 83.1108 29.1177C81.9325 30.105 80.595 30.9171 79.0982 31.554C77.6014 32.191 76.0887 32.5094 74.5601 32.5094C73.9869 32.5094 73.6206 32.382 73.4614 32.1273C73.3022 31.8725 73.7321 31.4266 74.7512 30.7897Z" fill="#050033"/>
<path d="M142.968 59C143.859 59 144.512 59.3344 144.926 60.0031C145.34 60.6718 145.547 61.3246 145.547 61.9615C145.547 62.8531 145.244 63.681 144.639 64.4453C144.034 65.2096 143.286 65.5917 142.394 65.5917C141.312 65.5917 140.309 65.2096 139.385 64.4453C138.462 63.681 138 62.8531 138 61.9615C138.127 60.9425 138.748 60.1941 139.863 59.7165C140.977 59.2388 142.012 59 142.968 59Z" fill="#050033"/>
<path d="M126.533 34.3247C125.832 34.3247 125.418 34.1336 125.291 33.7514C125.164 33.3693 125.1 32.8279 125.1 32.1272C125.1 31.4266 125.164 30.8534 125.291 30.4075C125.418 29.9616 125.832 29.5158 126.533 29.0699C126.724 28.9425 126.899 28.847 127.058 28.7833C127.218 28.7196 127.393 28.6241 127.584 28.4967C126.501 25.9489 125.96 23.5604 125.96 21.3311C125.96 18.9744 126.294 16.6655 126.963 14.4043C127.632 12.1432 128.635 10.1368 129.972 8.38523C131.31 6.63364 132.95 5.23237 134.893 4.18141C136.835 3.13046 139.112 2.60498 141.724 2.60498C144.399 2.60498 146.851 2.82791 149.08 3.27377C151.309 3.71963 153.634 3.94256 156.054 3.94256C158.602 3.94256 160.72 3.62409 162.408 2.98715C164.096 2.35021 165.29 2.03174 165.99 2.03174C166.691 2.03174 167.312 2.36613 167.853 3.03492C168.395 3.70371 168.665 4.35657 168.665 4.99351C168.665 5.75784 168.315 6.33109 167.615 6.71326C164.557 8.433 161.675 10.2324 158.968 12.1113C156.261 13.9903 153.539 15.9489 150.8 17.9871C148.061 20.0253 145.163 22.1432 142.106 24.3406C139.048 26.5381 135.609 28.8151 131.788 31.1718C132.106 31.8088 132.44 32.4139 132.791 32.9871C133.141 33.5604 133.507 34.1018 133.889 34.6113C134.272 35.1209 134.192 35.296 133.651 35.1368C133.109 34.9776 132.679 34.7387 132.361 34.4202C131.405 33.6559 130.641 32.9553 130.068 32.3183C129.495 32.6368 128.905 32.9712 128.3 33.3215C127.695 33.6718 127.106 34.0062 126.533 34.3247ZM129.59 21.7132C129.59 23.6241 129.813 25.3438 130.259 26.8725C132.616 25.4075 134.972 23.8629 137.329 22.2387C139.685 20.6145 141.962 19.0062 144.16 17.4139C146.357 15.8215 148.411 14.2769 150.322 12.7801C152.233 11.2833 153.921 9.92981 155.386 8.71962C152.902 8.65593 150.577 8.44892 148.411 8.09861C146.246 7.74829 143.889 7.57313 141.341 7.57313C139.622 7.57313 138.029 8.00306 136.564 8.86293C135.1 9.72281 133.858 10.8215 132.838 12.1591C131.819 13.4967 131.023 15.0094 130.45 16.6973C129.877 18.3852 129.59 20.0572 129.59 21.7132ZM99.591 57.2546C98.8903 57.2546 98.4604 56.9998 98.3012 56.4903C98.142 55.9807 98.0623 55.3756 98.0623 54.675C98.0623 53.9743 98.142 53.3533 98.3012 52.8119C98.4604 52.2705 98.8903 51.9998 99.591 51.9998C101.884 51.9998 104.145 51.745 106.374 51.2355C104.846 50.5349 103.572 49.6431 102.553 48.5603C101.534 47.4775 101.024 46.1081 101.024 44.4521C101.024 43.0508 101.502 41.7291 102.457 40.4871C103.413 39.2451 104.575 38.1623 105.944 37.2387C107.314 36.3151 108.763 35.5826 110.291 35.0412C111.82 34.4998 113.189 34.2291 114.399 34.2291C115.355 34.2291 116.247 34.4521 117.075 34.8979C117.775 34.1336 118.922 33.4011 120.514 32.7005C122.106 31.9998 124.113 30.9489 126.533 29.5476V34.3247C125.705 34.8342 124.829 35.3279 123.906 35.8056C122.982 36.2833 122.043 36.7451 121.087 37.1909C121.597 37.382 122.265 37.589 123.093 37.8119C123.921 38.0349 124.829 38.226 125.816 38.3852C126.804 38.5444 127.807 38.6877 128.826 38.8151C129.845 38.9425 130.768 39.0381 131.596 39.1017C132.807 39.2291 133.937 39.4043 134.988 39.6272C136.039 39.8502 136.963 40.1527 137.759 40.5349C138.555 40.917 139.176 41.4266 139.622 42.0635C140.068 42.7005 140.29 43.4967 140.29 44.4521C140.29 46.4266 139.574 48.0349 138.141 49.2769C136.708 50.5189 134.972 51.4743 132.934 52.1431C130.896 52.8119 128.698 53.2578 126.342 53.4807C123.985 53.7036 121.915 53.8151 120.132 53.8151C119.367 53.8151 118.476 53.7833 117.457 53.7196C116.438 53.6559 115.355 53.5603 114.208 53.4329C112.234 54.5794 110.021 55.503 107.568 56.2036C105.116 56.9043 102.457 57.2546 99.591 57.2546ZM105.992 44.0699C105.992 44.7068 106.215 45.2482 106.661 45.6941C107.107 46.14 107.696 46.538 108.428 46.8884C109.161 47.2387 110.005 47.5253 110.96 47.7482C111.915 47.9712 112.871 48.1463 113.826 48.2737C115.1 47.4457 116.087 46.554 116.788 45.5986C117.489 44.6431 117.839 43.6559 117.839 42.6368C117.839 41.8088 117.473 40.9967 116.74 40.2005C116.008 39.4043 115.1 39.0062 114.017 39.0062C113.189 39.0062 112.298 39.1336 111.342 39.3884C110.387 39.6432 109.511 40.0094 108.715 40.4871C107.919 40.9648 107.266 41.5062 106.756 42.1113C106.247 42.7164 105.992 43.3693 105.992 44.0699ZM122.138 42.3502C122.138 44.4521 121.342 46.554 119.75 48.6559H121.087C122.68 48.6559 124.351 48.5763 126.103 48.417C127.855 48.2578 129.463 48.003 130.928 47.6527C132.393 47.3024 133.587 46.8565 134.51 46.3151C135.434 45.7737 135.896 45.1527 135.896 44.4521C135.896 44.1336 135.45 43.8151 134.558 43.4966C133.666 43.1782 132.52 42.9552 131.119 42.8279C129.144 42.6368 127.409 42.4457 125.912 42.2546C124.415 42.0635 123.125 41.8406 122.043 41.5858C122.106 41.7769 122.138 42.0317 122.138 42.3502ZM85.7378 55.1527C87.9034 55.1527 89.3683 53.6559 90.1326 50.6622C90.3237 49.9616 90.5944 49.3087 90.9447 48.7036C91.295 48.0986 91.8205 47.796 92.5211 47.796C93.2217 47.796 93.7153 48.0189 94.0019 48.4648C94.2886 48.9107 94.6229 49.3884 95.0051 49.8979C95.3873 50.4075 95.8968 50.8852 96.5337 51.331C97.1706 51.7769 98.1897 51.9998 99.591 51.9998V57.2546C98.1897 57.2546 96.9796 57.0476 95.9605 56.6336C94.9414 56.2196 94.0497 55.5349 93.2854 54.5794C92.2663 56.4266 91.088 57.8756 89.7505 58.9266C88.4129 59.9775 86.9161 60.503 85.2601 60.503C84.1774 60.503 83.2379 60.3119 82.4417 59.9297C81.6456 59.5476 80.9927 59.038 80.4832 58.4011C79.5915 59.9297 78.2858 61.2196 76.5661 62.2705C74.8464 63.3215 72.7127 63.8469 70.165 63.8469C68.9549 63.8469 67.8084 63.7196 66.7256 63.4648C66.0887 68.8151 64.7671 73.5762 62.7608 77.7482C60.7544 81.9202 58.2067 85.4233 55.1177 88.2577C52.0286 91.0921 48.4618 93.2577 44.4173 94.7545C40.3728 96.2514 36.0258 96.9998 31.3763 96.9998C28.0643 96.9998 25.0548 96.5698 22.3478 95.71C19.6409 94.8501 17.3321 93.6558 15.4213 92.1272C13.5105 90.5985 12.0297 88.7832 10.9787 86.6813C9.92781 84.5794 9.40234 82.2864 9.40234 79.8023C9.40234 77.573 10.0074 75.0571 11.2176 72.2546C12.4277 69.452 14.1156 66.5858 16.2811 63.6559C18.4467 60.7259 21.0422 57.8119 24.0675 54.9138C27.0929 52.0157 30.389 49.3565 33.9558 46.9361C35.6755 45.7896 36.6787 45.2801 36.9653 45.4075C37.2519 45.5349 36.822 46.2037 35.6755 47.4138C31.2807 52.0635 27.7617 56.0126 25.1185 59.261C22.4752 62.5094 20.453 65.296 19.0518 67.6208C17.6505 69.9457 16.7429 71.9361 16.3289 73.5921C15.9149 75.2482 15.7079 76.8087 15.7079 78.2737C15.7079 79.9934 16.106 81.6017 16.9021 83.0985C17.6983 84.5953 18.8129 85.917 20.246 87.0635C21.6791 88.21 23.4147 89.1176 25.4529 89.7864C27.491 90.4552 29.784 90.7896 32.3317 90.7896C36.0895 90.7896 39.7041 90.1049 43.1753 88.7354C46.6465 87.366 49.7197 85.4393 52.3948 82.9552C55.0699 80.4711 57.2036 77.5412 58.7959 74.1654C60.3882 70.7896 61.1844 67.0953 61.1844 63.0826C61.1844 61.2992 61.0729 59.9297 60.85 58.9743C60.6271 58.0189 60.5156 57.1272 60.5156 56.2992C60.5156 55.4712 60.6748 54.6909 60.9933 53.9584C61.3118 53.2259 61.9168 52.8597 62.8085 52.8597C63.7639 52.8597 64.4327 53.1622 64.8148 53.7673C65.197 54.3724 65.5951 55.0412 66.0091 55.7737C66.4231 56.5062 66.9645 57.175 67.6332 57.7801C68.302 58.3852 69.3689 58.6877 70.8338 58.6877C72.6809 58.6877 74.1776 58.2259 75.3241 57.3024C76.4706 56.3788 77.203 55.2164 77.5215 53.8151C77.9674 51.8406 78.8909 50.8533 80.2921 50.8533C80.8017 50.8533 81.1838 51.0444 81.4386 51.4266C81.6934 51.8087 81.9481 52.2546 82.2029 52.7642C82.9672 54.3565 84.1455 55.1527 85.7378 55.1527Z" fill="#050033"/>
</svg>
