<svg xmlns="http://www.w3.org/2000/svg" width="39" height="39" fill="none" viewBox="0 0 39 39">
  <path fill="#17214C" d="M28.586 8.363a14.31 14.31 0 0 0-8.675-3.004h-.247c-7.523.064-13.67 5.904-14.214 13.305-.026.354-.038.71-.038 1.07a14.348 14.348 0 0 0 .817 4.785 14.331 14.331 0 0 0 1.556 3.128 14.36 14.36 0 0 0 12 6.46c1.62 0 3.173-.266 4.624-.762l-.927-1.358-4.924-7.21-.16-.232a9.02 9.02 0 0 1-1.498-4.997 9.06 9.06 0 0 1 3.181-6.903l.003.003a5.127 5.127 0 0 0-1.775 3.884 5.144 5.144 0 0 0 3.322 4.809 1.163 1.163 0 0 1 .177.064 1.687 1.687 0 0 1 .75 2.482l.006.003a1.686 1.686 0 0 0 .741 2.5l-.002.003 2.856 1.237.006.003.113.049a1.69 1.69 0 0 0 2.306-1.573V13.535a1.692 1.692 0 0 1 2.79-1.287c.494.368.952.785 1.366 1.245a14.374 14.374 0 0 0-4.154-5.13Z"/>
  <path fill="#CD7F58" d="M19.783.736c-10.477 0-19 8.522-19 19 0 10.477 8.523 19 19 19 10.478 0 19-8.523 19-19 0-10.478-8.525-19-19-19Zm0 35.682c-9.197 0-16.682-7.482-16.682-16.682S10.583 3.053 19.783 3.053s16.683 7.482 16.683 16.683c0 9.2-7.486 16.682-16.683 16.682Z"/>
</svg>
