<svg xmlns:xlink="http://www.w3.org/1999/xlink"  xmlns="http://www.w3.org/2000/svg" width="27" height="26" fill="none" viewBox="0 0 27 26">
  <path fill="#F1F1F1" fill-rule="evenodd" d="M13.53 25.71s4.266-2.941 4.357-5.008c2.2 0 4.915-1.312 5.212-3.364 2.392-1.196 3.588-2.157 3.588-4.489v-.218H.374v.218c0 2.332 1.196 3.293 3.588 4.49.297 2.051 3.013 3.363 5.212 3.363.091 2.067 4.357 5.009 4.357 5.009Zm4.005-21.15h.352c2.2 0 4.018 1.579 4.314 3.63h.13c2.406 0 4.357 1.891 4.357 4.223v.218H.373v-.218c0-2.332 1.95-4.222 4.356-4.222h.13C5.157 6.139 6.975 4.56 9.174 4.56h.352C9.618 2.493 13.531 0 13.531 0s3.913 2.493 4.004 4.56Z" clip-rule="evenodd"/>
  <path fill="#CD6C58" fill-rule="evenodd" d="M15.792 13.897c-.047 1.072-2.261 2.6-2.261 2.6s-2.214-1.527-2.261-2.6c-1.142 0-2.552-.681-2.706-1.746-1.22-.61-1.84-1.102-1.861-2.267-1.217.355-2.102 1.45-2.102 2.744v.295c0 1.583.812 2.236 2.435 3.047.202 1.393 2.045 2.283 3.538 2.283.062 1.403 2.957 3.4 2.957 3.4s2.895-1.997 2.957-3.4c1.492 0 3.336-.89 3.537-2.283 1.624-.811 2.436-1.464 2.436-3.047v-.295c0-1.295-.886-2.389-2.102-2.744-.021 1.165-.642 1.657-1.862 2.267-.154 1.065-1.564 1.746-2.705 1.746Zm3.616-4.19H7.654h11.753Z" clip-rule="evenodd"/>
  <path fill="#47445F" fill-rule="evenodd" d="M13.53 13.441s1.533-1.057 1.566-1.8c.79 0 1.766-.47 1.873-1.208.86-.43 1.29-.775 1.29-1.613v-.08H8.802v.079c0 .838.43 1.183 1.29 1.613.106.737 1.082 1.209 1.872 1.209.033.742 1.566 1.8 1.566 1.8Zm1.44-7.6h.126c.79 0 1.444.567 1.55 1.305h.047c.864 0 1.565.679 1.565 1.517v.078H8.803v-.078c0-.838.701-1.517 1.565-1.517h.047c.107-.738.76-1.305 1.55-1.305h.127c.033-.743 1.439-1.638 1.439-1.638s1.406.895 1.439 1.638Z" clip-rule="evenodd"/>
</svg>
