<svg xmlns:xlink="http://www.w3.org/1999/xlink" class="story-wbs-badge__icon" xmlns="http://www.w3.org/2000/svg" width="155" height="36" fill="none" viewBox="0 0 155 36">
						<path fill="#FFFFFF" d="M29.135 0a16 16 0 0 0-13.857 8.002l-1.152 1.996A16 16 0 0 1 .268 18a16 16 0 0 1 13.858 8.002l1.152 1.996A16 16 0 0 0 29.135 36h96.73a16 16 0 0 0 13.858-8.002l1.152-1.996A15.998 15.998 0 0 1 154.732 18c-5.717 0-11-3.05-13.857-8.002l-1.152-1.996A16.001 16.001 0 0 0 125.865 0h-96.73Z"></path>
					</svg>