<svg xmlns="http://www.w3.org/2000/svg" width="356" height="119" fill="none" viewBox="0 0 356 119">
  <path fill="#fff" d="M38.318 86.04c.28 0 .51.08.69.24.18.16.38.33.6.51.22.18.5.35.84.51.34.16.81.24 1.41.24.76 0 1.42-.04 1.98-.12.56-.08 1.09-.16 1.59-.24l1.5-.24c.5-.08 1.09-.12 1.77-.12.44 0 .79.04 1.05.12.26.08.39.24.39.48 0 .2-.33.46-.99.78-.66.32-1.47.63-2.43.93-.96.3-1.97.56-3.03.78-1.06.22-1.97.33-2.73.33-1.36 0-2.37-.16-3.03-.48-.66-.32-.99-.88-.99-1.68 0-.44.11-.89.33-1.35.22-.46.57-.69 1.05-.69Zm82.021-11.94c.56 0 .97.21 1.23.63.26.42.39.83.39 1.23 0 .56-.19 1.08-.57 1.56-.38.48-.85.72-1.41.72-.68 0-1.31-.24-1.89-.72-.58-.48-.87-1-.87-1.56.08-.64.47-1.11 1.17-1.41.7-.3 1.35-.45 1.95-.45Zm6.239-3.84c0-.44.72-.66 2.16-.66 1.24 0 2.42-.08 3.54-.24 1.12-.16 2.15-.34 3.09-.54s1.74-.38 2.4-.54c.66-.16 1.17-.24 1.53-.24.32 0 .48.08.48.24 0 .28-.34.65-1.02 1.11-.68.46-1.54.9-2.58 1.32-1.04.42-2.2.78-3.48 1.08-1.28.3-2.54.45-3.78.45-.68 0-1.24-.25-1.68-.75-.44-.5-.66-.91-.66-1.23Zm22.862-3.78c.56 0 .97.21 1.23.63.26.42.39.83.39 1.23 0 .56-.19 1.08-.57 1.56-.38.48-.85.72-1.41.72-.68 0-1.31-.24-1.89-.72-.58-.48-.87-1-.87-1.56.08-.64.47-1.11 1.17-1.41.7-.3 1.35-.45 1.95-.45Zm32.103 16.42c0 2.4.78 4.29 2.34 5.67 1.56 1.38 3.76 2.07 6.6 2.07 2.36 0 4.72-.33 7.08-.99 2.36-.66 4.49-1.5 6.39-2.52 1.9-1.02 3.44-2.13 4.62-3.33 1.18-1.2 1.77-2.36 1.77-3.48 0-.8-.34-1.33-1.02-1.59-.68-.26-1.58-.39-2.7-.39-1.28 0-2.75.04-4.41.12-1.66.08-3.27.12-4.83.12-1.28 0-2.2-.21-2.76-.63-.56-.42-.84-1.03-.84-1.83 0-.64.46-1.48 1.38-2.52.92-1.04 2.09-2.16 3.51-3.36 1.42-1.2 2.98-2.4 4.68-3.6 1.7-1.2 3.34-2.29 4.92-3.27s3-1.78 4.26-2.4c1.26-.62 2.15-.93 2.67-.93 1 0 1.5.44 1.5 1.32 0 .32-.13.76-.39 1.32s-.58 1.11-.96 1.65c-.38.54-.77 1.01-1.17 1.41-.4.4-.72.6-.96.6-.2 0-.32-.06-.36-.18a2.23 2.23 0 0 1-.09-.39c-.02-.14-.06-.27-.12-.39s-.19-.18-.39-.18c-.48 0-1.2.23-2.16.69-.96.46-2.02 1.04-3.18 1.74-1.16.7-2.36 1.47-3.6 2.31-1.24.84-2.36 1.64-3.36 2.4s-1.82 1.45-2.46 2.07c-.64.62-.96 1.03-.96 1.23 0 .2.18.31.54.33.36.02.88.03 1.56.03 1.28 0 2.58-.04 3.9-.12 1.32-.08 2.76-.12 4.32-.12 1.92 0 3.38.36 4.38 1.08 1 .72 1.5 1.84 1.5 3.36 0 1.76-.64 3.48-1.92 5.16-1.28 1.68-2.98 3.18-5.1 4.5-2.12 1.32-4.53 2.39-7.23 3.21-2.7.82-5.49 1.23-8.37 1.23-4.16 0-7.24-1.05-9.24-3.15-2-2.1-3-4.89-3-8.37 0-1.68.36-3.48 1.08-5.4.72-1.92 1.72-3.83 3-5.73 1.28-1.9 2.8-3.74 4.56-5.52 1.76-1.78 3.68-3.39 5.76-4.83 1.08-.76 1.79-1.09 2.13-.99.34.1.17.49-.51 1.17-2.24 2.16-4.14 4.19-5.7 6.09-1.56 1.9-2.84 3.72-3.84 5.46-1 1.74-1.72 3.42-2.16 5.04-.44 1.62-.66 3.23-.66 4.83Zm95.177-11.8c-.16 0-.39-.05-.69-.15-.3-.1-.62-.2-.96-.3l-1.02-.3c-.34-.1-.63-.15-.87-.15-.36 0-.69.16-.99.48-.3.32-.61.68-.93 1.08-.32.4-.68.76-1.08 1.08-.4.32-.88.48-1.44.48-.44 0-.84-.11-1.2-.33-.36-.22-.68-.49-.96-.81-.28-.32-.5-.64-.66-.96-.16-.32-.24-.58-.24-.78 0-.24.11-.55.33-.93.22-.38.55-.57.99-.57.16 0 .32.09.48.27.16.18.31.38.45.6.14.22.29.42.45.6.16.18.34.27.54.27.28 0 .55-.17.81-.51.26-.34.54-.7.84-1.08.3-.38.62-.74.96-1.08.34-.34.71-.51 1.11-.51.48 0 .98.11 1.5.33.52.22 1 .5 1.44.84.44.34.8.7 1.08 1.08.28.38.42.71.42.99 0 .24-.12.36-.36.36ZM9.3 93.8c.6.44 1.22.82 1.86 1.14.24-.6.47-1.23.69-1.89.22-.66.49-1.26.81-1.8.32-.54.72-.99 1.2-1.35.48-.36 1.1-.54 1.86-.54.64 0 1.23.18 1.77.54.54.36 1 .81 1.38 1.35.38.54.67 1.13.87 1.77.2.64.3 1.26.3 1.86 0 1.4-.38 2.51-1.14 3.33-.76.82-1.74 1.23-2.94 1.23-1.32 0-2.52-.4-3.6-1.2-.44.84-1.01 1.55-1.71 2.13-.7.58-1.57.87-2.61.87-.48 0-.76-.18-.84-.54-.08-.36-.12-.72-.12-1.08 0-.36.04-.73.12-1.11.08-.38.36-.57.84-.57.56 0 1.03-.14 1.41-.42.38-.28.71-.64.99-1.08-.24-.32-.48-.63-.72-.93-.24-.3-.46-.65-.66-1.05.04-.08.08-.19.12-.33.04-.14.08-.25.12-.33Zm5.64-1.62c-.32 0-.59.39-.81 1.17-.22.78-.49 1.69-.81 2.73.88.36 1.58.54 2.1.54.56 0 .94-.18 1.14-.54.2-.36.3-.72.3-1.08 0-.68-.18-1.32-.54-1.92-.36-.6-.82-.9-1.38-.9Zm-6.9 9.06c-2.64 0-4.64-.77-6-2.31C.68 97.39 0 94.92 0 91.52c0-1.68.06-3.27.18-4.77.12-1.5.3-2.82.54-3.96.24-1.14.53-2.05.87-2.73.34-.68.73-1.02 1.17-1.02.56 0 .94.17 1.14.51.2.34.3.79.3 1.35 0 .32-.05.8-.15 1.44l-.36 2.31c-.14.9-.26 1.89-.36 2.97-.1 1.08-.15 2.22-.15 3.42 0 2.52.4 4.3 1.2 5.34.8 1.04 2.02 1.56 3.66 1.56v3.3Zm259.858.76c-.44 0-.71-.13-.81-.39-.1-.26-.15-.61-.15-1.05 0-.44.04-.79.12-1.05.08-.26.36-.53.84-.81 1.04-.6 2.02-1.37 2.94-2.31.92-.94 1.48-1.95 1.68-3.03-1.28.36-2.58.54-3.9.54-1 0-1.77-.28-2.31-.84-.54-.56-.81-1.24-.81-2.04 0-.68.17-1.38.51-2.1.34-.72.76-1.37 1.26-1.95.5-.58 1.07-1.06 1.71-1.44.64-.38 1.26-.57 1.86-.57.56 0 1.08.14 1.56.42.48.28.91.66 1.29 1.14.38.48.71 1.03.99 1.65.28.62.5 1.25.66 1.89.72-.2 1.45-.42 2.19-.66.74-.24 1.49-.52 2.25-.84.32-.16.53-.23.63-.21.1.02.12.08.06.18-.06.1-.19.25-.39.45s-.44.4-.72.6c-.68.52-1.33.98-1.95 1.38-.62.4-1.21.76-1.77 1.08v.18c0 1.16-.24 2.22-.72 3.18s-1.09 1.85-1.83 2.67c-.74.82-1.57 1.55-2.49 2.19-.92.64-1.82 1.22-2.7 1.74Zm2.22-11.16c.68 0 1.42-.06 2.22-.18-.16-.68-.4-1.24-.72-1.68-.32-.44-.7-.66-1.14-.66-.44 0-.85.19-1.23.57-.38.38-.57.79-.57 1.23 0 .2.1.37.3.51.2.14.58.21 1.14.21Zm-19.02 15.42c-.8 0-1.54-.04-2.22-.12-.68-.08-1.34-.2-1.98-.36-1.16.24-2.28.36-3.36.36-1.28 0-2.39-.16-3.33-.48-.94-.32-1.74-.68-2.4-1.08-.66-.4-1.18-.76-1.56-1.08-.38-.32-.65-.48-.81-.48-.2 0-.44.3-.72.9-.6 1.28-1.49 2.41-2.67 3.39s-2.61 1.47-4.29 1.47c-.44 0-.71-.16-.81-.48-.1-.32-.15-.7-.15-1.14 0-.44.05-.83.15-1.17.1-.34.37-.51.81-.51 1.28 0 2.26-.32 2.94-.96a8.73 8.73 0 0 0 1.68-2.16c.56-1.04 1.04-1.74 1.44-2.1.4-.36.82-.54 1.26-.54.44 0 .87.14 1.29.42.42.28.88.61 1.38.99.5.38 1.11.75 1.83 1.11.72.36 1.6.6 2.64.72-.68-.88-1.02-1.92-1.02-3.12 0-1.36.53-2.79 1.59-4.29s2.4-2.88 4.02-4.14c1.62-1.26 3.42-2.29 5.4-3.09 1.98-.8 3.91-1.2 5.79-1.2 1.48 0 2.66.4 3.54 1.2.88.8 1.32 1.74 1.32 2.82 0 1.08-.26 2.19-.78 3.33-.52 1.14-1.23 2.24-2.13 3.3-.9 1.06-1.96 2.07-3.18 3.03-1.22.96-2.51 1.82-3.87 2.58 2.32-.16 4.83-.65 7.53-1.47s5.19-1.89 7.47-3.21v3.3c-2.36 1.36-4.98 2.41-7.86 3.15a35.78 35.78 0 0 1-8.94 1.11Zm-7.08-6.6c0 .68.25 1.28.75 1.8s1.19.94 2.07 1.26c1.6-.4 3.18-1.04 4.74-1.92a24.2 24.2 0 0 0 4.17-2.94c1.22-1.08 2.2-2.19 2.94-3.33.74-1.14 1.11-2.13 1.11-2.97 0-.48-.21-.85-.63-1.11-.42-.26-.93-.39-1.53-.39-1.56 0-3.15.35-4.77 1.05-1.62.7-3.08 1.56-4.38 2.58-1.3 1.02-2.37 2.08-3.21 3.18-.84 1.1-1.26 2.03-1.26 2.79Zm-40.62 14.7c0-.32.23-.67.69-1.05.46-.38 1.17-.99 2.13-1.83 3.32-3 6.12-5.12 8.4-6.36 2.28-1.24 4.26-1.86 5.94-1.86.6 0 1.15.12 1.65.36s1.01.49 1.53.75 1.09.51 1.71.75c.62.24 1.39.36 2.31.36v3.3c-1.04 0-1.94-.12-2.7-.36-.76-.24-1.42-.51-1.98-.81-.56-.3-1.07-.57-1.53-.81-.46-.24-.93-.36-1.41-.36-.48 0-1.01.08-1.59.24-.58.16-1.32.49-2.22.99-.9.5-2.02 1.2-3.36 2.1-1.34.9-3.01 2.09-5.01 3.57-.4.32-.86.58-1.38.78-.52.2-1.02.35-1.5.45-.48.1-.88.14-1.2.12-.32-.02-.48-.13-.48-.33ZM78.404 93.12c.44 0 .79.25 1.05.75s.39 1.09.39 1.77c0 2.52-1.33 4.78-3.99 6.78s-6.26 3.69-10.8 5.07c-4.54 1.38-9.79 2.43-15.75 3.15-5.96.72-12.24 1.08-18.84 1.08-1.6 0-3.25-.04-4.95-.12-1.7-.08-3.4-.18-5.1-.3-1.7-.12-3.36-.28-4.98-.48-1.62-.2-3.15-.42-4.59-.66-.44-.08-.8-.21-1.08-.39-.28-.18-.42-.43-.42-.75 0-.52.16-.87.48-1.05.32-.18.74-.27 1.26-.27.64 0 2.65.08 6.03.24 3.38.16 7.99.24 13.83.24s11.42-.36 16.74-1.08c5.32-.72 10.05-1.66 14.19-2.82 4.14-1.16 7.5-2.46 10.08-3.9s4.03-2.88 4.35-4.32c.16-.68.38-1.34.66-1.98.28-.64.76-.96 1.44-.96ZM89.74 76.34c.32 0 .6.11.84.33.24.22.43.61.57 1.17.14.56.24 1.32.3 2.28.06.96.09 2.2.09 3.72 0 2.72-.09 5.11-.27 7.17-.18 2.06-.48 3.9-.9 5.52-.42 1.62-.98 3.09-1.68 4.41-.7 1.32-1.59 2.6-2.67 3.84-.56.68-1.21 1.34-1.95 1.98-.74.64-1.47 1.23-2.19 1.77s-1.39.97-2.01 1.29c-.62.32-1.11.48-1.47.48-.24 0-.36-.08-.36-.24.04-.32.54-.91 1.5-1.77s2.16-2.13 3.6-3.81c1.08-1.24 1.94-2.45 2.58-3.63.64-1.18 1.14-2.52 1.5-4.02.36-1.5.59-3.29.69-5.37.1-2.08.13-4.64.09-7.68-.04-1.56-.03-2.82.03-3.78s.16-1.71.3-2.25c.14-.54.33-.91.57-1.11.24-.2.52-.3.84-.3Zm13.918 24.34c.24-.24.5-.36.78-.36.32 0 .55.14.69.42.14.28.21.58.21.9 0 .56-.1 1.04-.3 1.44-.2.4-.46.8-.78 1.2-1.92 2.2-4.03 4.2-6.33 6-2.3 1.8-4.57 3.35-6.81 4.65-2.24 1.3-4.34 2.3-6.3 3-1.96.7-3.54 1.05-4.74 1.05-1.16 0-1.73-.15-1.71-.45.02-.3.43-.63 1.23-.99 2.28-1.08 4.44-2.18 6.48-3.3 2.04-1.12 4.02-2.35 5.94-3.69 1.92-1.34 3.83-2.81 5.73-4.41 1.9-1.6 3.87-3.42 5.91-5.46Zm41.22-16.2c0-1.12.36-2.01 1.08-2.67.72-.66 1.699-.99 2.939-.99 1.36 0 2.48.53 3.36 1.59.88 1.06 1.32 2.37 1.32 3.93 0 1.44-.259 2.78-.779 4.02a10.253 10.253 0 0 1-2.131 3.24c-.9.92-1.98 1.64-3.24 2.16-1.26.52-2.609.78-4.049.78-.44 0-.711-.16-.811-.48-.1-.32-.15-.7-.15-1.14 0-.44.05-.83.15-1.17.1-.34.371-.51.811-.51.92 0 1.8-.16 2.64-.48.84-.32 1.58-.74 2.22-1.26.64-.52 1.15-1.13 1.53-1.83.38-.7.569-1.45.569-2.25v-.27c0-.1-.02-.25-.06-.45-.44.2-.9.36-1.38.48-.48.12-.939.18-1.379.18-.8 0-1.44-.27-1.92-.81s-.72-1.23-.72-2.07Zm-27.121 13.26c0-.76.29-1.56.87-2.4.58-.84 1.34-1.67 2.28-2.49.94-.82 1.99-1.59 3.15-2.31s2.32-1.36 3.48-1.92c1.16-.56 2.25-1 3.27-1.32 1.02-.32 1.87-.48 2.55-.48 1.12 0 2.02.16 2.7.48.68.32 1.231.72 1.651 1.2.42.48.779.99 1.079 1.53.3.54.63 1.05.99 1.53s.811.88 1.351 1.2c.54.32 1.29.48 2.25.48v3.3c-1.16 0-2.111-.16-2.851-.48-.74-.32-1.36-.73-1.86-1.23s-.929-1.04-1.289-1.62c-.36-.58-.72-1.12-1.08-1.62-.36-.5-.781-.91-1.261-1.23-.48-.32-1.1-.48-1.86-.48-1.08 0-2.33.32-3.75.96-1.42.64-2.76 1.38-4.02 2.22-1.26.84-2.32 1.67-3.18 2.49-.86.82-1.289 1.39-1.289 1.71 0 .32.179.52.539.6.36.08 1.06.12 2.1.12 1.8 0 3.67-.06 5.611-.18 1.94-.12 3.609-.18 5.009-.18.72 0 1.411.15 2.071.45.66.3.989.93.989 1.89 0 1.28-.67 2.58-2.01 3.9-1.34 1.32-3.03 2.53-5.07 3.63-2.04 1.1-4.24 2-6.6 2.7-2.36.7-4.56 1.05-6.6 1.05-.44 0-.71-.16-.81-.48-.1-.32-.15-.7-.15-1.14 0-.44.05-.83.15-1.17.1-.34.37-.51.81-.51 2 0 3.99-.32 5.97-.96 1.98-.64 3.76-1.38 5.34-2.22 1.58-.84 2.861-1.66 3.841-2.46s1.47-1.36 1.47-1.68c0-.16-.141-.24-.421-.24-1.6 0-3.15.07-4.65.21-1.5.14-3.35.21-5.55.21-1.68 0-2.97-.24-3.87-.72-.9-.48-1.35-1.26-1.35-2.34Zm-.78 13.5c-2.64 0-4.64-.77-6-2.31-1.36-1.54-2.039-4.01-2.039-7.41 0-1.68.06-3.27.18-4.77.12-1.5.299-2.82.539-3.96.24-1.14.53-2.05.87-2.73.34-.68.73-1.02 1.17-1.02.56 0 .94.17 1.14.51.2.34.3.79.3 1.35 0 .32-.05.8-.15 1.44l-.36 2.31c-.14.9-.26 1.89-.36 2.97a37.15 37.15 0 0 0-.149 3.42c0 2.52.399 4.3 1.199 5.34s2.02 1.56 3.66 1.56v3.3Zm46.504-30.9c.32 0 .6.11.84.33.24.22.43.61.57 1.17.14.56.24 1.32.3 2.28.06.96.09 2.2.09 3.72 0 2.72-.09 5.11-.27 7.17-.18 2.06-.48 3.9-.9 5.52-.42 1.62-.98 3.09-1.68 4.41-.7 1.32-1.59 2.6-2.67 3.84-.56.68-1.21 1.34-1.95 1.98-.74.64-1.47 1.23-2.19 1.77s-1.39.97-2.01 1.29c-.62.32-1.11.48-1.47.48-.24 0-.36-.08-.36-.24.04-.32.54-.91 1.5-1.77s2.16-2.13 3.6-3.81c1.08-1.24 1.94-2.45 2.58-3.63.64-1.18 1.14-2.52 1.5-4.02.36-1.5.59-3.29.69-5.37.1-2.08.13-4.64.09-7.68-.04-1.56-.03-2.82.03-3.78s.16-1.71.3-2.25c.14-.54.33-.91.57-1.11.24-.2.52-.3.84-.3Z"/>
  <path fill="#fff" d="M228.422 82.44c1.16 0 1.97-.69 2.43-2.07.46-1.38.69-3.09.69-5.13 0-1.16-.01-2.15-.03-2.97-.02-.82-.03-1.61-.03-2.37 0-1.44.54-2.16 1.62-2.16.6 0 .99.25 1.17.75.18.5.27 1.09.27 1.77 0 .8.01 1.77.03 2.91.02 1.14.03 2.13.03 2.97 0 1.2-.11 2.37-.33 3.51-.22 1.14-.58 2.16-1.08 3.06-.5.9-1.14 1.63-1.92 2.19s-1.73.84-2.85.84c-.44 0-.71-.16-.81-.48-.1-.32-.15-.7-.15-1.14 0-.44.05-.83.15-1.17.1-.34.37-.51.81-.51Zm71.82-74.16c-3.28 2.68-6.35 5.2-9.21 7.56l-8.25 6.81c-2.64 2.18-5.23 4.31-7.77 6.39-2.54 2.08-5.11 4.18-7.71 6.3-2.6 2.12-5.31 4.3-8.13 6.54-2.82 2.24-5.83 4.6-9.03 7.08-1.12.88-2.36 1.81-3.72 2.79-1.36.98-2.75 1.89-4.17 2.73-1.42.84-2.82 1.54-4.2 2.1-1.38.56-2.65.84-3.81.84-1.08 0-1.88-.2-2.4-.6-.52-.4-.78-.86-.78-1.38 0-.88.51-1.94 1.53-3.18 1.02-1.24 2.33-2.54 3.93-3.9 1.6-1.36 3.38-2.72 5.34-4.08 1.96-1.36 3.86-2.6 5.7-3.72 1.2-.72 2.22-1.31 3.06-1.77.84-.46 1.42-.69 1.74-.69.2 0 .3.06.3.18 0 .2-.45.67-1.35 1.41-.9.74-2.03 1.63-3.39 2.67-1.36 1.04-2.83 2.16-4.41 3.36-1.58 1.2-3.05 2.35-4.41 3.45-1.36 1.1-2.49 2.09-3.39 2.97-.9.88-1.35 1.5-1.35 1.86 0 .2.22.3.66.3.64 0 1.5-.24 2.58-.72s2.24-1.09 3.48-1.83c1.24-.74 2.5-1.55 3.78-2.43 1.28-.88 2.42-1.72 3.42-2.52 5.04-3.96 9.76-7.76 14.16-11.4 4.4-3.64 8.74-7.25 13.02-10.83 4.28-3.58 8.62-7.17 13.02-10.77 4.4-3.6 9.12-7.36 14.16-11.28.8-.6 1.64-1.16 2.52-1.68.88-.52 1.7-.8 2.46-.84.4 0 .52.16.36.48-.36.68-.92 1.44-1.68 2.28-.76.84-1.55 1.64-2.37 2.4-.82.76-1.58 1.43-2.28 2.01-.7.58-1.17.95-1.41 1.11Zm-110.94 93.66c2.24-.08 4.61-.39 7.11-.93s4.97-1.24 7.41-2.1c2.44-.86 4.78-1.84 7.02-2.94 2.24-1.1 4.22-2.25 5.94-3.45 1.72-1.2 3.12-2.41 4.2-3.63 1.08-1.22 1.68-2.37 1.8-3.45-1.48 0-2.69-.43-3.63-1.29-.94-.86-1.41-1.85-1.41-2.97 0-.8.33-1.59.99-2.37.66-.78 1.51-1.17 2.55-1.17 1.2 0 2.25.44 3.15 1.32.9.88 1.47 2.02 1.71 3.42.44.04.83.06 1.17.06h1.11v3.3h-1.17c-.38 0-.75-.04-1.11-.12-.36 1.68-1.18 3.3-2.46 4.86-1.28 1.56-2.82 3.02-4.62 4.38-1.8 1.36-3.76 2.61-5.88 3.75a53.869 53.869 0 0 1-6.33 2.91c-2.1.8-4.08 1.42-5.94 1.86-1.86.44-3.41.66-4.65.66-1.52 0-2.88-.12-4.08-.36-1.2-.24-2.2-.7-3-1.38-.32-.24-.28-.36.12-.36Z"/>
  <path fill="#CD6C58" d="M331.5 55.962c0-.469.766-.703 2.299-.703 1.32 0 2.577-.085 3.769-.255a49.466 49.466 0 0 0 3.289-.575 94.256 94.256 0 0 0 2.555-.575c.703-.17 1.246-.255 1.629-.255.341 0 .511.085.511.255 0 .298-.362.692-1.086 1.182-.724.49-1.639.958-2.746 1.405-1.108.447-2.342.83-3.705 1.15a17.617 17.617 0 0 1-4.024.479c-.724 0-1.32-.266-1.788-.799-.469-.532-.703-.968-.703-1.31Zm19.095-6.515c.596 0 1.032.224 1.309.67.277.448.415.885.415 1.31 0 .596-.202 1.15-.606 1.661-.405.511-.905.766-1.501.766-.724 0-1.395-.255-2.012-.766-.618-.511-.927-1.065-.927-1.66.086-.682.501-1.182 1.246-1.502.745-.32 1.437-.479 2.076-.479Zm-44.711 44.455c.596 0 1.032.224 1.309.671.277.447.415.884.415 1.31 0 .596-.202 1.15-.606 1.66-.405.511-.905.766-1.501.766-.724 0-1.395-.255-2.012-.766-.618-.51-.927-1.065-.927-1.66.086-.682.501-1.182 1.246-1.502.745-.319 1.437-.479 2.076-.479Zm14.884-5.748c-.17 0-.415-.054-.734-.16a30.49 30.49 0 0 0-1.022-.32l-1.086-.319c-.362-.106-.671-.16-.926-.16-.384 0-.735.17-1.054.512-.32.34-.65.723-.99 1.15a7.394 7.394 0 0 1-1.15 1.149c-.426.34-.937.51-1.533.51a2.4 2.4 0 0 1-1.277-.35 4.38 4.38 0 0 1-1.022-.863 4.873 4.873 0 0 1-.703-1.022c-.17-.34-.255-.617-.255-.83 0-.255.117-.585.351-.99.234-.404.585-.607 1.054-.607.17 0 .34.096.511.288.17.191.33.404.479.638.149.235.309.448.479.64.17.19.362.287.575.287.298 0 .585-.181.862-.543.277-.362.575-.746.894-1.15.32-.405.66-.788 1.022-1.15.362-.362.756-.543 1.182-.543.511 0 1.043.117 1.597.352a6.907 6.907 0 0 1 1.533.894c.468.362.851.745 1.149 1.15.298.404.447.755.447 1.053 0 .256-.127.384-.383.384Zm23.313-14.627c1.789 0 3.194-.468 4.216-1.405 1.022-.937 1.533-2.32 1.533-4.152 0-1.575.532-2.363 1.597-2.363.638 0 1.043.277 1.213.83.171.554.256 1.193.256 1.916 0 2.64-.767 4.748-2.3 6.324-1.533 1.575-3.704 2.363-6.515 2.363-.468 0-.755-.17-.862-.51a4.105 4.105 0 0 1-.16-1.214c0-.469.054-.884.16-1.246.107-.362.394-.543.862-.543Zm0 3.513c-2.64 0-4.492-.852-5.556-2.555-.937 1.618-2.108 2.864-3.513 3.737-1.406.873-2.853 1.31-4.344 1.31-.468 0-.756-.171-.862-.512a4.105 4.105 0 0 1-.16-1.213c0-.469.054-.884.16-1.246.106-.362.394-.543.862-.543 1.448 0 2.757-.49 3.928-1.469 1.171-.98 1.927-2.342 2.268-4.088.128-.553.341-.958.639-1.213.298-.256.628-.362.99-.32.362.043.692.203.99.48.298.276.489.649.574 1.117.171.894.597 1.618 1.278 2.172.681.553 1.597.83 2.746.83v3.513Zm-13.413 2.491c-2.81 0-4.939-.82-6.387-2.459-1.448-1.64-2.172-4.269-2.172-7.888 0-1.789.064-3.481.192-5.078.128-1.597.319-3.002.575-4.215.255-1.214.564-2.183.926-2.907.362-.724.777-1.086 1.245-1.086.597 0 1.001.181 1.214.543.213.362.319.841.319 1.438 0 .34-.053.851-.159 1.532l-.383 2.46c-.15.958-.277 2.011-.384 3.161a39.705 39.705 0 0 0-.159 3.64c0 2.684.425 4.578 1.277 5.686.852 1.107 2.15 1.66 3.896 1.66v3.513Z"/>
  <path fill="#CD6C58" d="M315.784 67.715c0 1.022-.606 2.32-1.82 3.896-1.214 1.575-2.736 3.31-4.567 5.205a225.354 225.354 0 0 1-5.972 5.94 158.098 158.098 0 0 0-5.972 6.036c-1.831 1.96-3.353 3.8-4.567 5.525-1.213 1.725-1.82 3.183-1.82 4.376 0 .936.479 1.905 1.437 2.906.958 1 2.289 1.969 3.992 2.906 1.703.937 3.737 1.831 6.1 2.683 2.363.851 4.929 1.596 7.696 2.235a80.703 80.703 0 0 0 8.815 1.501c3.108.362 6.259.543 9.453.543 4.854 0 9.389-.192 13.605-.575 4.215-.383 8.197-.937 11.944-1.66 1.022-.213 1.575-.235 1.66-.064.086.17-.362.468-1.341.894-1.703.724-3.598 1.384-5.685 1.98a78.46 78.46 0 0 1-6.578 1.565c-2.3.447-4.642.788-7.026 1.022a71.316 71.316 0 0 1-6.962.351c-2.939 0-5.972-.16-9.102-.479a90.435 90.435 0 0 1-9.166-1.405 67.522 67.522 0 0 1-8.431-2.3c-2.64-.915-4.961-1.958-6.962-3.129-2.001-1.171-3.588-2.481-4.759-3.929-1.171-1.447-1.756-3.023-1.756-4.726 0-1.533.617-3.279 1.852-5.238 1.235-1.958 2.768-3.97 4.599-6.035a95.254 95.254 0 0 1 6.004-6.164c2.172-2.044 4.173-3.939 6.004-5.685 1.831-1.746 3.364-3.29 4.599-4.63 1.235-1.342 1.852-2.332 1.852-2.97 0-.597-.213-1.076-.639-1.438-.425-.362-.958-.65-1.596-.862a8.927 8.927 0 0 0-2.044-.415 22.72 22.72 0 0 0-1.98-.096h-3.098c-1.086 0-2.14.01-3.162.032-1.022.021-2.001.032-2.938.032h-2.363c-.596 0-1.011-.117-1.246-.351-.234-.235-.351-.565-.351-.99 0-.341.128-.66.383-.959.256-.298.703-.638 1.342-1.021a873.147 873.147 0 0 0 7.153-4.184c1.831-1.086 3.354-2.065 4.567-2.938 1.214-.873 2.257-1.746 3.13-2.619.873-.873 1.82-1.948 2.842-3.226.17-.17.341-.255.511-.255.341 0 .511.34.511 1.022 0 .553-.191 1.203-.575 1.948-.383.745-.894 1.512-1.533 2.3a20.655 20.655 0 0 1-2.235 2.33 22.32 22.32 0 0 1-2.747 2.109c-1.873 1.234-3.406 2.203-4.598 2.906-1.193.702-2.13 1.245-2.811 1.628 1.278 0 2.64.011 4.088.032 1.448.022 2.704.011 3.768-.032 2.726-.042 4.823.33 6.292 1.118 1.469.788 2.203 1.906 2.203 3.354Z"/>
</svg>