<svg xmlns="http://www.w3.org/2000/svg" width="381" height="88" fill="none" viewBox="0 0 381 88">
  <path fill="#fff" d="M168.008 28.986c0-.477.781-.716 2.342-.716 1.345 0 2.625-.086 3.839-.26a50.358 50.358 0 0 0 3.351-.586 96.604 96.604 0 0 0 2.603-.585c.716-.174 1.269-.26 1.659-.26.347 0 .521.086.521.26 0 .303-.369.705-1.106 1.204-.738.498-1.67.976-2.798 1.431a25.851 25.851 0 0 1-3.774 1.171 17.93 17.93 0 0 1-4.1.488c-.737 0-1.344-.27-1.821-.813-.478-.542-.716-.987-.716-1.334Zm52.769 34.031c-.173 0-.423-.054-.748-.163a30.19 30.19 0 0 0-1.041-.325l-1.106-.326c-.369-.108-.684-.162-.944-.162-.39 0-.748.173-1.073.52a19.53 19.53 0 0 0-1.009 1.172 7.468 7.468 0 0 1-1.171 1.17c-.434.348-.955.521-1.562.521-.477 0-.911-.119-1.301-.358a4.454 4.454 0 0 1-1.041-.878 4.939 4.939 0 0 1-.716-1.041c-.174-.347-.26-.629-.26-.846 0-.26.119-.596.358-1.008.238-.413.596-.619 1.073-.619.174 0 .347.098.521.293.173.195.336.412.488.65.152.24.314.456.488.652.173.195.368.292.585.292.304 0 .597-.184.879-.553.282-.368.585-.759.911-1.17.325-.413.672-.803 1.041-1.172.369-.369.77-.553 1.204-.553.52 0 1.062.12 1.626.358a7.006 7.006 0 0 1 1.562.91c.477.37.868.76 1.171 1.172.304.412.456.77.456 1.074 0 .26-.13.39-.391.39Zm35.286-56.556c0 .694-.195 1.377-.586 2.05a7.86 7.86 0 0 1-1.561 1.887 11.865 11.865 0 0 1-2.213 1.561c-.824.456-1.67.77-2.537.944h.911c1.475 0 3.199-.228 5.173-.683a40.18 40.18 0 0 0 5.888-1.855c.304-.13.434-.065.391.195-.044.26-.174.478-.391.651-2.038 1.518-3.947 2.57-5.726 3.156-1.778.586-3.687.878-5.726.878a15.84 15.84 0 0 1-2.472-.195 8.264 8.264 0 0 1-2.213-.65 4.193 4.193 0 0 1-1.594-1.27c-.412-.542-.618-1.225-.618-2.049 0-1.041.369-2.039 1.106-2.993a13.93 13.93 0 0 1 2.603-2.57 13.342 13.342 0 0 1 3.123-1.79c1.085-.433 1.974-.65 2.668-.65 1.215 0 2.147.303 2.798.91.651.608.976 1.432.976 2.473Zm-10.216 4.425c0 .564.206.987.618 1.269.413.282.901.488 1.464.618 1.692-1.258 3.015-2.408 3.97-3.449.954-1.04 1.431-1.93 1.431-2.668 0-.607-.282-.91-.846-.91-.347 0-.889.184-1.626.553-.738.368-1.475.813-2.213 1.333a13.558 13.558 0 0 0-1.952 1.66c-.564.585-.846 1.117-.846 1.594ZM34.39 7.635c0 .824-.357 1.561-1.073 2.212-.716.65-1.649 1.193-2.798 1.627-1.15.434-2.44.77-3.872 1.008a26.09 26.09 0 0 1-4.294.358 8.35 8.35 0 0 1-1.562-.162c-.564-.109-.846-.51-.846-1.204 0-.477.174-.879.52-1.204.348-.325.89-.488 1.628-.488 2.169 0 3.947-.152 5.335-.455 1.388-.304 2.668-.933 3.84-1.887.65-.478 1.019-.857 1.105-1.14.087-.281.282-.422.586-.422.26 0 .564.206.91.618.348.412.522.792.522 1.139Zm99.091-1.955c.304 0 .553.087.748.26.195.174.412.358.651.554.238.195.542.38.911.553.369.173.878.26 1.529.26.824 0 1.54-.044 2.147-.13.608-.087 1.182-.174 1.725-.26l1.626-.26a12.17 12.17 0 0 1 1.92-.13c.477 0 .856.042 1.138.13.282.086.423.26.423.52 0 .217-.357.499-1.073.846s-1.594.683-2.636 1.008a34.58 34.58 0 0 1-3.285.846c-1.15.239-2.137.358-2.961.358-1.475 0-2.57-.174-3.286-.52-.716-.348-1.074-.955-1.074-1.823 0-.477.12-.965.358-1.464.239-.498.618-.748 1.139-.748Zm27.585 1.302c-.173 0-.423-.054-.748-.163a30.187 30.187 0 0 0-1.041-.325l-1.106-.326c-.369-.108-.683-.162-.944-.162-.39 0-.748.173-1.073.52-.326.347-.662.738-1.009 1.171a7.465 7.465 0 0 1-1.171 1.172c-.434.347-.954.52-1.562.52-.477 0-.911-.119-1.301-.358a4.455 4.455 0 0 1-1.041-.878 4.979 4.979 0 0 1-.716-1.041c-.173-.347-.26-.63-.26-.846 0-.26.119-.596.358-1.009.238-.412.596-.618 1.073-.618.174 0 .347.098.521.293.173.195.336.412.488.65.152.24.314.456.488.651.173.196.369.293.585.293.304 0 .597-.184.879-.553.282-.369.585-.759.911-1.171.325-.412.672-.803 1.041-1.171.369-.369.77-.553 1.204-.553.52 0 1.062.119 1.626.358a7.005 7.005 0 0 1 1.562.91c.477.37.868.76 1.171 1.172.304.412.456.77.456 1.073 0 .26-.13.39-.391.39ZM106.348 53.44c-.174 0-.423-.054-.749-.162a30.183 30.183 0 0 0-1.041-.326l-1.106-.325c-.369-.109-.683-.163-.943-.163-.391 0-.749.174-1.074.52-.325.348-.662.738-1.009 1.172a7.47 7.47 0 0 1-1.17 1.171c-.435.347-.955.52-1.563.52-.477 0-.91-.119-1.3-.357a4.483 4.483 0 0 1-1.042-.879 4.976 4.976 0 0 1-.716-1.04c-.173-.348-.26-.63-.26-.846 0-.26.12-.597.358-1.01.239-.411.596-.617 1.073-.617.174 0 .347.097.521.293.174.195.336.412.488.65.152.239.315.456.488.65.174.196.369.294.586.294.303 0 .596-.185.878-.553.282-.37.586-.76.911-1.172.325-.412.672-.802 1.041-1.17.369-.37.77-.554 1.204-.554.52 0 1.063.12 1.627.358a6.996 6.996 0 0 1 1.561.911c.477.369.868.76 1.171 1.171.304.412.456.77.456 1.074 0 .26-.13.39-.39.39Zm221.504-6.828c0-.477.78-.716 2.342-.716 1.345 0 2.624-.087 3.839-.26a50.358 50.358 0 0 0 3.351-.586 97.486 97.486 0 0 0 2.603-.586c.716-.173 1.269-.26 1.659-.26.347 0 .521.087.521.26 0 .304-.369.705-1.107 1.204-.737.499-1.67.976-2.798 1.432a25.798 25.798 0 0 1-3.773 1.17 17.936 17.936 0 0 1-4.1.489c-.737 0-1.345-.271-1.822-.813-.477-.543-.715-.987-.715-1.334ZM278.875 31.92c0 .695-.195 1.378-.585 2.05a7.865 7.865 0 0 1-1.562 1.887 11.862 11.862 0 0 1-2.212 1.562 8.79 8.79 0 0 1-2.538.943h.911c1.475 0 3.199-.227 5.173-.683a40.153 40.153 0 0 0 5.889-1.854c.303-.13.434-.065.39.195-.043.26-.173.477-.39.65-2.039 1.519-3.948 2.57-5.726 3.156-1.779.586-3.687.879-5.726.879a15.84 15.84 0 0 1-2.473-.195 8.264 8.264 0 0 1-2.212-.651 4.186 4.186 0 0 1-1.594-1.269c-.412-.542-.618-1.225-.618-2.05 0-1.04.368-2.038 1.106-2.993a13.92 13.92 0 0 1 2.602-2.57 13.326 13.326 0 0 1 3.124-1.79c1.084-.433 1.973-.65 2.667-.65 1.215 0 2.148.304 2.798.911.651.607.976 1.432.976 2.473Zm-10.215 4.425c0 .564.206.987.618 1.27.412.281.9.487 1.464.617 1.692-1.258 3.015-2.407 3.969-3.448.954-1.041 1.432-1.93 1.432-2.668 0-.607-.282-.911-.846-.911-.347 0-.89.184-1.627.553-.737.369-1.475.813-2.212 1.334a13.501 13.501 0 0 0-1.952 1.66c-.564.585-.846 1.116-.846 1.593ZM93.989 33.66c-.174 2.299-.879 4.49-2.115 6.572a20.829 20.829 0 0 1-4.75 5.498c-1.93 1.583-4.11 2.841-6.54 3.774a20.885 20.885 0 0 1-7.547 1.399c-1.258 0-2.321-.315-3.189-.944-.867-.629-1.301-1.312-1.301-2.05 0-.216.065-.325.195-.325s.499.044 1.106.13c.608.087 1.302.13 2.082.13 1.085 0 2.31-.173 3.677-.52a25.844 25.844 0 0 0 4.164-1.464 27.224 27.224 0 0 0 4.1-2.277 20.715 20.715 0 0 0 3.546-2.994 15.914 15.914 0 0 0 2.57-3.61 9.573 9.573 0 0 0 1.074-4.165c.043-.694.13-1.313.26-1.855s.433-1.084.91-1.626c.478-.543 1.161-1.128 2.05-1.757.89-.63 2.093-1.4 3.612-2.31a17.128 17.128 0 0 0 1.854-1.236c.499-.39.889-.825 1.171-1.302a5.37 5.37 0 0 0 .618-1.66c.131-.628.196-1.376.196-2.244 0-.737.119-1.366.358-1.887.238-.52.639-.78 1.203-.78.781 0 1.28.325 1.497.975a6.54 6.54 0 0 1 .325 2.082c0 1.258-.141 2.332-.423 3.221a6.849 6.849 0 0 1-1.301 2.375c-.586.694-1.334 1.356-2.245 1.985a52.625 52.625 0 0 1-3.253 2.05c-.911.52-1.627.976-2.148 1.366-.52.39-.9.748-1.138 1.074-.239.325-.39.672-.456 1.04-.065.37-.12.814-.162 1.335ZM378.54 51.036c.347 0 .651.12.911.358.26.239.466.662.618 1.269.152.607.26 1.431.325 2.472s.098 2.386.098 4.035c0 2.95-.098 5.541-.293 7.775-.195 2.234-.52 4.23-.976 5.987-.455 1.756-1.063 3.35-1.822 4.782-.759 1.432-1.724 2.82-2.895 4.165a17.971 17.971 0 0 1-2.115 2.147 44.049 44.049 0 0 1-2.375 1.92c-.781.585-1.507 1.051-2.18 1.398-.672.347-1.204.52-1.594.52-.26 0-.39-.086-.39-.26.043-.347.585-.986 1.626-1.919s2.343-2.31 3.904-4.132c1.172-1.345 2.104-2.657 2.798-3.936.694-1.28 1.237-2.733 1.627-4.36.39-1.627.64-3.568.748-5.824.109-2.255.141-5.032.098-8.328-.043-1.692-.033-3.059.032-4.1.066-1.04.174-1.854.326-2.44.152-.585.358-.987.618-1.203a1.38 1.38 0 0 1 .911-.326Zm-99.492 24.488c12.45-5.64 18.675-10.693 18.675-15.161 0-.954-.196-1.8-.586-2.538a13.477 13.477 0 0 0-1.269-1.984 79.202 79.202 0 0 0-1.269-1.594c-.39-.478-.585-.933-.585-1.367 0-.65.173-1.171.52-1.562.347-.39.825-.585 1.432-.585.477 0 1.041.271 1.692.813.65.543 1.268 1.258 1.854 2.148a13.91 13.91 0 0 1 1.464 2.96c.391 1.085.586 2.147.586 3.188 0 1.692-.477 3.34-1.432 4.946-.954 1.605-2.353 3.123-4.197 4.554-1.843 1.432-4.11 2.733-6.799 3.904-2.69 1.172-5.748 2.17-9.175 2.994a3.42 3.42 0 0 1-.943.13 3.28 3.28 0 0 1-.749-.065c-.173-.044-.217-.13-.13-.26s.391-.304.911-.521Zm-68.296-34.37c1.822 0 3.253-.477 4.295-1.432 1.041-.954 1.561-2.364 1.561-4.229 0-1.605.542-2.408 1.627-2.408.651 0 1.063.282 1.236.846.174.564.26 1.215.26 1.952 0 2.69-.78 4.837-2.342 6.442-1.562 1.605-3.774 2.408-6.637 2.408-.477 0-.77-.174-.878-.52-.109-.348-.163-.76-.163-1.237 0-.477.054-.9.163-1.269.108-.369.401-.553.878-.553Zm-18.414 4.1c1.778 0 2.906-.955 3.383-2.864.304-1.345.933-2.017 1.887-2.017.347 0 .608.13.781.39.174.26.347.564.521.912.52 1.084 1.323 1.626 2.407 1.626 1.475 0 2.473-1.02 2.993-3.058a5.6 5.6 0 0 1 .553-1.334c.239-.412.597-.618 1.074-.618.477 0 .813.152 1.009.455.195.304.422.63.683.976.26.347.607.673 1.041.976.434.304 1.128.456 2.082.456v3.579c-.954 0-1.778-.141-2.473-.423-.694-.282-1.301-.749-1.821-1.4-.695 1.259-1.497 2.246-2.408 2.961-.911.716-1.93 1.074-3.058 1.074-.738 0-1.377-.13-1.92-.39a3.764 3.764 0 0 1-1.334-1.041c-.737 1.127-1.583 1.951-2.537 2.472-.955.52-2.061.78-3.319.78-1.041 0-1.908-.26-2.602-.78-.695-.52-1.28-1.258-1.757-2.212-.738 1.475-1.714 2.624-2.928 3.448-1.215.825-2.473 1.237-3.774 1.237-.478 0-.77-.174-.879-.52a4.193 4.193 0 0 1-.162-1.237c0-.477.054-.9.162-1.269.109-.369.401-.553.879-.553 1.084 0 1.995-.271 2.733-.813a9.955 9.955 0 0 0 1.887-1.79c.52-.65.976-1.247 1.366-1.79.39-.541.802-.813 1.236-.813.391 0 .683.066.879.196.195.13.401.477.618 1.04.564 1.562 1.496 2.343 2.798 2.343Zm-11.517 5.205c-2.69 0-4.577-.868-5.661-2.603-.955 1.648-2.148 2.917-3.579 3.806-1.432.89-2.906 1.334-4.425 1.334-.477 0-.77-.173-.878-.52-.109-.347-.163-.76-.163-1.236 0-.478.054-.9.163-1.27.108-.368.401-.552.878-.552 1.475 0 2.809-.5 4.002-1.497 1.193-.998 1.963-2.386 2.31-4.164.13-.564.347-.976.651-1.237.303-.26.639-.368 1.008-.325.369.043.705.206 1.009.488.303.282.499.661.585 1.139.174.91.608 1.648 1.302 2.212.694.564 1.626.846 2.798.846v3.579Zm-13.665 2.537c-1.344 0-2.44-.293-3.286-.878a22.846 22.846 0 0 1-2.407-1.92 24.842 24.842 0 0 0-2.375-1.92c-.824-.585-1.887-.877-3.188-.877-2.039 0-4.1.64-6.182 1.919-2.082 1.28-4.164 2.895-6.247 4.848-.78.737-1.55 1.344-2.309 1.822-.76.477-1.334.715-1.725.715-.26 0-.39-.13-.39-.39 0-.564.499-1.53 1.496-2.896.998-1.366 2.31-2.765 3.937-4.197a29.561 29.561 0 0 1 5.433-3.774c1.996-1.084 4.013-1.626 6.052-1.626 1.561 0 2.841.292 3.839.878a14.455 14.455 0 0 1 2.602 1.92 42.083 42.083 0 0 0 2.18 1.92c.716.585 1.573.878 2.57.878v3.578Zm78.494-15.823c-2.039 0-3.535-1.084-4.49-3.253a18.08 18.08 0 0 1-1.236 1.627 10.37 10.37 0 0 1-1.659 1.561 9.11 9.11 0 0 1-2.05 1.171 5.923 5.923 0 0 1-2.277.456c-.477 0-.77-.174-.879-.52a4.184 4.184 0 0 1-.162-1.237c0-.477.054-.9.162-1.269.109-.369.402-.553.879-.553 1.084 0 2.017-.271 2.798-.813a11.053 11.053 0 0 0 2.049-1.822c.586-.672 1.107-1.28 1.562-1.822.456-.542.9-.813 1.334-.813.477 0 .813.152 1.009.455.195.304.379.694.553 1.171.52 1.432 1.475 2.148 2.863 2.148.78 0 1.453-.206 2.017-.619a9.393 9.393 0 0 0 1.529-1.398c.455-.521.867-.987 1.236-1.4.369-.412.748-.618 1.139-.618.52 0 1.084.098 1.692.293.607.195 1.171.293 1.691.293.608 0 .933-.78.976-2.342a14.45 14.45 0 0 0 0-1.953 24.946 24.946 0 0 1-.065-1.561c0-.304.13-.608.391-.911.26-.304.607-.456 1.041-.456.39 0 .705.141.943.423.239.282.423.618.553 1.009.131.39.217.813.261 1.269.043.455.065.835.065 1.138 0 .521-.076 1.15-.228 1.887a11.409 11.409 0 0 1-.651 2.115 5.597 5.597 0 0 1-1.106 1.724c-.455.478-.987.716-1.594.716-.477 0-1.019-.087-1.627-.26-.607-.174-1.041-.26-1.301-.26-.304 0-.651.227-1.041.683a28.13 28.13 0 0 1-1.432 1.529 9.536 9.536 0 0 1-2.049 1.53c-.803.455-1.768.682-2.896.682Zm-11.712 1.562c-2.863 0-5.032-.835-6.507-2.505-1.475-1.67-2.212-4.349-2.212-8.036 0-1.822.065-3.546.195-5.173.13-1.627.325-3.058.586-4.295.26-1.236.574-2.223.943-2.96.369-.738.792-1.106 1.269-1.106.607 0 1.019.184 1.236.553.217.369.326.857.326 1.464 0 .347-.055.867-.163 1.561l-.391 2.506c-.151.976-.282 2.05-.39 3.22a40.434 40.434 0 0 0-.163 3.71c0 2.732.434 4.663 1.302 5.79.867 1.128 2.19 1.692 3.969 1.692v3.579ZM60.222 23.186c0 1.041-.303 2.603-.91 4.685-.13.477-.11.792.064.944.174.151.456.119.846-.098 1.041-.564 2.104-1.28 3.188-2.147a29.48 29.48 0 0 0 3.091-2.863 28.963 28.963 0 0 0 2.7-3.351 17.842 17.842 0 0 0 1.953-3.612c.347-.867.715-1.475 1.106-1.822.39-.347.802-.52 1.236-.52.304 0 .553.12.748.358.196.238.293.51.293.813-.043 1.215-.38 2.505-1.008 3.872a21.052 21.052 0 0 1-2.44 4.001 33.672 33.672 0 0 1-3.351 3.742 34.822 34.822 0 0 1-3.742 3.156c-1.258.91-2.462 1.637-3.611 2.18-1.15.542-2.137.813-2.96.813-.218 0-.424-.12-.619-.358-.195-.239-.293-.466-.293-.683a9.55 9.55 0 0 1 .586-3.254c.39-1.084.586-2.082.586-2.993 0-.65-.413-.976-1.237-.976-1.388 0-3.145.456-5.27 1.366-2.126.911-4.674 1.92-7.646 3.026-2.971 1.106-6.355 2.115-10.15 3.026-3.796.91-8.036 1.366-12.721 1.366-11.409 0-18.263-3.383-20.562-10.15-.173-.478-.12-.835.163-1.074.282-.239.51-.25.683-.032a14.345 14.345 0 0 0 3.026 3.318c1.15.91 2.505 1.66 4.066 2.245 1.562.585 3.34 1.02 5.336 1.301 1.995.282 4.273.423 6.832.423 4.989 0 9.36-.466 13.111-1.399 3.753-.933 7.082-1.963 9.988-3.09a332.08 332.08 0 0 0 7.711-3.091c2.234-.933 4.327-1.4 6.28-1.4 1.951 0 2.927.76 2.927 2.278ZM82.024 0c.347 0 .65.12.911.358.26.238.466.661.618 1.269.152.607.26 1.431.326 2.472.065 1.041.097 2.386.097 4.035 0 2.95-.097 5.541-.293 7.775-.195 2.234-.52 4.23-.976 5.986-.455 1.757-1.062 3.352-1.822 4.783-.759 1.431-1.724 2.82-2.895 4.164a17.878 17.878 0 0 1-2.115 2.148 43.98 43.98 0 0 1-2.375 1.92c-.78.585-1.507 1.051-2.18 1.398-.672.347-1.203.52-1.594.52-.26 0-.39-.086-.39-.26.043-.347.586-.986 1.627-1.92 1.04-.932 2.342-2.31 3.904-4.131 1.171-1.345 2.104-2.657 2.798-3.937.694-1.28 1.236-2.732 1.626-4.36.39-1.626.64-3.567.749-5.823.108-2.255.14-5.032.097-8.329-.043-1.691-.032-3.058.033-4.099.065-1.04.173-1.854.325-2.44.152-.586.358-.987.618-1.204A1.38 1.38 0 0 1 82.024 0Zm68.636 30.471c-.478 0-.77-.141-.879-.423-.108-.282-.162-.661-.162-1.139 0-.477.054-.845.162-1.106.109-.26.401-.564.879-.91a14.392 14.392 0 0 0 1.854-1.27 5.128 5.128 0 0 0 1.171-1.334 5.39 5.39 0 0 0 .618-1.626c.131-.608.196-1.345.196-2.212 0-.738.119-1.367.357-1.887.239-.521.64-.781 1.204-.781.781 0 1.28.325 1.497.976a6.54 6.54 0 0 1 .325 2.082c0 1.258-.141 2.331-.423 3.22a6.866 6.866 0 0 1-1.301 2.376c-.586.694-1.334 1.355-2.245 1.984a52.605 52.605 0 0 1-3.253 2.05Zm-21.343 9.305c-.477 0-.77-.174-.878-.52-.109-.348-.163-.76-.163-1.237 0-.477.054-.9.163-1.269.108-.369.401-.553.878-.553 1.822 0 3.514-.271 5.076-.813 1.561-.543 2.906-1.248 4.034-2.115-2.082-.13-3.731-.672-4.945-1.627-1.215-.954-1.822-2.255-1.822-3.904 0-.91.195-1.724.585-2.44a5.733 5.733 0 0 1 1.562-1.822 7.613 7.613 0 0 1 2.245-1.171 8.076 8.076 0 0 1 2.57-.423c1.822 0 3.34.445 4.555 1.334 1.214.89 1.822 2.223 1.822 4.002 0 .824-.13 1.626-.391 2.407 1.909-.52 3.926-1.41 6.052-2.668v3.514a18.828 18.828 0 0 1-3.839 1.724 22.654 22.654 0 0 1-4.035.879c-1.388 1.908-3.275 3.503-5.661 4.782-2.385 1.28-4.988 1.92-7.808 1.92Zm11.647-9.565c.434-.738.651-1.562.651-2.473 0-.998-.336-1.713-1.008-2.147-.673-.434-1.443-.65-2.31-.65-1.128 0-1.974.292-2.538.878-.564.585-.846 1.182-.846 1.789 0 .738.434 1.356 1.301 1.854.868.5 2.3.749 4.295.749h.455Zm-11.647 9.565c-1.735 0-3.166-.282-4.294-.846-1.128-.564-2.028-1.301-2.701-2.212a8.202 8.202 0 0 1-1.399-3.091c-.26-1.15-.39-2.288-.39-3.416a30.49 30.49 0 0 1-5.075 4.945 38.577 38.577 0 0 1-5.889 3.774c-2.017 1.041-3.991 1.843-5.921 2.407-1.931.564-3.655.846-5.173.846-1.171 0-1.941-.162-2.31-.488-.369-.325-.12-.64.748-.943a59.582 59.582 0 0 0 12.558-5.954 40.72 40.72 0 0 0 10.151-9.012 6.25 6.25 0 0 1 1.139-1.009 2.315 2.315 0 0 1 1.334-.422c.39 0 .694.119.911.357.216.24.39.521.52.846.13.326.217.694.26 1.107.044.412.065.77.065 1.073 0 1.215.087 2.332.261 3.351.173 1.02.466 1.909.878 2.668.412.76.976 1.355 1.692 1.79.716.433 1.594.65 2.635.65v3.579ZM343.534 83.05c-.477 0-.77-.174-.879-.52a4.193 4.193 0 0 1-.162-1.237c0-.477.054-.9.162-1.269.109-.368.402-.553.879-.553.607 0 1.366-.01 2.277-.032s1.67-.098 2.278-.228c-1.172-.347-2.018-.933-2.538-1.757-.521-.824-.781-1.605-.781-2.342 0-1.128.325-2.43.976-3.905a18.805 18.805 0 0 1 2.538-4.164c1.041-1.301 2.19-2.397 3.448-3.286 1.258-.89 2.495-1.334 3.709-1.334.694 0 1.334.12 1.92.358a5.565 5.565 0 0 1 1.496.879c.412.347.727.715.944 1.106.217.39.325.737.325 1.04 0 .174-.065.261-.195.261s-.347-.184-.651-.553c-.303-.369-.802-.553-1.496-.553-1.041 0-2.115.347-3.221 1.041a15.725 15.725 0 0 0-3.026 2.473 16.055 16.055 0 0 0-2.277 2.993c-.608 1.04-.911 1.908-.911 2.602 0 .564.477 1.14 1.431 1.725.955.585 2.039.878 3.254.878.781 0 1.551-.043 2.31-.13.759-.087 1.616-.25 2.57-.488a68.679 68.679 0 0 0 3.253-.91c1.215-.37 2.668-.836 4.36-1.4a3.72 3.72 0 0 1 .651-.195c.216-.043.433-.065.65-.065.304 0 .542.054.716.162.173.109.26.38.26.814 0 .52-.152 1.04-.455 1.561-.304.521-.651.868-1.041 1.042a221.157 221.157 0 0 1-5.564 2.082c-1.93.694-3.882 1.334-5.856 1.92a60.524 60.524 0 0 1-5.856 1.43c-1.93.37-3.763.554-5.498.554Zm-10.021-13.21c-.997 0-2.255.228-3.774.683a24.37 24.37 0 0 0-4.424 1.822c-1.432.76-2.657 1.648-3.677 2.668-1.019 1.02-1.529 2.071-1.529 3.156 0 .433.044.759.13.976a53.61 53.61 0 0 1 2.343-.976 6.762 6.762 0 0 1 2.472-.456c1.475 0 2.56.369 3.254 1.106.694.738 1.041 1.67 1.041 2.798 0 1.475-.51 2.56-1.529 3.254-1.02.694-2.223 1.04-3.611 1.04-1.128 0-2.148-.216-3.059-.65a6.548 6.548 0 0 1-2.277-1.757 14.8 14.8 0 0 1-2.147.749 9.13 9.13 0 0 1-2.343.292c-.477 0-.77-.173-.878-.52-.109-.347-.163-.76-.163-1.236 0-.478.054-.9.163-1.27.108-.368.401-.552.878-.552.955 0 1.909-.174 2.863-.52a8.487 8.487 0 0 1-.325-2.278c0-1.735.705-3.351 2.115-4.848 1.409-1.496 3.079-2.787 5.01-3.871a31.799 31.799 0 0 1 5.823-2.57c1.952-.63 3.492-.944 4.62-.944 1.735 0 2.983.488 3.742 1.464.759.976 1.16 2.765 1.203 5.368.044 2.473.413 4.208 1.107 5.206.694.997 1.691 1.496 2.993 1.496v3.579c-1.345 0-2.44-.282-3.286-.846a6.11 6.11 0 0 1-2.017-2.245c-.499-.933-.846-1.995-1.041-3.188a23.059 23.059 0 0 1-.293-3.742c0-1.214-.315-2.05-.944-2.505-.629-.455-1.442-.683-2.44-.683Zm-8.979 11.192c-.347 0-.727.076-1.139.227-.412.152-.857.337-1.334.554.824.694 1.67 1.04 2.538 1.04.217 0 .423-.064.618-.195.195-.13.293-.325.293-.585 0-.347-.098-.608-.293-.781a.996.996 0 0 0-.683-.26Zm-10.151 3.513c-2.863 0-5.032-.835-6.507-2.505-1.474-1.67-2.212-4.348-2.212-8.036 0-1.822.065-3.546.195-5.172.13-1.627.326-3.059.586-4.295.26-1.236.575-2.223.943-2.96.369-.738.792-1.107 1.269-1.107.608 0 1.02.185 1.236.553.217.369.326.857.326 1.464 0 .347-.054.868-.163 1.562l-.39 2.505c-.152.976-.282 2.05-.391 3.22a40.447 40.447 0 0 0-.162 3.71c0 2.733.433 4.663 1.301 5.79.868 1.129 2.191 1.693 3.969 1.693v3.578Zm-57.755-21.067c-.477 0-.77-.14-.878-.423-.109-.282-.163-.661-.163-1.138 0-.477.054-.846.163-1.106.108-.26.401-.564.878-.911a15.454 15.454 0 0 1 3.156-1.464c1.106-.37 2.18-.553 3.221-.553 1.475 0 2.494.455 3.058 1.366.607.998 1.15 1.692 1.627 2.082.477.39 1.193.586 2.147.586.781 0 1.453-.206 2.017-.618a9.348 9.348 0 0 0 1.529-1.4c.456-.52.868-.986 1.237-1.398.368-.412.748-.618 1.138-.618.521 0 1.085.097 1.692.292.607.196 1.171.293 1.692.293.607 0 .932-.78.976-2.342.043-.651.043-1.302 0-1.952a24.192 24.192 0 0 1-.065-1.562c0-.304.13-.607.39-.911.26-.304.608-.456 1.041-.456.391 0 .705.142.944.424.238.281.423.618.553 1.008.13.39.217.813.26 1.269.044.455.065.835.065 1.139 0 .52-.076 1.15-.228 1.886a11.33 11.33 0 0 1-.65 2.115 5.617 5.617 0 0 1-1.106 1.725c-.456.477-.987.715-1.595.715-.477 0-1.019-.086-1.626-.26-.608-.173-1.041-.26-1.302-.26-.303 0-.65.227-1.041.683-.39.456-.867.965-1.431 1.53a9.518 9.518 0 0 1-2.05 1.528c-.802.456-1.768.683-2.895.683-1.258 0-2.289-.292-3.091-.878-.803-.586-1.616-1.486-2.44-2.7-.217-.347-.694-.52-1.432-.52-.65 0-1.55.227-2.7.682-1.15.456-2.18.944-3.091 1.464Zm-6.442 4.75c0-1.474.554-2.928 1.66-4.36 1.106-1.43 2.7-2.754 4.782-3.968v3.578c-2.169 1.258-3.253 2.842-3.253 4.75 0 .434.043.76.13.976a54.093 54.093 0 0 1 2.342-.976 6.764 6.764 0 0 1 2.473-.455c1.475 0 2.559.369 3.253 1.106.694.737 1.042 1.67 1.042 2.798 0 1.475-.51 2.56-1.53 3.253-1.019.694-2.223 1.041-3.611 1.041-1.128 0-2.147-.216-3.058-.65a6.548 6.548 0 0 1-2.277-1.757c-.695.304-1.41.553-2.148.748a9.116 9.116 0 0 1-2.342.293c-.477 0-.77-.174-.879-.52-.108-.347-.162-.76-.162-1.237 0-.477.054-.9.162-1.269.109-.368.402-.553.879-.553.954 0 1.908-.173 2.863-.52a8.489 8.489 0 0 1-.326-2.278Zm7.613 2.863c-.347 0-.726.076-1.138.228-.412.152-.857.336-1.334.553.824.694 1.67 1.041 2.538 1.041a1.1 1.1 0 0 0 .618-.195c.195-.13.292-.325.292-.586 0-.347-.097-.607-.292-.78a.998.998 0 0 0-.684-.26Zm-10.15 3.514c-2.863 0-5.032-.835-6.507-2.505-1.475-1.67-2.212-4.349-2.212-8.036 0-1.822.065-3.546.195-5.173.13-1.627.325-3.058.586-4.294.26-1.237.574-2.224.943-2.961.369-.738.792-1.106 1.269-1.106.607 0 1.019.184 1.236.553.217.369.325.857.325 1.464 0 .347-.054.867-.162 1.562l-.391 2.505c-.151.976-.282 2.05-.39 3.22a40.436 40.436 0 0 0-.163 3.71c0 2.732.434 4.663 1.302 5.79.867 1.128 2.19 1.692 3.969 1.692v3.579Z"/>
</svg>
