<svg width="1000" height="315" viewBox="0 0 1000 315" fill="none" xmlns="http://www.w3.org/2000/svg">
<path d="M55.865 49.39C55.865 48.6218 56.6774 48.2377 58.3022 48.2377C59.2579 48.2377 60.1738 48.1737 61.05 48.0457C61.9261 47.9177 62.7305 47.7736 63.4632 47.6136C64.196 47.4535 64.8331 47.3095 65.3747 47.1815C65.9163 47.0534 66.3624 46.9894 66.7128 46.9894C66.9995 46.9894 67.2544 47.0454 67.4774 47.1575C67.7004 47.2695 67.8119 47.4855 67.8119 47.8056C67.8119 48.0937 67.5252 48.4538 66.9517 48.8859C66.3783 49.318 65.6376 49.7341 64.7296 50.1342C63.8216 50.5343 62.8101 50.8864 61.6951 51.1905C60.58 51.4946 59.4969 51.6466 58.4455 51.6466C58.0632 51.6466 57.7128 51.5666 57.3942 51.4066C57.0756 51.2465 56.8048 51.0465 56.5818 50.8064C56.3588 50.5663 56.1836 50.3183 56.0561 50.0622C55.9287 49.8061 55.865 49.5821 55.865 49.39Z" fill="#050033"/>
<path d="M87.5721 43.4845C87.126 43.4845 86.8473 43.3405 86.7358 43.0524C86.6243 42.7643 86.5685 42.2522 86.5685 41.516C86.5685 40.9079 86.6243 40.4757 86.7358 40.2197C86.8473 39.9636 87.126 39.6595 87.5721 39.3074C88.2729 38.8913 89.0137 38.5713 89.7942 38.3472C90.5747 38.1231 91.3314 38.0111 92.0641 38.0111C93.434 38.0111 94.3898 38.4752 94.9314 39.4035C95.2818 40.0436 95.6084 40.4597 95.911 40.6518C96.2137 40.8438 96.6358 40.9399 97.1774 40.9399C97.6871 40.9399 98.1252 40.7878 98.4916 40.4837C98.8579 40.1797 99.1924 39.8516 99.4951 39.4995C99.7977 39.1474 100.092 38.8193 100.379 38.5152C100.666 38.2112 100.969 38.0591 101.287 38.0591C101.669 38.0591 102.052 38.1231 102.434 38.2512C102.816 38.3792 103.167 38.4432 103.485 38.4432C103.836 38.4432 104.027 38.0111 104.059 37.1469C104.059 36.6988 104.051 36.2667 104.035 35.8506C104.019 35.4344 104.011 35.0343 104.011 34.6502C104.011 34.3622 104.138 34.0421 104.393 33.69C104.648 33.3379 105.046 33.1619 105.588 33.1619C106.034 33.1619 106.384 33.2819 106.639 33.522C106.894 33.762 107.093 34.0661 107.237 34.4342C107.38 34.8023 107.468 35.1864 107.5 35.5865C107.531 35.9866 107.547 36.3307 107.547 36.6188C107.547 37.0669 107.484 37.595 107.356 38.2032C107.229 38.8113 107.038 39.4035 106.783 39.9796C106.528 40.5558 106.209 41.0439 105.827 41.444C105.445 41.8441 104.983 42.0442 104.441 42.0442C104.027 42.0442 103.613 41.9881 103.199 41.8761C102.784 41.7641 102.482 41.7081 102.291 41.7081C102.1 41.7081 101.869 41.8761 101.598 42.2122C101.327 42.5483 100.977 42.9164 100.546 43.3165C100.116 43.7166 99.5907 44.0847 98.9694 44.4208C98.3482 44.7569 97.6075 44.9249 96.7473 44.9249C95.7278 44.9249 94.8915 44.7088 94.2384 44.2767C93.5853 43.8446 92.9402 43.1804 92.303 42.2842C92.1438 42.0922 91.857 41.9961 91.4429 41.9961C90.9969 41.9961 90.3995 42.1562 89.6508 42.4763C88.9022 42.7963 88.2092 43.1324 87.5721 43.4845ZM81.5986 47.0374C81.5986 45.8211 82.1004 44.5168 83.1039 43.1244C84.1075 41.7321 85.6128 40.4597 87.6198 39.3074V43.4845C86.6004 44.0607 85.8915 44.6288 85.4933 45.189C85.0951 45.7491 84.896 46.3653 84.896 47.0374V47.0855C85.4376 46.8294 85.9951 46.5973 86.5685 46.3893C87.142 46.1812 87.7473 46.0772 88.3845 46.0772C89.7225 46.0772 90.7101 46.4053 91.3473 47.0614C91.9845 47.7176 92.303 48.5578 92.303 49.5821C92.303 50.9264 91.8491 51.9107 90.9411 52.5349C90.0331 53.159 88.9739 53.4711 87.7632 53.4711C86.8393 53.4711 86.019 53.3031 85.3021 52.967C84.5853 52.6309 83.9561 52.1908 83.4145 51.6466C82.9367 51.9027 82.4349 52.1027 81.9092 52.2468C81.3836 52.3908 80.8181 52.4628 80.2128 52.4628C79.5119 52.4628 79.0898 52.2788 78.9464 51.9107C78.803 51.5426 78.7314 51.0865 78.7314 50.5423C78.7314 50.0302 78.803 49.5661 78.9464 49.15C79.0898 48.7339 79.5119 48.5258 80.2128 48.5258C80.7862 48.5258 81.28 48.4618 81.6942 48.3338C81.6305 48.1097 81.5986 47.8937 81.5986 47.6856C81.5986 47.4776 81.5986 47.2615 81.5986 47.0374ZM88.0022 49.15C87.7473 49.15 87.4845 49.214 87.2137 49.342C86.9429 49.4701 86.6482 49.6301 86.3296 49.8222C86.8712 50.2703 87.4446 50.4943 88.0499 50.4943C88.2092 50.4943 88.3606 50.4383 88.5039 50.3263C88.6473 50.2143 88.719 50.0622 88.719 49.8702C88.719 49.6461 88.6473 49.4701 88.5039 49.342C88.3606 49.214 88.1933 49.15 88.0022 49.15ZM80.2606 52.4628C77.7756 52.4628 75.8721 51.7907 74.55 50.4463C73.2278 49.102 72.5668 46.9734 72.5668 44.0607C72.5668 42.6523 72.6305 41.3 72.7579 40.0036C72.8854 38.7073 73.0686 37.571 73.3075 36.5947C73.5464 35.6185 73.8491 34.8423 74.2155 34.2661C74.5818 33.69 75.004 33.4019 75.4818 33.4019C76.2146 33.4019 76.7084 33.594 76.9632 33.9781C77.2181 34.3622 77.3455 34.8903 77.3455 35.5625C77.3455 36.1386 77.2101 37.1469 76.9393 38.5873C76.6685 40.0276 76.5331 41.7241 76.5331 43.6766C76.5331 45.437 76.8517 46.6853 77.4889 47.4215C78.126 48.1577 79.0499 48.5258 80.2606 48.5258V52.4628Z" fill="#050033"/>
<path d="M70.7986 73.5162C71.5314 73.5162 72.0491 73.7643 72.3517 74.2604C72.6544 74.7566 72.8057 75.2287 72.8057 75.6768C72.8057 76.285 72.5907 76.8451 72.1606 77.3572C71.7305 77.8694 71.1809 78.1254 70.5119 78.1254C69.811 78.1254 69.15 77.8694 68.5287 77.3572C67.9075 76.8451 67.5969 76.269 67.5969 75.6288C67.6287 75.2767 67.7562 74.9646 67.9792 74.6926C68.2022 74.4205 68.473 74.1964 68.7916 74.0204C69.1102 73.8443 69.4447 73.7163 69.7951 73.6363C70.1455 73.5563 70.4801 73.5162 70.7986 73.5162Z" fill="#050033"/>
<path d="M86.9986 79.7579C86.9986 78.9897 87.811 78.6056 89.4358 78.6056C90.3915 78.6056 91.3075 78.5415 92.1836 78.4135C93.0597 78.2855 93.8641 78.1414 94.5968 77.9814C95.3296 77.8214 95.9668 77.6773 96.5084 77.5493C97.05 77.4213 97.496 77.3572 97.8464 77.3572C98.1332 77.3572 98.388 77.4133 98.611 77.5253C98.834 77.6373 98.9455 77.8534 98.9455 78.1734C98.9455 78.4615 98.6588 78.8216 98.0853 79.2537C97.5119 79.6858 96.7712 80.1019 95.8632 80.502C94.9553 80.9021 93.9438 81.2542 92.8287 81.5583C91.7137 81.8624 90.6305 82.0144 89.5792 82.0144C89.1969 82.0144 88.8464 81.9344 88.5278 81.7744C88.2092 81.6143 87.9384 81.4143 87.7154 81.1742C87.4924 80.9342 87.3172 80.6861 87.1898 80.43C87.0623 80.174 86.9986 79.9499 86.9986 79.7579Z" fill="#050033"/>
<path d="M100.204 105.621C100.204 104.852 101.016 104.468 102.641 104.468C103.597 104.468 104.513 104.404 105.389 104.276C106.265 104.148 107.069 104.004 107.802 103.844C108.535 103.684 109.172 103.54 109.714 103.412C110.255 103.284 110.701 103.22 111.052 103.22C111.338 103.22 111.593 103.276 111.816 103.388C112.039 103.5 112.151 103.716 112.151 104.036C112.151 104.324 111.864 104.684 111.291 105.116C110.717 105.549 109.977 105.965 109.069 106.365C108.161 106.765 107.149 107.117 106.034 107.421C104.919 107.725 103.836 107.877 102.785 107.877C102.402 107.877 102.052 107.797 101.733 107.637C101.415 107.477 101.144 107.277 100.921 107.037C100.698 106.797 100.523 106.549 100.395 106.293C100.268 106.037 100.204 105.813 100.204 105.621Z" fill="#050033"/>
<path d="M73.5027 27.4964C72.8018 27.4964 72.3797 27.3123 72.2363 26.9443C72.0929 26.5762 72.0213 26.12 72.0213 25.5759C72.0213 25.0318 72.0929 24.5596 72.2363 24.1595C72.3797 23.7594 72.8018 23.5594 73.5027 23.5594C73.8531 23.5594 74.2593 23.5514 74.7213 23.5354C75.1832 23.5194 75.5894 23.4794 75.9398 23.4153C75.239 23.1273 74.7451 22.7112 74.4584 22.167C74.1717 21.6229 74.0283 21.1268 74.0283 20.6786C74.0283 19.7824 74.2912 18.7581 74.8168 17.6058C75.3425 16.4535 76.0115 15.3733 76.8239 14.365C77.6363 13.3567 78.5443 12.5085 79.5478 11.8204C80.5513 11.1322 81.531 10.7881 82.4868 10.7881C83.1239 10.7881 83.6974 10.9081 84.2071 11.1482C84.7168 11.3882 85.1549 11.6763 85.5213 12.0124C85.8876 12.3485 86.1664 12.7246 86.3576 13.1407C86.5487 13.5568 86.6443 13.9249 86.6443 14.245C86.6443 14.5651 86.5168 14.7251 86.262 14.7251C86.1664 14.7251 86.0629 14.6851 85.9513 14.6051C85.8398 14.5251 85.7124 14.429 85.5691 14.317C85.4257 14.205 85.2584 14.1089 85.0673 14.0289C84.8761 13.9489 84.6213 13.9089 84.3027 13.9089C83.6337 13.9089 82.9328 14.133 82.2 14.5811C81.4673 15.0292 80.7982 15.5653 80.1929 16.1895C79.5876 16.8136 79.0859 17.4618 78.6876 18.134C78.2894 18.8062 78.0903 19.3663 78.0903 19.8144C78.0903 20.1345 78.369 20.4626 78.9266 20.7987C79.4841 21.1348 80.1292 21.3028 80.862 21.3028C81.3717 21.3028 81.8974 21.2628 82.439 21.1828C82.9806 21.1027 83.5859 20.9827 84.2549 20.8227C84.9239 20.6626 85.7045 20.4386 86.5965 20.1505C87.4885 19.8624 88.5399 19.5263 89.7505 19.1422C89.9098 19.0782 90.1089 19.0222 90.3478 18.9742C90.5868 18.9262 90.8337 18.9022 91.0885 18.9022C91.439 18.9022 91.7257 18.9902 91.9487 19.1662C92.1717 19.3423 92.2832 19.6544 92.2832 20.1025C92.2832 20.6786 92.1399 21.2308 91.8531 21.7589C91.5664 22.2871 91.216 22.6311 90.8018 22.7912C89.4956 23.3033 88.1018 23.8395 86.6204 24.3996C85.139 24.9597 83.6496 25.4639 82.1522 25.912C80.6549 26.3601 79.1655 26.7362 77.6841 27.0403C76.2027 27.3444 74.8089 27.4964 73.5027 27.4964ZM73.5027 27.4964C72.4195 27.4964 71.4797 27.3604 70.6832 27.0883C69.8867 26.8162 69.2655 26.3761 68.8195 25.7679C68.0867 26.9523 67.1867 27.8485 66.1195 28.4566C65.0522 29.0648 63.9611 29.3689 62.846 29.3689C62.1451 29.3689 61.723 29.1848 61.5796 28.8167C61.4363 28.4486 61.3646 27.9925 61.3646 27.4484C61.3646 26.9042 61.4363 26.4321 61.5796 26.032C61.723 25.6319 62.1451 25.4319 62.846 25.4319C63.7699 25.4319 64.5982 25.1038 65.331 24.4476C66.0637 23.7914 66.5416 22.9032 66.7646 21.7829C66.892 21.2068 67.1389 20.7827 67.5053 20.5106C67.8717 20.2385 68.262 20.1025 68.6761 20.1025C69.0903 20.1025 69.4726 20.2465 69.823 20.5346C70.1735 20.8227 70.3965 21.2228 70.492 21.7349C70.5876 22.279 70.8744 22.7192 71.3522 23.0552C71.8301 23.3913 72.5469 23.5594 73.5027 23.5594V27.4964ZM54.0531 27.5924C54.531 27.3364 54.9133 26.9523 55.2 26.4401C55.4867 25.928 55.6301 25.3518 55.6301 24.7117C55.6301 23.9115 55.6221 22.9992 55.6062 21.975C55.5903 20.9507 55.5823 19.9424 55.5823 18.9502C55.5823 17.9579 55.5743 17.0617 55.5584 16.2615C55.5425 15.4613 55.5345 14.8691 55.5345 14.485C55.5345 13.8769 55.6779 13.3407 55.9646 12.8766C56.2513 12.4125 56.8248 12.1804 57.6849 12.1804C58.6088 12.1804 59.1903 12.5726 59.4292 13.3568C59.6681 14.141 59.7876 15.3493 59.7876 16.9817C59.7876 17.7179 59.7796 18.4861 59.7637 19.2863C59.7478 20.0865 59.7398 20.9507 59.7398 21.8789C59.7398 22.5831 59.8354 23.1593 60.0265 23.6074C60.2177 24.0555 60.4566 24.4156 60.7434 24.6877C61.0301 24.9597 61.3566 25.1518 61.723 25.2638C62.0894 25.3758 62.4637 25.4319 62.846 25.4319V29.3689C62.0177 29.3689 61.2212 29.2328 60.4566 28.9608C59.692 28.6887 59.0389 28.2006 58.4973 27.4964C58.0195 28.5207 57.3982 29.3529 56.6336 29.993C55.869 30.6332 55.0088 31.2254 54.0531 31.7695C53.6071 31.7695 53.3283 31.6255 53.2168 31.3374C53.1053 31.0493 53.0495 30.5372 53.0495 29.801C53.0495 29.1928 53.1053 28.7607 53.2168 28.5047C53.3283 28.2486 53.6071 27.9445 54.0531 27.5924ZM54.0531 31.7215C52.938 32.3616 52.2212 32.8098 51.9026 33.0658C51.584 33.3219 51.4248 33.546 51.4248 33.738C51.4248 33.93 51.9345 34.0741 52.954 34.1701C54.6425 34.3622 56.0044 34.5702 57.0398 34.7943C58.0752 35.0183 58.8796 35.2904 59.4531 35.6105C60.0265 35.9306 60.4089 36.3067 60.6 36.7388C60.7912 37.1709 60.8867 37.723 60.8867 38.3952C60.8867 39.2274 60.4088 40.2517 59.4531 41.468C58.4973 42.6843 57.1991 43.8606 55.5584 44.9969C53.9177 46.1332 51.9982 47.1094 49.8 47.9257C47.6017 48.7419 45.2602 49.15 42.7752 49.15C40.9593 49.15 39.2867 48.8459 37.7575 48.2377C36.2283 47.6296 34.9062 46.8134 33.7911 45.7891C32.6761 44.7648 31.8 43.5565 31.1628 42.1642C30.5256 40.7718 30.207 39.3074 30.207 37.771C30.207 36.4267 30.5017 35.0263 31.0911 33.57C31.6805 32.1136 32.5407 30.6812 33.6716 29.2729C34.8026 27.8645 36.1725 26.4801 37.7814 25.1198C39.3902 23.7594 41.1982 22.5031 43.2053 21.3508C44.9256 20.3906 46.0248 19.9585 46.5026 20.0545C46.9805 20.1505 46.8371 20.5346 46.0725 21.2068C43.938 22.9352 42.1301 24.5356 40.6486 26.008C39.1672 27.4804 37.9566 28.8727 37.0168 30.1851C36.077 31.4974 35.4 32.7778 34.9858 34.0261C34.5716 35.2744 34.3646 36.5227 34.3646 37.771C34.3646 38.6993 34.6035 39.5955 35.0814 40.4597C35.5593 41.324 36.2044 42.0842 37.0168 42.7403C37.8292 43.3965 38.7929 43.9246 39.9079 44.3247C41.023 44.7248 42.2177 44.9249 43.492 44.9249C45.1486 44.9249 46.7734 44.6688 48.3664 44.1567C49.9593 43.6446 51.377 43.0524 52.6195 42.3802C53.8619 41.7081 54.8655 41.0279 55.6301 40.3397C56.3947 39.6515 56.777 39.1314 56.777 38.7793C56.777 38.6833 56.7212 38.5873 56.6097 38.4912C56.4982 38.3952 56.2115 38.2912 55.7495 38.1791C55.2876 38.0671 54.6186 37.9471 53.7425 37.8191C52.8664 37.691 51.6637 37.531 50.1345 37.3389C48.669 37.1789 47.6336 36.8348 47.0283 36.3067C46.423 35.7785 46.1203 35.1784 46.1203 34.5062C46.1203 34.0261 46.2478 33.562 46.5026 33.1138C46.7575 32.6657 47.1876 32.1776 47.7929 31.6495C48.3982 31.1213 49.2106 30.5372 50.2301 29.897C51.2495 29.2568 52.5239 28.4886 54.0531 27.5924V31.7215Z" fill="#050033"/>
<path d="M115.448 21.879C115.831 21.879 116.165 21.975 116.452 22.167C116.738 22.3591 116.961 22.7032 117.121 23.1993C117.28 23.6954 117.4 24.3756 117.479 25.2398C117.559 26.104 117.599 27.2083 117.599 28.5527C117.599 30.7612 117.527 32.6977 117.384 34.3622C117.24 36.0266 116.993 37.523 116.643 38.8513C116.292 40.1797 115.823 41.388 115.233 42.4763C114.644 43.5645 113.903 44.6208 113.011 45.6451C112.533 46.1892 111.984 46.7334 111.362 47.2775C110.741 47.8216 110.112 48.3018 109.475 48.7179C108.838 49.134 108.216 49.4701 107.611 49.7261C107.006 49.9822 106.48 50.1102 106.034 50.1102C105.62 50.1102 105.413 49.9662 105.413 49.6781C105.445 49.326 105.867 48.7979 106.679 48.0937C107.492 47.3895 108.471 46.3493 109.618 44.9729C110.415 44.0127 111.06 43.0604 111.554 42.1162C112.047 41.1719 112.43 40.0916 112.7 38.8753C112.971 37.659 113.154 36.2186 113.25 34.5542C113.346 32.8898 113.377 30.8733 113.346 28.5047C113.314 26.3601 113.401 24.7197 113.608 23.5834C113.815 22.4471 114.429 21.879 115.448 21.879Z" fill="#050033"/>
<path d="M112.008 90.1125C112.008 89.5684 112.079 89.0963 112.223 88.6962C112.366 88.2961 112.788 88.096 113.489 88.096C113.648 88.096 113.823 88.088 114.015 88.072C114.206 88.056 114.429 88.016 114.684 87.952C114.715 87.2158 114.771 86.5116 114.851 85.8394C114.931 85.1673 115.082 84.5831 115.305 84.087C115.528 83.5909 115.823 83.1907 116.189 82.8867C116.555 82.5826 117.025 82.4306 117.599 82.4306C117.885 82.4306 118.236 82.4946 118.65 82.6226C119.064 82.7506 119.462 82.9587 119.845 83.2468C120.227 83.5348 120.554 83.9189 120.824 84.3991C121.095 84.8792 121.231 85.4873 121.231 86.2235C121.231 87.0237 121.008 87.7759 120.562 88.4801C120.116 89.1843 119.534 89.8005 118.817 90.3286C118.1 90.8567 117.288 91.2728 116.38 91.5769C115.472 91.881 114.54 92.033 113.585 92.033C112.852 92.033 112.406 91.849 112.246 91.4809C112.087 91.1128 112.008 90.6567 112.008 90.1125ZM101.446 90.0165C101.351 91.841 100.841 93.5614 99.9172 95.1778C98.9933 96.7943 97.7987 98.2186 96.3332 99.4509C94.8677 100.683 93.2031 101.66 91.3393 102.38C89.4756 103.1 87.588 103.46 85.6765 103.46C84.3385 103.46 83.2951 103.116 82.5464 102.428C81.7977 101.74 81.4234 100.979 81.4234 100.147C81.4234 99.8911 81.519 99.763 81.7101 99.763C81.8694 99.763 82.196 99.803 82.6898 99.8831C83.1836 99.9631 83.7969 100.003 84.5296 100.003C85.7084 100.003 87.0624 99.739 88.5916 99.2109C90.1208 98.6827 91.5703 97.9466 92.9402 97.0023C94.3101 96.0581 95.473 94.9458 96.4287 93.6655C97.3845 92.3851 97.8624 90.9768 97.8624 89.4404C97.8942 88.3521 98.2686 87.3918 98.9854 86.5596C99.7022 85.7274 100.57 85.0232 101.59 84.4471C102.609 83.8709 103.7 83.4388 104.863 83.1507C106.026 82.8627 107.069 82.7186 107.993 82.7186C109.331 82.7186 110.255 82.9267 110.765 83.3428C111.275 83.7589 111.53 84.6071 111.53 85.8875C111.53 86.7197 111.689 87.2958 112.008 87.6159C112.326 87.936 112.852 88.096 113.585 88.096V92.033C111.864 92.033 110.606 91.6649 109.809 90.9287C109.013 90.1926 108.615 89.2163 108.615 88C108.615 87.3918 108.511 86.9997 108.304 86.8237C108.097 86.6476 107.707 86.5596 107.133 86.5596C106.56 86.5596 105.946 86.6316 105.293 86.7757C104.64 86.9197 104.035 87.1358 103.477 87.4238C102.92 87.7119 102.45 88.072 102.068 88.5041C101.685 88.9362 101.478 89.4404 101.446 90.0165Z" fill="#050033"/>
<path d="M138.084 49.5101C138.084 51.3025 137.622 53.031 136.698 54.6954C135.774 56.3598 134.571 57.8322 133.09 59.1125C131.609 60.3929 129.936 61.4251 128.072 62.2093C126.209 62.9935 124.337 63.3856 122.457 63.3856C121.756 63.3856 121.334 63.2016 121.191 62.8335C121.047 62.4654 120.976 62.0093 120.976 61.4651C120.976 60.921 121.047 60.4489 121.191 60.0488C121.334 59.6487 121.756 59.4486 122.457 59.4486C123.7 59.4486 125.006 59.1685 126.376 58.6084C127.746 58.0483 129.012 57.3281 130.175 56.4478C131.338 55.5676 132.301 54.5754 133.066 53.4711C133.831 52.3668 134.213 51.2865 134.213 50.2303C134.213 49.5901 134.117 49.0539 133.926 48.6218C133.735 48.1897 133.416 47.9737 132.97 47.9737C132.397 47.9737 131.712 48.2137 130.916 48.6939C130.119 49.174 129.355 49.7661 128.622 50.4703C127.889 51.1745 127.268 51.9027 126.758 52.6549C126.248 53.4071 125.993 54.0392 125.993 54.5514C125.993 55.0315 126.137 55.4556 126.424 55.8237C126.71 56.1918 127.14 56.4559 127.714 56.6159C128.542 56.84 128.853 57.096 128.646 57.3841C128.439 57.6722 127.825 57.8162 126.806 57.8162C125.372 57.8162 124.281 57.5921 123.532 57.144C122.784 56.6959 122.409 55.9597 122.409 54.9354C122.409 53.9112 122.816 52.7829 123.628 51.5506C124.44 50.3183 125.436 49.158 126.615 48.0697C127.793 46.9814 129.036 46.0772 130.342 45.357C131.648 44.6368 132.795 44.2767 133.783 44.2767C135.153 44.2767 136.212 44.7648 136.961 45.7411C137.709 46.7173 138.084 47.9737 138.084 49.5101ZM108.408 62.4254C109.427 62.4254 110.08 61.8332 110.367 60.6489C110.526 60.0088 110.741 59.5526 111.012 59.2806C111.283 59.0085 111.705 58.8725 112.278 58.8725C112.661 58.8725 112.939 58.9765 113.115 59.1845C113.29 59.3926 113.441 59.6407 113.569 59.9287C113.887 60.6969 114.381 61.081 115.05 61.081C115.878 61.081 116.452 60.4249 116.77 59.1125C116.898 58.6644 117.081 58.2563 117.32 57.8882C117.559 57.5201 117.933 57.3361 118.443 57.3361C118.921 57.3361 119.255 57.4481 119.446 57.6722C119.638 57.8962 119.829 58.1363 120.02 58.3923C120.211 58.6484 120.474 58.8885 120.808 59.1125C121.143 59.3366 121.693 59.4486 122.457 59.4486V63.3856C121.724 63.3856 121.063 63.2976 120.474 63.1216C119.885 62.9455 119.399 62.6334 119.016 62.1853C117.901 64.0738 116.5 65.0181 114.811 65.0181C113.887 65.0181 113.139 64.698 112.565 64.0578C111.992 64.89 111.346 65.4822 110.63 65.8343C109.913 66.1864 109.077 66.3624 108.121 66.3624C106.719 66.3624 105.668 65.7222 104.967 64.4419C104.361 65.4662 103.613 66.2504 102.721 66.7945C101.829 67.3387 100.921 67.6107 99.9969 67.6107C99.296 67.6107 98.8739 67.4267 98.7305 67.0586C98.5871 66.6905 98.5155 66.2344 98.5155 65.6902C98.5155 65.1461 98.5871 64.674 98.7305 64.2739C98.8739 63.8738 99.296 63.6737 99.9969 63.6737C100.761 63.6737 101.391 63.4737 101.884 63.0736C102.378 62.6735 102.8 62.2333 103.151 61.7532C103.501 61.2731 103.836 60.833 104.154 60.4329C104.473 60.0328 104.855 59.8327 105.301 59.8327C105.684 59.8327 105.978 59.8967 106.185 60.0248C106.392 60.1528 106.592 60.4569 106.783 60.937C107.165 61.9292 107.707 62.4254 108.408 62.4254ZM99.9969 67.6107C98.9137 67.6107 97.9739 67.4747 97.1774 67.2026C96.3809 66.9306 95.7597 66.4904 95.3137 65.8823C94.5809 67.0666 93.6809 67.9628 92.6137 68.571C91.5464 69.1791 90.4553 69.4832 89.3402 69.4832C88.6393 69.4832 88.2172 69.2992 88.0738 68.9311C87.9305 68.563 87.8588 68.1069 87.8588 67.5627C87.8588 67.0186 87.9305 66.5465 88.0738 66.1464C88.2172 65.7462 88.6393 65.5462 89.3402 65.5462C90.2641 65.5462 91.0924 65.2181 91.8252 64.5619C92.5579 63.9058 93.0358 63.0175 93.2588 61.8973C93.3862 61.3211 93.6331 60.897 93.9995 60.6249C94.3659 60.3529 94.7562 60.2168 95.1703 60.2168C95.5845 60.2168 95.9668 60.3608 96.3172 60.6489C96.6677 60.937 96.8907 61.3371 96.9862 61.8492C97.0818 62.3934 97.3686 62.8335 97.8464 63.1696C98.3243 63.5057 99.0411 63.6737 99.9969 63.6737V67.6107ZM68.8871 91.1848C67.2305 91.1848 65.4862 90.8887 63.6544 90.2966C61.8225 89.7044 60.134 88.8162 58.5889 87.6319C57.0438 86.4476 55.7694 84.9912 54.7659 83.2628C53.7623 81.5343 53.2606 79.5338 53.2606 77.2612C53.2606 75.6608 53.611 74.1164 54.3119 72.628C55.0128 71.1396 55.9526 69.7553 57.1314 68.475C58.3101 67.1946 59.6721 66.0343 61.2172 64.9941C62.7623 63.9538 64.3871 63.0576 66.0916 62.3054C67.796 61.5532 69.5163 60.977 71.2526 60.5769C72.9889 60.1768 74.6535 59.9767 76.2464 59.9767C76.565 59.9767 76.8597 60.0408 77.1305 60.1688C77.4013 60.2968 77.5924 60.4489 77.7039 60.6249C77.8154 60.801 77.8393 60.969 77.7756 61.1291C77.7119 61.2891 77.5048 61.4171 77.1544 61.5132C74.7331 62.0573 72.3597 62.8815 70.034 63.9858C67.7084 65.0901 65.6376 66.3544 63.8216 67.7788C62.0057 69.2031 60.5402 70.7315 59.4252 72.364C58.3101 73.9964 57.7526 75.6128 57.7526 77.2132C57.7526 78.4615 58.0712 79.6698 58.7084 80.8381C59.3455 82.0064 60.1898 83.0387 61.2411 83.9349C62.2924 84.8312 63.5031 85.5434 64.873 86.0715C66.2429 86.5996 67.6447 86.8637 69.0783 86.8637C71.0217 86.8637 72.8933 86.4796 74.6933 85.7114C76.4933 84.9432 78.0783 83.8149 79.4482 82.3265C80.8181 80.8381 81.9092 78.9897 82.7216 76.7811C83.534 74.5725 83.9402 72.0279 83.9402 69.1471C83.9402 68.667 83.9243 68.1869 83.8924 67.7068C83.8606 67.2266 83.8446 66.7465 83.8446 66.2664C83.8446 65.3702 84.0358 64.698 84.4181 64.2499C84.8004 63.8018 85.3101 63.5777 85.9473 63.5777C86.5208 63.5777 86.9031 63.6817 87.0942 63.8898C87.2854 64.0978 87.4446 64.3219 87.5721 64.5619C87.6995 64.802 87.8747 65.0261 88.0977 65.2341C88.3207 65.4422 88.7349 65.5462 89.3402 65.5462V69.4832C88.7349 69.4832 88.2889 69.4192 88.0022 69.2912C87.9385 72.684 87.3889 75.7328 86.3535 78.4375C85.3181 81.1422 83.9323 83.4388 82.196 85.3273C80.4597 87.2158 78.4526 88.6642 76.1747 89.6724C73.8969 90.6807 71.4677 91.1848 68.8871 91.1848Z" fill="#050033"/>
<path d="M129.832 68.507C130.215 68.507 130.549 68.603 130.836 68.795C131.123 68.9871 131.346 69.3312 131.505 69.8273C131.664 70.3234 131.784 71.0036 131.863 71.8678C131.943 72.7321 131.983 73.8363 131.983 75.1807C131.983 77.3893 131.911 79.3258 131.768 80.9902C131.624 82.6546 131.378 84.151 131.027 85.4793C130.677 86.8077 130.207 88.016 129.617 89.1043C129.028 90.1926 128.287 91.2488 127.395 92.2731C126.917 92.8172 126.368 93.3614 125.747 93.9055C125.125 94.4496 124.496 94.9298 123.859 95.3459C123.222 95.762 122.601 96.0981 121.995 96.3541C121.39 96.6102 120.864 96.7382 120.418 96.7382C120.004 96.7382 119.797 96.5942 119.797 96.3061C119.829 95.954 120.251 95.4259 121.063 94.7217C121.876 94.0175 122.855 92.9773 124.002 91.6009C124.799 90.6407 125.444 89.6884 125.938 88.7442C126.432 87.7999 126.814 86.7197 127.085 85.5033C127.355 84.287 127.539 82.8467 127.634 81.1822C127.73 79.5178 127.762 77.5013 127.73 75.1327C127.698 72.9881 127.786 71.3477 127.993 70.2114C128.2 69.0751 128.813 68.507 129.832 68.507Z" fill="#050033"/>
<g clip-path="url(#clip0_410_4490)">
<path d="M91.2969 221.927C91.2969 219.78 93.5727 218.706 98.1242 218.706C100.802 218.706 103.367 218.527 105.822 218.17C108.276 217.812 110.529 217.409 112.582 216.962C114.635 216.515 116.42 216.112 117.937 215.754C119.454 215.397 120.703 215.218 121.685 215.218C122.488 215.218 123.202 215.374 123.827 215.687C124.452 216 124.764 216.604 124.764 217.499C124.764 218.304 123.961 219.31 122.355 220.518C120.748 221.725 118.673 222.888 116.13 224.006C113.586 225.124 110.753 226.108 107.629 226.958C104.505 227.808 101.471 228.233 98.5258 228.233C97.4549 228.233 96.4731 228.009 95.5807 227.562C94.6882 227.115 93.9297 226.556 93.3049 225.885C92.6802 225.214 92.1893 224.521 91.8324 223.805C91.4754 223.089 91.2969 222.463 91.2969 221.927Z" fill="#CD6C58"/>
<path d="M146.321 128.406C148.373 128.406 149.824 129.099 150.672 130.486C151.519 131.872 151.943 133.192 151.943 134.444C151.943 136.144 151.341 137.709 150.136 139.14C148.931 140.572 147.392 141.287 145.518 141.287C143.554 141.287 141.702 140.572 139.962 139.14C138.222 137.709 137.352 136.099 137.352 134.31C137.441 133.326 137.798 132.454 138.423 131.694C139.047 130.933 139.806 130.307 140.698 129.815C141.591 129.323 142.528 128.965 143.51 128.742C144.491 128.518 145.428 128.406 146.321 128.406Z" fill="#CD6C58"/>
<path d="M363.453 120.982C363.453 118.745 365.729 117.627 370.28 117.627C372.958 117.627 375.524 117.448 377.978 117.091C380.432 116.733 382.686 116.33 384.738 115.883C386.791 115.436 388.576 115.033 390.093 114.675C391.61 114.318 392.86 114.139 393.841 114.139C394.645 114.139 395.359 114.318 395.983 114.675C396.608 115.033 396.92 115.659 396.92 116.554C396.92 117.359 396.117 118.343 394.511 119.506C392.904 120.669 390.829 121.831 388.286 122.994C385.742 124.157 382.909 125.141 379.785 125.946C376.662 126.751 373.627 127.154 370.682 127.154C369.611 127.154 368.629 126.93 367.737 126.483C366.845 126.036 366.086 125.477 365.461 124.806C364.836 124.135 364.346 123.464 363.989 122.793C363.632 122.122 363.453 121.518 363.453 120.982Z" fill="#CD6C58"/>
<path d="M481.439 167.854C481.439 170.359 480.323 172.729 478.092 174.965C475.861 177.202 472.916 178.946 469.257 180.198C472.112 180.019 475.437 179.483 479.23 178.588C483.023 177.694 486.838 176.531 490.676 175.1C491.211 174.921 491.568 175.01 491.747 175.368C491.925 175.726 491.947 176.195 491.814 176.777C491.68 177.358 491.434 177.984 491.077 178.655C490.72 179.326 490.274 179.84 489.739 180.198C485.633 183.15 481.617 185.252 477.69 186.504C473.764 187.757 469.747 188.383 465.642 188.383C463.857 188.383 462.028 188.226 460.153 187.913C458.279 187.6 456.606 187.064 455.133 186.303C453.661 185.543 452.456 184.492 451.519 183.15C450.582 181.808 450.113 180.109 450.113 178.051C450.113 175.636 450.917 173.333 452.523 171.141C454.129 168.95 456.07 166.982 458.346 165.238C460.622 163.493 463.009 162.107 465.508 161.078C468.007 160.05 470.149 159.535 471.934 159.535C474.968 159.535 477.311 160.295 478.962 161.816C480.613 163.337 481.439 165.349 481.439 167.854ZM460.153 176.575C460.153 177.381 460.421 178.029 460.957 178.521C461.492 179.013 462.162 179.393 462.965 179.662C469.747 175.457 473.139 172.014 473.139 169.33C473.139 168.257 472.603 167.72 471.532 167.72C470.818 167.72 469.837 168.033 468.587 168.659C467.338 169.285 466.088 170.046 464.839 170.94C463.589 171.835 462.496 172.796 461.559 173.825C460.622 174.854 460.153 175.77 460.153 176.575Z" fill="#CD6C58"/>
<path d="M729.094 196.12C731.147 196.12 732.597 196.813 733.445 198.2C734.293 199.586 734.717 200.906 734.717 202.158C734.717 203.858 734.114 205.423 732.909 206.854C731.705 208.285 730.165 209.001 728.291 209.001C726.328 209.001 724.476 208.285 722.735 206.854C720.995 205.423 720.125 203.813 720.125 202.024C720.214 201.04 720.571 200.168 721.196 199.407C721.821 198.647 722.579 198.021 723.472 197.529C724.364 197.037 725.301 196.679 726.283 196.456C727.265 196.232 728.202 196.12 729.094 196.12Z" fill="#CD6C58"/>
<path d="M731.641 296.081C731.641 293.935 733.916 292.861 738.468 292.861C741.145 292.861 743.711 292.682 746.165 292.324C748.62 291.967 750.873 291.564 752.926 291.117C754.978 290.67 756.763 290.267 758.281 289.909C759.798 289.551 761.047 289.373 762.029 289.373C762.832 289.373 763.546 289.529 764.171 289.842C764.796 290.155 765.108 290.759 765.108 291.654C765.108 292.459 764.305 293.465 762.698 294.673C761.092 295.88 759.017 297.043 756.473 298.161C753.93 299.279 751.096 300.263 747.973 301.113C744.849 301.963 741.815 302.388 738.87 302.388C737.799 302.388 736.817 302.164 735.924 301.717C735.032 301.269 734.273 300.71 733.649 300.04C733.024 299.369 732.533 298.675 732.176 297.96C731.819 297.244 731.641 296.618 731.641 296.081Z" fill="#CD6C58"/>
<path d="M785.59 310.036C784.876 308.783 784.274 307.173 783.783 305.205C783.292 303.237 783.047 301.135 783.047 298.899C783.047 295.858 783.739 292.973 785.122 290.245C786.505 287.516 788.29 285.124 790.477 283.066C792.663 281.009 795.162 279.376 797.973 278.169C800.785 276.961 803.618 276.357 806.474 276.357C810.222 276.357 812.944 277.23 814.64 278.974C816.336 280.718 817.184 282.753 817.184 285.079C817.184 287.494 816.581 289.417 815.376 290.848C814.171 292.28 812.699 293.532 810.959 294.605C809.218 295.679 807.433 296.707 805.604 297.691C803.774 298.675 802.235 299.928 800.985 301.448C800.361 302.253 799.736 302.656 799.111 302.656C798.486 302.656 798.174 302.164 798.174 301.18C798.174 298.944 798.687 297.088 799.714 295.612C800.74 294.136 801.878 292.861 803.127 291.788C804.377 290.714 805.515 289.753 806.541 288.903C807.567 288.053 808.08 287.136 808.08 286.152C808.08 285.437 807.723 284.967 807.009 284.743C806.296 284.52 805.448 284.408 804.466 284.408C802.681 284.408 800.852 285.146 798.977 286.622C797.103 288.098 795.318 290.043 793.623 292.459C791.927 294.874 790.387 297.602 789.004 300.643C787.621 303.685 786.483 306.815 785.59 310.036Z" fill="#CD6C58"/>
<path d="M636.325 247.152C638.377 247.152 639.828 247.823 640.675 249.164C641.523 250.506 641.947 251.803 641.947 253.056C641.947 254.845 641.345 256.455 640.14 257.886C638.935 259.317 637.396 260.033 635.521 260.033C633.558 260.033 631.706 259.317 629.966 257.886C628.226 256.455 627.355 254.845 627.355 253.056C627.445 252.072 627.802 251.199 628.426 250.439C629.051 249.679 629.81 249.053 630.702 248.561C631.595 248.069 632.532 247.711 633.513 247.487C634.495 247.264 635.432 247.152 636.325 247.152Z" fill="#CD6C58"/>
<path d="M580.993 128.361C583.045 128.361 584.496 129.055 585.343 130.441C586.191 131.828 586.615 133.147 586.615 134.399C586.615 136.099 586.013 137.664 584.808 139.095C583.603 140.527 582.064 141.242 580.189 141.242C578.226 141.242 576.374 140.527 574.634 139.095C572.894 137.664 572.023 136.054 572.023 134.265C572.113 133.281 572.47 132.409 573.094 131.649C573.719 130.888 574.478 130.262 575.37 129.77C576.263 129.278 577.2 128.92 578.181 128.697C579.163 128.473 580.1 128.361 580.993 128.361Z" fill="#CD6C58"/>
<path d="M615.93 125.812C617.983 125.812 619.433 126.506 620.281 127.892C621.129 129.279 621.553 130.598 621.553 131.85C621.553 133.55 620.95 135.115 619.745 136.547C618.541 137.978 617.001 138.693 615.127 138.693C613.164 138.693 611.312 137.978 609.571 136.547C607.831 135.115 606.961 133.505 606.961 131.716C607.05 130.732 607.407 129.86 608.032 129.1C608.657 128.339 609.415 127.713 610.308 127.221C611.2 126.729 612.137 126.372 613.119 126.148C614.101 125.924 615.038 125.812 615.93 125.812Z" fill="#CD6C58"/>
<path d="M214.059 207.927C212.809 207.927 212.028 207.525 211.716 206.72C211.403 205.915 211.247 204.484 211.247 202.426C211.247 200.727 211.403 199.519 211.716 198.803C212.028 198.088 212.809 197.238 214.059 196.254C214.148 196.254 214.215 196.232 214.259 196.187C214.304 196.142 214.371 196.12 214.46 196.12C212.854 194.599 211.649 192.967 210.846 191.222C210.042 189.478 209.641 187.846 209.641 186.325C209.641 184.894 209.909 183.463 210.444 182.031C210.98 180.6 211.76 179.326 212.787 178.207C213.813 177.089 215.04 176.195 216.468 175.524C217.896 174.853 219.547 174.518 221.421 174.518C225.17 174.518 228.159 175.591 230.391 177.738C232.622 179.885 233.737 182.747 233.737 186.325C233.737 190.35 232.086 194.018 228.784 197.327C225.482 200.637 220.573 204.17 214.059 207.927ZM215.799 186.862C215.799 189.009 216.602 191.334 218.208 193.839C220.44 192.318 222.024 191.021 222.961 189.948C223.898 188.874 224.366 187.756 224.366 186.593C224.366 185.431 223.965 184.536 223.162 183.91C222.358 183.284 221.377 182.971 220.217 182.971C219.146 182.971 218.119 183.306 217.138 183.977C216.156 184.648 215.71 185.609 215.799 186.862ZM214.059 207.793C210.935 209.582 208.927 210.834 208.034 211.55C207.142 212.266 206.696 212.892 206.696 213.429C206.696 213.965 208.124 214.368 210.98 214.636C215.71 215.173 219.525 215.754 222.425 216.38C225.326 217.007 227.579 217.767 229.186 218.661C230.792 219.556 231.863 220.607 232.399 221.815C232.934 223.022 233.202 224.565 233.202 226.444C233.202 228.769 231.863 231.632 229.186 235.031C226.508 238.43 222.872 241.717 218.275 244.893C213.679 248.068 208.302 250.797 202.144 253.078C195.986 255.358 189.427 256.499 182.465 256.499C177.378 256.499 172.693 255.649 168.409 253.95C164.125 252.25 160.422 249.969 157.298 247.107C154.174 244.244 151.72 240.868 149.935 236.976C148.15 233.085 147.258 228.993 147.258 224.699C147.258 220.942 148.083 217.029 149.734 212.959C151.385 208.889 153.795 204.886 156.963 200.95C160.132 197.014 163.969 193.146 168.476 189.344C172.983 185.542 178.048 182.031 183.67 178.811C188.49 176.128 191.569 174.92 192.907 175.188C194.246 175.457 193.844 176.53 191.702 178.409C185.723 183.239 180.658 187.712 176.508 191.826C172.358 195.941 168.967 199.832 166.334 203.5C163.701 207.167 161.805 210.745 160.645 214.234C159.485 217.722 158.904 221.211 158.904 224.699C158.904 227.293 159.574 229.798 160.912 232.213C162.251 234.628 164.058 236.753 166.334 238.587C168.61 240.42 171.31 241.896 174.433 243.014C177.557 244.132 180.904 244.692 184.473 244.692C189.114 244.692 193.666 243.976 198.128 242.545C202.59 241.113 206.562 239.459 210.042 237.58C213.523 235.702 216.334 233.801 218.476 231.878C220.618 229.955 221.689 228.501 221.689 227.517C221.689 227.249 221.533 226.98 221.221 226.712C220.908 226.444 220.105 226.153 218.811 225.84C217.517 225.527 215.643 225.191 213.188 224.833C210.734 224.476 207.365 224.028 203.081 223.492C198.976 223.044 196.075 222.083 194.38 220.607C192.684 219.131 191.836 217.454 191.836 215.575C191.836 214.234 192.193 212.937 192.907 211.684C193.621 210.432 194.826 209.068 196.522 207.592C198.217 206.116 200.493 204.484 203.349 202.694C206.205 200.905 209.775 198.759 214.059 196.254V207.793Z" fill="#CD6C58"/>
<path d="M698.797 229.44C699.154 229.083 699.556 228.77 700.002 228.501C700.448 228.233 701.028 228.099 701.742 228.099C703.081 228.099 704.063 228.591 704.688 229.575C705.312 230.559 705.625 231.677 705.625 232.929C705.625 234.45 705.357 235.814 704.821 237.021C704.286 238.229 703.572 239.369 702.68 240.443C698.396 245.452 693.643 249.925 688.422 253.86C683.202 257.796 678.048 261.173 672.961 263.991C667.874 266.808 663.077 268.955 658.57 270.431C654.063 271.907 650.337 272.645 647.392 272.645C643.911 272.645 642.081 272.086 641.903 270.968C641.724 269.85 643.019 268.62 645.785 267.278C650.783 264.863 655.513 262.381 659.975 259.831C664.438 257.282 668.811 254.509 673.094 251.512C677.378 248.516 681.617 245.206 685.812 241.583C690.007 237.961 694.335 233.913 698.797 229.44Z" fill="#CD6C58"/>
<path d="M627.356 210.924C630.479 210.924 632.934 210.097 634.719 208.442C636.504 206.787 637.396 204.349 637.396 201.129C637.396 198.982 637.842 197.305 638.735 196.098C639.627 194.89 640.966 194.286 642.751 194.286C644.803 194.286 646.12 195.046 646.7 196.567C647.28 198.088 647.57 199.877 647.57 201.934C647.57 208.017 645.807 212.869 642.282 216.492C638.757 220.115 633.781 221.926 627.356 221.926C625.392 221.926 624.21 221.412 623.808 220.383C623.407 219.355 623.206 218.08 623.206 216.559C623.206 215.039 623.407 213.719 623.808 212.601C624.21 211.483 625.392 210.924 627.356 210.924ZM627.356 221.926C623.875 221.926 621.086 221.323 618.989 220.115C616.892 218.907 615.04 217.588 613.433 216.157C611.827 214.726 610.265 213.406 608.748 212.199C607.231 210.991 605.267 210.387 602.858 210.387C599.02 210.387 595.049 211.64 590.943 214.144C586.838 216.649 582.777 219.824 578.761 223.671C576.976 225.281 575.147 226.712 573.273 227.964C571.398 229.217 569.703 229.843 568.186 229.843C567.025 229.843 566.445 229.261 566.445 228.098C566.445 227.114 566.936 225.728 567.918 223.939C568.9 222.15 570.261 220.204 572.001 218.102C573.741 216 575.794 213.831 578.159 211.595C580.524 209.359 583.045 207.346 585.722 205.557C588.4 203.768 591.211 202.292 594.156 201.129C597.101 199.966 600.046 199.385 602.992 199.385C606.651 199.385 609.507 199.989 611.559 201.196C613.612 202.404 615.419 203.723 616.981 205.154C618.543 206.586 620.06 207.905 621.532 209.113C623.005 210.32 624.946 210.924 627.356 210.924V221.926Z" fill="#CD6C58"/>
<path d="M29.6875 107.341C32.0971 107.341 33.7036 108.325 34.5068 110.293C35.31 112.261 35.7562 115.302 35.8454 119.417C35.9347 123.531 35.9347 128.764 35.8454 135.115C35.7562 141.466 36.1132 149.069 36.9164 157.925C37.0949 159.714 36.9387 161.168 36.4479 162.286C35.957 163.404 35.0423 163.963 33.7036 163.963C31.7401 163.963 30.3345 163.024 29.4867 161.145C28.6388 159.267 27.8579 156.896 27.144 154.034C25.6268 148.399 24.422 142.897 23.5295 137.53C22.637 132.163 22.2354 126.796 22.3247 121.429C22.3247 120.177 22.5255 118.746 22.9271 117.136C23.3287 115.526 23.8419 113.983 24.4666 112.507C25.0913 111.031 25.8499 109.801 26.7423 108.817C27.6348 107.833 28.6165 107.341 29.6875 107.341ZM34.239 172.282C36.4702 172.282 38.2328 173.109 39.5269 174.764C40.8209 176.419 41.468 178.096 41.468 179.796C41.468 180.959 41.1779 182.032 40.5978 183.016C40.0177 184 39.2591 184.872 38.322 185.632C37.3849 186.393 36.3809 186.997 35.31 187.444C34.239 187.891 33.2573 188.115 32.3649 188.115C30.7584 188.115 29.2859 187.511 27.9472 186.303C26.6085 185.096 25.9392 183.732 25.9392 182.211C25.9392 181.137 26.073 179.997 26.3408 178.789C26.6085 177.582 27.077 176.508 27.7464 175.569C28.4157 174.63 29.2636 173.847 30.2899 173.221C31.3162 172.595 32.6326 172.282 34.239 172.282Z" fill="#CD6C58"/>
<path d="M292.727 167.004C287.729 168.525 282.932 170.605 278.336 173.243C273.74 175.882 269.634 178.789 266.02 181.965C262.405 185.14 259.527 188.495 257.385 192.028C255.243 195.561 254.172 198.983 254.172 202.292C254.172 204.618 254.708 206.787 255.779 208.8C256.85 210.813 258.434 212.579 260.531 214.1C262.629 215.621 265.15 216.828 268.095 217.723C271.04 218.617 274.387 219.064 278.135 219.064C282.687 219.064 287.127 218.304 291.455 216.783C295.784 215.263 299.643 213.071 303.035 210.209C306.426 207.346 309.17 203.858 311.268 199.743C313.365 195.628 314.414 190.977 314.414 185.789C314.414 181.137 314.369 176.71 314.28 172.505C314.191 168.301 314.101 164.186 314.012 160.161C313.923 156.136 313.834 152.066 313.744 147.951C313.655 143.836 313.61 139.498 313.61 134.936C313.61 133.326 313.655 131.761 313.744 130.24C313.834 128.719 314.079 127.355 314.481 126.148C314.882 124.94 315.485 123.978 316.288 123.263C317.091 122.547 318.162 122.189 319.501 122.189C320.929 122.189 322 122.659 322.714 123.598C323.428 124.538 323.941 125.7 324.253 127.087C324.565 128.473 324.744 129.927 324.788 131.448C324.833 132.968 324.855 134.31 324.855 135.473C325.034 139.677 325.19 143.613 325.324 147.28C325.458 150.948 325.547 154.593 325.592 158.216C325.636 161.838 325.659 165.551 325.659 169.352C325.659 173.154 325.659 177.246 325.659 181.629C325.659 188.696 324.431 195.203 321.977 201.152C319.523 207.1 316.132 212.244 311.803 216.582C307.475 220.92 302.298 224.297 296.274 226.712C290.25 229.128 283.713 230.335 276.663 230.335C271.397 230.335 266.622 229.642 262.339 228.255C258.055 226.869 254.396 224.99 251.361 222.62C248.327 220.25 245.962 217.477 244.266 214.301C242.571 211.126 241.723 207.749 241.723 204.171C241.723 198.535 243.329 193.347 246.542 188.606C249.755 183.866 253.793 179.751 258.657 176.262C263.521 172.774 268.853 169.956 274.654 167.809C280.455 165.662 285.944 164.276 291.12 163.65C293.709 163.381 295.181 163.672 295.538 164.522C295.895 165.372 294.958 166.199 292.727 167.004Z" fill="#CD6C58"/>
<path d="M680.816 165.528C681.887 165.528 682.824 165.797 683.627 166.333C684.43 166.87 685.055 167.832 685.501 169.218C685.947 170.605 686.282 172.505 686.505 174.921C686.728 177.336 686.84 180.422 686.84 184.179C686.84 190.351 686.639 195.763 686.237 200.414C685.836 205.065 685.144 209.247 684.162 212.959C683.181 216.672 681.864 220.048 680.213 223.09C678.562 226.131 676.487 229.083 673.988 231.945C672.65 233.466 671.11 234.987 669.37 236.507C667.63 238.028 665.867 239.37 664.082 240.533C662.297 241.695 660.557 242.635 658.861 243.35C657.165 244.066 655.693 244.424 654.443 244.424C653.283 244.424 652.703 244.021 652.703 243.216C652.792 242.232 653.975 240.756 656.251 238.788C658.526 236.82 661.271 233.913 664.484 230.067C666.715 227.383 668.522 224.722 669.905 222.083C671.289 219.445 672.36 216.426 673.118 213.027C673.877 209.627 674.39 205.602 674.658 200.951C674.925 196.299 675.015 190.664 674.925 184.045C674.836 178.051 675.082 173.467 675.662 170.292C676.242 167.116 677.96 165.528 680.816 165.528Z" fill="#CD6C58"/>
<path d="M158.903 171.879C160.866 171.879 162.227 170.604 162.986 168.055C163.744 165.506 164.124 162.04 164.124 157.657C164.124 155.241 164.101 153.095 164.057 151.216C164.012 149.338 163.99 147.504 163.99 145.715C163.99 141.242 165.864 139.006 169.612 139.006C171.754 139.006 173.16 139.744 173.829 141.22C174.498 142.696 174.833 144.463 174.833 146.52C174.833 148.488 174.855 150.657 174.9 153.027C174.945 155.398 174.967 157.612 174.967 159.669C174.967 162.532 174.677 165.349 174.097 168.122C173.517 170.895 172.58 173.377 171.286 175.569C169.992 177.761 168.318 179.527 166.266 180.869C164.213 182.211 161.759 182.882 158.903 182.882C156.939 182.882 155.757 182.367 155.355 181.339C154.954 180.31 154.753 179.035 154.753 177.515C154.753 175.994 154.954 174.674 155.355 173.556C155.757 172.438 156.939 171.879 158.903 171.879ZM299.331 2.95187C299.331 3.75692 299.108 4.89741 298.662 6.37335C298.216 7.84928 297.658 9.36994 296.989 10.9353C296.319 12.5007 295.561 13.9766 294.713 15.3631C293.865 16.7496 293.04 17.8006 292.236 18.5163C274.923 33.7228 257.319 48.7505 239.425 63.5993C221.531 78.4481 203.258 93.2521 184.606 108.011C181.482 110.516 178.604 112.573 175.971 114.184C173.338 115.794 171.486 116.599 170.415 116.599C169.434 116.599 168.943 116.196 168.943 115.391C168.943 114.407 169.947 112.708 171.955 110.292C173.963 107.877 176.663 105.239 180.054 102.376C189.514 94.1467 198.997 86.029 208.501 78.0232C218.006 70.0174 227.466 61.9445 236.881 53.8045C246.297 45.6645 255.69 37.368 265.061 28.9149C274.432 20.4618 283.669 11.6286 292.772 2.41515C293.486 1.69955 294.2 1.11812 294.914 0.670869C295.628 0.223616 296.342 0 297.056 0C297.859 0 298.439 0.313073 298.796 0.939226C299.153 1.56538 299.331 2.23626 299.331 2.95187ZM158.903 182.882C155.868 182.882 153.236 182.501 151.004 181.741C148.773 180.981 147.033 179.751 145.784 178.051C143.731 181.361 141.21 183.866 138.22 185.565C135.23 187.265 132.173 188.114 129.05 188.114C127.086 188.114 125.904 187.6 125.502 186.571C125.101 185.543 124.9 184.268 124.9 182.747C124.9 181.227 125.101 179.907 125.502 178.789C125.904 177.671 127.086 177.112 129.05 177.112C131.638 177.112 133.958 176.195 136.011 174.361C138.064 172.528 139.402 170.045 140.027 166.915C140.384 165.305 141.076 164.119 142.102 163.359C143.128 162.599 144.222 162.218 145.382 162.218C146.542 162.218 147.613 162.621 148.595 163.426C149.576 164.231 150.201 165.349 150.469 166.78C150.737 168.301 151.54 169.531 152.879 170.47C154.217 171.41 156.225 171.879 158.903 171.879V182.882ZM108.702 146.52C112.896 146.52 115.931 147.66 117.805 149.941C119.679 152.222 120.661 156.404 120.75 162.487C120.839 168.122 121.598 171.969 123.026 174.026C124.454 176.083 126.462 177.112 129.05 177.112V188.114C125.569 188.114 122.713 187.488 120.482 186.236C118.251 184.984 116.488 183.239 115.194 181.003C113.9 178.767 113.008 176.128 112.517 173.087C112.026 170.045 111.781 166.736 111.781 163.158C111.781 161.369 111.29 160.049 110.308 159.2C109.326 158.35 108.032 157.925 106.426 157.925C104.373 157.925 101.852 158.394 98.8624 159.334C95.8726 160.273 92.9721 161.503 90.1609 163.024C87.3496 164.544 84.94 166.288 82.9319 168.256C80.9239 170.224 79.9199 172.237 79.9199 174.294C79.9199 177.157 80.8347 179.192 82.6642 180.399C84.4938 181.607 87.0596 182.255 90.3617 182.345C94.11 182.524 97.1444 183.329 99.4648 184.76C101.785 186.191 102.945 188.114 102.945 190.53C102.945 192.319 102.276 193.705 100.937 194.689C99.5987 195.673 97.903 196.165 95.8503 196.165C93.6192 196.165 91.455 195.874 89.3577 195.293C87.2604 194.711 85.1408 194.421 82.9989 194.421C79.072 194.421 75.1006 195.136 71.0845 196.567C67.0685 197.999 63.097 199.765 59.1702 201.867C55.2434 203.97 51.3388 206.273 47.4566 208.777C43.5744 211.282 39.7368 213.585 35.9439 215.688C32.1509 217.79 28.4695 219.556 24.8997 220.987C21.3298 222.419 17.8492 223.134 14.4579 223.134C10.4418 223.134 7.02813 221.882 4.21688 219.377C1.40562 216.873 0 213.205 0 208.375C0 207.302 0.156196 206.407 0.468557 205.691C0.780918 204.976 1.20482 204.618 1.7403 204.618C2.18653 204.618 2.63277 205.021 3.079 205.826C3.52523 206.631 4.14995 207.503 4.95316 208.442C5.75638 209.381 6.82734 210.231 8.16603 210.991C9.50472 211.752 11.3343 212.132 13.6547 212.132C16.0643 212.132 18.6525 211.573 21.4191 210.455C24.1857 209.337 27.1085 207.883 30.1875 206.094C33.2665 204.305 36.4347 202.337 39.6922 200.19C42.9497 198.043 46.2964 195.941 49.7324 193.884C53.1684 191.827 56.649 189.926 60.1742 188.182C63.6994 186.437 67.2023 185.118 70.6829 184.223C69.612 182.703 68.898 181.204 68.541 179.728C68.184 178.252 68.0056 176.844 68.0056 175.502C68.0056 173.445 68.608 171.275 69.8128 168.994C71.0176 166.713 72.6687 164.499 74.766 162.353C76.8632 160.206 79.2729 158.171 81.9949 156.248C84.7169 154.324 87.5951 152.647 90.6294 151.216C93.6638 149.785 96.7205 148.644 99.7995 147.795C102.878 146.945 105.846 146.52 108.702 146.52Z" fill="#CD6C58"/>
<path d="M403.08 177.739C403.08 176.218 403.281 174.899 403.682 173.78C404.084 172.662 405.267 172.103 407.23 172.103C407.676 172.103 408.167 172.081 408.703 172.036C409.238 171.991 409.863 171.88 410.577 171.701C410.666 169.643 410.822 167.675 411.045 165.797C411.268 163.919 411.692 162.286 412.317 160.9C412.942 159.513 413.767 158.395 414.794 157.545C415.82 156.695 417.136 156.271 418.743 156.271C419.546 156.271 420.528 156.449 421.688 156.807C422.848 157.165 423.964 157.746 425.035 158.551C426.106 159.357 427.02 160.43 427.779 161.772C428.538 163.113 428.917 164.813 428.917 166.87C428.917 169.107 428.292 171.209 427.043 173.177C425.793 175.145 424.164 176.866 422.156 178.342C420.148 179.818 417.873 180.981 415.329 181.831C412.786 182.681 410.175 183.106 407.498 183.106C405.445 183.106 404.196 182.591 403.749 181.563C403.303 180.534 403.08 179.259 403.08 177.739ZM346.453 184.447C346.453 182.569 347.167 180.623 348.595 178.611C350.023 176.598 351.853 174.586 354.084 172.573C356.315 170.56 358.859 168.659 361.714 166.87C364.57 165.081 367.404 163.516 370.215 162.174C373.026 160.832 375.704 159.759 378.247 158.954C380.791 158.149 382.91 157.746 384.606 157.746C387.194 157.746 389.269 158.104 390.831 158.82C392.393 159.535 393.665 160.43 394.646 161.503C395.628 162.577 396.431 163.717 397.056 164.925C397.681 166.132 398.417 167.273 399.265 168.346C400.113 169.42 401.161 170.314 402.411 171.03C403.66 171.745 405.356 172.103 407.498 172.103V183.106C404.553 183.106 402.121 182.748 400.202 182.032C398.283 181.317 396.677 180.4 395.383 179.282C394.088 178.164 393.018 176.956 392.17 175.659C391.322 174.362 390.519 173.154 389.76 172.036C389.001 170.918 388.176 170.001 387.284 169.286C386.391 168.57 385.231 168.212 383.803 168.212C381.482 168.212 378.85 168.838 375.905 170.091C372.959 171.343 370.193 172.796 367.605 174.451C365.017 176.106 362.83 177.716 361.045 179.282C359.26 180.847 358.368 181.943 358.368 182.569C358.368 183.106 358.658 183.463 359.238 183.642C359.818 183.821 361.001 183.911 362.785 183.911C364.392 183.911 366.177 183.866 368.14 183.777C370.104 183.687 372.112 183.598 374.164 183.508C376.217 183.419 378.203 183.329 380.121 183.24C382.04 183.15 383.714 183.106 385.142 183.106C386.213 183.106 387.261 183.195 388.287 183.374C389.314 183.553 390.229 183.911 391.032 184.447C391.835 184.984 392.504 185.7 393.04 186.594C393.575 187.489 393.843 188.652 393.843 190.083C393.843 192.051 392.594 194.198 390.095 196.523C387.596 198.849 384.584 201.197 381.059 203.567C377.533 205.938 373.83 208.219 369.947 210.41C366.065 212.602 362.785 214.503 360.108 216.113C358.859 216.113 358.078 215.71 357.765 214.905C357.453 214.1 357.297 212.669 357.297 210.612C357.297 208.912 357.453 207.705 357.765 206.989C358.078 206.273 358.859 205.424 360.108 204.44C361.804 203.366 363.745 202.226 365.931 201.018C368.118 199.811 370.148 198.67 372.022 197.597C373.897 196.523 375.481 195.539 376.775 194.645C378.069 193.75 378.716 193.124 378.716 192.766C378.716 192.409 378.404 192.23 377.779 192.23C375.28 192.23 372.714 192.364 370.081 192.632C367.449 192.901 364.124 193.035 360.108 193.035C355.735 193.035 352.366 192.364 350.001 191.022C347.636 189.68 346.453 187.489 346.453 184.447ZM339.358 222.285C335.788 222.285 333.133 221.301 331.393 219.333C329.653 217.365 328.783 214.95 328.783 212.088C328.783 210.478 329.117 208.8 329.787 207.056C330.456 205.312 331.393 203.724 332.598 202.293C333.803 200.862 335.164 199.699 336.681 198.804C338.198 197.91 339.849 197.462 341.634 197.462C344.311 197.462 346.766 198.446 348.997 200.414C351.228 202.382 352.835 204.887 353.816 207.928C354.887 207.391 355.958 206.832 357.029 206.251C358.1 205.67 359.126 205.066 360.108 204.44V216.113C359.037 216.739 357.966 217.276 356.895 217.723C355.824 218.17 354.798 218.618 353.816 219.065C352.924 221.927 351.384 224.7 349.198 227.384C347.011 230.067 344.468 232.594 341.567 234.965C338.667 237.335 335.521 239.482 332.129 241.405C328.738 243.328 325.324 245.005 321.888 246.437C318.452 247.868 315.128 248.964 311.915 249.724C308.702 250.484 305.846 250.864 303.347 250.864C301.83 250.864 300.313 250.641 298.796 250.194C297.279 249.746 295.918 249.12 294.713 248.315C293.508 247.51 292.526 246.526 291.768 245.363C291.009 244.2 290.585 242.948 290.496 241.606C290.496 241.07 290.719 240.801 291.165 240.801C291.612 240.801 292.348 240.913 293.374 241.137C294.401 241.36 296.074 241.472 298.394 241.472C301.339 241.472 304.798 240.958 308.769 239.929C312.741 238.9 316.757 237.492 320.817 235.703C324.878 233.914 328.738 231.879 332.397 229.598C336.056 227.317 339.046 224.879 341.366 222.285H339.358ZM340.697 212.49C341.322 212.49 342.013 212.401 342.772 212.222C343.531 212.043 344.401 211.819 345.382 211.551C345.025 210.03 344.378 208.823 343.441 207.928C342.504 207.034 341.634 206.586 340.831 206.586C339.849 206.586 338.934 207.011 338.087 207.861C337.239 208.711 336.815 209.628 336.815 210.612C336.815 211.864 338.109 212.49 340.697 212.49Z" fill="#CD6C58"/>
<path d="M434.316 237.089C433.067 237.089 432.286 236.686 431.973 235.881C431.661 235.076 431.505 233.645 431.505 231.588C431.505 229.888 431.661 228.681 431.973 227.965C432.286 227.249 433.067 226.4 434.316 225.416C436.28 224.253 438.355 223.358 440.541 222.732C442.728 222.106 444.847 221.793 446.9 221.793C450.737 221.793 453.415 223.09 454.932 225.684C455.914 227.473 456.828 228.636 457.676 229.173C458.524 229.709 459.707 229.978 461.224 229.978C462.652 229.978 463.879 229.553 464.905 228.703C465.932 227.853 466.869 226.936 467.717 225.952C468.564 224.968 469.39 224.052 470.193 223.202C470.996 222.352 471.844 221.927 472.737 221.927C473.808 221.927 474.879 222.106 475.949 222.464C477.02 222.822 478.002 223.001 478.895 223.001C479.876 223.001 480.412 221.793 480.501 219.378C480.501 218.125 480.479 216.918 480.434 215.755C480.389 214.592 480.367 213.474 480.367 212.401C480.367 211.596 480.724 210.701 481.438 209.717C482.152 208.733 483.268 208.241 484.785 208.241C486.034 208.241 487.016 208.577 487.73 209.248C488.444 209.918 489.002 210.768 489.403 211.797C489.805 212.826 490.05 213.899 490.14 215.017C490.229 216.135 490.273 217.097 490.273 217.902C490.273 219.154 490.095 220.63 489.738 222.33C489.381 224.029 488.846 225.684 488.132 227.294C487.418 228.904 486.525 230.268 485.454 231.387C484.383 232.505 483.089 233.064 481.572 233.064C480.412 233.064 479.252 232.907 478.091 232.594C476.931 232.281 476.083 232.124 475.548 232.124C475.012 232.124 474.365 232.594 473.607 233.533C472.848 234.473 471.866 235.501 470.662 236.619C469.457 237.738 467.984 238.766 466.244 239.705C464.504 240.645 462.429 241.114 460.019 241.114C457.163 241.114 454.82 240.51 452.991 239.303C451.161 238.095 449.354 236.239 447.569 233.735C447.123 233.198 446.32 232.93 445.16 232.93C443.91 232.93 442.237 233.377 440.139 234.271C438.042 235.166 436.101 236.105 434.316 237.089ZM417.583 247.018C417.583 243.619 418.988 239.974 421.799 236.083C424.611 232.192 428.828 228.636 434.45 225.416V237.089C431.594 238.699 429.608 240.287 428.493 241.852C427.377 243.418 426.82 245.14 426.82 247.018V247.152C428.337 246.437 429.898 245.788 431.505 245.207C433.111 244.625 434.807 244.334 436.592 244.334C440.34 244.334 443.107 245.251 444.892 247.085C446.677 248.919 447.569 251.267 447.569 254.129C447.569 257.886 446.297 260.637 443.754 262.381C441.21 264.125 438.243 264.998 434.852 264.998C432.263 264.998 429.965 264.528 427.957 263.589C425.949 262.649 424.187 261.42 422.67 259.899C421.331 260.614 419.925 261.174 418.453 261.576C416.98 261.979 415.396 262.18 413.7 262.18C411.737 262.18 410.554 261.666 410.153 260.637C409.751 259.608 409.55 258.334 409.55 256.813C409.55 255.382 409.751 254.085 410.153 252.922C410.554 251.759 411.737 251.177 413.7 251.177C415.307 251.177 416.69 250.999 417.85 250.641C417.672 250.015 417.583 249.411 417.583 248.829C417.583 248.248 417.583 247.644 417.583 247.018ZM435.521 252.922C434.807 252.922 434.071 253.101 433.312 253.458C432.554 253.816 431.728 254.264 430.836 254.8C432.353 256.053 433.959 256.679 435.655 256.679C436.101 256.679 436.525 256.522 436.927 256.209C437.328 255.896 437.529 255.471 437.529 254.934C437.529 254.308 437.328 253.816 436.927 253.458C436.525 253.101 436.056 252.922 435.521 252.922ZM413.834 262.18C406.873 262.18 401.541 260.301 397.837 256.544C394.133 252.788 392.281 246.839 392.281 238.699C392.281 234.763 392.46 230.984 392.817 227.361C393.174 223.739 393.687 220.563 394.356 217.835C395.026 215.107 395.873 212.937 396.9 211.327C397.926 209.717 399.109 208.912 400.447 208.912C402.5 208.912 403.883 209.449 404.597 210.522C405.311 211.596 405.668 213.072 405.668 214.95C405.668 216.56 405.289 219.378 404.53 223.403C403.772 227.428 403.392 232.169 403.392 237.626C403.392 242.545 404.285 246.034 406.07 248.091C407.855 250.149 410.443 251.177 413.834 251.177V262.18Z" fill="#CD6C58"/>
<path d="M953.548 264.818C953.994 265.176 954.418 265.489 954.82 265.758C955.221 266.026 955.645 266.294 956.092 266.563C956.627 265.221 957.207 263.812 957.832 262.336C958.457 260.86 959.215 259.541 960.108 258.378C961 257.215 962.071 256.253 963.321 255.493C964.57 254.733 966.087 254.353 967.872 254.353C969.657 254.353 971.263 254.8 972.691 255.694C974.119 256.589 975.346 257.729 976.373 259.116C977.399 260.502 978.18 262.045 978.716 263.745C979.251 265.445 979.519 267.055 979.519 268.575C979.519 272.332 978.492 275.262 976.44 277.364C974.387 279.466 971.71 280.517 968.408 280.517C965.284 280.517 962.517 279.622 960.108 277.833C959.037 279.712 957.676 281.3 956.025 282.597C954.374 283.894 952.388 284.542 950.067 284.542C948.015 284.542 946.81 283.961 946.453 282.798C946.096 281.635 945.918 280.427 945.918 279.175C945.918 277.923 946.096 276.671 946.453 275.418C946.81 274.166 948.015 273.54 950.067 273.54C950.871 273.54 951.562 273.339 952.143 272.936C952.723 272.533 953.236 271.974 953.682 271.259C953.414 270.812 953.124 270.364 952.812 269.917C952.499 269.47 952.209 269.023 951.942 268.575C951.763 268.217 951.696 267.77 951.741 267.234C951.785 266.697 951.897 266.227 952.076 265.825C952.254 265.422 952.477 265.109 952.745 264.885C953.013 264.662 953.28 264.639 953.548 264.818ZM966.533 263.208C965.909 263.208 965.373 263.946 964.927 265.422C964.481 266.898 963.901 268.665 963.187 270.722C964.882 271.438 966.355 271.795 967.604 271.795C968.586 271.795 969.278 271.46 969.679 270.789C970.081 270.118 970.282 269.425 970.282 268.709C970.282 267.368 969.925 266.115 969.211 264.953C968.497 263.79 967.604 263.208 966.533 263.208ZM950.201 284.542C943.24 284.542 937.908 282.664 934.204 278.907C930.5 275.15 928.648 269.201 928.648 261.061C928.648 257.126 928.827 253.346 929.184 249.724C929.541 246.101 930.054 242.925 930.723 240.197C931.393 237.469 932.241 235.3 933.267 233.69C934.293 232.079 935.476 231.274 936.814 231.274C938.867 231.274 940.25 231.811 940.964 232.885C941.678 233.958 942.035 235.434 942.035 237.312C942.035 238.922 941.656 241.74 940.897 245.765C940.139 249.791 939.76 254.532 939.76 259.988C939.76 264.908 940.652 268.396 942.437 270.454C944.222 272.511 946.81 273.54 950.201 273.54V284.542Z" fill="#CD6C58"/>
<path d="M896.655 234.853C895.406 234.853 894.625 234.45 894.312 233.645C894 232.84 893.844 231.409 893.844 229.351C893.844 227.652 894 226.444 894.312 225.729C894.625 225.013 895.406 224.163 896.655 223.179L899.466 221.569C896.343 220.317 893.889 218.617 892.104 216.47C890.319 214.324 889.426 211.908 889.426 209.225C889.426 207.525 889.873 205.803 890.765 204.059C891.657 202.315 892.862 200.75 894.379 199.363C895.897 197.977 897.659 196.791 899.667 195.807C901.675 194.823 903.795 194.242 906.026 194.063C906.74 191.916 907.811 190.888 909.239 190.977C917.807 192.14 924.745 193.124 930.056 193.929C935.366 194.734 939.493 195.606 942.438 196.545C945.384 197.485 947.347 198.67 948.329 200.101C949.31 201.532 949.801 203.5 949.801 206.005C949.801 208.778 948.619 211.238 946.254 213.384C943.889 215.531 940.877 217.32 937.218 218.751C933.559 220.183 929.565 221.301 925.236 222.106C920.908 222.911 916.78 223.358 912.853 223.448C909.016 227.026 903.616 230.827 896.655 234.853ZM921.823 206.944C921.823 209.18 921.376 211.327 920.484 213.384C922.983 213.116 925.326 212.736 927.512 212.244C929.699 211.752 931.595 211.215 933.201 210.634C934.808 210.052 936.08 209.426 937.017 208.755C937.954 208.084 938.422 207.436 938.422 206.81C938.422 205.826 937.151 205.133 934.607 204.73C932.064 204.328 927.534 203.679 921.019 202.785C921.555 204.126 921.823 205.513 921.823 206.944ZM898.663 207.883C898.663 209.493 899.6 210.79 901.475 211.774C903.349 212.758 905.937 213.384 909.239 213.653C911.292 211.327 912.318 209.27 912.318 207.481C912.318 205.96 911.715 204.73 910.511 203.791C909.306 202.852 907.945 202.382 906.428 202.382C905.535 202.382 904.643 202.539 903.75 202.852C902.858 203.165 902.032 203.59 901.274 204.126C900.515 204.663 899.89 205.267 899.4 205.938C898.909 206.609 898.663 207.257 898.663 207.883ZM879.922 244.782C879.922 241.382 881.327 237.737 884.138 233.846C886.95 229.955 891.167 226.399 896.789 223.179V234.853C893.933 236.463 891.947 238.05 890.832 239.616C889.716 241.181 889.159 242.903 889.159 244.782V244.916C890.676 244.2 892.238 243.552 893.844 242.97C895.45 242.389 897.146 242.098 898.931 242.098C902.679 242.098 905.446 243.015 907.231 244.849C909.016 246.682 909.908 249.03 909.908 251.893C909.908 255.65 908.637 258.4 906.093 260.145C903.55 261.889 900.582 262.761 897.191 262.761C894.603 262.761 892.304 262.291 890.296 261.352C888.288 260.413 886.526 259.183 885.009 257.662C883.67 258.378 882.264 258.937 880.792 259.34C879.319 259.742 877.735 259.943 876.039 259.943C874.076 259.943 872.893 259.429 872.492 258.4C872.09 257.372 871.889 256.097 871.889 254.576C871.889 253.145 872.09 251.848 872.492 250.685C872.893 249.522 874.076 248.941 876.039 248.941C877.646 248.941 879.029 248.762 880.189 248.404C880.011 247.778 879.922 247.174 879.922 246.593C879.922 246.011 879.922 245.408 879.922 244.782ZM897.86 250.685C897.146 250.685 896.41 250.864 895.651 251.222C894.893 251.58 894.067 252.027 893.175 252.564C894.692 253.816 896.298 254.442 897.994 254.442C898.44 254.442 898.864 254.286 899.266 253.973C899.667 253.659 899.868 253.235 899.868 252.698C899.868 252.072 899.667 251.58 899.266 251.222C898.864 250.864 898.396 250.685 897.86 250.685ZM876.039 259.943C872.559 259.943 869.77 259.34 867.673 258.132C865.575 256.924 863.723 255.605 862.117 254.174C860.511 252.743 858.949 251.423 857.432 250.216C855.914 249.008 853.951 248.404 851.541 248.404C847.704 248.404 843.732 249.657 839.627 252.161C835.522 254.666 831.461 257.841 827.445 261.688C825.66 263.298 823.83 264.729 821.956 265.981C820.082 267.234 818.386 267.86 816.869 267.86C815.709 267.86 815.129 267.278 815.129 266.115C815.129 265.132 815.62 263.745 816.601 261.956C817.583 260.167 818.944 258.221 820.685 256.119C822.425 254.017 824.477 251.848 826.842 249.612C829.207 247.376 831.729 245.363 834.406 243.574C837.083 241.785 839.895 240.309 842.84 239.146C845.785 237.983 848.73 237.402 851.675 237.402C855.334 237.402 858.19 238.006 860.243 239.213C862.296 240.421 864.103 241.74 865.665 243.171C867.226 244.603 868.744 245.922 870.216 247.13C871.689 248.337 873.63 248.941 876.039 248.941V259.943Z" fill="#CD6C58"/>
<path d="M768.987 247.107C769.701 247.107 770.46 247.107 771.263 247.107C772.066 247.107 772.825 247.018 773.539 246.839V244.692C773.539 241.293 774.052 237.939 775.079 234.629C776.105 231.319 777.622 228.368 779.63 225.774C781.638 223.179 784.137 221.077 787.127 219.467C790.116 217.857 793.575 217.052 797.502 217.052C801.25 217.052 804.954 217.365 808.613 217.991C812.272 218.618 815.886 218.931 819.456 218.931C822.758 218.931 825.547 218.483 827.823 217.589C830.099 216.694 831.861 216.247 833.111 216.247C833.825 216.247 834.516 216.471 835.186 216.918C835.855 217.365 836.458 217.902 836.993 218.528C837.528 219.154 837.952 219.847 838.265 220.608C838.577 221.368 838.733 222.061 838.733 222.688C838.733 224.387 837.885 225.729 836.19 226.713C831.013 229.575 826.15 232.482 821.598 235.434C817.046 238.386 812.651 241.159 808.412 243.753C804.173 246.347 800.023 248.695 795.962 250.797C791.901 252.899 787.818 254.577 783.713 255.829C784.695 258.602 786.123 261.42 787.997 264.282C789.157 266.071 789.358 266.943 788.599 266.898C787.841 266.854 786.747 266.384 785.319 265.49C781.75 262.985 779.028 260.301 777.153 257.439C775.815 257.618 774.476 257.774 773.137 257.909C771.799 258.043 770.415 258.11 768.987 258.11C767.024 258.11 765.842 257.596 765.44 256.567C765.038 255.538 764.838 254.264 764.838 252.743C764.838 251.222 765.038 249.903 765.44 248.785C765.842 247.667 767.024 247.107 768.987 247.107ZM796.966 227.652C794.824 227.652 792.838 228.166 791.009 229.195C789.179 230.224 787.595 231.565 786.257 233.22C784.918 234.875 783.847 236.731 783.044 238.789C782.24 240.846 781.839 242.948 781.839 245.095C787.283 243.485 792.638 241.159 797.903 238.118C803.169 235.076 808.657 231.99 814.369 228.86C811.424 228.77 808.501 228.547 805.601 228.189C802.7 227.831 799.822 227.652 796.966 227.652ZM735.119 252.475C734.851 257.573 733.423 262.381 730.835 266.898C728.247 271.416 724.9 275.396 720.795 278.84C716.689 282.284 712.026 285.012 706.805 287.025C701.584 289.037 696.296 290.044 690.942 290.044C687.193 290.044 684.271 289.082 682.173 287.159C680.076 285.236 679.027 283.111 679.027 280.786C679.027 280.07 679.295 279.712 679.831 279.712C680.277 279.712 681.192 279.824 682.575 280.048C683.958 280.271 685.676 280.383 687.729 280.383C691.031 280.383 694.824 279.645 699.108 278.169C703.392 276.693 707.452 274.636 711.29 271.997C715.127 269.358 718.385 266.25 721.062 262.672C723.74 259.094 725.078 255.158 725.078 250.864C725.168 247.823 726.216 245.14 728.224 242.814C730.232 240.488 732.664 238.52 735.52 236.91C738.376 235.3 741.433 234.092 744.69 233.287C747.948 232.482 750.87 232.08 753.459 232.08C757.207 232.08 759.795 232.661 761.223 233.824C762.651 234.987 763.365 237.357 763.365 240.935C763.365 243.261 763.811 244.871 764.704 245.766C765.596 246.66 767.069 247.107 769.121 247.107V258.11C764.302 258.11 760.777 257.081 758.546 255.024C756.315 252.967 755.199 250.238 755.199 246.839C755.199 245.14 754.909 244.044 754.329 243.552C753.749 243.06 752.655 242.814 751.049 242.814C749.443 242.814 747.725 243.015 745.895 243.418C744.065 243.82 742.37 244.424 740.808 245.229C739.246 246.034 737.93 247.04 736.859 248.248C735.788 249.456 735.208 250.864 735.119 252.475Z" fill="#CD6C58"/>
<path d="M606.294 183.91C605.045 183.91 604.264 183.508 603.951 182.703C603.639 181.898 603.483 180.466 603.483 178.409C603.483 176.709 603.639 175.502 603.951 174.786C604.264 174.071 605.045 173.221 606.294 172.237C608.525 170.895 610.087 169.486 610.979 168.01C611.872 166.534 612.318 164.186 612.318 160.966C612.318 158.909 612.72 157.187 613.523 155.8C614.326 154.414 615.665 153.721 617.539 153.721C618.789 153.721 619.793 153.967 620.551 154.459C621.31 154.951 621.89 155.577 622.291 156.337C622.693 157.097 622.961 157.947 623.095 158.886C623.228 159.826 623.295 160.787 623.295 161.771C623.295 164.634 622.961 167.071 622.291 169.084C621.622 171.096 620.596 172.908 619.212 174.518C617.829 176.128 616.067 177.671 613.925 179.147C611.783 180.623 609.239 182.211 606.294 183.91ZM559.975 203.902C558.012 203.902 556.829 203.388 556.428 202.359C556.026 201.331 555.825 200.056 555.825 198.535C555.825 197.015 556.026 195.695 556.428 194.577C556.829 193.459 558.012 192.9 559.975 192.9C562.563 192.9 565.062 192.609 567.472 192.028C569.882 191.446 572.068 190.664 574.032 189.68C570.64 188.785 567.985 187.287 566.066 185.185C564.148 183.083 563.188 180.422 563.188 177.201C563.188 175.055 563.657 173.109 564.594 171.365C565.531 169.621 566.758 168.145 568.275 166.937C569.792 165.729 571.533 164.79 573.496 164.119C575.46 163.448 577.468 163.113 579.52 163.113C583.893 163.113 587.508 164.186 590.364 166.333C593.22 168.48 594.647 171.7 594.647 175.994C594.647 176.441 594.625 176.844 594.58 177.201C594.536 177.559 594.469 177.962 594.38 178.409C596.165 177.693 598.039 176.821 600.002 175.793C601.966 174.764 604.063 173.623 606.294 172.371V183.91C603.438 185.61 600.582 186.929 597.726 187.868C594.871 188.808 592.015 189.501 589.159 189.948C586.035 193.973 581.885 197.305 576.709 199.944C571.533 202.583 565.955 203.902 559.975 203.902ZM583.536 180.958C584.161 179.438 584.473 178.096 584.473 176.933C584.473 175.323 583.938 174.138 582.867 173.377C581.796 172.617 580.502 172.237 578.985 172.237C577.111 172.237 575.683 172.729 574.701 173.713C573.719 174.697 573.228 175.681 573.228 176.665C573.228 177.828 573.92 178.834 575.303 179.684C576.687 180.533 578.985 180.958 582.198 180.958H583.536ZM560.109 203.768C558.324 203.768 556.785 203.567 555.491 203.164C554.197 202.762 553.014 202.203 551.943 201.487C551.675 203.992 550.471 206.094 548.329 207.794C542.795 212.803 537.374 217.655 532.064 222.352C526.753 227.048 522.023 231.744 517.874 236.44C513.724 241.136 510.377 245.922 507.833 250.797C505.29 255.672 504.018 260.748 504.018 266.026C504.018 271.303 505.513 276.268 508.503 280.919C511.492 285.571 515.486 289.685 520.484 293.264C525.482 296.842 531.26 299.659 537.82 301.717C544.38 303.774 551.229 304.803 558.369 304.803C562.563 304.803 566.981 304.512 571.622 303.93C576.263 303.349 580.904 302.544 585.544 301.515C590.185 300.487 594.737 299.257 599.199 297.825C603.661 296.394 607.811 294.829 611.649 293.129C613.791 292.235 615.196 291.899 615.866 292.123C616.535 292.347 616.691 292.839 616.334 293.599C615.977 294.359 615.286 295.254 614.259 296.282C613.233 297.311 612.14 298.228 610.979 299.033C607.142 301.627 602.947 303.908 598.396 305.876C593.844 307.844 589.136 309.499 584.273 310.841C579.409 312.182 574.433 313.211 569.346 313.927C564.259 314.642 559.261 315 554.353 315C546.142 315 538.266 313.703 530.725 311.109C523.184 308.515 516.535 305.049 510.778 300.71C505.022 296.372 500.426 291.296 496.99 285.481C493.554 279.667 491.836 273.54 491.836 267.099C491.836 260.569 493.353 254.33 496.388 248.382C499.422 242.433 503.237 236.798 507.833 231.476C512.43 226.153 517.472 221.189 522.961 216.582C528.449 211.975 533.692 207.704 538.69 203.768C539.94 202.874 540.564 202.024 540.564 201.219C540.564 200.235 539.605 199.34 537.686 198.535C535.767 197.73 533.514 197.328 530.926 197.328C528.516 197.328 526.419 197.44 524.634 197.663C522.849 197.887 521.265 198.133 519.882 198.401C518.498 198.67 517.226 198.916 516.066 199.139C514.906 199.363 513.791 199.475 512.72 199.475C511.202 199.475 509.886 199.072 508.77 198.267C507.655 197.462 507.097 196.254 507.097 194.644C507.097 194.018 507.164 193.437 507.298 192.9C507.432 192.363 507.789 191.804 508.369 191.223C508.949 190.641 509.819 189.971 510.979 189.21C512.139 188.45 513.79 187.488 515.932 186.325C520.038 184.179 523.407 182.434 526.039 181.093C528.672 179.751 530.903 178.722 532.733 178.007C534.562 177.291 536.08 176.799 537.285 176.531C538.489 176.262 539.716 176.128 540.966 176.128C543.197 176.128 544.937 176.553 546.187 177.403C547.436 178.253 548.44 179.281 549.199 180.489C549.957 181.696 550.582 183.038 551.073 184.514C551.564 185.99 552.144 187.332 552.813 188.539C553.483 189.747 554.375 190.776 555.491 191.625C556.606 192.475 558.146 192.9 560.109 192.9V203.768ZM534.54 189.68C538.378 189.68 541.68 190.172 544.446 191.156C543.733 189.635 543.019 188.316 542.305 187.198C541.591 186.079 540.698 185.52 539.627 185.52C538.913 185.52 538.043 185.655 537.017 185.923C535.99 186.191 534.919 186.549 533.804 186.996C532.688 187.444 531.595 187.936 530.524 188.472C529.453 189.009 528.516 189.546 527.713 190.082C530.212 189.814 532.488 189.68 534.54 189.68Z" fill="#CD6C58"/>
</g>
<path d="M873.68 150.86C873.68 150.42 874.4 150.2 875.84 150.2C877.08 150.2 878.26 150.12 879.38 149.96C880.5 149.8 881.53 149.62 882.47 149.42C883.41 149.22 884.21 149.04 884.87 148.88C885.53 148.72 886.04 148.64 886.4 148.64C886.72 148.64 886.88 148.72 886.88 148.88C886.88 149.16 886.54 149.53 885.86 149.99C885.18 150.45 884.32 150.89 883.28 151.31C882.24 151.73 881.08 152.09 879.8 152.39C878.52 152.69 877.26 152.84 876.02 152.84C875.34 152.84 874.78 152.59 874.34 152.09C873.9 151.59 873.68 151.18 873.68 150.86Z" fill="#050033"/>
<path d="M896.065 111.32C896.625 111.32 897.035 111.53 897.295 111.95C897.555 112.37 897.685 112.78 897.685 113.18C897.685 113.74 897.495 114.26 897.115 114.74C896.735 115.22 896.265 115.46 895.705 115.46C895.025 115.46 894.395 115.22 893.815 114.74C893.235 114.26 892.945 113.74 892.945 113.18C893.025 112.54 893.415 112.07 894.115 111.77C894.815 111.47 895.465 111.32 896.065 111.32Z" fill="#050033"/>
<path d="M917.741 135.82C915.461 136.5 913.241 137.43 911.081 138.61C908.921 139.79 907.001 141.12 905.321 142.6C903.641 144.08 902.291 145.63 901.271 147.25C900.251 148.87 899.741 150.44 899.741 151.96C899.741 153.12 900.011 154.21 900.551 155.23C901.091 156.25 901.861 157.13 902.861 157.87C903.861 158.61 905.081 159.2 906.521 159.64C907.961 160.08 909.581 160.3 911.381 160.3C913.501 160.3 915.591 159.94 917.651 159.22C919.711 158.5 921.551 157.46 923.171 156.1C924.791 154.74 926.091 153.09 927.071 151.15C928.051 149.21 928.541 147.02 928.541 144.58C928.541 142.38 928.521 140.36 928.481 138.52C928.441 136.68 928.401 134.88 928.361 133.12C928.321 131.36 928.281 129.57 928.241 127.75C928.201 125.93 928.181 123.96 928.181 121.84C928.181 121.24 928.191 120.65 928.211 120.07C928.231 119.49 928.301 118.97 928.421 118.51C928.541 118.05 928.721 117.68 928.961 117.4C929.201 117.12 929.521 116.98 929.921 116.98C930.321 116.98 930.631 117.18 930.851 117.58C931.071 117.98 931.221 118.46 931.301 119.02C931.381 119.58 931.421 120.17 931.421 120.79C931.421 121.41 931.421 121.94 931.421 122.38C931.501 124.26 931.571 126.01 931.631 127.63C931.691 129.25 931.731 130.85 931.751 132.43C931.771 134.01 931.781 135.63 931.781 137.29C931.781 138.95 931.781 140.76 931.781 142.72C931.781 145.76 931.251 148.57 930.191 151.15C929.131 153.73 927.671 155.95 925.811 157.81C923.951 159.67 921.731 161.12 919.151 162.16C916.571 163.2 913.761 163.72 910.721 163.72C908.521 163.72 906.511 163.43 904.691 162.85C902.871 162.27 901.321 161.49 900.041 160.51C898.761 159.53 897.761 158.38 897.041 157.06C896.321 155.74 895.961 154.32 895.961 152.8C895.961 151.2 896.281 149.68 896.921 148.24C897.561 146.8 898.431 145.46 899.531 144.22C900.631 142.98 901.891 141.85 903.311 140.83C904.731 139.81 906.231 138.92 907.811 138.16C909.391 137.4 911.001 136.78 912.641 136.3C914.281 135.82 915.841 135.48 917.321 135.28C917.881 135.2 918.221 135.23 918.341 135.37C918.461 135.51 918.261 135.66 917.741 135.82Z" fill="#050033"/>
<path d="M994.065 200.96C994.625 200.96 995.035 201.17 995.295 201.59C995.555 202.01 995.685 202.42 995.685 202.82C995.685 203.38 995.495 203.9 995.115 204.38C994.735 204.86 994.265 205.1 993.705 205.1C993.025 205.1 992.395 204.86 991.815 204.38C991.235 203.9 990.945 203.38 990.945 202.82C991.025 202.18 991.415 201.71 992.115 201.41C992.815 201.11 993.465 200.96 994.065 200.96Z" fill="#050033"/>
<path d="M965.683 173.52C966.283 173.96 966.903 174.34 967.543 174.66C967.783 174.06 968.013 173.43 968.233 172.77C968.453 172.11 968.723 171.51 969.043 170.97C969.363 170.43 969.763 169.98 970.243 169.62C970.723 169.26 971.343 169.08 972.103 169.08C972.743 169.08 973.333 169.26 973.873 169.62C974.413 169.98 974.873 170.43 975.253 170.97C975.633 171.51 975.923 172.1 976.123 172.74C976.323 173.38 976.423 174 976.423 174.6C976.423 176 976.043 177.11 975.283 177.93C974.523 178.75 973.543 179.16 972.343 179.16C971.023 179.16 969.823 178.76 968.743 177.96C968.303 178.8 967.733 179.51 967.033 180.09C966.333 180.67 965.463 180.96 964.423 180.96C963.943 180.96 963.663 180.78 963.583 180.42C963.503 180.06 963.463 179.7 963.463 179.34C963.463 178.98 963.503 178.61 963.583 178.23C963.663 177.85 963.943 177.66 964.423 177.66C964.983 177.66 965.453 177.52 965.833 177.24C966.213 176.96 966.543 176.6 966.823 176.16C966.583 175.84 966.343 175.53 966.103 175.23C965.863 174.93 965.643 174.58 965.443 174.18C965.483 174.1 965.523 173.99 965.563 173.85C965.603 173.71 965.643 173.6 965.683 173.52ZM971.323 171.9C971.003 171.9 970.733 172.29 970.513 173.07C970.293 173.85 970.023 174.76 969.703 175.8C970.583 176.16 971.283 176.34 971.803 176.34C972.363 176.34 972.743 176.16 972.943 175.8C973.143 175.44 973.243 175.08 973.243 174.72C973.243 174.04 973.063 173.4 972.703 172.8C972.343 172.2 971.883 171.9 971.323 171.9ZM964.423 180.96C961.783 180.96 959.783 180.19 958.423 178.65C957.063 177.11 956.383 174.64 956.383 171.24C956.383 169.56 956.443 167.97 956.563 166.47C956.683 164.97 956.863 163.65 957.103 162.51C957.343 161.37 957.633 160.46 957.973 159.78C958.313 159.1 958.703 158.76 959.143 158.76C959.703 158.76 960.083 158.93 960.283 159.27C960.483 159.61 960.583 160.06 960.583 160.62C960.583 160.94 960.533 161.42 960.433 162.06C960.333 162.7 960.213 163.47 960.073 164.37C959.933 165.27 959.813 166.26 959.713 167.34C959.613 168.42 959.563 169.56 959.563 170.76C959.563 173.28 959.963 175.06 960.763 176.1C961.563 177.14 962.783 177.66 964.423 177.66V180.96Z" fill="#050033"/>
<path d="M958.98 136.94C958.54 136.94 958.27 136.81 958.17 136.55C958.07 136.29 958.02 135.94 958.02 135.5C958.02 135.06 958.07 134.72 958.17 134.48C958.27 134.24 958.54 133.96 958.98 133.64C959.3 133.48 959.64 133.28 960 133.04C959.2 132.36 958.58 131.62 958.14 130.82C957.7 130.02 957.48 129.28 957.48 128.6C957.48 127.44 957.89 126.4 958.71 125.48C959.53 124.56 960.64 124.1 962.04 124.1C963.44 124.1 964.58 124.5 965.46 125.3C966.34 126.1 966.78 127.22 966.78 128.66C966.78 130.14 966.16 131.5 964.92 132.74C963.68 133.98 961.7 135.38 958.98 136.94ZM959.28 128.78C959.28 130.06 959.74 131.34 960.66 132.62C961.86 131.86 962.69 131.2 963.15 130.64C963.61 130.08 963.84 129.48 963.84 128.84C963.84 128.2 963.62 127.71 963.18 127.37C962.74 127.03 962.22 126.86 961.62 126.86C961.06 126.86 960.53 127.03 960.03 127.37C959.53 127.71 959.28 128.18 959.28 128.78ZM950.28 140.96C950.28 140.36 950.49 139.8 950.91 139.28C951.33 138.76 951.92 138.21 952.68 137.63C953.44 137.05 954.36 136.44 955.44 135.8C956.52 135.16 957.7 134.44 958.98 133.64V136.94C957.78 137.74 956.82 138.35 956.1 138.77C955.38 139.19 954.82 139.52 954.42 139.76C954.02 140 953.76 140.16 953.64 140.24C953.52 140.32 953.46 140.4 953.46 140.48C953.46 140.8 953.64 141 954 141.08C954.36 141.16 955.06 141.2 956.1 141.2C957.9 141.2 959.77 141.14 961.71 141.02C963.65 140.9 965.32 140.84 966.72 140.84C967.44 140.84 968.13 140.99 968.79 141.29C969.45 141.59 969.78 142.22 969.78 143.18C969.78 144.46 969.13 145.76 967.83 147.08C966.53 148.4 964.89 149.61 962.91 150.71C960.93 151.81 958.75 152.71 956.37 153.41C953.99 154.11 951.7 154.46 949.5 154.46C949.06 154.46 948.79 154.3 948.69 153.98C948.59 153.66 948.54 153.28 948.54 152.84C948.54 152.4 948.59 152.01 948.69 151.67C948.79 151.33 949.06 151.16 949.5 151.16C951.66 151.16 953.74 150.84 955.74 150.2C957.74 149.56 959.51 148.82 961.05 147.98C962.59 147.14 963.82 146.32 964.74 145.52C965.66 144.72 966.12 144.16 966.12 143.84C966.12 143.68 965.98 143.6 965.7 143.6C964.1 143.6 962.55 143.67 961.05 143.81C959.55 143.95 957.7 144.02 955.5 144.02C953.82 144.02 952.53 143.78 951.63 143.3C950.73 142.82 950.28 142.04 950.28 140.96ZM910.38 170.66C912.62 170.58 914.99 170.27 917.49 169.73C919.99 169.19 922.46 168.49 924.9 167.63C927.34 166.77 929.68 165.79 931.92 164.69C934.16 163.59 936.14 162.44 937.86 161.24C939.58 160.04 940.98 158.83 942.06 157.61C943.14 156.39 943.74 155.24 943.86 154.16C942.38 154.16 941.17 153.73 940.23 152.87C939.29 152.01 938.82 151.02 938.82 149.9C938.82 149.1 939.15 148.31 939.81 147.53C940.47 146.75 941.32 146.36 942.36 146.36C943.56 146.36 944.61 146.8 945.51 147.68C946.41 148.56 946.98 149.7 947.22 151.1C947.66 151.14 948.05 151.16 948.39 151.16C948.73 151.16 949.1 151.16 949.5 151.16V154.46C949.1 154.46 948.71 154.46 948.33 154.46C947.95 154.46 947.58 154.42 947.22 154.34C946.86 156.02 946.04 157.64 944.76 159.2C943.48 160.76 941.94 162.22 940.14 163.58C938.34 164.94 936.38 166.19 934.26 167.33C932.14 168.47 930.03 169.44 927.93 170.24C925.83 171.04 923.85 171.66 921.99 172.1C920.13 172.54 918.58 172.76 917.34 172.76C915.82 172.76 914.46 172.64 913.26 172.4C912.06 172.16 911.06 171.7 910.26 171.02C909.94 170.78 909.98 170.66 910.38 170.66Z" fill="#050033"/>
<path d="M999.822 175.46C999.822 176.02 999.662 176.78 999.342 177.74C999.022 178.7 998.642 179.68 998.202 180.68C997.762 181.68 997.322 182.58 996.882 183.38C996.442 184.18 996.122 184.7 995.922 184.94C995.362 185.62 994.822 185.96 994.302 185.96C993.622 185.96 993.032 185.6 992.532 184.88C992.032 184.16 991.542 183.38 991.062 182.54C990.582 181.7 990.062 180.92 989.502 180.2C988.942 179.48 988.302 179.12 987.582 179.12C986.902 179.12 986.172 179.49 985.392 180.23C984.612 180.97 983.842 181.88 983.082 182.96C982.322 184.04 981.602 185.2 980.922 186.44C980.242 187.68 979.702 188.78 979.302 189.74C978.542 191.58 978.022 192.5 977.742 192.5C977.542 192.5 977.362 192.39 977.202 192.17C977.042 191.95 976.902 191.68 976.782 191.36C976.662 191.04 976.572 190.71 976.512 190.37C976.452 190.03 976.422 189.76 976.422 189.56C976.422 189.08 976.552 188.41 976.812 187.55C977.072 186.69 977.432 185.76 977.892 184.76C978.352 183.76 978.932 182.74 979.632 181.7C980.332 180.66 981.112 179.71 981.972 178.85C982.832 177.99 983.782 177.29 984.822 176.75C985.862 176.21 986.962 175.94 988.122 175.94C989.122 175.94 989.962 176.25 990.642 176.87C991.322 177.49 991.892 178.16 992.352 178.88C992.812 179.6 993.202 180.27 993.522 180.89C993.842 181.51 994.122 181.82 994.362 181.82C994.482 181.82 994.762 181.34 995.202 180.38C995.642 179.42 996.322 177.8 997.242 175.52C997.602 174.72 998.102 174.32 998.742 174.32C999.142 174.32 999.422 174.44 999.582 174.68C999.742 174.92 999.822 175.18 999.822 175.46Z" fill="#050033"/>
<path d="M900.922 129.98C902.082 129.98 902.892 129.29 903.352 127.91C903.812 126.53 904.042 124.82 904.042 122.78C904.042 121.62 904.032 120.63 904.012 119.81C903.992 118.99 903.982 118.2 903.982 117.44C903.982 116 904.522 115.28 905.602 115.28C906.202 115.28 906.592 115.53 906.772 116.03C906.952 116.53 907.042 117.12 907.042 117.8C907.042 118.6 907.052 119.57 907.072 120.71C907.092 121.85 907.102 122.84 907.102 123.68C907.102 124.88 906.992 126.05 906.772 127.19C906.552 128.33 906.192 129.35 905.692 130.25C905.192 131.15 904.552 131.88 903.772 132.44C902.992 133 902.042 133.28 900.922 133.28C900.482 133.28 900.212 133.12 900.112 132.8C900.012 132.48 899.962 132.1 899.962 131.66C899.962 131.22 900.012 130.83 900.112 130.49C900.212 130.15 900.482 129.98 900.922 129.98ZM963.142 53.84C963.142 54.16 963.052 54.59 962.872 55.13C962.692 55.67 962.462 56.24 962.182 56.84C961.902 57.44 961.582 58.01 961.222 58.55C960.862 59.09 960.522 59.5 960.202 59.78C952.402 66.62 944.492 73.39 936.472 80.09C928.452 86.79 920.262 93.48 911.902 100.16C910.542 101.24 909.362 102.13 908.362 102.83C907.362 103.53 906.662 103.88 906.262 103.88C906.062 103.88 905.962 103.78 905.962 103.58C905.962 103.26 906.402 102.63 907.282 101.69C908.162 100.75 909.302 99.68 910.702 98.48C914.942 94.8 919.192 91.19 923.452 87.65C927.712 84.11 931.952 80.52 936.172 76.88C940.392 73.24 944.612 69.52 948.832 65.72C953.052 61.92 957.262 57.9 961.462 53.66C961.622 53.5 961.802 53.35 962.002 53.21C962.202 53.07 962.402 53 962.602 53C962.802 53 962.942 53.1 963.022 53.3C963.102 53.5 963.142 53.68 963.142 53.84ZM900.922 133.28C898.442 133.28 896.702 132.48 895.702 130.88C894.822 132.4 893.722 133.57 892.402 134.39C891.082 135.21 889.722 135.62 888.322 135.62C887.882 135.62 887.612 135.46 887.512 135.14C887.412 134.82 887.362 134.44 887.362 134C887.362 133.56 887.412 133.17 887.512 132.83C887.612 132.49 887.882 132.32 888.322 132.32C889.682 132.32 890.912 131.86 892.012 130.94C893.112 130.02 893.822 128.74 894.142 127.1C894.262 126.58 894.462 126.2 894.742 125.96C895.022 125.72 895.332 125.62 895.672 125.66C896.012 125.7 896.322 125.85 896.602 126.11C896.882 126.37 897.062 126.72 897.142 127.16C897.302 128 897.702 128.68 898.342 129.2C898.982 129.72 899.842 129.98 900.922 129.98V133.28ZM888.322 135.62C885.842 135.62 884.102 134.82 883.102 133.22C882.222 134.74 881.122 135.91 879.802 136.73C878.482 137.55 877.122 137.96 875.722 137.96C875.282 137.96 875.012 137.8 874.912 137.48C874.812 137.16 874.762 136.78 874.762 136.34C874.762 135.9 874.812 135.51 874.912 135.17C875.012 134.83 875.282 134.66 875.722 134.66C877.082 134.66 878.312 134.2 879.412 133.28C880.512 132.36 881.222 131.08 881.542 129.44C881.662 128.92 881.862 128.54 882.142 128.3C882.422 128.06 882.732 127.96 883.072 128C883.412 128.04 883.722 128.19 884.002 128.45C884.282 128.71 884.462 129.06 884.542 129.5C884.702 130.34 885.102 131.02 885.742 131.54C886.382 132.06 887.242 132.32 888.322 132.32V135.62ZM875.722 137.96C874.122 137.96 872.802 137.7 871.762 137.18C870.722 136.66 869.892 135.98 869.272 135.14C868.652 134.3 868.222 133.35 867.982 132.29C867.742 131.23 867.622 130.18 867.622 129.14C866.262 130.82 864.702 132.34 862.942 133.7C861.182 135.06 859.372 136.22 857.512 137.18C855.652 138.14 853.832 138.88 852.052 139.4C850.272 139.92 848.682 140.18 847.282 140.18C846.202 140.18 845.492 140.03 845.152 139.73C844.812 139.43 845.042 139.14 845.842 138.86C849.962 137.46 853.822 135.63 857.422 133.37C861.022 131.11 864.142 128.34 866.782 125.06C867.102 124.7 867.452 124.39 867.832 124.13C868.212 123.87 868.622 123.74 869.062 123.74C869.422 123.74 869.702 123.85 869.902 124.07C870.102 124.29 870.262 124.55 870.382 124.85C870.502 125.15 870.582 125.49 870.622 125.87C870.662 126.25 870.682 126.58 870.682 126.86C870.682 127.98 870.762 129.01 870.922 129.95C871.082 130.89 871.352 131.71 871.732 132.41C872.112 133.11 872.632 133.66 873.292 134.06C873.952 134.46 874.762 134.66 875.722 134.66V137.96Z" fill="#050033"/>
<defs>
<clipPath id="clip0_410_4490">
<rect width="979.521" height="315" fill="white"/>
</clipPath>
</defs>
</svg>
