<svg xmlns:xlink="http://www.w3.org/1999/xlink" xmlns="http://www.w3.org/2000/svg" width="106" height="51" fill="none" viewBox="0 0 106 51">
  <path fill="#CD6C58" d="M20.066 34.92c0-.958 1.018-1.437 3.055-1.437 1.198 0 2.346-.08 3.444-.24 1.098-.16 2.106-.34 3.024-.539.919-.2 1.718-.38 2.396-.54.68-.159 1.238-.239 1.678-.239.359 0 .678.07.958.21.28.14.42.41.42.809 0 .359-.36.808-1.079 1.347-.719.54-1.647 1.058-2.785 1.558a27.215 27.215 0 0 1-3.804 1.317c-1.397.38-2.755.57-4.073.57-.479 0-.918-.1-1.317-.3-.4-.2-.74-.45-1.019-.749-.28-.3-.499-.609-.659-.928-.16-.32-.24-.6-.24-.839Zm44.404 9.983c.92 0 1.568.3 1.948.899.379.599.569 1.178.569 1.737 0 .798-.27 1.517-.81 2.156-.538.639-1.227.959-2.066.959-.878 0-1.707-.32-2.485-.959-.779-.639-1.168-1.358-1.168-2.156.04-.44.2-.829.479-1.168.28-.34.619-.62 1.018-.839.4-.22.819-.38 1.258-.479.44-.1.858-.15 1.258-.15ZM89.928 23.46c0 1.877-.739 3.624-2.216 5.241-1.478 1.617-3.554 3.025-6.23 4.223-2.675 1.198-5.88 2.136-9.613 2.815-3.734.68-7.857 1.019-12.37 1.019a42.23 42.23 0 0 1-4.731-.27 38.15 38.15 0 0 1-4.642-.809 25.885 25.885 0 0 1-4.253-1.407c-1.338-.58-2.486-1.268-3.444-2.067-.559-.439-1.008-.898-1.348-1.377-.34-.48-.509-.859-.509-1.138 0-.52.23-.68.689-.48.46.2 1.208.44 2.246.72 1.238.359 2.446.658 3.624.898s2.396.429 3.654.569c1.258.14 2.595.24 4.013.3 1.417.059 2.985.089 4.702.089 1.557 0 3.244-.09 5.061-.27a72.88 72.88 0 0 0 5.451-.748 53.43 53.43 0 0 0 5.271-1.198c1.697-.48 3.224-1.018 4.582-1.617 1.358-.6 2.476-1.248 3.355-1.947.878-.699 1.417-1.468 1.617-2.306.08-.36.17-.749.27-1.168.1-.42.249-.809.448-1.168.2-.36.46-.66.78-.899.319-.24.758-.359 1.317-.359.799 0 1.378.35 1.737 1.048.36.699.54 1.468.54 2.306Zm-9.265 17.989c1.278 0 2.805-.23 4.582-.689a39.911 39.911 0 0 0 5.391-1.827 38.231 38.231 0 0 0 5.181-2.635c1.637-.999 2.995-2.057 4.073-3.175h-.778c-1.598 0-2.786-.44-3.564-1.318-.779-.878-1.168-1.956-1.168-3.234 0-.719.15-1.468.449-2.246.3-.779.719-1.488 1.258-2.127a7.087 7.087 0 0 1 1.827-1.557 4.293 4.293 0 0 1 2.216-.599c.759 0 1.497.19 2.216.569a6.11 6.11 0 0 1 1.887 1.557 7.847 7.847 0 0 1 1.288 2.306A8.01 8.01 0 0 1 106 29.23c0 1.437-.399 2.845-1.198 4.223-.799 1.377-1.847 2.685-3.145 3.923a27.703 27.703 0 0 1-4.432 3.414 40.978 40.978 0 0 1-5.032 2.695 31.698 31.698 0 0 1-4.971 1.767c-1.617.42-3.045.63-4.283.63a6.132 6.132 0 0 1-3.773-1.259c-1.118-.838-1.718-1.876-1.797-3.114 0-.24.1-.36.3-.36.199 0 .488.05.868.15.379.1 1.088.15 2.126.15ZM99.711 28.75c.2 0 .469-.01.808-.03.34-.02.789-.09 1.348-.21-.12-.719-.409-1.298-.869-1.737-.459-.44-.868-.659-1.228-.659-.439 0-.848.19-1.227.57-.38.378-.57.788-.57 1.227 0 .559.58.838 1.738.838Zm-51.433-7.486c-1.837 0-3.235-.859-4.193-2.576-.679.958-1.597 1.867-2.755 2.725-1.158.859-2.436 1.288-3.834 1.288-.878 0-1.407-.23-1.587-.689-.18-.459-.27-1.028-.27-1.707 0-.678.09-1.267.27-1.767.18-.499.709-.748 1.587-.748.918 0 1.707-.25 2.366-.75a10.771 10.771 0 0 0 1.767-1.676 48.86 48.86 0 0 1 1.468-1.677c.459-.5.968-.75 1.527-.75.559 0 .948.13 1.168.39.22.26.43.61.629 1.048.48 1.278 1.278 1.917 2.396 1.917.639 0 1.188-.19 1.647-.569.46-.38.879-.789 1.258-1.228.38-.439.749-.848 1.108-1.228.36-.379.759-.569 1.198-.569.44 0 .898.08 1.378.24.479.16.918.24 1.317.24.44 0 .68-.54.72-1.618.039-.559.039-1.098 0-1.617a19.56 19.56 0 0 1-.06-1.497c0-.36.159-.76.478-1.198.32-.44.819-.66 1.498-.66.559 0 .998.15 1.318.45.32.3.569.679.748 1.138.18.46.3.938.36 1.438.06.499.09.928.09 1.287 0 .56-.08 1.218-.24 1.977-.16.759-.4 1.497-.719 2.216a6.303 6.303 0 0 1-1.198 1.827 2.32 2.32 0 0 1-1.737.749c-.519 0-1.048-.07-1.587-.21-.54-.14-.909-.21-1.108-.21-.24 0-.54.21-.899.63-.36.419-.808.878-1.347 1.377a9.89 9.89 0 0 1-1.947 1.378c-.759.419-1.697.629-2.815.629ZM27.373 10.063c-.918 0-2.056.2-3.414.599a21.52 21.52 0 0 0-3.923 1.587c-1.258.659-2.336 1.398-3.235 2.216-.898.819-1.347 1.667-1.347 2.546v.06a24.34 24.34 0 0 1 2.096-.869 6.651 6.651 0 0 1 2.276-.389c1.677 0 2.915.41 3.714 1.228.799.819 1.198 1.867 1.198 3.145 0 1.677-.57 2.904-1.707 3.683-1.138.779-2.466 1.168-3.983 1.168-1.158 0-2.187-.21-3.085-.629a8.249 8.249 0 0 1-2.366-1.647 9.063 9.063 0 0 1-1.887.749c-.659.18-1.368.27-2.126.27-.879 0-1.408-.23-1.588-.69-.18-.459-.27-1.028-.27-1.706 0-.64.09-1.218.27-1.738.18-.519.71-.778 1.588-.778.718 0 1.337-.08 1.857-.24a2.94 2.94 0 0 1-.12-.808v-.81c0-1.157.32-2.255.958-3.293.639-1.039 1.468-2.007 2.486-2.905a20.008 20.008 0 0 1 3.444-2.426 31.365 31.365 0 0 1 3.803-1.827c1.258-.5 2.456-.889 3.594-1.168 1.138-.28 2.067-.42 2.786-.42 1.916 0 3.294.51 4.133 1.528.838 1.018 1.257 2.865 1.257 5.54.04 2.157.38 3.654 1.019 4.493.639.838 1.537 1.258 2.695 1.258v4.91c-1.557 0-2.835-.28-3.833-.838-.999-.56-1.777-1.308-2.336-2.247-.56-.938-.949-2.026-1.168-3.264a22.628 22.628 0 0 1-.33-3.953c0-.839-.22-1.438-.659-1.797-.439-.36-1.038-.54-1.797-.54Zm-8.026 9.583c-.32 0-.649.08-.988.24-.34.16-.71.36-1.108.599.678.559 1.397.839 2.156.839.2 0 .39-.07.569-.21.18-.14.27-.33.27-.57 0-.279-.09-.498-.27-.658a.917.917 0 0 0-.629-.24ZM9.644 23.78c-3.115 0-5.501-.838-7.158-2.515S0 16.93 0 13.297c0-1.757.08-3.444.24-5.061C.4 6.619.629 5.2.928 3.983c.3-1.218.68-2.186 1.138-2.905C2.526.36 3.055 0 3.654 0 4.572 0 5.19.24 5.51.719c.32.479.479 1.138.479 1.976 0 .72-.17 1.977-.51 3.774-.339 1.797-.508 3.913-.508 6.35 0 2.195.399 3.753 1.197 4.671.8.919 1.957 1.378 3.475 1.378v4.911Z"/>
</svg>